ISO-10303-21;
HEADER;
/* Generated by software containing ST-Developer
 * from STEP Tools, Inc. (www.steptools.com) 
 */

FILE_DESCRIPTION(
/* description */ (''),
/* implementation_level */ '2;1');

FILE_NAME(
/* name */ 'Frame_L3.step',
/* time_stamp */ '2026-09-16T03:12:30+09:00',
/* author */ (''),
/* organization */ (''),
/* preprocessor_version */ 'ST-DEVELOPER v20.2',
/* originating_system */ 'Autodesk Translation Framework v15.15.0.0',
/* authorisation */ '');

FILE_SCHEMA (('AUTOMOTIVE_DESIGN { 1 0 10303 214 3 1 1 }'));
ENDSEC;

DATA;
#10=MECHANICAL_DESIGN_GEOMETRIC_PRESENTATION_REPRESENTATION('',(#13),#359);
#11=SHAPE_REPRESENTATION_RELATIONSHIP('SRR','None',#366,#12);
#12=ADVANCED_BREP_SHAPE_REPRESENTATION('',(#14),#358);
#13=STYLED_ITEM('',(#375),#14);
#14=MANIFOLD_SOLID_BREP('Frame_L3',#203);
#15=FACE_BOUND('',#49,.T.);
#16=FACE_BOUND('',#50,.T.);
#17=FACE_BOUND('',#51,.T.);
#18=FACE_BOUND('',#52,.T.);
#19=FACE_BOUND('',#53,.T.);
#20=FACE_BOUND('',#54,.T.);
#21=FACE_BOUND('',#55,.T.);
#22=FACE_BOUND('',#58,.T.);
#23=FACE_BOUND('',#59,.T.);
#24=FACE_BOUND('',#60,.T.);
#25=FACE_BOUND('',#61,.T.);
#26=FACE_BOUND('',#62,.T.);
#27=FACE_BOUND('',#63,.T.);
#28=FACE_BOUND('',#64,.T.);
#29=PLANE('',#238);
#30=PLANE('',#242);
#31=FACE_OUTER_BOUND('',#41,.T.);
#32=FACE_OUTER_BOUND('',#42,.T.);
#33=FACE_OUTER_BOUND('',#43,.T.);
#34=FACE_OUTER_BOUND('',#44,.T.);
#35=FACE_OUTER_BOUND('',#45,.T.);
#36=FACE_OUTER_BOUND('',#46,.T.);
#37=FACE_OUTER_BOUND('',#47,.T.);
#38=FACE_OUTER_BOUND('',#48,.T.);
#39=FACE_OUTER_BOUND('',#56,.T.);
#40=FACE_OUTER_BOUND('',#57,.T.);
#41=EDGE_LOOP('',(#137,#138,#139,#140));
#42=EDGE_LOOP('',(#141,#142,#143,#144));
#43=EDGE_LOOP('',(#145,#146,#147,#148));
#44=EDGE_LOOP('',(#149,#150,#151,#152));
#45=EDGE_LOOP('',(#153,#154,#155,#156));
#46=EDGE_LOOP('',(#157,#158,#159,#160));
#47=EDGE_LOOP('',(#161,#162,#163,#164));
#48=EDGE_LOOP('',(#165));
#49=EDGE_LOOP('',(#166));
#50=EDGE_LOOP('',(#167));
#51=EDGE_LOOP('',(#168));
#52=EDGE_LOOP('',(#169));
#53=EDGE_LOOP('',(#170));
#54=EDGE_LOOP('',(#171));
#55=EDGE_LOOP('',(#172));
#56=EDGE_LOOP('',(#173,#174,#175,#176));
#57=EDGE_LOOP('',(#177));
#58=EDGE_LOOP('',(#178));
#59=EDGE_LOOP('',(#179));
#60=EDGE_LOOP('',(#180));
#61=EDGE_LOOP('',(#181));
#62=EDGE_LOOP('',(#182));
#63=EDGE_LOOP('',(#183));
#64=EDGE_LOOP('',(#184));
#65=LINE('',#310,#73);
#66=LINE('',#316,#74);
#67=LINE('',#322,#75);
#68=LINE('',#328,#76);
#69=LINE('',#334,#77);
#70=LINE('',#340,#78);
#71=LINE('',#346,#79);
#72=LINE('',#354,#80);
#73=VECTOR('',#249,0.225);
#74=VECTOR('',#256,0.225);
#75=VECTOR('',#263,0.225);
#76=VECTOR('',#270,0.225);
#77=VECTOR('',#277,0.225);
#78=VECTOR('',#284,0.225);
#79=VECTOR('',#291,1.);
#80=VECTOR('',#302,8.);
#81=CIRCLE('',#218,0.225);
#82=CIRCLE('',#219,0.225);
#83=CIRCLE('',#221,0.225);
#84=CIRCLE('',#222,0.225);
#85=CIRCLE('',#224,0.225);
#86=CIRCLE('',#225,0.225);
#87=CIRCLE('',#227,0.225);
#88=CIRCLE('',#228,0.225);
#89=CIRCLE('',#230,0.225);
#90=CIRCLE('',#231,0.225);
#91=CIRCLE('',#233,0.225);
#92=CIRCLE('',#234,0.225);
#93=CIRCLE('',#236,1.);
#94=CIRCLE('',#237,1.);
#95=CIRCLE('',#239,8.);
#96=CIRCLE('',#241,8.);
#97=VERTEX_POINT('',#307);
#98=VERTEX_POINT('',#309);
#99=VERTEX_POINT('',#313);
#100=VERTEX_POINT('',#315);
#101=VERTEX_POINT('',#319);
#102=VERTEX_POINT('',#321);
#103=VERTEX_POINT('',#325);
#104=VERTEX_POINT('',#327);
#105=VERTEX_POINT('',#331);
#106=VERTEX_POINT('',#333);
#107=VERTEX_POINT('',#337);
#108=VERTEX_POINT('',#339);
#109=VERTEX_POINT('',#343);
#110=VERTEX_POINT('',#345);
#111=VERTEX_POINT('',#349);
#112=VERTEX_POINT('',#352);
#113=EDGE_CURVE('',#97,#97,#81,.T.);
#114=EDGE_CURVE('',#97,#98,#65,.T.);
#115=EDGE_CURVE('',#98,#98,#82,.T.);
#116=EDGE_CURVE('',#99,#99,#83,.T.);
#117=EDGE_CURVE('',#99,#100,#66,.T.);
#118=EDGE_CURVE('',#100,#100,#84,.T.);
#119=EDGE_CURVE('',#101,#101,#85,.T.);
#120=EDGE_CURVE('',#101,#102,#67,.T.);
#121=EDGE_CURVE('',#102,#102,#86,.T.);
#122=EDGE_CURVE('',#103,#103,#87,.T.);
#123=EDGE_CURVE('',#103,#104,#68,.T.);
#124=EDGE_CURVE('',#104,#104,#88,.T.);
#125=EDGE_CURVE('',#105,#105,#89,.T.);
#126=EDGE_CURVE('',#105,#106,#69,.T.);
#127=EDGE_CURVE('',#106,#106,#90,.T.);
#128=EDGE_CURVE('',#107,#107,#91,.T.);
#129=EDGE_CURVE('',#107,#108,#70,.T.);
#130=EDGE_CURVE('',#108,#108,#92,.T.);
#131=EDGE_CURVE('',#109,#109,#93,.T.);
#132=EDGE_CURVE('',#109,#110,#71,.T.);
#133=EDGE_CURVE('',#110,#110,#94,.T.);
#134=EDGE_CURVE('',#111,#111,#95,.T.);
#135=EDGE_CURVE('',#112,#112,#96,.T.);
#136=EDGE_CURVE('',#112,#111,#72,.T.);
#137=ORIENTED_EDGE('',*,*,#113,.F.);
#138=ORIENTED_EDGE('',*,*,#114,.T.);
#139=ORIENTED_EDGE('',*,*,#115,.F.);
#140=ORIENTED_EDGE('',*,*,#114,.F.);
#141=ORIENTED_EDGE('',*,*,#116,.F.);
#142=ORIENTED_EDGE('',*,*,#117,.T.);
#143=ORIENTED_EDGE('',*,*,#118,.F.);
#144=ORIENTED_EDGE('',*,*,#117,.F.);
#145=ORIENTED_EDGE('',*,*,#119,.F.);
#146=ORIENTED_EDGE('',*,*,#120,.T.);
#147=ORIENTED_EDGE('',*,*,#121,.F.);
#148=ORIENTED_EDGE('',*,*,#120,.F.);
#149=ORIENTED_EDGE('',*,*,#122,.F.);
#150=ORIENTED_EDGE('',*,*,#123,.T.);
#151=ORIENTED_EDGE('',*,*,#124,.F.);
#152=ORIENTED_EDGE('',*,*,#123,.F.);
#153=ORIENTED_EDGE('',*,*,#125,.F.);
#154=ORIENTED_EDGE('',*,*,#126,.T.);
#155=ORIENTED_EDGE('',*,*,#127,.F.);
#156=ORIENTED_EDGE('',*,*,#126,.F.);
#157=ORIENTED_EDGE('',*,*,#128,.F.);
#158=ORIENTED_EDGE('',*,*,#129,.T.);
#159=ORIENTED_EDGE('',*,*,#130,.F.);
#160=ORIENTED_EDGE('',*,*,#129,.F.);
#161=ORIENTED_EDGE('',*,*,#131,.F.);
#162=ORIENTED_EDGE('',*,*,#132,.T.);
#163=ORIENTED_EDGE('',*,*,#133,.F.);
#164=ORIENTED_EDGE('',*,*,#132,.F.);
#165=ORIENTED_EDGE('',*,*,#134,.T.);
#166=ORIENTED_EDGE('',*,*,#131,.T.);
#167=ORIENTED_EDGE('',*,*,#128,.T.);
#168=ORIENTED_EDGE('',*,*,#125,.T.);
#169=ORIENTED_EDGE('',*,*,#122,.T.);
#170=ORIENTED_EDGE('',*,*,#119,.T.);
#171=ORIENTED_EDGE('',*,*,#116,.T.);
#172=ORIENTED_EDGE('',*,*,#113,.T.);
#173=ORIENTED_EDGE('',*,*,#135,.F.);
#174=ORIENTED_EDGE('',*,*,#136,.T.);
#175=ORIENTED_EDGE('',*,*,#134,.F.);
#176=ORIENTED_EDGE('',*,*,#136,.F.);
#177=ORIENTED_EDGE('',*,*,#135,.T.);
#178=ORIENTED_EDGE('',*,*,#133,.T.);
#179=ORIENTED_EDGE('',*,*,#130,.T.);
#180=ORIENTED_EDGE('',*,*,#127,.T.);
#181=ORIENTED_EDGE('',*,*,#124,.T.);
#182=ORIENTED_EDGE('',*,*,#121,.T.);
#183=ORIENTED_EDGE('',*,*,#118,.T.);
#184=ORIENTED_EDGE('',*,*,#115,.T.);
#185=CYLINDRICAL_SURFACE('',#217,0.225);
#186=CYLINDRICAL_SURFACE('',#220,0.225);
#187=CYLINDRICAL_SURFACE('',#223,0.225);
#188=CYLINDRICAL_SURFACE('',#226,0.225);
#189=CYLINDRICAL_SURFACE('',#229,0.225);
#190=CYLINDRICAL_SURFACE('',#232,0.225);
#191=CYLINDRICAL_SURFACE('',#235,1.);
#192=CYLINDRICAL_SURFACE('',#240,8.);
#193=ADVANCED_FACE('',(#31),#185,.F.);
#194=ADVANCED_FACE('',(#32),#186,.F.);
#195=ADVANCED_FACE('',(#33),#187,.F.);
#196=ADVANCED_FACE('',(#34),#188,.F.);
#197=ADVANCED_FACE('',(#35),#189,.F.);
#198=ADVANCED_FACE('',(#36),#190,.F.);
#199=ADVANCED_FACE('',(#37),#191,.F.);
#200=ADVANCED_FACE('',(#38,#15,#16,#17,#18,#19,#20,#21),#29,.F.);
#201=ADVANCED_FACE('',(#39),#192,.T.);
#202=ADVANCED_FACE('',(#40,#22,#23,#24,#25,#26,#27,#28),#30,.T.);
#203=CLOSED_SHELL('',(#193,#194,#195,#196,#197,#198,#199,#200,#201,#202));
#204=DERIVED_UNIT_ELEMENT(#206,1.);
#205=DERIVED_UNIT_ELEMENT(#361,-3.);
#206=(
MASS_UNIT()
NAMED_UNIT(*)
SI_UNIT(.KILO.,.GRAM.)
);
#207=DERIVED_UNIT((#204,#205));
#208=MEASURE_REPRESENTATION_ITEM('density measure',
POSITIVE_RATIO_MEASURE(7850.),#207);
#209=PROPERTY_DEFINITION_REPRESENTATION(#214,#211);
#210=PROPERTY_DEFINITION_REPRESENTATION(#215,#212);
#211=REPRESENTATION('material name',(#213),#358);
#212=REPRESENTATION('density',(#208),#358);
#213=DESCRIPTIVE_REPRESENTATION_ITEM('\X2\92FC\X0\','\X2\92FC\X0\');
#214=PROPERTY_DEFINITION('material property','material name',#368);
#215=PROPERTY_DEFINITION('material property','density of part',#368);
#216=AXIS2_PLACEMENT_3D('',#305,#243,#244);
#217=AXIS2_PLACEMENT_3D('',#306,#245,#246);
#218=AXIS2_PLACEMENT_3D('',#308,#247,#248);
#219=AXIS2_PLACEMENT_3D('',#311,#250,#251);
#220=AXIS2_PLACEMENT_3D('',#312,#252,#253);
#221=AXIS2_PLACEMENT_3D('',#314,#254,#255);
#222=AXIS2_PLACEMENT_3D('',#317,#257,#258);
#223=AXIS2_PLACEMENT_3D('',#318,#259,#260);
#224=AXIS2_PLACEMENT_3D('',#320,#261,#262);
#225=AXIS2_PLACEMENT_3D('',#323,#264,#265);
#226=AXIS2_PLACEMENT_3D('',#324,#266,#267);
#227=AXIS2_PLACEMENT_3D('',#326,#268,#269);
#228=AXIS2_PLACEMENT_3D('',#329,#271,#272);
#229=AXIS2_PLACEMENT_3D('',#330,#273,#274);
#230=AXIS2_PLACEMENT_3D('',#332,#275,#276);
#231=AXIS2_PLACEMENT_3D('',#335,#278,#279);
#232=AXIS2_PLACEMENT_3D('',#336,#280,#281);
#233=AXIS2_PLACEMENT_3D('',#338,#282,#283);
#234=AXIS2_PLACEMENT_3D('',#341,#285,#286);
#235=AXIS2_PLACEMENT_3D('',#342,#287,#288);
#236=AXIS2_PLACEMENT_3D('',#344,#289,#290);
#237=AXIS2_PLACEMENT_3D('',#347,#292,#293);
#238=AXIS2_PLACEMENT_3D('',#348,#294,#295);
#239=AXIS2_PLACEMENT_3D('',#350,#296,#297);
#240=AXIS2_PLACEMENT_3D('',#351,#298,#299);
#241=AXIS2_PLACEMENT_3D('',#353,#300,#301);
#242=AXIS2_PLACEMENT_3D('',#355,#303,#304);
#243=DIRECTION('axis',(0.,0.,1.));
#244=DIRECTION('refdir',(1.,0.,0.));
#245=DIRECTION('center_axis',(0.,0.,1.));
#246=DIRECTION('ref_axis',(1.,0.,0.));
#247=DIRECTION('center_axis',(0.,0.,1.));
#248=DIRECTION('ref_axis',(1.,0.,0.));
#249=DIRECTION('',(0.,0.,1.));
#250=DIRECTION('center_axis',(0.,0.,-1.));
#251=DIRECTION('ref_axis',(1.,0.,0.));
#252=DIRECTION('center_axis',(0.,0.,1.));
#253=DIRECTION('ref_axis',(1.,0.,0.));
#254=DIRECTION('center_axis',(0.,0.,1.));
#255=DIRECTION('ref_axis',(1.,0.,0.));
#256=DIRECTION('',(0.,0.,1.));
#257=DIRECTION('center_axis',(0.,0.,-1.));
#258=DIRECTION('ref_axis',(1.,0.,0.));
#259=DIRECTION('center_axis',(0.,0.,1.));
#260=DIRECTION('ref_axis',(1.,0.,0.));
#261=DIRECTION('center_axis',(0.,0.,1.));
#262=DIRECTION('ref_axis',(1.,0.,0.));
#263=DIRECTION('',(0.,0.,1.));
#264=DIRECTION('center_axis',(0.,0.,-1.));
#265=DIRECTION('ref_axis',(1.,0.,0.));
#266=DIRECTION('center_axis',(0.,0.,1.));
#267=DIRECTION('ref_axis',(1.,0.,0.));
#268=DIRECTION('center_axis',(0.,0.,1.));
#269=DIRECTION('ref_axis',(1.,0.,0.));
#270=DIRECTION('',(0.,0.,1.));
#271=DIRECTION('center_axis',(0.,0.,-1.));
#272=DIRECTION('ref_axis',(1.,0.,0.));
#273=DIRECTION('center_axis',(0.,0.,1.));
#274=DIRECTION('ref_axis',(1.,0.,0.));
#275=DIRECTION('center_axis',(0.,0.,1.));
#276=DIRECTION('ref_axis',(1.,0.,0.));
#277=DIRECTION('',(0.,0.,1.));
#278=DIRECTION('center_axis',(0.,0.,-1.));
#279=DIRECTION('ref_axis',(1.,0.,0.));
#280=DIRECTION('center_axis',(0.,0.,1.));
#281=DIRECTION('ref_axis',(1.,0.,0.));
#282=DIRECTION('center_axis',(0.,0.,1.));
#283=DIRECTION('ref_axis',(1.,0.,0.));
#284=DIRECTION('',(0.,0.,1.));
#285=DIRECTION('center_axis',(0.,0.,-1.));
#286=DIRECTION('ref_axis',(1.,0.,0.));
#287=DIRECTION('center_axis',(0.,0.,1.));
#288=DIRECTION('ref_axis',(1.,0.,0.));
#289=DIRECTION('center_axis',(0.,0.,1.));
#290=DIRECTION('ref_axis',(1.,0.,0.));
#291=DIRECTION('',(0.,0.,1.));
#292=DIRECTION('center_axis',(0.,0.,-1.));
#293=DIRECTION('ref_axis',(1.,0.,0.));
#294=DIRECTION('center_axis',(0.,0.,1.));
#295=DIRECTION('ref_axis',(1.,0.,0.));
#296=DIRECTION('center_axis',(0.,0.,-1.));
#297=DIRECTION('ref_axis',(1.,0.,0.));
#298=DIRECTION('center_axis',(0.,0.,1.));
#299=DIRECTION('ref_axis',(1.,0.,0.));
#300=DIRECTION('center_axis',(0.,0.,1.));
#301=DIRECTION('ref_axis',(1.,0.,0.));
#302=DIRECTION('',(0.,0.,-1.));
#303=DIRECTION('center_axis',(0.,0.,1.));
#304=DIRECTION('ref_axis',(1.,0.,0.));
#305=CARTESIAN_POINT('',(0.,0.,0.));
#306=CARTESIAN_POINT('Origin',(5.62916512459885,-3.25,25.45));
#307=CARTESIAN_POINT('',(5.40416512459885,-3.25,25.3));
#308=CARTESIAN_POINT('Origin',(5.62916512459885,-3.25,25.3));
#309=CARTESIAN_POINT('',(5.40416512459885,-3.25,25.6));
#310=CARTESIAN_POINT('',(5.40416512459885,-3.25,25.45));
#311=CARTESIAN_POINT('Origin',(5.62916512459885,-3.25,25.6));
#312=CARTESIAN_POINT('Origin',(5.62916512459885,3.25,25.45));
#313=CARTESIAN_POINT('',(5.40416512459885,3.25,25.3));
#314=CARTESIAN_POINT('Origin',(5.62916512459885,3.25,25.3));
#315=CARTESIAN_POINT('',(5.40416512459885,3.25,25.6));
#316=CARTESIAN_POINT('',(5.40416512459885,3.25,25.45));
#317=CARTESIAN_POINT('Origin',(5.62916512459885,3.25,25.6));
#318=CARTESIAN_POINT('Origin',(-5.62916512459885,3.25,25.45));
#319=CARTESIAN_POINT('',(-5.85416512459885,3.25,25.3));
#320=CARTESIAN_POINT('Origin',(-5.62916512459885,3.25,25.3));
#321=CARTESIAN_POINT('',(-5.85416512459885,3.25,25.6));
#322=CARTESIAN_POINT('',(-5.85416512459885,3.25,25.45));
#323=CARTESIAN_POINT('Origin',(-5.62916512459885,3.25,25.6));
#324=CARTESIAN_POINT('Origin',(3.9801020972289E-16,6.5,25.45));
#325=CARTESIAN_POINT('',(-0.225,6.5,25.3));
#326=CARTESIAN_POINT('Origin',(3.9801020972289E-16,6.5,25.3));
#327=CARTESIAN_POINT('',(-0.225,6.5,25.6));
#328=CARTESIAN_POINT('',(-0.225,6.5,25.45));
#329=CARTESIAN_POINT('Origin',(3.9801020972289E-16,6.5,25.6));
#330=CARTESIAN_POINT('Origin',(-5.62916512459885,-3.25,25.45));
#331=CARTESIAN_POINT('',(-5.85416512459885,-3.25,25.3));
#332=CARTESIAN_POINT('Origin',(-5.62916512459885,-3.25,25.3));
#333=CARTESIAN_POINT('',(-5.85416512459885,-3.25,25.6));
#334=CARTESIAN_POINT('',(-5.85416512459885,-3.25,25.45));
#335=CARTESIAN_POINT('Origin',(-5.62916512459885,-3.25,25.6));
#336=CARTESIAN_POINT('Origin',(-1.19403062916867E-15,-6.5,25.45));
#337=CARTESIAN_POINT('',(-0.225000000000001,-6.5,25.3));
#338=CARTESIAN_POINT('Origin',(-1.19403062916867E-15,-6.5,25.3));
#339=CARTESIAN_POINT('',(-0.225000000000001,-6.5,25.6));
#340=CARTESIAN_POINT('',(-0.225000000000001,-6.5,25.45));
#341=CARTESIAN_POINT('Origin',(-1.19403062916867E-15,-6.5,25.6));
#342=CARTESIAN_POINT('Origin',(0.,0.,25.45));
#343=CARTESIAN_POINT('',(-1.,-1.22464679914735E-16,25.3));
#344=CARTESIAN_POINT('Origin',(0.,0.,25.3));
#345=CARTESIAN_POINT('',(-1.,1.22464679914735E-16,25.6));
#346=CARTESIAN_POINT('',(-1.,-1.22464679914735E-16,25.45));
#347=CARTESIAN_POINT('Origin',(0.,0.,25.6));
#348=CARTESIAN_POINT('Origin',(0.,0.,25.3));
#349=CARTESIAN_POINT('',(-8.,-9.79717439317883E-16,25.3));
#350=CARTESIAN_POINT('Origin',(0.,0.,25.3));
#351=CARTESIAN_POINT('Origin',(0.,0.,25.45));
#352=CARTESIAN_POINT('',(-8.,-9.79717439317883E-16,25.6));
#353=CARTESIAN_POINT('Origin',(0.,0.,25.6));
#354=CARTESIAN_POINT('',(-8.,-9.79717439317883E-16,25.45));
#355=CARTESIAN_POINT('Origin',(0.,0.,25.6));
#356=UNCERTAINTY_MEASURE_WITH_UNIT(LENGTH_MEASURE(0.001),#360,
'DISTANCE_ACCURACY_VALUE',
'Maximum model space distance between geometric entities at asserted c
onnectivities');
#357=UNCERTAINTY_MEASURE_WITH_UNIT(LENGTH_MEASURE(0.001),#360,
'DISTANCE_ACCURACY_VALUE',
'Maximum model space distance between geometric entities at asserted c
onnectivities');
#358=(
GEOMETRIC_REPRESENTATION_CONTEXT(3)
GLOBAL_UNCERTAINTY_ASSIGNED_CONTEXT((#356))
GLOBAL_UNIT_ASSIGNED_CONTEXT((#360,#362,#363))
REPRESENTATION_CONTEXT('','3D')
);
#359=(
GEOMETRIC_REPRESENTATION_CONTEXT(3)
GLOBAL_UNCERTAINTY_ASSIGNED_CONTEXT((#357))
GLOBAL_UNIT_ASSIGNED_CONTEXT((#360,#362,#363))
REPRESENTATION_CONTEXT('','3D')
);
#360=(
LENGTH_UNIT()
NAMED_UNIT(*)
SI_UNIT(.CENTI.,.METRE.)
);
#361=(
LENGTH_UNIT()
NAMED_UNIT(*)
SI_UNIT($,.METRE.)
);
#362=(
NAMED_UNIT(*)
PLANE_ANGLE_UNIT()
SI_UNIT($,.RADIAN.)
);
#363=(
NAMED_UNIT(*)
SI_UNIT($,.STERADIAN.)
SOLID_ANGLE_UNIT()
);
#364=SHAPE_DEFINITION_REPRESENTATION(#365,#366);
#365=PRODUCT_DEFINITION_SHAPE('',$,#368);
#366=SHAPE_REPRESENTATION('',(#216),#358);
#367=PRODUCT_DEFINITION_CONTEXT('part definition',#372,'design');
#368=PRODUCT_DEFINITION('2026-09-16-03-12-30-570','Frame_L3',#369,#367);
#369=PRODUCT_DEFINITION_FORMATION('',$,#374);
#370=PRODUCT_RELATED_PRODUCT_CATEGORY('Frame_L3','Frame_L3',(#374));
#371=APPLICATION_PROTOCOL_DEFINITION('international standard',
'automotive_design',2009,#372);
#372=APPLICATION_CONTEXT(
'Core Data for Automotive Mechanical Design Process');
#373=PRODUCT_CONTEXT('part definition',#372,'mechanical');
#374=PRODUCT('2026-09-16-03-12-30-570','Frame_L3',$,(#373));
#375=PRESENTATION_STYLE_ASSIGNMENT((#376));
#376=SURFACE_STYLE_USAGE(.BOTH.,#377);
#377=SURFACE_SIDE_STYLE('',(#378));
#378=SURFACE_STYLE_FILL_AREA(#379);
#379=FILL_AREA_STYLE('\X2\92FC\X0\ - \X2\30B530C630F3\X0\',(#380));
#380=FILL_AREA_STYLE_COLOUR('\X2\92FC\X0\ - \X2\30B530C630F3\X0\',#381);
#381=COLOUR_RGB('\X2\92FC\X0\ - \X2\30B530C630F3\X0\',0.627450980392157,
0.627450980392157,0.627450980392157);
ENDSEC;
END-ISO-10303-21;
