ISO-10303-21;
HEADER;
/* Generated by software containing ST-Developer
 * from STEP Tools, Inc. (www.steptools.com) 
 */

FILE_DESCRIPTION(
/* description */ (''),
/* implementation_level */ '2;1');

FILE_NAME(
/* name */ 'Frame_L1.step',
/* time_stamp */ '2026-09-15T08:15:19+09:00',
/* author */ (''),
/* organization */ (''),
/* preprocessor_version */ 'ST-DEVELOPER v20.2',
/* originating_system */ 'Autodesk Translation Framework v15.15.0.0',
/* authorisation */ '');

FILE_SCHEMA (('AUTOMOTIVE_DESIGN { 1 0 10303 214 3 1 1 }'));
ENDSEC;

DATA;
#10=MECHANICAL_DESIGN_GEOMETRIC_PRESENTATION_REPRESENTATION('',(#13),#827);
#11=SHAPE_REPRESENTATION_RELATIONSHIP('SRR','None',#834,#12);
#12=ADVANCED_BREP_SHAPE_REPRESENTATION('',(#14),#826);
#13=STYLED_ITEM('',(#843),#14);
#14=MANIFOLD_SOLID_BREP('Frame_L1',#479);
#15=FACE_BOUND('',#97,.T.);
#16=FACE_BOUND('',#98,.T.);
#17=FACE_BOUND('',#99,.T.);
#18=FACE_BOUND('',#100,.T.);
#19=FACE_BOUND('',#101,.T.);
#20=FACE_BOUND('',#102,.T.);
#21=FACE_BOUND('',#103,.T.);
#22=FACE_BOUND('',#104,.T.);
#23=FACE_BOUND('',#105,.T.);
#24=FACE_BOUND('',#106,.T.);
#25=FACE_BOUND('',#107,.T.);
#26=FACE_BOUND('',#108,.T.);
#27=FACE_BOUND('',#109,.T.);
#28=FACE_BOUND('',#110,.T.);
#29=FACE_BOUND('',#111,.T.);
#30=FACE_BOUND('',#112,.T.);
#31=FACE_BOUND('',#113,.T.);
#32=FACE_BOUND('',#114,.T.);
#33=FACE_BOUND('',#115,.T.);
#34=FACE_BOUND('',#118,.T.);
#35=FACE_BOUND('',#119,.T.);
#36=FACE_BOUND('',#120,.T.);
#37=FACE_BOUND('',#121,.T.);
#38=FACE_BOUND('',#122,.T.);
#39=FACE_BOUND('',#123,.T.);
#40=FACE_BOUND('',#124,.T.);
#41=FACE_BOUND('',#125,.T.);
#42=FACE_BOUND('',#126,.T.);
#43=FACE_BOUND('',#127,.T.);
#44=FACE_BOUND('',#128,.T.);
#45=FACE_BOUND('',#129,.T.);
#46=FACE_BOUND('',#130,.T.);
#47=FACE_BOUND('',#131,.T.);
#48=FACE_BOUND('',#132,.T.);
#49=FACE_BOUND('',#133,.T.);
#50=FACE_BOUND('',#134,.T.);
#51=FACE_BOUND('',#135,.T.);
#52=FACE_BOUND('',#136,.T.);
#53=PLANE('',#550);
#54=PLANE('',#554);
#55=FACE_OUTER_BOUND('',#77,.T.);
#56=FACE_OUTER_BOUND('',#78,.T.);
#57=FACE_OUTER_BOUND('',#79,.T.);
#58=FACE_OUTER_BOUND('',#80,.T.);
#59=FACE_OUTER_BOUND('',#81,.T.);
#60=FACE_OUTER_BOUND('',#82,.T.);
#61=FACE_OUTER_BOUND('',#83,.T.);
#62=FACE_OUTER_BOUND('',#84,.T.);
#63=FACE_OUTER_BOUND('',#85,.T.);
#64=FACE_OUTER_BOUND('',#86,.T.);
#65=FACE_OUTER_BOUND('',#87,.T.);
#66=FACE_OUTER_BOUND('',#88,.T.);
#67=FACE_OUTER_BOUND('',#89,.T.);
#68=FACE_OUTER_BOUND('',#90,.T.);
#69=FACE_OUTER_BOUND('',#91,.T.);
#70=FACE_OUTER_BOUND('',#92,.T.);
#71=FACE_OUTER_BOUND('',#93,.T.);
#72=FACE_OUTER_BOUND('',#94,.T.);
#73=FACE_OUTER_BOUND('',#95,.T.);
#74=FACE_OUTER_BOUND('',#96,.T.);
#75=FACE_OUTER_BOUND('',#116,.T.);
#76=FACE_OUTER_BOUND('',#117,.T.);
#77=EDGE_LOOP('',(#317,#318,#319,#320));
#78=EDGE_LOOP('',(#321,#322,#323,#324));
#79=EDGE_LOOP('',(#325,#326,#327,#328));
#80=EDGE_LOOP('',(#329,#330,#331,#332));
#81=EDGE_LOOP('',(#333,#334,#335,#336));
#82=EDGE_LOOP('',(#337,#338,#339,#340));
#83=EDGE_LOOP('',(#341,#342,#343,#344));
#84=EDGE_LOOP('',(#345,#346,#347,#348));
#85=EDGE_LOOP('',(#349,#350,#351,#352));
#86=EDGE_LOOP('',(#353,#354,#355,#356));
#87=EDGE_LOOP('',(#357,#358,#359,#360));
#88=EDGE_LOOP('',(#361,#362,#363,#364));
#89=EDGE_LOOP('',(#365,#366,#367,#368));
#90=EDGE_LOOP('',(#369,#370,#371,#372));
#91=EDGE_LOOP('',(#373,#374,#375,#376));
#92=EDGE_LOOP('',(#377,#378,#379,#380));
#93=EDGE_LOOP('',(#381,#382,#383,#384));
#94=EDGE_LOOP('',(#385,#386,#387,#388));
#95=EDGE_LOOP('',(#389,#390,#391,#392));
#96=EDGE_LOOP('',(#393));
#97=EDGE_LOOP('',(#394));
#98=EDGE_LOOP('',(#395));
#99=EDGE_LOOP('',(#396));
#100=EDGE_LOOP('',(#397));
#101=EDGE_LOOP('',(#398));
#102=EDGE_LOOP('',(#399));
#103=EDGE_LOOP('',(#400));
#104=EDGE_LOOP('',(#401));
#105=EDGE_LOOP('',(#402));
#106=EDGE_LOOP('',(#403));
#107=EDGE_LOOP('',(#404));
#108=EDGE_LOOP('',(#405));
#109=EDGE_LOOP('',(#406));
#110=EDGE_LOOP('',(#407));
#111=EDGE_LOOP('',(#408));
#112=EDGE_LOOP('',(#409));
#113=EDGE_LOOP('',(#410));
#114=EDGE_LOOP('',(#411));
#115=EDGE_LOOP('',(#412));
#116=EDGE_LOOP('',(#413,#414,#415,#416));
#117=EDGE_LOOP('',(#417));
#118=EDGE_LOOP('',(#418));
#119=EDGE_LOOP('',(#419));
#120=EDGE_LOOP('',(#420));
#121=EDGE_LOOP('',(#421));
#122=EDGE_LOOP('',(#422));
#123=EDGE_LOOP('',(#423));
#124=EDGE_LOOP('',(#424));
#125=EDGE_LOOP('',(#425));
#126=EDGE_LOOP('',(#426));
#127=EDGE_LOOP('',(#427));
#128=EDGE_LOOP('',(#428));
#129=EDGE_LOOP('',(#429));
#130=EDGE_LOOP('',(#430));
#131=EDGE_LOOP('',(#431));
#132=EDGE_LOOP('',(#432));
#133=EDGE_LOOP('',(#433));
#134=EDGE_LOOP('',(#434));
#135=EDGE_LOOP('',(#435));
#136=EDGE_LOOP('',(#436));
#137=LINE('',#706,#157);
#138=LINE('',#712,#158);
#139=LINE('',#718,#159);
#140=LINE('',#724,#160);
#141=LINE('',#730,#161);
#142=LINE('',#736,#162);
#143=LINE('',#742,#163);
#144=LINE('',#748,#164);
#145=LINE('',#754,#165);
#146=LINE('',#760,#166);
#147=LINE('',#766,#167);
#148=LINE('',#772,#168);
#149=LINE('',#778,#169);
#150=LINE('',#784,#170);
#151=LINE('',#790,#171);
#152=LINE('',#796,#172);
#153=LINE('',#802,#173);
#154=LINE('',#808,#174);
#155=LINE('',#814,#175);
#156=LINE('',#822,#176);
#157=VECTOR('',#561,0.225);
#158=VECTOR('',#568,0.225);
#159=VECTOR('',#575,0.225);
#160=VECTOR('',#582,0.225);
#161=VECTOR('',#589,0.225);
#162=VECTOR('',#596,0.225);
#163=VECTOR('',#603,0.225);
#164=VECTOR('',#610,0.225);
#165=VECTOR('',#617,0.225);
#166=VECTOR('',#624,0.225);
#167=VECTOR('',#631,0.225);
#168=VECTOR('',#638,0.225);
#169=VECTOR('',#645,0.225);
#170=VECTOR('',#652,0.225);
#171=VECTOR('',#659,0.225);
#172=VECTOR('',#666,0.225);
#173=VECTOR('',#673,0.225);
#174=VECTOR('',#680,0.225);
#175=VECTOR('',#687,1.);
#176=VECTOR('',#698,8.);
#177=CIRCLE('',#494,0.225);
#178=CIRCLE('',#495,0.225);
#179=CIRCLE('',#497,0.225);
#180=CIRCLE('',#498,0.225);
#181=CIRCLE('',#500,0.225);
#182=CIRCLE('',#501,0.225);
#183=CIRCLE('',#503,0.225);
#184=CIRCLE('',#504,0.225);
#185=CIRCLE('',#506,0.225);
#186=CIRCLE('',#507,0.225);
#187=CIRCLE('',#509,0.225);
#188=CIRCLE('',#510,0.225);
#189=CIRCLE('',#512,0.225);
#190=CIRCLE('',#513,0.225);
#191=CIRCLE('',#515,0.225);
#192=CIRCLE('',#516,0.225);
#193=CIRCLE('',#518,0.225);
#194=CIRCLE('',#519,0.225);
#195=CIRCLE('',#521,0.225);
#196=CIRCLE('',#522,0.225);
#197=CIRCLE('',#524,0.225);
#198=CIRCLE('',#525,0.225);
#199=CIRCLE('',#527,0.225);
#200=CIRCLE('',#528,0.225);
#201=CIRCLE('',#530,0.225);
#202=CIRCLE('',#531,0.225);
#203=CIRCLE('',#533,0.225);
#204=CIRCLE('',#534,0.225);
#205=CIRCLE('',#536,0.225);
#206=CIRCLE('',#537,0.225);
#207=CIRCLE('',#539,0.225);
#208=CIRCLE('',#540,0.225);
#209=CIRCLE('',#542,0.225);
#210=CIRCLE('',#543,0.225);
#211=CIRCLE('',#545,0.225);
#212=CIRCLE('',#546,0.225);
#213=CIRCLE('',#548,1.);
#214=CIRCLE('',#549,1.);
#215=CIRCLE('',#551,8.);
#216=CIRCLE('',#553,8.);
#217=VERTEX_POINT('',#703);
#218=VERTEX_POINT('',#705);
#219=VERTEX_POINT('',#709);
#220=VERTEX_POINT('',#711);
#221=VERTEX_POINT('',#715);
#222=VERTEX_POINT('',#717);
#223=VERTEX_POINT('',#721);
#224=VERTEX_POINT('',#723);
#225=VERTEX_POINT('',#727);
#226=VERTEX_POINT('',#729);
#227=VERTEX_POINT('',#733);
#228=VERTEX_POINT('',#735);
#229=VERTEX_POINT('',#739);
#230=VERTEX_POINT('',#741);
#231=VERTEX_POINT('',#745);
#232=VERTEX_POINT('',#747);
#233=VERTEX_POINT('',#751);
#234=VERTEX_POINT('',#753);
#235=VERTEX_POINT('',#757);
#236=VERTEX_POINT('',#759);
#237=VERTEX_POINT('',#763);
#238=VERTEX_POINT('',#765);
#239=VERTEX_POINT('',#769);
#240=VERTEX_POINT('',#771);
#241=VERTEX_POINT('',#775);
#242=VERTEX_POINT('',#777);
#243=VERTEX_POINT('',#781);
#244=VERTEX_POINT('',#783);
#245=VERTEX_POINT('',#787);
#246=VERTEX_POINT('',#789);
#247=VERTEX_POINT('',#793);
#248=VERTEX_POINT('',#795);
#249=VERTEX_POINT('',#799);
#250=VERTEX_POINT('',#801);
#251=VERTEX_POINT('',#805);
#252=VERTEX_POINT('',#807);
#253=VERTEX_POINT('',#811);
#254=VERTEX_POINT('',#813);
#255=VERTEX_POINT('',#817);
#256=VERTEX_POINT('',#820);
#257=EDGE_CURVE('',#217,#217,#177,.T.);
#258=EDGE_CURVE('',#217,#218,#137,.T.);
#259=EDGE_CURVE('',#218,#218,#178,.T.);
#260=EDGE_CURVE('',#219,#219,#179,.T.);
#261=EDGE_CURVE('',#219,#220,#138,.T.);
#262=EDGE_CURVE('',#220,#220,#180,.T.);
#263=EDGE_CURVE('',#221,#221,#181,.T.);
#264=EDGE_CURVE('',#221,#222,#139,.T.);
#265=EDGE_CURVE('',#222,#222,#182,.T.);
#266=EDGE_CURVE('',#223,#223,#183,.T.);
#267=EDGE_CURVE('',#223,#224,#140,.T.);
#268=EDGE_CURVE('',#224,#224,#184,.T.);
#269=EDGE_CURVE('',#225,#225,#185,.T.);
#270=EDGE_CURVE('',#225,#226,#141,.T.);
#271=EDGE_CURVE('',#226,#226,#186,.T.);
#272=EDGE_CURVE('',#227,#227,#187,.T.);
#273=EDGE_CURVE('',#227,#228,#142,.T.);
#274=EDGE_CURVE('',#228,#228,#188,.T.);
#275=EDGE_CURVE('',#229,#229,#189,.T.);
#276=EDGE_CURVE('',#229,#230,#143,.T.);
#277=EDGE_CURVE('',#230,#230,#190,.T.);
#278=EDGE_CURVE('',#231,#231,#191,.T.);
#279=EDGE_CURVE('',#231,#232,#144,.T.);
#280=EDGE_CURVE('',#232,#232,#192,.T.);
#281=EDGE_CURVE('',#233,#233,#193,.T.);
#282=EDGE_CURVE('',#233,#234,#145,.T.);
#283=EDGE_CURVE('',#234,#234,#194,.T.);
#284=EDGE_CURVE('',#235,#235,#195,.T.);
#285=EDGE_CURVE('',#235,#236,#146,.T.);
#286=EDGE_CURVE('',#236,#236,#196,.T.);
#287=EDGE_CURVE('',#237,#237,#197,.T.);
#288=EDGE_CURVE('',#237,#238,#147,.T.);
#289=EDGE_CURVE('',#238,#238,#198,.T.);
#290=EDGE_CURVE('',#239,#239,#199,.T.);
#291=EDGE_CURVE('',#239,#240,#148,.T.);
#292=EDGE_CURVE('',#240,#240,#200,.T.);
#293=EDGE_CURVE('',#241,#241,#201,.T.);
#294=EDGE_CURVE('',#241,#242,#149,.T.);
#295=EDGE_CURVE('',#242,#242,#202,.T.);
#296=EDGE_CURVE('',#243,#243,#203,.T.);
#297=EDGE_CURVE('',#243,#244,#150,.T.);
#298=EDGE_CURVE('',#244,#244,#204,.T.);
#299=EDGE_CURVE('',#245,#245,#205,.T.);
#300=EDGE_CURVE('',#245,#246,#151,.T.);
#301=EDGE_CURVE('',#246,#246,#206,.T.);
#302=EDGE_CURVE('',#247,#247,#207,.T.);
#303=EDGE_CURVE('',#247,#248,#152,.T.);
#304=EDGE_CURVE('',#248,#248,#208,.T.);
#305=EDGE_CURVE('',#249,#249,#209,.T.);
#306=EDGE_CURVE('',#249,#250,#153,.T.);
#307=EDGE_CURVE('',#250,#250,#210,.T.);
#308=EDGE_CURVE('',#251,#251,#211,.T.);
#309=EDGE_CURVE('',#251,#252,#154,.T.);
#310=EDGE_CURVE('',#252,#252,#212,.T.);
#311=EDGE_CURVE('',#253,#253,#213,.T.);
#312=EDGE_CURVE('',#253,#254,#155,.T.);
#313=EDGE_CURVE('',#254,#254,#214,.T.);
#314=EDGE_CURVE('',#255,#255,#215,.T.);
#315=EDGE_CURVE('',#256,#256,#216,.T.);
#316=EDGE_CURVE('',#256,#255,#156,.T.);
#317=ORIENTED_EDGE('',*,*,#257,.F.);
#318=ORIENTED_EDGE('',*,*,#258,.T.);
#319=ORIENTED_EDGE('',*,*,#259,.F.);
#320=ORIENTED_EDGE('',*,*,#258,.F.);
#321=ORIENTED_EDGE('',*,*,#260,.F.);
#322=ORIENTED_EDGE('',*,*,#261,.T.);
#323=ORIENTED_EDGE('',*,*,#262,.F.);
#324=ORIENTED_EDGE('',*,*,#261,.F.);
#325=ORIENTED_EDGE('',*,*,#263,.F.);
#326=ORIENTED_EDGE('',*,*,#264,.T.);
#327=ORIENTED_EDGE('',*,*,#265,.F.);
#328=ORIENTED_EDGE('',*,*,#264,.F.);
#329=ORIENTED_EDGE('',*,*,#266,.F.);
#330=ORIENTED_EDGE('',*,*,#267,.T.);
#331=ORIENTED_EDGE('',*,*,#268,.F.);
#332=ORIENTED_EDGE('',*,*,#267,.F.);
#333=ORIENTED_EDGE('',*,*,#269,.F.);
#334=ORIENTED_EDGE('',*,*,#270,.T.);
#335=ORIENTED_EDGE('',*,*,#271,.F.);
#336=ORIENTED_EDGE('',*,*,#270,.F.);
#337=ORIENTED_EDGE('',*,*,#272,.F.);
#338=ORIENTED_EDGE('',*,*,#273,.T.);
#339=ORIENTED_EDGE('',*,*,#274,.F.);
#340=ORIENTED_EDGE('',*,*,#273,.F.);
#341=ORIENTED_EDGE('',*,*,#275,.F.);
#342=ORIENTED_EDGE('',*,*,#276,.T.);
#343=ORIENTED_EDGE('',*,*,#277,.F.);
#344=ORIENTED_EDGE('',*,*,#276,.F.);
#345=ORIENTED_EDGE('',*,*,#278,.F.);
#346=ORIENTED_EDGE('',*,*,#279,.T.);
#347=ORIENTED_EDGE('',*,*,#280,.F.);
#348=ORIENTED_EDGE('',*,*,#279,.F.);
#349=ORIENTED_EDGE('',*,*,#281,.F.);
#350=ORIENTED_EDGE('',*,*,#282,.T.);
#351=ORIENTED_EDGE('',*,*,#283,.F.);
#352=ORIENTED_EDGE('',*,*,#282,.F.);
#353=ORIENTED_EDGE('',*,*,#284,.F.);
#354=ORIENTED_EDGE('',*,*,#285,.T.);
#355=ORIENTED_EDGE('',*,*,#286,.F.);
#356=ORIENTED_EDGE('',*,*,#285,.F.);
#357=ORIENTED_EDGE('',*,*,#287,.F.);
#358=ORIENTED_EDGE('',*,*,#288,.T.);
#359=ORIENTED_EDGE('',*,*,#289,.F.);
#360=ORIENTED_EDGE('',*,*,#288,.F.);
#361=ORIENTED_EDGE('',*,*,#290,.F.);
#362=ORIENTED_EDGE('',*,*,#291,.T.);
#363=ORIENTED_EDGE('',*,*,#292,.F.);
#364=ORIENTED_EDGE('',*,*,#291,.F.);
#365=ORIENTED_EDGE('',*,*,#293,.F.);
#366=ORIENTED_EDGE('',*,*,#294,.T.);
#367=ORIENTED_EDGE('',*,*,#295,.F.);
#368=ORIENTED_EDGE('',*,*,#294,.F.);
#369=ORIENTED_EDGE('',*,*,#296,.F.);
#370=ORIENTED_EDGE('',*,*,#297,.T.);
#371=ORIENTED_EDGE('',*,*,#298,.F.);
#372=ORIENTED_EDGE('',*,*,#297,.F.);
#373=ORIENTED_EDGE('',*,*,#299,.F.);
#374=ORIENTED_EDGE('',*,*,#300,.T.);
#375=ORIENTED_EDGE('',*,*,#301,.F.);
#376=ORIENTED_EDGE('',*,*,#300,.F.);
#377=ORIENTED_EDGE('',*,*,#302,.F.);
#378=ORIENTED_EDGE('',*,*,#303,.T.);
#379=ORIENTED_EDGE('',*,*,#304,.F.);
#380=ORIENTED_EDGE('',*,*,#303,.F.);
#381=ORIENTED_EDGE('',*,*,#305,.F.);
#382=ORIENTED_EDGE('',*,*,#306,.T.);
#383=ORIENTED_EDGE('',*,*,#307,.F.);
#384=ORIENTED_EDGE('',*,*,#306,.F.);
#385=ORIENTED_EDGE('',*,*,#308,.F.);
#386=ORIENTED_EDGE('',*,*,#309,.T.);
#387=ORIENTED_EDGE('',*,*,#310,.F.);
#388=ORIENTED_EDGE('',*,*,#309,.F.);
#389=ORIENTED_EDGE('',*,*,#311,.F.);
#390=ORIENTED_EDGE('',*,*,#312,.T.);
#391=ORIENTED_EDGE('',*,*,#313,.F.);
#392=ORIENTED_EDGE('',*,*,#312,.F.);
#393=ORIENTED_EDGE('',*,*,#314,.T.);
#394=ORIENTED_EDGE('',*,*,#311,.T.);
#395=ORIENTED_EDGE('',*,*,#308,.T.);
#396=ORIENTED_EDGE('',*,*,#305,.T.);
#397=ORIENTED_EDGE('',*,*,#302,.T.);
#398=ORIENTED_EDGE('',*,*,#299,.T.);
#399=ORIENTED_EDGE('',*,*,#296,.T.);
#400=ORIENTED_EDGE('',*,*,#293,.T.);
#401=ORIENTED_EDGE('',*,*,#290,.T.);
#402=ORIENTED_EDGE('',*,*,#287,.T.);
#403=ORIENTED_EDGE('',*,*,#284,.T.);
#404=ORIENTED_EDGE('',*,*,#281,.T.);
#405=ORIENTED_EDGE('',*,*,#278,.T.);
#406=ORIENTED_EDGE('',*,*,#275,.T.);
#407=ORIENTED_EDGE('',*,*,#272,.T.);
#408=ORIENTED_EDGE('',*,*,#269,.T.);
#409=ORIENTED_EDGE('',*,*,#266,.T.);
#410=ORIENTED_EDGE('',*,*,#263,.T.);
#411=ORIENTED_EDGE('',*,*,#260,.T.);
#412=ORIENTED_EDGE('',*,*,#257,.T.);
#413=ORIENTED_EDGE('',*,*,#315,.F.);
#414=ORIENTED_EDGE('',*,*,#316,.T.);
#415=ORIENTED_EDGE('',*,*,#314,.F.);
#416=ORIENTED_EDGE('',*,*,#316,.F.);
#417=ORIENTED_EDGE('',*,*,#315,.T.);
#418=ORIENTED_EDGE('',*,*,#313,.T.);
#419=ORIENTED_EDGE('',*,*,#310,.T.);
#420=ORIENTED_EDGE('',*,*,#307,.T.);
#421=ORIENTED_EDGE('',*,*,#304,.T.);
#422=ORIENTED_EDGE('',*,*,#301,.T.);
#423=ORIENTED_EDGE('',*,*,#298,.T.);
#424=ORIENTED_EDGE('',*,*,#295,.T.);
#425=ORIENTED_EDGE('',*,*,#292,.T.);
#426=ORIENTED_EDGE('',*,*,#289,.T.);
#427=ORIENTED_EDGE('',*,*,#286,.T.);
#428=ORIENTED_EDGE('',*,*,#283,.T.);
#429=ORIENTED_EDGE('',*,*,#280,.T.);
#430=ORIENTED_EDGE('',*,*,#277,.T.);
#431=ORIENTED_EDGE('',*,*,#274,.T.);
#432=ORIENTED_EDGE('',*,*,#271,.T.);
#433=ORIENTED_EDGE('',*,*,#268,.T.);
#434=ORIENTED_EDGE('',*,*,#265,.T.);
#435=ORIENTED_EDGE('',*,*,#262,.T.);
#436=ORIENTED_EDGE('',*,*,#259,.T.);
#437=CYLINDRICAL_SURFACE('',#493,0.225);
#438=CYLINDRICAL_SURFACE('',#496,0.225);
#439=CYLINDRICAL_SURFACE('',#499,0.225);
#440=CYLINDRICAL_SURFACE('',#502,0.225);
#441=CYLINDRICAL_SURFACE('',#505,0.225);
#442=CYLINDRICAL_SURFACE('',#508,0.225);
#443=CYLINDRICAL_SURFACE('',#511,0.225);
#444=CYLINDRICAL_SURFACE('',#514,0.225);
#445=CYLINDRICAL_SURFACE('',#517,0.225);
#446=CYLINDRICAL_SURFACE('',#520,0.225);
#447=CYLINDRICAL_SURFACE('',#523,0.225);
#448=CYLINDRICAL_SURFACE('',#526,0.225);
#449=CYLINDRICAL_SURFACE('',#529,0.225);
#450=CYLINDRICAL_SURFACE('',#532,0.225);
#451=CYLINDRICAL_SURFACE('',#535,0.225);
#452=CYLINDRICAL_SURFACE('',#538,0.225);
#453=CYLINDRICAL_SURFACE('',#541,0.225);
#454=CYLINDRICAL_SURFACE('',#544,0.225);
#455=CYLINDRICAL_SURFACE('',#547,1.);
#456=CYLINDRICAL_SURFACE('',#552,8.);
#457=ADVANCED_FACE('',(#55),#437,.F.);
#458=ADVANCED_FACE('',(#56),#438,.F.);
#459=ADVANCED_FACE('',(#57),#439,.F.);
#460=ADVANCED_FACE('',(#58),#440,.F.);
#461=ADVANCED_FACE('',(#59),#441,.F.);
#462=ADVANCED_FACE('',(#60),#442,.F.);
#463=ADVANCED_FACE('',(#61),#443,.F.);
#464=ADVANCED_FACE('',(#62),#444,.F.);
#465=ADVANCED_FACE('',(#63),#445,.F.);
#466=ADVANCED_FACE('',(#64),#446,.F.);
#467=ADVANCED_FACE('',(#65),#447,.F.);
#468=ADVANCED_FACE('',(#66),#448,.F.);
#469=ADVANCED_FACE('',(#67),#449,.F.);
#470=ADVANCED_FACE('',(#68),#450,.F.);
#471=ADVANCED_FACE('',(#69),#451,.F.);
#472=ADVANCED_FACE('',(#70),#452,.F.);
#473=ADVANCED_FACE('',(#71),#453,.F.);
#474=ADVANCED_FACE('',(#72),#454,.F.);
#475=ADVANCED_FACE('',(#73),#455,.F.);
#476=ADVANCED_FACE('',(#74,#15,#16,#17,#18,#19,#20,#21,#22,#23,#24,#25,
#26,#27,#28,#29,#30,#31,#32,#33),#53,.F.);
#477=ADVANCED_FACE('',(#75),#456,.T.);
#478=ADVANCED_FACE('',(#76,#34,#35,#36,#37,#38,#39,#40,#41,#42,#43,#44,
#45,#46,#47,#48,#49,#50,#51,#52),#54,.T.);
#479=CLOSED_SHELL('',(#457,#458,#459,#460,#461,#462,#463,#464,#465,#466,
#467,#468,#469,#470,#471,#472,#473,#474,#475,#476,#477,#478));
#480=DERIVED_UNIT_ELEMENT(#482,1.);
#481=DERIVED_UNIT_ELEMENT(#829,-3.);
#482=(
MASS_UNIT()
NAMED_UNIT(*)
SI_UNIT(.KILO.,.GRAM.)
);
#483=DERIVED_UNIT((#480,#481));
#484=MEASURE_REPRESENTATION_ITEM('density measure',
POSITIVE_RATIO_MEASURE(7850.),#483);
#485=PROPERTY_DEFINITION_REPRESENTATION(#490,#487);
#486=PROPERTY_DEFINITION_REPRESENTATION(#491,#488);
#487=REPRESENTATION('material name',(#489),#826);
#488=REPRESENTATION('density',(#484),#826);
#489=DESCRIPTIVE_REPRESENTATION_ITEM('\X2\92FC\X0\','\X2\92FC\X0\');
#490=PROPERTY_DEFINITION('material property','material name',#836);
#491=PROPERTY_DEFINITION('material property','density of part',#836);
#492=AXIS2_PLACEMENT_3D('',#701,#555,#556);
#493=AXIS2_PLACEMENT_3D('',#702,#557,#558);
#494=AXIS2_PLACEMENT_3D('',#704,#559,#560);
#495=AXIS2_PLACEMENT_3D('',#707,#562,#563);
#496=AXIS2_PLACEMENT_3D('',#708,#564,#565);
#497=AXIS2_PLACEMENT_3D('',#710,#566,#567);
#498=AXIS2_PLACEMENT_3D('',#713,#569,#570);
#499=AXIS2_PLACEMENT_3D('',#714,#571,#572);
#500=AXIS2_PLACEMENT_3D('',#716,#573,#574);
#501=AXIS2_PLACEMENT_3D('',#719,#576,#577);
#502=AXIS2_PLACEMENT_3D('',#720,#578,#579);
#503=AXIS2_PLACEMENT_3D('',#722,#580,#581);
#504=AXIS2_PLACEMENT_3D('',#725,#583,#584);
#505=AXIS2_PLACEMENT_3D('',#726,#585,#586);
#506=AXIS2_PLACEMENT_3D('',#728,#587,#588);
#507=AXIS2_PLACEMENT_3D('',#731,#590,#591);
#508=AXIS2_PLACEMENT_3D('',#732,#592,#593);
#509=AXIS2_PLACEMENT_3D('',#734,#594,#595);
#510=AXIS2_PLACEMENT_3D('',#737,#597,#598);
#511=AXIS2_PLACEMENT_3D('',#738,#599,#600);
#512=AXIS2_PLACEMENT_3D('',#740,#601,#602);
#513=AXIS2_PLACEMENT_3D('',#743,#604,#605);
#514=AXIS2_PLACEMENT_3D('',#744,#606,#607);
#515=AXIS2_PLACEMENT_3D('',#746,#608,#609);
#516=AXIS2_PLACEMENT_3D('',#749,#611,#612);
#517=AXIS2_PLACEMENT_3D('',#750,#613,#614);
#518=AXIS2_PLACEMENT_3D('',#752,#615,#616);
#519=AXIS2_PLACEMENT_3D('',#755,#618,#619);
#520=AXIS2_PLACEMENT_3D('',#756,#620,#621);
#521=AXIS2_PLACEMENT_3D('',#758,#622,#623);
#522=AXIS2_PLACEMENT_3D('',#761,#625,#626);
#523=AXIS2_PLACEMENT_3D('',#762,#627,#628);
#524=AXIS2_PLACEMENT_3D('',#764,#629,#630);
#525=AXIS2_PLACEMENT_3D('',#767,#632,#633);
#526=AXIS2_PLACEMENT_3D('',#768,#634,#635);
#527=AXIS2_PLACEMENT_3D('',#770,#636,#637);
#528=AXIS2_PLACEMENT_3D('',#773,#639,#640);
#529=AXIS2_PLACEMENT_3D('',#774,#641,#642);
#530=AXIS2_PLACEMENT_3D('',#776,#643,#644);
#531=AXIS2_PLACEMENT_3D('',#779,#646,#647);
#532=AXIS2_PLACEMENT_3D('',#780,#648,#649);
#533=AXIS2_PLACEMENT_3D('',#782,#650,#651);
#534=AXIS2_PLACEMENT_3D('',#785,#653,#654);
#535=AXIS2_PLACEMENT_3D('',#786,#655,#656);
#536=AXIS2_PLACEMENT_3D('',#788,#657,#658);
#537=AXIS2_PLACEMENT_3D('',#791,#660,#661);
#538=AXIS2_PLACEMENT_3D('',#792,#662,#663);
#539=AXIS2_PLACEMENT_3D('',#794,#664,#665);
#540=AXIS2_PLACEMENT_3D('',#797,#667,#668);
#541=AXIS2_PLACEMENT_3D('',#798,#669,#670);
#542=AXIS2_PLACEMENT_3D('',#800,#671,#672);
#543=AXIS2_PLACEMENT_3D('',#803,#674,#675);
#544=AXIS2_PLACEMENT_3D('',#804,#676,#677);
#545=AXIS2_PLACEMENT_3D('',#806,#678,#679);
#546=AXIS2_PLACEMENT_3D('',#809,#681,#682);
#547=AXIS2_PLACEMENT_3D('',#810,#683,#684);
#548=AXIS2_PLACEMENT_3D('',#812,#685,#686);
#549=AXIS2_PLACEMENT_3D('',#815,#688,#689);
#550=AXIS2_PLACEMENT_3D('',#816,#690,#691);
#551=AXIS2_PLACEMENT_3D('',#818,#692,#693);
#552=AXIS2_PLACEMENT_3D('',#819,#694,#695);
#553=AXIS2_PLACEMENT_3D('',#821,#696,#697);
#554=AXIS2_PLACEMENT_3D('',#823,#699,#700);
#555=DIRECTION('axis',(0.,0.,1.));
#556=DIRECTION('refdir',(1.,0.,0.));
#557=DIRECTION('center_axis',(0.,0.,1.));
#558=DIRECTION('ref_axis',(1.,0.,0.));
#559=DIRECTION('center_axis',(0.,0.,1.));
#560=DIRECTION('ref_axis',(1.,0.,0.));
#561=DIRECTION('',(0.,0.,1.));
#562=DIRECTION('center_axis',(0.,0.,-1.));
#563=DIRECTION('ref_axis',(1.,0.,0.));
#564=DIRECTION('center_axis',(0.,0.,1.));
#565=DIRECTION('ref_axis',(1.,0.,0.));
#566=DIRECTION('center_axis',(0.,0.,1.));
#567=DIRECTION('ref_axis',(1.,0.,0.));
#568=DIRECTION('',(0.,0.,1.));
#569=DIRECTION('center_axis',(0.,0.,-1.));
#570=DIRECTION('ref_axis',(1.,0.,0.));
#571=DIRECTION('center_axis',(0.,0.,1.));
#572=DIRECTION('ref_axis',(1.,0.,0.));
#573=DIRECTION('center_axis',(0.,0.,1.));
#574=DIRECTION('ref_axis',(1.,0.,0.));
#575=DIRECTION('',(0.,0.,1.));
#576=DIRECTION('center_axis',(0.,0.,-1.));
#577=DIRECTION('ref_axis',(1.,0.,0.));
#578=DIRECTION('center_axis',(0.,0.,1.));
#579=DIRECTION('ref_axis',(1.,0.,0.));
#580=DIRECTION('center_axis',(0.,0.,1.));
#581=DIRECTION('ref_axis',(1.,0.,0.));
#582=DIRECTION('',(0.,0.,1.));
#583=DIRECTION('center_axis',(0.,0.,-1.));
#584=DIRECTION('ref_axis',(1.,0.,0.));
#585=DIRECTION('center_axis',(0.,0.,1.));
#586=DIRECTION('ref_axis',(1.,0.,0.));
#587=DIRECTION('center_axis',(0.,0.,1.));
#588=DIRECTION('ref_axis',(1.,0.,0.));
#589=DIRECTION('',(0.,0.,1.));
#590=DIRECTION('center_axis',(0.,0.,-1.));
#591=DIRECTION('ref_axis',(1.,0.,0.));
#592=DIRECTION('center_axis',(0.,0.,1.));
#593=DIRECTION('ref_axis',(1.,0.,0.));
#594=DIRECTION('center_axis',(0.,0.,1.));
#595=DIRECTION('ref_axis',(1.,0.,0.));
#596=DIRECTION('',(0.,0.,1.));
#597=DIRECTION('center_axis',(0.,0.,-1.));
#598=DIRECTION('ref_axis',(1.,0.,0.));
#599=DIRECTION('center_axis',(0.,0.,1.));
#600=DIRECTION('ref_axis',(1.,0.,0.));
#601=DIRECTION('center_axis',(0.,0.,1.));
#602=DIRECTION('ref_axis',(1.,0.,0.));
#603=DIRECTION('',(0.,0.,1.));
#604=DIRECTION('center_axis',(0.,0.,-1.));
#605=DIRECTION('ref_axis',(1.,0.,0.));
#606=DIRECTION('center_axis',(0.,0.,1.));
#607=DIRECTION('ref_axis',(1.,0.,0.));
#608=DIRECTION('center_axis',(0.,0.,1.));
#609=DIRECTION('ref_axis',(1.,0.,0.));
#610=DIRECTION('',(0.,0.,1.));
#611=DIRECTION('center_axis',(0.,0.,-1.));
#612=DIRECTION('ref_axis',(1.,0.,0.));
#613=DIRECTION('center_axis',(0.,0.,1.));
#614=DIRECTION('ref_axis',(1.,0.,0.));
#615=DIRECTION('center_axis',(0.,0.,1.));
#616=DIRECTION('ref_axis',(1.,0.,0.));
#617=DIRECTION('',(0.,0.,1.));
#618=DIRECTION('center_axis',(0.,0.,-1.));
#619=DIRECTION('ref_axis',(1.,0.,0.));
#620=DIRECTION('center_axis',(0.,0.,1.));
#621=DIRECTION('ref_axis',(1.,0.,0.));
#622=DIRECTION('center_axis',(0.,0.,1.));
#623=DIRECTION('ref_axis',(1.,0.,0.));
#624=DIRECTION('',(0.,0.,1.));
#625=DIRECTION('center_axis',(0.,0.,-1.));
#626=DIRECTION('ref_axis',(1.,0.,0.));
#627=DIRECTION('center_axis',(0.,0.,1.));
#628=DIRECTION('ref_axis',(1.,0.,0.));
#629=DIRECTION('center_axis',(0.,0.,1.));
#630=DIRECTION('ref_axis',(1.,0.,0.));
#631=DIRECTION('',(0.,0.,1.));
#632=DIRECTION('center_axis',(0.,0.,-1.));
#633=DIRECTION('ref_axis',(1.,0.,0.));
#634=DIRECTION('center_axis',(0.,0.,1.));
#635=DIRECTION('ref_axis',(1.,0.,0.));
#636=DIRECTION('center_axis',(0.,0.,1.));
#637=DIRECTION('ref_axis',(1.,0.,0.));
#638=DIRECTION('',(0.,0.,1.));
#639=DIRECTION('center_axis',(0.,0.,-1.));
#640=DIRECTION('ref_axis',(1.,0.,0.));
#641=DIRECTION('center_axis',(0.,0.,1.));
#642=DIRECTION('ref_axis',(1.,0.,0.));
#643=DIRECTION('center_axis',(0.,0.,1.));
#644=DIRECTION('ref_axis',(1.,0.,0.));
#645=DIRECTION('',(0.,0.,1.));
#646=DIRECTION('center_axis',(0.,0.,-1.));
#647=DIRECTION('ref_axis',(1.,0.,0.));
#648=DIRECTION('center_axis',(0.,0.,1.));
#649=DIRECTION('ref_axis',(1.,0.,0.));
#650=DIRECTION('center_axis',(0.,0.,1.));
#651=DIRECTION('ref_axis',(1.,0.,0.));
#652=DIRECTION('',(0.,0.,1.));
#653=DIRECTION('center_axis',(0.,0.,-1.));
#654=DIRECTION('ref_axis',(1.,0.,0.));
#655=DIRECTION('center_axis',(0.,0.,1.));
#656=DIRECTION('ref_axis',(1.,0.,0.));
#657=DIRECTION('center_axis',(0.,0.,1.));
#658=DIRECTION('ref_axis',(1.,0.,0.));
#659=DIRECTION('',(0.,0.,1.));
#660=DIRECTION('center_axis',(0.,0.,-1.));
#661=DIRECTION('ref_axis',(1.,0.,0.));
#662=DIRECTION('center_axis',(0.,0.,1.));
#663=DIRECTION('ref_axis',(1.,0.,0.));
#664=DIRECTION('center_axis',(0.,0.,1.));
#665=DIRECTION('ref_axis',(1.,0.,0.));
#666=DIRECTION('',(0.,0.,1.));
#667=DIRECTION('center_axis',(0.,0.,-1.));
#668=DIRECTION('ref_axis',(1.,0.,0.));
#669=DIRECTION('center_axis',(0.,0.,1.));
#670=DIRECTION('ref_axis',(1.,0.,0.));
#671=DIRECTION('center_axis',(0.,0.,1.));
#672=DIRECTION('ref_axis',(1.,0.,0.));
#673=DIRECTION('',(0.,0.,1.));
#674=DIRECTION('center_axis',(0.,0.,-1.));
#675=DIRECTION('ref_axis',(1.,0.,0.));
#676=DIRECTION('center_axis',(0.,0.,1.));
#677=DIRECTION('ref_axis',(1.,0.,0.));
#678=DIRECTION('center_axis',(0.,0.,1.));
#679=DIRECTION('ref_axis',(1.,0.,0.));
#680=DIRECTION('',(0.,0.,1.));
#681=DIRECTION('center_axis',(0.,0.,-1.));
#682=DIRECTION('ref_axis',(1.,0.,0.));
#683=DIRECTION('center_axis',(0.,0.,1.));
#684=DIRECTION('ref_axis',(1.,0.,0.));
#685=DIRECTION('center_axis',(0.,0.,1.));
#686=DIRECTION('ref_axis',(1.,0.,0.));
#687=DIRECTION('',(0.,0.,1.));
#688=DIRECTION('center_axis',(0.,0.,-1.));
#689=DIRECTION('ref_axis',(1.,0.,0.));
#690=DIRECTION('center_axis',(0.,0.,1.));
#691=DIRECTION('ref_axis',(1.,0.,0.));
#692=DIRECTION('center_axis',(0.,0.,-1.));
#693=DIRECTION('ref_axis',(1.,0.,0.));
#694=DIRECTION('center_axis',(0.,0.,1.));
#695=DIRECTION('ref_axis',(1.,0.,0.));
#696=DIRECTION('center_axis',(0.,0.,1.));
#697=DIRECTION('ref_axis',(1.,0.,0.));
#698=DIRECTION('',(0.,0.,-1.));
#699=DIRECTION('center_axis',(0.,0.,1.));
#700=DIRECTION('ref_axis',(1.,0.,0.));
#701=CARTESIAN_POINT('',(0.,0.,0.));
#702=CARTESIAN_POINT('Origin',(-2.73397459621556,-6.73538290724796,14.85));
#703=CARTESIAN_POINT('',(-2.95897459621556,-6.73538290724796,14.7));
#704=CARTESIAN_POINT('Origin',(-2.73397459621556,-6.73538290724796,14.7));
#705=CARTESIAN_POINT('',(-2.95897459621556,-6.73538290724796,15.));
#706=CARTESIAN_POINT('',(-2.95897459621556,-6.73538290724796,14.85));
#707=CARTESIAN_POINT('Origin',(-2.73397459621556,-6.73538290724796,15.));
#708=CARTESIAN_POINT('Origin',(-2.33397459621556,-6.04256258422041,14.85));
#709=CARTESIAN_POINT('',(-2.55897459621556,-6.04256258422041,14.7));
#710=CARTESIAN_POINT('Origin',(-2.33397459621556,-6.04256258422041,14.7));
#711=CARTESIAN_POINT('',(-2.55897459621556,-6.04256258422041,15.));
#712=CARTESIAN_POINT('',(-2.55897459621556,-6.04256258422041,14.85));
#713=CARTESIAN_POINT('Origin',(-2.33397459621556,-6.04256258422041,15.));
#714=CARTESIAN_POINT('Origin',(-4.46602540378444,5.73538290724796,14.85));
#715=CARTESIAN_POINT('',(-4.69102540378444,5.73538290724796,14.7));
#716=CARTESIAN_POINT('Origin',(-4.46602540378444,5.73538290724796,14.7));
#717=CARTESIAN_POINT('',(-4.69102540378444,5.73538290724796,15.));
#718=CARTESIAN_POINT('',(-4.69102540378444,5.73538290724796,14.85));
#719=CARTESIAN_POINT('Origin',(-4.46602540378444,5.73538290724796,15.));
#720=CARTESIAN_POINT('Origin',(-4.06602540378444,5.04256258422041,14.85));
#721=CARTESIAN_POINT('',(-4.29102540378444,5.04256258422041,14.7));
#722=CARTESIAN_POINT('Origin',(-4.06602540378444,5.04256258422041,14.7));
#723=CARTESIAN_POINT('',(-4.29102540378444,5.04256258422041,15.));
#724=CARTESIAN_POINT('',(-4.29102540378444,5.04256258422041,14.85));
#725=CARTESIAN_POINT('Origin',(-4.06602540378444,5.04256258422041,15.));
#726=CARTESIAN_POINT('Origin',(5.62916512459885,3.25,14.85));
#727=CARTESIAN_POINT('',(5.40416512459885,3.25,14.7));
#728=CARTESIAN_POINT('Origin',(5.62916512459885,3.25,14.7));
#729=CARTESIAN_POINT('',(5.40416512459885,3.25,15.));
#730=CARTESIAN_POINT('',(5.40416512459885,3.25,14.85));
#731=CARTESIAN_POINT('Origin',(5.62916512459885,3.25,15.));
#732=CARTESIAN_POINT('Origin',(7.2,-1.,14.85));
#733=CARTESIAN_POINT('',(6.975,-1.,14.7));
#734=CARTESIAN_POINT('Origin',(7.2,-1.,14.7));
#735=CARTESIAN_POINT('',(6.975,-1.,15.));
#736=CARTESIAN_POINT('',(6.975,-1.,14.85));
#737=CARTESIAN_POINT('Origin',(7.2,-1.,15.));
#738=CARTESIAN_POINT('Origin',(6.4,-1.,14.85));
#739=CARTESIAN_POINT('',(6.175,-1.,14.7));
#740=CARTESIAN_POINT('Origin',(6.4,-1.,14.7));
#741=CARTESIAN_POINT('',(6.175,-1.,15.));
#742=CARTESIAN_POINT('',(6.175,-1.,14.85));
#743=CARTESIAN_POINT('Origin',(6.4,-1.,15.));
#744=CARTESIAN_POINT('Origin',(-1.19403062916867E-15,-6.5,14.85));
#745=CARTESIAN_POINT('',(-0.225000000000001,-6.5,14.7));
#746=CARTESIAN_POINT('Origin',(-1.19403062916867E-15,-6.5,14.7));
#747=CARTESIAN_POINT('',(-0.225000000000001,-6.5,15.));
#748=CARTESIAN_POINT('',(-0.225000000000001,-6.5,14.85));
#749=CARTESIAN_POINT('Origin',(-1.19403062916867E-15,-6.5,15.));
#750=CARTESIAN_POINT('Origin',(-5.62916512459885,3.25,14.85));
#751=CARTESIAN_POINT('',(-5.85416512459885,3.25,14.7));
#752=CARTESIAN_POINT('Origin',(-5.62916512459885,3.25,14.7));
#753=CARTESIAN_POINT('',(-5.85416512459885,3.25,15.));
#754=CARTESIAN_POINT('',(-5.85416512459885,3.25,14.85));
#755=CARTESIAN_POINT('Origin',(-5.62916512459885,3.25,15.));
#756=CARTESIAN_POINT('Origin',(3.9801020972289E-16,6.5,14.85));
#757=CARTESIAN_POINT('',(-0.225,6.5,14.7));
#758=CARTESIAN_POINT('Origin',(3.9801020972289E-16,6.5,14.7));
#759=CARTESIAN_POINT('',(-0.225,6.5,15.));
#760=CARTESIAN_POINT('',(-0.225,6.5,14.85));
#761=CARTESIAN_POINT('Origin',(3.9801020972289E-16,6.5,15.));
#762=CARTESIAN_POINT('Origin',(-5.62916512459885,-3.25,14.85));
#763=CARTESIAN_POINT('',(-5.85416512459885,-3.25,14.7));
#764=CARTESIAN_POINT('Origin',(-5.62916512459885,-3.25,14.7));
#765=CARTESIAN_POINT('',(-5.85416512459885,-3.25,15.));
#766=CARTESIAN_POINT('',(-5.85416512459885,-3.25,14.85));
#767=CARTESIAN_POINT('Origin',(-5.62916512459885,-3.25,15.));
#768=CARTESIAN_POINT('Origin',(5.62916512459885,-3.25,14.85));
#769=CARTESIAN_POINT('',(5.40416512459885,-3.25,14.7));
#770=CARTESIAN_POINT('Origin',(5.62916512459885,-3.25,14.7));
#771=CARTESIAN_POINT('',(5.40416512459885,-3.25,15.));
#772=CARTESIAN_POINT('',(5.40416512459885,-3.25,14.85));
#773=CARTESIAN_POINT('Origin',(5.62916512459885,-3.25,15.));
#774=CARTESIAN_POINT('Origin',(6.4,1.,14.85));
#775=CARTESIAN_POINT('',(6.175,1.,14.7));
#776=CARTESIAN_POINT('Origin',(6.4,1.,14.7));
#777=CARTESIAN_POINT('',(6.175,1.,15.));
#778=CARTESIAN_POINT('',(6.175,1.,14.85));
#779=CARTESIAN_POINT('Origin',(6.4,1.,15.));
#780=CARTESIAN_POINT('Origin',(7.2,1.,14.85));
#781=CARTESIAN_POINT('',(6.975,1.,14.7));
#782=CARTESIAN_POINT('Origin',(7.2,1.,14.7));
#783=CARTESIAN_POINT('',(6.975,1.,15.));
#784=CARTESIAN_POINT('',(6.975,1.,14.85));
#785=CARTESIAN_POINT('Origin',(7.2,1.,15.));
#786=CARTESIAN_POINT('Origin',(-2.33397459621556,6.04256258422041,14.85));
#787=CARTESIAN_POINT('',(-2.55897459621556,6.04256258422041,14.7));
#788=CARTESIAN_POINT('Origin',(-2.33397459621556,6.04256258422041,14.7));
#789=CARTESIAN_POINT('',(-2.55897459621556,6.04256258422041,15.));
#790=CARTESIAN_POINT('',(-2.55897459621556,6.04256258422041,14.85));
#791=CARTESIAN_POINT('Origin',(-2.33397459621556,6.04256258422041,15.));
#792=CARTESIAN_POINT('Origin',(-2.73397459621556,6.73538290724796,14.85));
#793=CARTESIAN_POINT('',(-2.95897459621556,6.73538290724796,14.7));
#794=CARTESIAN_POINT('Origin',(-2.73397459621556,6.73538290724796,14.7));
#795=CARTESIAN_POINT('',(-2.95897459621556,6.73538290724796,15.));
#796=CARTESIAN_POINT('',(-2.95897459621556,6.73538290724796,14.85));
#797=CARTESIAN_POINT('Origin',(-2.73397459621556,6.73538290724796,15.));
#798=CARTESIAN_POINT('Origin',(-4.06602540378444,-5.0425625842204,14.85));
#799=CARTESIAN_POINT('',(-4.29102540378444,-5.0425625842204,14.7));
#800=CARTESIAN_POINT('Origin',(-4.06602540378444,-5.0425625842204,14.7));
#801=CARTESIAN_POINT('',(-4.29102540378444,-5.0425625842204,15.));
#802=CARTESIAN_POINT('',(-4.29102540378444,-5.0425625842204,14.85));
#803=CARTESIAN_POINT('Origin',(-4.06602540378444,-5.0425625842204,15.));
#804=CARTESIAN_POINT('Origin',(-4.46602540378444,-5.73538290724796,14.85));
#805=CARTESIAN_POINT('',(-4.69102540378444,-5.73538290724796,14.7));
#806=CARTESIAN_POINT('Origin',(-4.46602540378444,-5.73538290724796,14.7));
#807=CARTESIAN_POINT('',(-4.69102540378444,-5.73538290724796,15.));
#808=CARTESIAN_POINT('',(-4.69102540378444,-5.73538290724796,14.85));
#809=CARTESIAN_POINT('Origin',(-4.46602540378444,-5.73538290724796,15.));
#810=CARTESIAN_POINT('Origin',(0.,0.,14.85));
#811=CARTESIAN_POINT('',(-1.,-1.22464679914735E-16,14.7));
#812=CARTESIAN_POINT('Origin',(0.,0.,14.7));
#813=CARTESIAN_POINT('',(-1.,1.22464679914735E-16,15.));
#814=CARTESIAN_POINT('',(-1.,-1.22464679914735E-16,14.85));
#815=CARTESIAN_POINT('Origin',(0.,0.,15.));
#816=CARTESIAN_POINT('Origin',(0.,0.,14.7));
#817=CARTESIAN_POINT('',(-8.,-9.79717439317883E-16,14.7));
#818=CARTESIAN_POINT('Origin',(0.,0.,14.7));
#819=CARTESIAN_POINT('Origin',(0.,0.,14.85));
#820=CARTESIAN_POINT('',(-8.,-9.79717439317883E-16,15.));
#821=CARTESIAN_POINT('Origin',(0.,0.,15.));
#822=CARTESIAN_POINT('',(-8.,-9.79717439317883E-16,14.85));
#823=CARTESIAN_POINT('Origin',(0.,0.,15.));
#824=UNCERTAINTY_MEASURE_WITH_UNIT(LENGTH_MEASURE(0.001),#828,
'DISTANCE_ACCURACY_VALUE',
'Maximum model space distance between geometric entities at asserted c
onnectivities');
#825=UNCERTAINTY_MEASURE_WITH_UNIT(LENGTH_MEASURE(0.001),#828,
'DISTANCE_ACCURACY_VALUE',
'Maximum model space distance between geometric entities at asserted c
onnectivities');
#826=(
GEOMETRIC_REPRESENTATION_CONTEXT(3)
GLOBAL_UNCERTAINTY_ASSIGNED_CONTEXT((#824))
GLOBAL_UNIT_ASSIGNED_CONTEXT((#828,#830,#831))
REPRESENTATION_CONTEXT('','3D')
);
#827=(
GEOMETRIC_REPRESENTATION_CONTEXT(3)
GLOBAL_UNCERTAINTY_ASSIGNED_CONTEXT((#825))
GLOBAL_UNIT_ASSIGNED_CONTEXT((#828,#830,#831))
REPRESENTATION_CONTEXT('','3D')
);
#828=(
LENGTH_UNIT()
NAMED_UNIT(*)
SI_UNIT(.CENTI.,.METRE.)
);
#829=(
LENGTH_UNIT()
NAMED_UNIT(*)
SI_UNIT($,.METRE.)
);
#830=(
NAMED_UNIT(*)
PLANE_ANGLE_UNIT()
SI_UNIT($,.RADIAN.)
);
#831=(
NAMED_UNIT(*)
SI_UNIT($,.STERADIAN.)
SOLID_ANGLE_UNIT()
);
#832=SHAPE_DEFINITION_REPRESENTATION(#833,#834);
#833=PRODUCT_DEFINITION_SHAPE('',$,#836);
#834=SHAPE_REPRESENTATION('',(#492),#826);
#835=PRODUCT_DEFINITION_CONTEXT('part definition',#840,'design');
#836=PRODUCT_DEFINITION('2026-09-15-08-15-19-908','Frame_L1',#837,#835);
#837=PRODUCT_DEFINITION_FORMATION('',$,#842);
#838=PRODUCT_RELATED_PRODUCT_CATEGORY('Frame_L1','Frame_L1',(#842));
#839=APPLICATION_PROTOCOL_DEFINITION('international standard',
'automotive_design',2009,#840);
#840=APPLICATION_CONTEXT(
'Core Data for Automotive Mechanical Design Process');
#841=PRODUCT_CONTEXT('part definition',#840,'mechanical');
#842=PRODUCT('2026-09-15-08-15-19-908','Frame_L1',$,(#841));
#843=PRESENTATION_STYLE_ASSIGNMENT((#844));
#844=SURFACE_STYLE_USAGE(.BOTH.,#845);
#845=SURFACE_SIDE_STYLE('',(#846));
#846=SURFACE_STYLE_FILL_AREA(#847);
#847=FILL_AREA_STYLE('\X2\92FC\X0\ - \X2\30B530C630F3\X0\',(#848));
#848=FILL_AREA_STYLE_COLOUR('\X2\92FC\X0\ - \X2\30B530C630F3\X0\',#849);
#849=COLOUR_RGB('\X2\92FC\X0\ - \X2\30B530C630F3\X0\',0.627450980392157,
0.627450980392157,0.627450980392157);
ENDSEC;
END-ISO-10303-21;
