ISO-10303-21;
HEADER;
/* Generated by software containing ST-Developer
 * from STEP Tools, Inc. (www.steptools.com) 
 */

FILE_DESCRIPTION(
/* description */ (''),
/* implementation_level */ '2;1');

FILE_NAME(
/* name */ 'MotorMount.step',
/* time_stamp */ '2026-09-15T08:15:20+09:00',
/* author */ (''),
/* organization */ (''),
/* preprocessor_version */ 'ST-DEVELOPER v20.2',
/* originating_system */ 'Autodesk Translation Framework v15.15.0.0',
/* authorisation */ '');

FILE_SCHEMA (('AUTOMOTIVE_DESIGN { 1 0 10303 214 3 1 1 }'));
ENDSEC;

DATA;
#10=MECHANICAL_DESIGN_GEOMETRIC_PRESENTATION_REPRESENTATION('',(#13),#690);
#11=SHAPE_REPRESENTATION_RELATIONSHIP('SRR','None',#697,#12);
#12=ADVANCED_BREP_SHAPE_REPRESENTATION('',(#14),#689);
#13=STYLED_ITEM('',(#706),#14);
#14=MANIFOLD_SOLID_BREP('MotorMount',#406);
#15=FACE_BOUND('',#81,.T.);
#16=FACE_BOUND('',#82,.T.);
#17=FACE_BOUND('',#83,.T.);
#18=FACE_BOUND('',#84,.T.);
#19=FACE_BOUND('',#85,.T.);
#20=FACE_BOUND('',#89,.T.);
#21=FACE_BOUND('',#90,.T.);
#22=FACE_BOUND('',#91,.T.);
#23=FACE_BOUND('',#92,.T.);
#24=FACE_BOUND('',#96,.T.);
#25=FACE_BOUND('',#97,.T.);
#26=FACE_BOUND('',#98,.T.);
#27=FACE_BOUND('',#99,.T.);
#28=FACE_BOUND('',#100,.T.);
#29=PLANE('',#423);
#30=PLANE('',#427);
#31=PLANE('',#431);
#32=PLANE('',#435);
#33=PLANE('',#451);
#34=PLANE('',#452);
#35=PLANE('',#453);
#36=PLANE('',#454);
#37=PLANE('',#455);
#38=PLANE('',#456);
#39=PLANE('',#457);
#40=PLANE('',#458);
#41=PLANE('',#459);
#42=PLANE('',#460);
#43=FACE_OUTER_BOUND('',#66,.T.);
#44=FACE_OUTER_BOUND('',#67,.T.);
#45=FACE_OUTER_BOUND('',#68,.T.);
#46=FACE_OUTER_BOUND('',#69,.T.);
#47=FACE_OUTER_BOUND('',#70,.T.);
#48=FACE_OUTER_BOUND('',#71,.T.);
#49=FACE_OUTER_BOUND('',#72,.T.);
#50=FACE_OUTER_BOUND('',#73,.T.);
#51=FACE_OUTER_BOUND('',#74,.T.);
#52=FACE_OUTER_BOUND('',#75,.T.);
#53=FACE_OUTER_BOUND('',#76,.T.);
#54=FACE_OUTER_BOUND('',#77,.T.);
#55=FACE_OUTER_BOUND('',#78,.T.);
#56=FACE_OUTER_BOUND('',#79,.T.);
#57=FACE_OUTER_BOUND('',#80,.T.);
#58=FACE_OUTER_BOUND('',#86,.T.);
#59=FACE_OUTER_BOUND('',#87,.T.);
#60=FACE_OUTER_BOUND('',#88,.T.);
#61=FACE_OUTER_BOUND('',#93,.T.);
#62=FACE_OUTER_BOUND('',#94,.T.);
#63=FACE_OUTER_BOUND('',#95,.T.);
#64=FACE_OUTER_BOUND('',#101,.T.);
#65=FACE_OUTER_BOUND('',#102,.T.);
#66=EDGE_LOOP('',(#272,#273,#274,#275));
#67=EDGE_LOOP('',(#276));
#68=EDGE_LOOP('',(#277,#278,#279,#280));
#69=EDGE_LOOP('',(#281));
#70=EDGE_LOOP('',(#282,#283,#284,#285));
#71=EDGE_LOOP('',(#286));
#72=EDGE_LOOP('',(#287,#288,#289,#290));
#73=EDGE_LOOP('',(#291));
#74=EDGE_LOOP('',(#292,#293,#294,#295));
#75=EDGE_LOOP('',(#296,#297,#298,#299));
#76=EDGE_LOOP('',(#300,#301,#302,#303));
#77=EDGE_LOOP('',(#304,#305,#306,#307));
#78=EDGE_LOOP('',(#308,#309,#310,#311));
#79=EDGE_LOOP('',(#312,#313,#314,#315,#316,#317,#318,#319));
#80=EDGE_LOOP('',(#320,#321,#322,#323));
#81=EDGE_LOOP('',(#324));
#82=EDGE_LOOP('',(#325));
#83=EDGE_LOOP('',(#326));
#84=EDGE_LOOP('',(#327));
#85=EDGE_LOOP('',(#328));
#86=EDGE_LOOP('',(#329,#330,#331,#332));
#87=EDGE_LOOP('',(#333,#334,#335,#336));
#88=EDGE_LOOP('',(#337,#338,#339,#340));
#89=EDGE_LOOP('',(#341));
#90=EDGE_LOOP('',(#342));
#91=EDGE_LOOP('',(#343));
#92=EDGE_LOOP('',(#344));
#93=EDGE_LOOP('',(#345,#346,#347,#348));
#94=EDGE_LOOP('',(#349,#350,#351,#352));
#95=EDGE_LOOP('',(#353,#354,#355,#356));
#96=EDGE_LOOP('',(#357));
#97=EDGE_LOOP('',(#358));
#98=EDGE_LOOP('',(#359));
#99=EDGE_LOOP('',(#360));
#100=EDGE_LOOP('',(#361));
#101=EDGE_LOOP('',(#362,#363,#364,#365));
#102=EDGE_LOOP('',(#366,#367,#368,#369,#370,#371,#372,#373));
#103=LINE('',#583,#136);
#104=LINE('',#590,#137);
#105=LINE('',#597,#138);
#106=LINE('',#604,#139);
#107=LINE('',#611,#140);
#108=LINE('',#617,#141);
#109=LINE('',#623,#142);
#110=LINE('',#629,#143);
#111=LINE('',#635,#144);
#112=LINE('',#640,#145);
#113=LINE('',#642,#146);
#114=LINE('',#644,#147);
#115=LINE('',#646,#148);
#116=LINE('',#648,#149);
#117=LINE('',#650,#150);
#118=LINE('',#652,#151);
#119=LINE('',#653,#152);
#120=LINE('',#656,#153);
#121=LINE('',#658,#154);
#122=LINE('',#659,#155);
#123=LINE('',#662,#156);
#124=LINE('',#663,#157);
#125=LINE('',#666,#158);
#126=LINE('',#667,#159);
#127=LINE('',#670,#160);
#128=LINE('',#671,#161);
#129=LINE('',#674,#162);
#130=LINE('',#675,#163);
#131=LINE('',#678,#164);
#132=LINE('',#679,#165);
#133=LINE('',#682,#166);
#134=LINE('',#683,#167);
#135=LINE('',#685,#168);
#136=VECTOR('',#467,0.225);
#137=VECTOR('',#476,0.225);
#138=VECTOR('',#485,0.225);
#139=VECTOR('',#494,0.225);
#140=VECTOR('',#503,0.16);
#141=VECTOR('',#510,0.16);
#142=VECTOR('',#517,0.16);
#143=VECTOR('',#524,0.16);
#144=VECTOR('',#531,0.375);
#145=VECTOR('',#536,1.);
#146=VECTOR('',#537,1.);
#147=VECTOR('',#538,1.);
#148=VECTOR('',#539,1.);
#149=VECTOR('',#540,1.);
#150=VECTOR('',#541,1.);
#151=VECTOR('',#542,1.);
#152=VECTOR('',#543,1.);
#153=VECTOR('',#546,1.);
#154=VECTOR('',#547,1.);
#155=VECTOR('',#548,1.);
#156=VECTOR('',#551,1.);
#157=VECTOR('',#552,1.);
#158=VECTOR('',#555,1.);
#159=VECTOR('',#556,1.);
#160=VECTOR('',#559,1.);
#161=VECTOR('',#560,1.);
#162=VECTOR('',#563,1.);
#163=VECTOR('',#564,1.);
#164=VECTOR('',#567,1.);
#165=VECTOR('',#568,1.);
#166=VECTOR('',#571,1.);
#167=VECTOR('',#572,1.);
#168=VECTOR('',#575,1.);
#169=CIRCLE('',#421,0.225);
#170=CIRCLE('',#422,0.225);
#171=CIRCLE('',#425,0.225);
#172=CIRCLE('',#426,0.225);
#173=CIRCLE('',#429,0.225);
#174=CIRCLE('',#430,0.225);
#175=CIRCLE('',#433,0.225);
#176=CIRCLE('',#434,0.225);
#177=CIRCLE('',#437,0.16);
#178=CIRCLE('',#438,0.16);
#179=CIRCLE('',#440,0.16);
#180=CIRCLE('',#441,0.16);
#181=CIRCLE('',#443,0.16);
#182=CIRCLE('',#444,0.16);
#183=CIRCLE('',#446,0.16);
#184=CIRCLE('',#447,0.16);
#185=CIRCLE('',#449,0.375);
#186=CIRCLE('',#450,0.375);
#187=VERTEX_POINT('',#580);
#188=VERTEX_POINT('',#582);
#189=VERTEX_POINT('',#587);
#190=VERTEX_POINT('',#589);
#191=VERTEX_POINT('',#594);
#192=VERTEX_POINT('',#596);
#193=VERTEX_POINT('',#601);
#194=VERTEX_POINT('',#603);
#195=VERTEX_POINT('',#608);
#196=VERTEX_POINT('',#610);
#197=VERTEX_POINT('',#614);
#198=VERTEX_POINT('',#616);
#199=VERTEX_POINT('',#620);
#200=VERTEX_POINT('',#622);
#201=VERTEX_POINT('',#626);
#202=VERTEX_POINT('',#628);
#203=VERTEX_POINT('',#632);
#204=VERTEX_POINT('',#634);
#205=VERTEX_POINT('',#638);
#206=VERTEX_POINT('',#639);
#207=VERTEX_POINT('',#641);
#208=VERTEX_POINT('',#643);
#209=VERTEX_POINT('',#645);
#210=VERTEX_POINT('',#647);
#211=VERTEX_POINT('',#649);
#212=VERTEX_POINT('',#651);
#213=VERTEX_POINT('',#655);
#214=VERTEX_POINT('',#657);
#215=VERTEX_POINT('',#661);
#216=VERTEX_POINT('',#665);
#217=VERTEX_POINT('',#669);
#218=VERTEX_POINT('',#673);
#219=VERTEX_POINT('',#677);
#220=VERTEX_POINT('',#681);
#221=EDGE_CURVE('',#187,#187,#169,.T.);
#222=EDGE_CURVE('',#187,#188,#103,.T.);
#223=EDGE_CURVE('',#188,#188,#170,.T.);
#224=EDGE_CURVE('',#189,#189,#171,.T.);
#225=EDGE_CURVE('',#189,#190,#104,.T.);
#226=EDGE_CURVE('',#190,#190,#172,.T.);
#227=EDGE_CURVE('',#191,#191,#173,.T.);
#228=EDGE_CURVE('',#191,#192,#105,.T.);
#229=EDGE_CURVE('',#192,#192,#174,.T.);
#230=EDGE_CURVE('',#193,#193,#175,.T.);
#231=EDGE_CURVE('',#193,#194,#106,.T.);
#232=EDGE_CURVE('',#194,#194,#176,.T.);
#233=EDGE_CURVE('',#195,#195,#177,.T.);
#234=EDGE_CURVE('',#195,#196,#107,.T.);
#235=EDGE_CURVE('',#196,#196,#178,.T.);
#236=EDGE_CURVE('',#197,#197,#179,.T.);
#237=EDGE_CURVE('',#197,#198,#108,.T.);
#238=EDGE_CURVE('',#198,#198,#180,.T.);
#239=EDGE_CURVE('',#199,#199,#181,.T.);
#240=EDGE_CURVE('',#199,#200,#109,.T.);
#241=EDGE_CURVE('',#200,#200,#182,.T.);
#242=EDGE_CURVE('',#201,#201,#183,.T.);
#243=EDGE_CURVE('',#201,#202,#110,.T.);
#244=EDGE_CURVE('',#202,#202,#184,.T.);
#245=EDGE_CURVE('',#203,#203,#185,.T.);
#246=EDGE_CURVE('',#203,#204,#111,.T.);
#247=EDGE_CURVE('',#204,#204,#186,.T.);
#248=EDGE_CURVE('',#205,#206,#112,.T.);
#249=EDGE_CURVE('',#206,#207,#113,.T.);
#250=EDGE_CURVE('',#207,#208,#114,.T.);
#251=EDGE_CURVE('',#208,#209,#115,.T.);
#252=EDGE_CURVE('',#209,#210,#116,.T.);
#253=EDGE_CURVE('',#210,#211,#117,.T.);
#254=EDGE_CURVE('',#211,#212,#118,.T.);
#255=EDGE_CURVE('',#212,#205,#119,.T.);
#256=EDGE_CURVE('',#213,#206,#120,.T.);
#257=EDGE_CURVE('',#214,#213,#121,.T.);
#258=EDGE_CURVE('',#207,#214,#122,.T.);
#259=EDGE_CURVE('',#215,#214,#123,.T.);
#260=EDGE_CURVE('',#208,#215,#124,.T.);
#261=EDGE_CURVE('',#216,#215,#125,.T.);
#262=EDGE_CURVE('',#209,#216,#126,.T.);
#263=EDGE_CURVE('',#217,#216,#127,.T.);
#264=EDGE_CURVE('',#210,#217,#128,.T.);
#265=EDGE_CURVE('',#218,#217,#129,.T.);
#266=EDGE_CURVE('',#211,#218,#130,.T.);
#267=EDGE_CURVE('',#219,#218,#131,.T.);
#268=EDGE_CURVE('',#212,#219,#132,.T.);
#269=EDGE_CURVE('',#220,#219,#133,.T.);
#270=EDGE_CURVE('',#205,#220,#134,.T.);
#271=EDGE_CURVE('',#213,#220,#135,.T.);
#272=ORIENTED_EDGE('',*,*,#221,.F.);
#273=ORIENTED_EDGE('',*,*,#222,.T.);
#274=ORIENTED_EDGE('',*,*,#223,.T.);
#275=ORIENTED_EDGE('',*,*,#222,.F.);
#276=ORIENTED_EDGE('',*,*,#223,.F.);
#277=ORIENTED_EDGE('',*,*,#224,.F.);
#278=ORIENTED_EDGE('',*,*,#225,.T.);
#279=ORIENTED_EDGE('',*,*,#226,.T.);
#280=ORIENTED_EDGE('',*,*,#225,.F.);
#281=ORIENTED_EDGE('',*,*,#226,.F.);
#282=ORIENTED_EDGE('',*,*,#227,.F.);
#283=ORIENTED_EDGE('',*,*,#228,.T.);
#284=ORIENTED_EDGE('',*,*,#229,.T.);
#285=ORIENTED_EDGE('',*,*,#228,.F.);
#286=ORIENTED_EDGE('',*,*,#229,.F.);
#287=ORIENTED_EDGE('',*,*,#230,.F.);
#288=ORIENTED_EDGE('',*,*,#231,.T.);
#289=ORIENTED_EDGE('',*,*,#232,.T.);
#290=ORIENTED_EDGE('',*,*,#231,.F.);
#291=ORIENTED_EDGE('',*,*,#232,.F.);
#292=ORIENTED_EDGE('',*,*,#233,.F.);
#293=ORIENTED_EDGE('',*,*,#234,.T.);
#294=ORIENTED_EDGE('',*,*,#235,.F.);
#295=ORIENTED_EDGE('',*,*,#234,.F.);
#296=ORIENTED_EDGE('',*,*,#236,.F.);
#297=ORIENTED_EDGE('',*,*,#237,.T.);
#298=ORIENTED_EDGE('',*,*,#238,.F.);
#299=ORIENTED_EDGE('',*,*,#237,.F.);
#300=ORIENTED_EDGE('',*,*,#239,.F.);
#301=ORIENTED_EDGE('',*,*,#240,.T.);
#302=ORIENTED_EDGE('',*,*,#241,.F.);
#303=ORIENTED_EDGE('',*,*,#240,.F.);
#304=ORIENTED_EDGE('',*,*,#242,.F.);
#305=ORIENTED_EDGE('',*,*,#243,.T.);
#306=ORIENTED_EDGE('',*,*,#244,.F.);
#307=ORIENTED_EDGE('',*,*,#243,.F.);
#308=ORIENTED_EDGE('',*,*,#245,.F.);
#309=ORIENTED_EDGE('',*,*,#246,.T.);
#310=ORIENTED_EDGE('',*,*,#247,.F.);
#311=ORIENTED_EDGE('',*,*,#246,.F.);
#312=ORIENTED_EDGE('',*,*,#248,.T.);
#313=ORIENTED_EDGE('',*,*,#249,.T.);
#314=ORIENTED_EDGE('',*,*,#250,.T.);
#315=ORIENTED_EDGE('',*,*,#251,.T.);
#316=ORIENTED_EDGE('',*,*,#252,.T.);
#317=ORIENTED_EDGE('',*,*,#253,.T.);
#318=ORIENTED_EDGE('',*,*,#254,.T.);
#319=ORIENTED_EDGE('',*,*,#255,.T.);
#320=ORIENTED_EDGE('',*,*,#256,.F.);
#321=ORIENTED_EDGE('',*,*,#257,.F.);
#322=ORIENTED_EDGE('',*,*,#258,.F.);
#323=ORIENTED_EDGE('',*,*,#249,.F.);
#324=ORIENTED_EDGE('',*,*,#247,.T.);
#325=ORIENTED_EDGE('',*,*,#244,.T.);
#326=ORIENTED_EDGE('',*,*,#241,.T.);
#327=ORIENTED_EDGE('',*,*,#238,.T.);
#328=ORIENTED_EDGE('',*,*,#235,.T.);
#329=ORIENTED_EDGE('',*,*,#258,.T.);
#330=ORIENTED_EDGE('',*,*,#259,.F.);
#331=ORIENTED_EDGE('',*,*,#260,.F.);
#332=ORIENTED_EDGE('',*,*,#250,.F.);
#333=ORIENTED_EDGE('',*,*,#260,.T.);
#334=ORIENTED_EDGE('',*,*,#261,.F.);
#335=ORIENTED_EDGE('',*,*,#262,.F.);
#336=ORIENTED_EDGE('',*,*,#251,.F.);
#337=ORIENTED_EDGE('',*,*,#262,.T.);
#338=ORIENTED_EDGE('',*,*,#263,.F.);
#339=ORIENTED_EDGE('',*,*,#264,.F.);
#340=ORIENTED_EDGE('',*,*,#252,.F.);
#341=ORIENTED_EDGE('',*,*,#221,.T.);
#342=ORIENTED_EDGE('',*,*,#224,.T.);
#343=ORIENTED_EDGE('',*,*,#227,.T.);
#344=ORIENTED_EDGE('',*,*,#230,.T.);
#345=ORIENTED_EDGE('',*,*,#264,.T.);
#346=ORIENTED_EDGE('',*,*,#265,.F.);
#347=ORIENTED_EDGE('',*,*,#266,.F.);
#348=ORIENTED_EDGE('',*,*,#253,.F.);
#349=ORIENTED_EDGE('',*,*,#266,.T.);
#350=ORIENTED_EDGE('',*,*,#267,.F.);
#351=ORIENTED_EDGE('',*,*,#268,.F.);
#352=ORIENTED_EDGE('',*,*,#254,.F.);
#353=ORIENTED_EDGE('',*,*,#268,.T.);
#354=ORIENTED_EDGE('',*,*,#269,.F.);
#355=ORIENTED_EDGE('',*,*,#270,.F.);
#356=ORIENTED_EDGE('',*,*,#255,.F.);
#357=ORIENTED_EDGE('',*,*,#245,.T.);
#358=ORIENTED_EDGE('',*,*,#242,.T.);
#359=ORIENTED_EDGE('',*,*,#239,.T.);
#360=ORIENTED_EDGE('',*,*,#236,.T.);
#361=ORIENTED_EDGE('',*,*,#233,.T.);
#362=ORIENTED_EDGE('',*,*,#270,.T.);
#363=ORIENTED_EDGE('',*,*,#271,.F.);
#364=ORIENTED_EDGE('',*,*,#256,.T.);
#365=ORIENTED_EDGE('',*,*,#248,.F.);
#366=ORIENTED_EDGE('',*,*,#271,.T.);
#367=ORIENTED_EDGE('',*,*,#269,.T.);
#368=ORIENTED_EDGE('',*,*,#267,.T.);
#369=ORIENTED_EDGE('',*,*,#265,.T.);
#370=ORIENTED_EDGE('',*,*,#263,.T.);
#371=ORIENTED_EDGE('',*,*,#261,.T.);
#372=ORIENTED_EDGE('',*,*,#259,.T.);
#373=ORIENTED_EDGE('',*,*,#257,.T.);
#374=CYLINDRICAL_SURFACE('',#420,0.225);
#375=CYLINDRICAL_SURFACE('',#424,0.225);
#376=CYLINDRICAL_SURFACE('',#428,0.225);
#377=CYLINDRICAL_SURFACE('',#432,0.225);
#378=CYLINDRICAL_SURFACE('',#436,0.16);
#379=CYLINDRICAL_SURFACE('',#439,0.16);
#380=CYLINDRICAL_SURFACE('',#442,0.16);
#381=CYLINDRICAL_SURFACE('',#445,0.16);
#382=CYLINDRICAL_SURFACE('',#448,0.375);
#383=ADVANCED_FACE('',(#43),#374,.F.);
#384=ADVANCED_FACE('',(#44),#29,.T.);
#385=ADVANCED_FACE('',(#45),#375,.F.);
#386=ADVANCED_FACE('',(#46),#30,.T.);
#387=ADVANCED_FACE('',(#47),#376,.F.);
#388=ADVANCED_FACE('',(#48),#31,.T.);
#389=ADVANCED_FACE('',(#49),#377,.F.);
#390=ADVANCED_FACE('',(#50),#32,.T.);
#391=ADVANCED_FACE('',(#51),#378,.F.);
#392=ADVANCED_FACE('',(#52),#379,.F.);
#393=ADVANCED_FACE('',(#53),#380,.F.);
#394=ADVANCED_FACE('',(#54),#381,.F.);
#395=ADVANCED_FACE('',(#55),#382,.F.);
#396=ADVANCED_FACE('',(#56),#33,.T.);
#397=ADVANCED_FACE('',(#57,#15,#16,#17,#18,#19),#34,.T.);
#398=ADVANCED_FACE('',(#58),#35,.T.);
#399=ADVANCED_FACE('',(#59),#36,.T.);
#400=ADVANCED_FACE('',(#60,#20,#21,#22,#23),#37,.T.);
#401=ADVANCED_FACE('',(#61),#38,.T.);
#402=ADVANCED_FACE('',(#62),#39,.T.);
#403=ADVANCED_FACE('',(#63,#24,#25,#26,#27,#28),#40,.T.);
#404=ADVANCED_FACE('',(#64),#41,.T.);
#405=ADVANCED_FACE('',(#65),#42,.T.);
#406=CLOSED_SHELL('',(#383,#384,#385,#386,#387,#388,#389,#390,#391,#392,
#393,#394,#395,#396,#397,#398,#399,#400,#401,#402,#403,#404,#405));
#407=DERIVED_UNIT_ELEMENT(#409,1.);
#408=DERIVED_UNIT_ELEMENT(#692,-3.);
#409=(
MASS_UNIT()
NAMED_UNIT(*)
SI_UNIT(.KILO.,.GRAM.)
);
#410=DERIVED_UNIT((#407,#408));
#411=MEASURE_REPRESENTATION_ITEM('density measure',
POSITIVE_RATIO_MEASURE(7850.),#410);
#412=PROPERTY_DEFINITION_REPRESENTATION(#417,#414);
#413=PROPERTY_DEFINITION_REPRESENTATION(#418,#415);
#414=REPRESENTATION('material name',(#416),#689);
#415=REPRESENTATION('density',(#411),#689);
#416=DESCRIPTIVE_REPRESENTATION_ITEM('\X2\92FC\X0\','\X2\92FC\X0\');
#417=PROPERTY_DEFINITION('material property','material name',#699);
#418=PROPERTY_DEFINITION('material property','density of part',#699);
#419=AXIS2_PLACEMENT_3D('',#578,#461,#462);
#420=AXIS2_PLACEMENT_3D('',#579,#463,#464);
#421=AXIS2_PLACEMENT_3D('',#581,#465,#466);
#422=AXIS2_PLACEMENT_3D('',#584,#468,#469);
#423=AXIS2_PLACEMENT_3D('',#585,#470,#471);
#424=AXIS2_PLACEMENT_3D('',#586,#472,#473);
#425=AXIS2_PLACEMENT_3D('',#588,#474,#475);
#426=AXIS2_PLACEMENT_3D('',#591,#477,#478);
#427=AXIS2_PLACEMENT_3D('',#592,#479,#480);
#428=AXIS2_PLACEMENT_3D('',#593,#481,#482);
#429=AXIS2_PLACEMENT_3D('',#595,#483,#484);
#430=AXIS2_PLACEMENT_3D('',#598,#486,#487);
#431=AXIS2_PLACEMENT_3D('',#599,#488,#489);
#432=AXIS2_PLACEMENT_3D('',#600,#490,#491);
#433=AXIS2_PLACEMENT_3D('',#602,#492,#493);
#434=AXIS2_PLACEMENT_3D('',#605,#495,#496);
#435=AXIS2_PLACEMENT_3D('',#606,#497,#498);
#436=AXIS2_PLACEMENT_3D('',#607,#499,#500);
#437=AXIS2_PLACEMENT_3D('',#609,#501,#502);
#438=AXIS2_PLACEMENT_3D('',#612,#504,#505);
#439=AXIS2_PLACEMENT_3D('',#613,#506,#507);
#440=AXIS2_PLACEMENT_3D('',#615,#508,#509);
#441=AXIS2_PLACEMENT_3D('',#618,#511,#512);
#442=AXIS2_PLACEMENT_3D('',#619,#513,#514);
#443=AXIS2_PLACEMENT_3D('',#621,#515,#516);
#444=AXIS2_PLACEMENT_3D('',#624,#518,#519);
#445=AXIS2_PLACEMENT_3D('',#625,#520,#521);
#446=AXIS2_PLACEMENT_3D('',#627,#522,#523);
#447=AXIS2_PLACEMENT_3D('',#630,#525,#526);
#448=AXIS2_PLACEMENT_3D('',#631,#527,#528);
#449=AXIS2_PLACEMENT_3D('',#633,#529,#530);
#450=AXIS2_PLACEMENT_3D('',#636,#532,#533);
#451=AXIS2_PLACEMENT_3D('',#637,#534,#535);
#452=AXIS2_PLACEMENT_3D('',#654,#544,#545);
#453=AXIS2_PLACEMENT_3D('',#660,#549,#550);
#454=AXIS2_PLACEMENT_3D('',#664,#553,#554);
#455=AXIS2_PLACEMENT_3D('',#668,#557,#558);
#456=AXIS2_PLACEMENT_3D('',#672,#561,#562);
#457=AXIS2_PLACEMENT_3D('',#676,#565,#566);
#458=AXIS2_PLACEMENT_3D('',#680,#569,#570);
#459=AXIS2_PLACEMENT_3D('',#684,#573,#574);
#460=AXIS2_PLACEMENT_3D('',#686,#576,#577);
#461=DIRECTION('axis',(0.,0.,1.));
#462=DIRECTION('refdir',(1.,0.,0.));
#463=DIRECTION('center_axis',(-0.820062564998342,-0.572273876293807,0.));
#464=DIRECTION('ref_axis',(-0.572273876293807,0.820062564998342,0.));
#465=DIRECTION('center_axis',(-0.820062564998342,-0.572273876293807,0.));
#466=DIRECTION('ref_axis',(-0.572273876293807,0.820062564998342,0.));
#467=DIRECTION('',(-0.820062564998342,-0.572273876293807,0.));
#468=DIRECTION('center_axis',(-0.820062564998342,-0.572273876293807,0.));
#469=DIRECTION('ref_axis',(-0.572273876293807,0.820062564998342,0.));
#470=DIRECTION('center_axis',(0.820062564998342,0.572273876293807,0.));
#471=DIRECTION('ref_axis',(-0.572273876293807,0.820062564998342,0.));
#472=DIRECTION('center_axis',(-0.820062564998342,-0.572273876293808,0.));
#473=DIRECTION('ref_axis',(-0.572273876293808,0.820062564998342,0.));
#474=DIRECTION('center_axis',(-0.820062564998342,-0.572273876293807,0.));
#475=DIRECTION('ref_axis',(-0.572273876293808,0.820062564998342,0.));
#476=DIRECTION('',(-0.820062564998342,-0.572273876293808,0.));
#477=DIRECTION('center_axis',(-0.820062564998342,-0.572273876293807,0.));
#478=DIRECTION('ref_axis',(-0.572273876293807,0.820062564998342,0.));
#479=DIRECTION('center_axis',(0.820062564998342,0.572273876293807,0.));
#480=DIRECTION('ref_axis',(-0.572273876293807,0.820062564998342,0.));
#481=DIRECTION('center_axis',(-0.820062564998342,-0.572273876293807,0.));
#482=DIRECTION('ref_axis',(-0.572273876293807,0.820062564998342,0.));
#483=DIRECTION('center_axis',(-0.820062564998342,-0.572273876293807,0.));
#484=DIRECTION('ref_axis',(-0.572273876293807,0.820062564998342,0.));
#485=DIRECTION('',(-0.820062564998342,-0.572273876293807,0.));
#486=DIRECTION('center_axis',(-0.820062564998342,-0.572273876293807,0.));
#487=DIRECTION('ref_axis',(-0.572273876293807,0.820062564998342,0.));
#488=DIRECTION('center_axis',(0.820062564998342,0.572273876293807,0.));
#489=DIRECTION('ref_axis',(-0.572273876293807,0.820062564998342,0.));
#490=DIRECTION('center_axis',(-0.820062564998342,-0.572273876293808,0.));
#491=DIRECTION('ref_axis',(-0.572273876293808,0.820062564998342,0.));
#492=DIRECTION('center_axis',(-0.820062564998342,-0.572273876293807,0.));
#493=DIRECTION('ref_axis',(-0.572273876293808,0.820062564998342,0.));
#494=DIRECTION('',(-0.820062564998342,-0.572273876293808,0.));
#495=DIRECTION('center_axis',(-0.820062564998342,-0.572273876293807,0.));
#496=DIRECTION('ref_axis',(-0.572273876293807,0.820062564998342,0.));
#497=DIRECTION('center_axis',(0.820062564998342,0.572273876293807,0.));
#498=DIRECTION('ref_axis',(-0.572273876293807,0.820062564998342,0.));
#499=DIRECTION('center_axis',(0.,1.,0.));
#500=DIRECTION('ref_axis',(1.,0.,0.));
#501=DIRECTION('center_axis',(0.,1.,0.));
#502=DIRECTION('ref_axis',(1.,0.,0.));
#503=DIRECTION('',(0.,1.,0.));
#504=DIRECTION('center_axis',(0.,-1.,0.));
#505=DIRECTION('ref_axis',(1.,0.,0.));
#506=DIRECTION('center_axis',(0.,1.,0.));
#507=DIRECTION('ref_axis',(1.,0.,0.));
#508=DIRECTION('center_axis',(0.,1.,0.));
#509=DIRECTION('ref_axis',(1.,0.,0.));
#510=DIRECTION('',(0.,1.,0.));
#511=DIRECTION('center_axis',(0.,-1.,0.));
#512=DIRECTION('ref_axis',(1.,0.,0.));
#513=DIRECTION('center_axis',(0.,1.,0.));
#514=DIRECTION('ref_axis',(1.,0.,0.));
#515=DIRECTION('center_axis',(0.,1.,0.));
#516=DIRECTION('ref_axis',(1.,0.,0.));
#517=DIRECTION('',(0.,1.,0.));
#518=DIRECTION('center_axis',(0.,-1.,0.));
#519=DIRECTION('ref_axis',(1.,0.,0.));
#520=DIRECTION('center_axis',(0.,1.,0.));
#521=DIRECTION('ref_axis',(1.,0.,0.));
#522=DIRECTION('center_axis',(0.,1.,0.));
#523=DIRECTION('ref_axis',(1.,0.,0.));
#524=DIRECTION('',(0.,1.,0.));
#525=DIRECTION('center_axis',(0.,-1.,0.));
#526=DIRECTION('ref_axis',(1.,0.,0.));
#527=DIRECTION('center_axis',(0.,1.,0.));
#528=DIRECTION('ref_axis',(1.,0.,0.));
#529=DIRECTION('center_axis',(0.,1.,0.));
#530=DIRECTION('ref_axis',(1.,0.,0.));
#531=DIRECTION('',(0.,1.,0.));
#532=DIRECTION('center_axis',(0.,-1.,0.));
#533=DIRECTION('ref_axis',(1.,0.,0.));
#534=DIRECTION('center_axis',(0.,0.,-1.));
#535=DIRECTION('ref_axis',(-1.,0.,0.));
#536=DIRECTION('',(0.,1.,0.));
#537=DIRECTION('',(1.,0.,0.));
#538=DIRECTION('',(0.518849181662186,0.854865794548173,0.));
#539=DIRECTION('',(0.820398166769986,0.571792661688173,0.));
#540=DIRECTION('',(0.572273876293807,-0.820062564998342,0.));
#541=DIRECTION('',(-0.820398166769987,-0.571792661688173,0.));
#542=DIRECTION('',(-0.930051989955989,-0.367427946649279,0.));
#543=DIRECTION('',(-1.,0.,0.));
#544=DIRECTION('center_axis',(0.,1.,0.));
#545=DIRECTION('ref_axis',(-1.,0.,0.));
#546=DIRECTION('',(0.,0.,-1.));
#547=DIRECTION('',(-1.,0.,0.));
#548=DIRECTION('',(0.,0.,1.));
#549=DIRECTION('center_axis',(-0.854865794548173,0.518849181662186,0.));
#550=DIRECTION('ref_axis',(-0.518849181662186,-0.854865794548173,0.));
#551=DIRECTION('',(-0.518849181662186,-0.854865794548173,0.));
#552=DIRECTION('',(0.,0.,1.));
#553=DIRECTION('center_axis',(-0.571792661688173,0.820398166769986,0.));
#554=DIRECTION('ref_axis',(-0.820398166769986,-0.571792661688173,0.));
#555=DIRECTION('',(-0.820398166769986,-0.571792661688173,0.));
#556=DIRECTION('',(0.,0.,1.));
#557=DIRECTION('center_axis',(0.820062564998342,0.572273876293807,0.));
#558=DIRECTION('ref_axis',(-0.572273876293807,0.820062564998342,0.));
#559=DIRECTION('',(-0.572273876293807,0.820062564998342,0.));
#560=DIRECTION('',(0.,0.,1.));
#561=DIRECTION('center_axis',(0.571792661688173,-0.820398166769987,0.));
#562=DIRECTION('ref_axis',(0.820398166769987,0.571792661688173,0.));
#563=DIRECTION('',(0.820398166769987,0.571792661688173,0.));
#564=DIRECTION('',(0.,0.,1.));
#565=DIRECTION('center_axis',(0.367427946649279,-0.930051989955989,0.));
#566=DIRECTION('ref_axis',(0.930051989955989,0.367427946649279,0.));
#567=DIRECTION('',(0.930051989955989,0.367427946649279,0.));
#568=DIRECTION('',(0.,0.,1.));
#569=DIRECTION('center_axis',(0.,-1.,0.));
#570=DIRECTION('ref_axis',(1.,0.,0.));
#571=DIRECTION('',(1.,0.,0.));
#572=DIRECTION('',(0.,0.,1.));
#573=DIRECTION('center_axis',(-1.,0.,0.));
#574=DIRECTION('ref_axis',(0.,-1.,0.));
#575=DIRECTION('',(0.,-1.,0.));
#576=DIRECTION('center_axis',(0.,0.,1.));
#577=DIRECTION('ref_axis',(1.,0.,0.));
#578=CARTESIAN_POINT('',(0.,0.,0.));
#579=CARTESIAN_POINT('Origin',(4.20757590614689,0.313886072634877,1.));
#580=CARTESIAN_POINT('',(4.33633752831299,0.12937199551025,1.));
#581=CARTESIAN_POINT('Origin',(4.20757590614688,0.313886072634876,1.));
#582=CARTESIAN_POINT('',(3.92630624581382,-0.156764942636654,1.));
#583=CARTESIAN_POINT('',(4.33633752831299,0.12937199551025,1.));
#584=CARTESIAN_POINT('Origin',(3.79754462364772,0.0277491344879731,1.));
#585=CARTESIAN_POINT('Origin',(3.79754462364772,0.0277491344879731,1.));
#586=CARTESIAN_POINT('Origin',(4.66541860715629,-0.342197797883744,-1.));
#587=CARTESIAN_POINT('',(4.79418022932239,-0.526711875008372,-1.));
#588=CARTESIAN_POINT('Origin',(4.66541860715628,-0.342197797883746,-1.));
#589=CARTESIAN_POINT('',(4.38414894682322,-0.812848813155275,-1.));
#590=CARTESIAN_POINT('',(4.79418022932239,-0.526711875008371,-1.));
#591=CARTESIAN_POINT('Origin',(4.25538732465711,-0.628334736030648,-1.));
#592=CARTESIAN_POINT('Origin',(4.25538732465711,-0.628334736030648,-1.));
#593=CARTESIAN_POINT('Origin',(4.20757590614689,0.313886072634877,-1.));
#594=CARTESIAN_POINT('',(4.33633752831299,0.12937199551025,-1.));
#595=CARTESIAN_POINT('Origin',(4.20757590614688,0.313886072634876,-1.));
#596=CARTESIAN_POINT('',(3.92630624581382,-0.156764942636654,-1.));
#597=CARTESIAN_POINT('',(4.33633752831299,0.12937199551025,-1.));
#598=CARTESIAN_POINT('Origin',(3.79754462364772,0.0277491344879731,-1.));
#599=CARTESIAN_POINT('Origin',(3.79754462364772,0.0277491344879731,-1.));
#600=CARTESIAN_POINT('Origin',(4.66541860715629,-0.342197797883744,1.));
#601=CARTESIAN_POINT('',(4.79418022932239,-0.526711875008372,1.));
#602=CARTESIAN_POINT('Origin',(4.66541860715628,-0.342197797883746,1.));
#603=CARTESIAN_POINT('',(4.38414894682322,-0.812848813155275,1.));
#604=CARTESIAN_POINT('',(4.79418022932239,-0.526711875008371,1.));
#605=CARTESIAN_POINT('Origin',(4.25538732465711,-0.628334736030648,1.));
#606=CARTESIAN_POINT('Origin',(4.25538732465711,-0.628334736030648,1.));
#607=CARTESIAN_POINT('Origin',(0.,0.,0.85));
#608=CARTESIAN_POINT('',(-0.16,-1.62,0.85));
#609=CARTESIAN_POINT('Origin',(0.,-1.62,0.85));
#610=CARTESIAN_POINT('',(-0.16,-1.32,0.85));
#611=CARTESIAN_POINT('',(-0.16,0.,0.85));
#612=CARTESIAN_POINT('Origin',(0.,-1.32,0.85));
#613=CARTESIAN_POINT('Origin',(0.,0.,-0.85));
#614=CARTESIAN_POINT('',(-0.16,-1.62,-0.85));
#615=CARTESIAN_POINT('Origin',(0.,-1.62,-0.85));
#616=CARTESIAN_POINT('',(-0.16,-1.32,-0.85));
#617=CARTESIAN_POINT('',(-0.16,0.,-0.85));
#618=CARTESIAN_POINT('Origin',(0.,-1.32,-0.85));
#619=CARTESIAN_POINT('Origin',(-0.85,0.,0.));
#620=CARTESIAN_POINT('',(-1.01,-1.62,1.95943487863577E-17));
#621=CARTESIAN_POINT('Origin',(-0.85,-1.62,0.));
#622=CARTESIAN_POINT('',(-1.01,-1.32,-1.95943487863577E-17));
#623=CARTESIAN_POINT('',(-1.01,0.,1.95943487863577E-17));
#624=CARTESIAN_POINT('Origin',(-0.85,-1.32,0.));
#625=CARTESIAN_POINT('Origin',(0.85,0.,0.));
#626=CARTESIAN_POINT('',(0.69,-1.62,1.95943487863577E-17));
#627=CARTESIAN_POINT('Origin',(0.85,-1.62,0.));
#628=CARTESIAN_POINT('',(0.69,-1.32,-1.95943487863577E-17));
#629=CARTESIAN_POINT('',(0.69,0.,1.95943487863577E-17));
#630=CARTESIAN_POINT('Origin',(0.85,-1.32,0.));
#631=CARTESIAN_POINT('Origin',(0.,0.,0.));
#632=CARTESIAN_POINT('',(-0.375,-1.62,4.59242549680257E-17));
#633=CARTESIAN_POINT('Origin',(0.,-1.62,0.));
#634=CARTESIAN_POINT('',(-0.375,-1.32,-4.59242549680257E-17));
#635=CARTESIAN_POINT('',(-0.375,0.,4.59242549680257E-17));
#636=CARTESIAN_POINT('Origin',(0.,-1.32,0.));
#637=CARTESIAN_POINT('Origin',(1.675,-0.49,-1.6));
#638=CARTESIAN_POINT('',(-1.6,-1.62,-1.6));
#639=CARTESIAN_POINT('',(-1.6,-1.32,-1.6));
#640=CARTESIAN_POINT('',(-1.6,-1.32,-1.6));
#641=CARTESIAN_POINT('',(2.6,-1.32,-1.6));
#642=CARTESIAN_POINT('',(2.6,-1.32,-1.6));
#643=CARTESIAN_POINT('',(3.65,0.41,-1.6));
#644=CARTESIAN_POINT('',(3.65,0.41,-1.6));
#645=CARTESIAN_POINT('',(3.98,0.64,-1.6));
#646=CARTESIAN_POINT('',(3.98,0.64,-1.6));
#647=CARTESIAN_POINT('',(4.95,-0.75,-1.6));
#648=CARTESIAN_POINT('',(4.95,-0.75,-1.6));
#649=CARTESIAN_POINT('',(4.62,-0.98,-1.6));
#650=CARTESIAN_POINT('',(4.62,-0.98,-1.6));
#651=CARTESIAN_POINT('',(3.,-1.62,-1.6));
#652=CARTESIAN_POINT('',(3.,-1.62,-1.6));
#653=CARTESIAN_POINT('',(-1.6,-1.62,-1.6));
#654=CARTESIAN_POINT('Origin',(2.6,-1.32,0.));
#655=CARTESIAN_POINT('',(-1.6,-1.32,1.6));
#656=CARTESIAN_POINT('',(-1.6,-1.32,0.));
#657=CARTESIAN_POINT('',(2.6,-1.32,1.6));
#658=CARTESIAN_POINT('',(2.6,-1.32,1.6));
#659=CARTESIAN_POINT('',(2.6,-1.32,0.));
#660=CARTESIAN_POINT('Origin',(3.65,0.41,0.));
#661=CARTESIAN_POINT('',(3.65,0.41,1.6));
#662=CARTESIAN_POINT('',(3.65,0.41,1.6));
#663=CARTESIAN_POINT('',(3.65,0.41,0.));
#664=CARTESIAN_POINT('Origin',(3.98,0.64,0.));
#665=CARTESIAN_POINT('',(3.98,0.64,1.6));
#666=CARTESIAN_POINT('',(3.98,0.64,1.6));
#667=CARTESIAN_POINT('',(3.98,0.64,0.));
#668=CARTESIAN_POINT('Origin',(4.95,-0.75,0.));
#669=CARTESIAN_POINT('',(4.95,-0.75,1.6));
#670=CARTESIAN_POINT('',(4.95,-0.75,1.6));
#671=CARTESIAN_POINT('',(4.95,-0.75,0.));
#672=CARTESIAN_POINT('Origin',(4.62,-0.98,0.));
#673=CARTESIAN_POINT('',(4.62,-0.98,1.6));
#674=CARTESIAN_POINT('',(4.62,-0.98,1.6));
#675=CARTESIAN_POINT('',(4.62,-0.98,0.));
#676=CARTESIAN_POINT('Origin',(3.,-1.62,0.));
#677=CARTESIAN_POINT('',(3.,-1.62,1.6));
#678=CARTESIAN_POINT('',(3.,-1.62,1.6));
#679=CARTESIAN_POINT('',(3.,-1.62,0.));
#680=CARTESIAN_POINT('Origin',(-1.6,-1.62,0.));
#681=CARTESIAN_POINT('',(-1.6,-1.62,1.6));
#682=CARTESIAN_POINT('',(-1.6,-1.62,1.6));
#683=CARTESIAN_POINT('',(-1.6,-1.62,0.));
#684=CARTESIAN_POINT('Origin',(-1.6,-1.32,0.));
#685=CARTESIAN_POINT('',(-1.6,-1.32,1.6));
#686=CARTESIAN_POINT('Origin',(1.675,-0.49,1.6));
#687=UNCERTAINTY_MEASURE_WITH_UNIT(LENGTH_MEASURE(0.001),#691,
'DISTANCE_ACCURACY_VALUE',
'Maximum model space distance between geometric entities at asserted c
onnectivities');
#688=UNCERTAINTY_MEASURE_WITH_UNIT(LENGTH_MEASURE(0.001),#691,
'DISTANCE_ACCURACY_VALUE',
'Maximum model space distance between geometric entities at asserted c
onnectivities');
#689=(
GEOMETRIC_REPRESENTATION_CONTEXT(3)
GLOBAL_UNCERTAINTY_ASSIGNED_CONTEXT((#687))
GLOBAL_UNIT_ASSIGNED_CONTEXT((#691,#693,#694))
REPRESENTATION_CONTEXT('','3D')
);
#690=(
GEOMETRIC_REPRESENTATION_CONTEXT(3)
GLOBAL_UNCERTAINTY_ASSIGNED_CONTEXT((#688))
GLOBAL_UNIT_ASSIGNED_CONTEXT((#691,#693,#694))
REPRESENTATION_CONTEXT('','3D')
);
#691=(
LENGTH_UNIT()
NAMED_UNIT(*)
SI_UNIT(.CENTI.,.METRE.)
);
#692=(
LENGTH_UNIT()
NAMED_UNIT(*)
SI_UNIT($,.METRE.)
);
#693=(
NAMED_UNIT(*)
PLANE_ANGLE_UNIT()
SI_UNIT($,.RADIAN.)
);
#694=(
NAMED_UNIT(*)
SI_UNIT($,.STERADIAN.)
SOLID_ANGLE_UNIT()
);
#695=SHAPE_DEFINITION_REPRESENTATION(#696,#697);
#696=PRODUCT_DEFINITION_SHAPE('',$,#699);
#697=SHAPE_REPRESENTATION('',(#419),#689);
#698=PRODUCT_DEFINITION_CONTEXT('part definition',#703,'design');
#699=PRODUCT_DEFINITION('2026-09-15-08-15-20-329','MotorMount',#700,#698);
#700=PRODUCT_DEFINITION_FORMATION('',$,#705);
#701=PRODUCT_RELATED_PRODUCT_CATEGORY('MotorMount','MotorMount',(#705));
#702=APPLICATION_PROTOCOL_DEFINITION('international standard',
'automotive_design',2009,#703);
#703=APPLICATION_CONTEXT(
'Core Data for Automotive Mechanical Design Process');
#704=PRODUCT_CONTEXT('part definition',#703,'mechanical');
#705=PRODUCT('2026-09-15-08-15-20-329','MotorMount',$,(#704));
#706=PRESENTATION_STYLE_ASSIGNMENT((#707));
#707=SURFACE_STYLE_USAGE(.BOTH.,#708);
#708=SURFACE_SIDE_STYLE('',(#709));
#709=SURFACE_STYLE_FILL_AREA(#710);
#710=FILL_AREA_STYLE('\X2\92FC\X0\ - \X2\30B530C630F3\X0\',(#711));
#711=FILL_AREA_STYLE_COLOUR('\X2\92FC\X0\ - \X2\30B530C630F3\X0\',#712);
#712=COLOUR_RGB('\X2\92FC\X0\ - \X2\30B530C630F3\X0\',0.627450980392157,
0.627450980392157,0.627450980392157);
ENDSEC;
END-ISO-10303-21;
