ISO-10303-21;
HEADER;
/* Generated by software containing ST-Developer
 * from STEP Tools, Inc. (www.steptools.com) 
 */

FILE_DESCRIPTION(
/* description */ (''),
/* implementation_level */ '2;1');

FILE_NAME(
/* name */ 'MotorMount_v5.step',
/* time_stamp */ '2026-09-18T20:48:11+09:00',
/* author */ (''),
/* organization */ (''),
/* preprocessor_version */ 'ST-DEVELOPER v20.2',
/* originating_system */ 'Autodesk Translation Framework v15.15.0.0',
/* authorisation */ '');

FILE_SCHEMA (('AUTOMOTIVE_DESIGN { 1 0 10303 214 3 1 1 }'));
ENDSEC;

DATA;
#10=MECHANICAL_DESIGN_GEOMETRIC_PRESENTATION_REPRESENTATION('',(#13),#1394);
#11=SHAPE_REPRESENTATION_RELATIONSHIP('SRR','None',#1401,#12);
#12=ADVANCED_BREP_SHAPE_REPRESENTATION('',(#14),#1393);
#13=STYLED_ITEM('',(#1410),#14);
#14=MANIFOLD_SOLID_BREP('\X2\30DC30C730A3\X0\1',#830);
#15=FACE_BOUND('',#124,.T.);
#16=FACE_BOUND('',#125,.T.);
#17=FACE_BOUND('',#137,.T.);
#18=FACE_BOUND('',#138,.T.);
#19=FACE_BOUND('',#139,.T.);
#20=FACE_BOUND('',#140,.T.);
#21=FACE_BOUND('',#146,.T.);
#22=FACE_BOUND('',#147,.T.);
#23=FACE_BOUND('',#148,.T.);
#24=FACE_BOUND('',#149,.T.);
#25=FACE_BOUND('',#150,.T.);
#26=FACE_BOUND('',#153,.T.);
#27=FACE_BOUND('',#156,.T.);
#28=FACE_BOUND('',#159,.T.);
#29=FACE_BOUND('',#162,.T.);
#30=FACE_BOUND('',#170,.T.);
#31=FACE_BOUND('',#171,.T.);
#32=FACE_BOUND('',#172,.T.);
#33=FACE_BOUND('',#173,.T.);
#34=FACE_BOUND('',#174,.T.);
#35=PLANE('',#854);
#36=PLANE('',#858);
#37=PLANE('',#862);
#38=PLANE('',#866);
#39=PLANE('',#870);
#40=PLANE('',#871);
#41=PLANE('',#872);
#42=PLANE('',#873);
#43=PLANE('',#874);
#44=PLANE('',#875);
#45=PLANE('',#876);
#46=PLANE('',#877);
#47=PLANE('',#878);
#48=PLANE('',#879);
#49=PLANE('',#880);
#50=PLANE('',#881);
#51=PLANE('',#882);
#52=PLANE('',#883);
#53=PLANE('',#884);
#54=PLANE('',#885);
#55=PLANE('',#886);
#56=PLANE('',#887);
#57=PLANE('',#888);
#58=PLANE('',#889);
#59=PLANE('',#898);
#60=PLANE('',#903);
#61=PLANE('',#908);
#62=PLANE('',#913);
#63=PLANE('',#921);
#64=PLANE('',#922);
#65=FACE_OUTER_BOUND('',#110,.T.);
#66=FACE_OUTER_BOUND('',#111,.T.);
#67=FACE_OUTER_BOUND('',#112,.T.);
#68=FACE_OUTER_BOUND('',#113,.T.);
#69=FACE_OUTER_BOUND('',#114,.T.);
#70=FACE_OUTER_BOUND('',#115,.T.);
#71=FACE_OUTER_BOUND('',#116,.T.);
#72=FACE_OUTER_BOUND('',#117,.T.);
#73=FACE_OUTER_BOUND('',#118,.T.);
#74=FACE_OUTER_BOUND('',#119,.T.);
#75=FACE_OUTER_BOUND('',#120,.T.);
#76=FACE_OUTER_BOUND('',#121,.T.);
#77=FACE_OUTER_BOUND('',#122,.T.);
#78=FACE_OUTER_BOUND('',#123,.T.);
#79=FACE_OUTER_BOUND('',#126,.T.);
#80=FACE_OUTER_BOUND('',#127,.T.);
#81=FACE_OUTER_BOUND('',#128,.T.);
#82=FACE_OUTER_BOUND('',#129,.T.);
#83=FACE_OUTER_BOUND('',#130,.T.);
#84=FACE_OUTER_BOUND('',#131,.T.);
#85=FACE_OUTER_BOUND('',#132,.T.);
#86=FACE_OUTER_BOUND('',#133,.T.);
#87=FACE_OUTER_BOUND('',#134,.T.);
#88=FACE_OUTER_BOUND('',#135,.T.);
#89=FACE_OUTER_BOUND('',#136,.T.);
#90=FACE_OUTER_BOUND('',#141,.T.);
#91=FACE_OUTER_BOUND('',#142,.T.);
#92=FACE_OUTER_BOUND('',#143,.T.);
#93=FACE_OUTER_BOUND('',#144,.T.);
#94=FACE_OUTER_BOUND('',#145,.T.);
#95=FACE_OUTER_BOUND('',#151,.T.);
#96=FACE_OUTER_BOUND('',#152,.T.);
#97=FACE_OUTER_BOUND('',#154,.T.);
#98=FACE_OUTER_BOUND('',#155,.T.);
#99=FACE_OUTER_BOUND('',#157,.T.);
#100=FACE_OUTER_BOUND('',#158,.T.);
#101=FACE_OUTER_BOUND('',#160,.T.);
#102=FACE_OUTER_BOUND('',#161,.T.);
#103=FACE_OUTER_BOUND('',#163,.T.);
#104=FACE_OUTER_BOUND('',#164,.T.);
#105=FACE_OUTER_BOUND('',#165,.T.);
#106=FACE_OUTER_BOUND('',#166,.T.);
#107=FACE_OUTER_BOUND('',#167,.T.);
#108=FACE_OUTER_BOUND('',#168,.T.);
#109=FACE_OUTER_BOUND('',#169,.T.);
#110=EDGE_LOOP('',(#548,#549,#550,#551,#552,#553));
#111=EDGE_LOOP('',(#554,#555,#556,#557,#558,#559));
#112=EDGE_LOOP('',(#560,#561,#562,#563,#564,#565,#566,#567));
#113=EDGE_LOOP('',(#568,#569,#570,#571));
#114=EDGE_LOOP('',(#572));
#115=EDGE_LOOP('',(#573,#574,#575,#576));
#116=EDGE_LOOP('',(#577));
#117=EDGE_LOOP('',(#578,#579,#580,#581));
#118=EDGE_LOOP('',(#582));
#119=EDGE_LOOP('',(#583,#584,#585,#586));
#120=EDGE_LOOP('',(#587));
#121=EDGE_LOOP('',(#588,#589,#590,#591,#592,#593,#594,#595,#596));
#122=EDGE_LOOP('',(#597,#598,#599,#600,#601,#602,#603,#604,#605));
#123=EDGE_LOOP('',(#606,#607,#608,#609));
#124=EDGE_LOOP('',(#610));
#125=EDGE_LOOP('',(#611));
#126=EDGE_LOOP('',(#612,#613,#614,#615));
#127=EDGE_LOOP('',(#616,#617,#618,#619));
#128=EDGE_LOOP('',(#620,#621,#622,#623,#624,#625,#626,#627,#628,#629));
#129=EDGE_LOOP('',(#630,#631,#632,#633));
#130=EDGE_LOOP('',(#634,#635,#636,#637));
#131=EDGE_LOOP('',(#638,#639,#640,#641,#642,#643,#644,#645));
#132=EDGE_LOOP('',(#646,#647,#648,#649));
#133=EDGE_LOOP('',(#650,#651,#652,#653));
#134=EDGE_LOOP('',(#654,#655,#656,#657));
#135=EDGE_LOOP('',(#658,#659,#660,#661));
#136=EDGE_LOOP('',(#662,#663,#664,#665));
#137=EDGE_LOOP('',(#666));
#138=EDGE_LOOP('',(#667));
#139=EDGE_LOOP('',(#668));
#140=EDGE_LOOP('',(#669));
#141=EDGE_LOOP('',(#670,#671,#672,#673));
#142=EDGE_LOOP('',(#674,#675,#676,#677));
#143=EDGE_LOOP('',(#678,#679,#680,#681));
#144=EDGE_LOOP('',(#682,#683,#684,#685,#686,#687,#688,#689,#690,#691,#692));
#145=EDGE_LOOP('',(#693,#694,#695,#696,#697,#698,#699,#700));
#146=EDGE_LOOP('',(#701));
#147=EDGE_LOOP('',(#702));
#148=EDGE_LOOP('',(#703));
#149=EDGE_LOOP('',(#704));
#150=EDGE_LOOP('',(#705));
#151=EDGE_LOOP('',(#706,#707,#708,#709));
#152=EDGE_LOOP('',(#710));
#153=EDGE_LOOP('',(#711));
#154=EDGE_LOOP('',(#712,#713,#714,#715));
#155=EDGE_LOOP('',(#716));
#156=EDGE_LOOP('',(#717));
#157=EDGE_LOOP('',(#718,#719,#720,#721));
#158=EDGE_LOOP('',(#722));
#159=EDGE_LOOP('',(#723));
#160=EDGE_LOOP('',(#724,#725,#726,#727));
#161=EDGE_LOOP('',(#728));
#162=EDGE_LOOP('',(#729));
#163=EDGE_LOOP('',(#730,#731,#732,#733));
#164=EDGE_LOOP('',(#734,#735,#736,#737));
#165=EDGE_LOOP('',(#738,#739,#740,#741));
#166=EDGE_LOOP('',(#742,#743,#744,#745));
#167=EDGE_LOOP('',(#746,#747,#748,#749));
#168=EDGE_LOOP('',(#750,#751,#752,#753,#754,#755,#756,#757,#758,#759,#760));
#169=EDGE_LOOP('',(#761,#762,#763,#764));
#170=EDGE_LOOP('',(#765));
#171=EDGE_LOOP('',(#766));
#172=EDGE_LOOP('',(#767));
#173=EDGE_LOOP('',(#768));
#174=EDGE_LOOP('',(#769));
#175=ELLIPSE('',#846,0.865490456782302,0.85);
#176=ELLIPSE('',#847,0.981875958903999,0.85);
#177=ELLIPSE('',#848,0.865490456782302,0.85);
#178=ELLIPSE('',#851,0.865490456782302,0.85);
#179=ELLIPSE('',#852,0.981875958903999,0.85);
#180=ELLIPSE('',#853,0.865490456782302,0.85);
#181=LINE('',#1165,#258);
#182=LINE('',#1175,#259);
#183=LINE('',#1183,#260);
#184=LINE('',#1185,#261);
#185=LINE('',#1187,#262);
#186=LINE('',#1189,#263);
#187=LINE('',#1190,#264);
#188=LINE('',#1191,#265);
#189=LINE('',#1196,#266);
#190=LINE('',#1203,#267);
#191=LINE('',#1210,#268);
#192=LINE('',#1217,#269);
#193=LINE('',#1223,#270);
#194=LINE('',#1225,#271);
#195=LINE('',#1226,#272);
#196=LINE('',#1228,#273);
#197=LINE('',#1230,#274);
#198=LINE('',#1232,#275);
#199=LINE('',#1234,#276);
#200=LINE('',#1235,#277);
#201=LINE('',#1239,#278);
#202=LINE('',#1241,#279);
#203=LINE('',#1243,#280);
#204=LINE('',#1245,#281);
#205=LINE('',#1247,#282);
#206=LINE('',#1248,#283);
#207=LINE('',#1250,#284);
#208=LINE('',#1251,#285);
#209=LINE('',#1253,#286);
#210=LINE('',#1254,#287);
#211=LINE('',#1256,#288);
#212=LINE('',#1258,#289);
#213=LINE('',#1261,#290);
#214=LINE('',#1263,#291);
#215=LINE('',#1266,#292);
#216=LINE('',#1268,#293);
#217=LINE('',#1270,#294);
#218=LINE('',#1272,#295);
#219=LINE('',#1273,#296);
#220=LINE('',#1277,#297);
#221=LINE('',#1279,#298);
#222=LINE('',#1281,#299);
#223=LINE('',#1282,#300);
#224=LINE('',#1286,#301);
#225=LINE('',#1288,#302);
#226=LINE('',#1290,#303);
#227=LINE('',#1291,#304);
#228=LINE('',#1294,#305);
#229=LINE('',#1296,#306);
#230=LINE('',#1297,#307);
#231=LINE('',#1300,#308);
#232=LINE('',#1302,#309);
#233=LINE('',#1303,#310);
#234=LINE('',#1306,#311);
#235=LINE('',#1308,#312);
#236=LINE('',#1309,#313);
#237=LINE('',#1312,#314);
#238=LINE('',#1314,#315);
#239=LINE('',#1315,#316);
#240=LINE('',#1318,#317);
#241=LINE('',#1320,#318);
#242=LINE('',#1321,#319);
#243=LINE('',#1323,#320);
#244=LINE('',#1324,#321);
#245=LINE('',#1326,#322);
#246=LINE('',#1327,#323);
#247=LINE('',#1329,#324);
#248=LINE('',#1344,#325);
#249=LINE('',#1353,#326);
#250=LINE('',#1362,#327);
#251=LINE('',#1371,#328);
#252=LINE('',#1377,#329);
#253=LINE('',#1379,#330);
#254=LINE('',#1381,#331);
#255=LINE('',#1385,#332);
#256=LINE('',#1387,#333);
#257=LINE('',#1389,#334);
#258=VECTOR('',#929,0.85);
#259=VECTOR('',#940,0.85);
#260=VECTOR('',#949,10.);
#261=VECTOR('',#950,10.);
#262=VECTOR('',#951,10.);
#263=VECTOR('',#952,10.);
#264=VECTOR('',#953,10.);
#265=VECTOR('',#954,10.);
#266=VECTOR('',#959,2.25);
#267=VECTOR('',#968,2.25);
#268=VECTOR('',#977,2.25);
#269=VECTOR('',#986,2.25);
#270=VECTOR('',#993,10.);
#271=VECTOR('',#994,10.);
#272=VECTOR('',#995,10.);
#273=VECTOR('',#996,10.);
#274=VECTOR('',#997,10.);
#275=VECTOR('',#998,10.);
#276=VECTOR('',#999,10.);
#277=VECTOR('',#1000,10.);
#278=VECTOR('',#1003,10.);
#279=VECTOR('',#1004,10.);
#280=VECTOR('',#1005,10.);
#281=VECTOR('',#1006,10.);
#282=VECTOR('',#1007,10.);
#283=VECTOR('',#1008,10.);
#284=VECTOR('',#1009,10.);
#285=VECTOR('',#1010,10.);
#286=VECTOR('',#1013,10.);
#287=VECTOR('',#1014,10.);
#288=VECTOR('',#1017,10.);
#289=VECTOR('',#1020,10.);
#290=VECTOR('',#1025,10.);
#291=VECTOR('',#1028,10.);
#292=VECTOR('',#1031,10.);
#293=VECTOR('',#1032,10.);
#294=VECTOR('',#1033,10.);
#295=VECTOR('',#1034,10.);
#296=VECTOR('',#1035,10.);
#297=VECTOR('',#1038,10.);
#298=VECTOR('',#1039,10.);
#299=VECTOR('',#1040,10.);
#300=VECTOR('',#1041,10.);
#301=VECTOR('',#1044,10.);
#302=VECTOR('',#1045,10.);
#303=VECTOR('',#1046,10.);
#304=VECTOR('',#1047,10.);
#305=VECTOR('',#1050,10.);
#306=VECTOR('',#1051,10.);
#307=VECTOR('',#1052,10.);
#308=VECTOR('',#1055,10.);
#309=VECTOR('',#1056,10.);
#310=VECTOR('',#1057,10.);
#311=VECTOR('',#1060,10.);
#312=VECTOR('',#1061,10.);
#313=VECTOR('',#1062,10.);
#314=VECTOR('',#1065,10.);
#315=VECTOR('',#1066,10.);
#316=VECTOR('',#1067,10.);
#317=VECTOR('',#1070,10.);
#318=VECTOR('',#1071,10.);
#319=VECTOR('',#1072,10.);
#320=VECTOR('',#1075,10.);
#321=VECTOR('',#1076,10.);
#322=VECTOR('',#1079,10.);
#323=VECTOR('',#1080,10.);
#324=VECTOR('',#1083,10.);
#325=VECTOR('',#1098,2.89999999999999);
#326=VECTOR('',#1109,2.89999999999999);
#327=VECTOR('',#1120,2.89999999999999);
#328=VECTOR('',#1131,2.89999999999999);
#329=VECTOR('',#1140,1.7);
#330=VECTOR('',#1143,1.7);
#331=VECTOR('',#1146,1.7);
#332=VECTOR('',#1151,4.49999999999999);
#333=VECTOR('',#1154,1.7);
#334=VECTOR('',#1157,10.);
#335=CIRCLE('',#845,0.85);
#336=CIRCLE('',#850,0.85);
#337=CIRCLE('',#856,2.25);
#338=CIRCLE('',#857,2.25);
#339=CIRCLE('',#860,2.25);
#340=CIRCLE('',#861,2.25);
#341=CIRCLE('',#864,2.25);
#342=CIRCLE('',#865,2.25);
#343=CIRCLE('',#868,2.25);
#344=CIRCLE('',#869,2.25);
#345=CIRCLE('',#890,1.7);
#346=CIRCLE('',#891,1.7);
#347=CIRCLE('',#892,1.7);
#348=CIRCLE('',#893,4.49999999999999);
#349=CIRCLE('',#894,1.7);
#350=CIRCLE('',#896,2.89999999999999);
#351=CIRCLE('',#897,2.89999999999999);
#352=CIRCLE('',#899,1.7);
#353=CIRCLE('',#901,2.89999999999999);
#354=CIRCLE('',#902,2.89999999999999);
#355=CIRCLE('',#904,1.7);
#356=CIRCLE('',#906,2.89999999999999);
#357=CIRCLE('',#907,2.89999999999999);
#358=CIRCLE('',#909,1.7);
#359=CIRCLE('',#911,2.89999999999999);
#360=CIRCLE('',#912,2.89999999999999);
#361=CIRCLE('',#914,1.7);
#362=CIRCLE('',#919,4.49999999999999);
#363=VERTEX_POINT('',#1162);
#364=VERTEX_POINT('',#1164);
#365=VERTEX_POINT('',#1166);
#366=VERTEX_POINT('',#1168);
#367=VERTEX_POINT('',#1172);
#368=VERTEX_POINT('',#1174);
#369=VERTEX_POINT('',#1176);
#370=VERTEX_POINT('',#1178);
#371=VERTEX_POINT('',#1182);
#372=VERTEX_POINT('',#1184);
#373=VERTEX_POINT('',#1186);
#374=VERTEX_POINT('',#1188);
#375=VERTEX_POINT('',#1193);
#376=VERTEX_POINT('',#1195);
#377=VERTEX_POINT('',#1200);
#378=VERTEX_POINT('',#1202);
#379=VERTEX_POINT('',#1207);
#380=VERTEX_POINT('',#1209);
#381=VERTEX_POINT('',#1214);
#382=VERTEX_POINT('',#1216);
#383=VERTEX_POINT('',#1221);
#384=VERTEX_POINT('',#1222);
#385=VERTEX_POINT('',#1224);
#386=VERTEX_POINT('',#1227);
#387=VERTEX_POINT('',#1229);
#388=VERTEX_POINT('',#1231);
#389=VERTEX_POINT('',#1233);
#390=VERTEX_POINT('',#1237);
#391=VERTEX_POINT('',#1238);
#392=VERTEX_POINT('',#1240);
#393=VERTEX_POINT('',#1242);
#394=VERTEX_POINT('',#1244);
#395=VERTEX_POINT('',#1246);
#396=VERTEX_POINT('',#1249);
#397=VERTEX_POINT('',#1265);
#398=VERTEX_POINT('',#1267);
#399=VERTEX_POINT('',#1269);
#400=VERTEX_POINT('',#1271);
#401=VERTEX_POINT('',#1275);
#402=VERTEX_POINT('',#1276);
#403=VERTEX_POINT('',#1278);
#404=VERTEX_POINT('',#1280);
#405=VERTEX_POINT('',#1284);
#406=VERTEX_POINT('',#1285);
#407=VERTEX_POINT('',#1287);
#408=VERTEX_POINT('',#1289);
#409=VERTEX_POINT('',#1293);
#410=VERTEX_POINT('',#1295);
#411=VERTEX_POINT('',#1299);
#412=VERTEX_POINT('',#1301);
#413=VERTEX_POINT('',#1305);
#414=VERTEX_POINT('',#1307);
#415=VERTEX_POINT('',#1311);
#416=VERTEX_POINT('',#1313);
#417=VERTEX_POINT('',#1317);
#418=VERTEX_POINT('',#1319);
#419=VERTEX_POINT('',#1330);
#420=VERTEX_POINT('',#1332);
#421=VERTEX_POINT('',#1334);
#422=VERTEX_POINT('',#1336);
#423=VERTEX_POINT('',#1338);
#424=VERTEX_POINT('',#1341);
#425=VERTEX_POINT('',#1343);
#426=VERTEX_POINT('',#1347);
#427=VERTEX_POINT('',#1350);
#428=VERTEX_POINT('',#1352);
#429=VERTEX_POINT('',#1356);
#430=VERTEX_POINT('',#1359);
#431=VERTEX_POINT('',#1361);
#432=VERTEX_POINT('',#1365);
#433=VERTEX_POINT('',#1368);
#434=VERTEX_POINT('',#1370);
#435=VERTEX_POINT('',#1374);
#436=VERTEX_POINT('',#1383);
#437=EDGE_CURVE('',#363,#363,#335,.T.);
#438=EDGE_CURVE('',#363,#364,#181,.T.);
#439=EDGE_CURVE('',#365,#364,#175,.T.);
#440=EDGE_CURVE('',#366,#365,#176,.T.);
#441=EDGE_CURVE('',#364,#366,#177,.T.);
#442=EDGE_CURVE('',#367,#367,#336,.T.);
#443=EDGE_CURVE('',#367,#368,#182,.T.);
#444=EDGE_CURVE('',#369,#368,#178,.T.);
#445=EDGE_CURVE('',#370,#369,#179,.T.);
#446=EDGE_CURVE('',#368,#370,#180,.T.);
#447=EDGE_CURVE('',#365,#371,#183,.T.);
#448=EDGE_CURVE('',#372,#371,#184,.T.);
#449=EDGE_CURVE('',#373,#372,#185,.T.);
#450=EDGE_CURVE('',#374,#373,#186,.T.);
#451=EDGE_CURVE('',#374,#370,#187,.T.);
#452=EDGE_CURVE('',#369,#366,#188,.T.);
#453=EDGE_CURVE('',#375,#375,#337,.T.);
#454=EDGE_CURVE('',#375,#376,#189,.T.);
#455=EDGE_CURVE('',#376,#376,#338,.T.);
#456=EDGE_CURVE('',#377,#377,#339,.T.);
#457=EDGE_CURVE('',#377,#378,#190,.T.);
#458=EDGE_CURVE('',#378,#378,#340,.T.);
#459=EDGE_CURVE('',#379,#379,#341,.T.);
#460=EDGE_CURVE('',#379,#380,#191,.T.);
#461=EDGE_CURVE('',#380,#380,#342,.T.);
#462=EDGE_CURVE('',#381,#381,#343,.T.);
#463=EDGE_CURVE('',#381,#382,#192,.T.);
#464=EDGE_CURVE('',#382,#382,#344,.T.);
#465=EDGE_CURVE('',#383,#384,#193,.T.);
#466=EDGE_CURVE('',#385,#383,#194,.T.);
#467=EDGE_CURVE('',#385,#372,#195,.T.);
#468=EDGE_CURVE('',#371,#386,#196,.T.);
#469=EDGE_CURVE('',#386,#387,#197,.T.);
#470=EDGE_CURVE('',#387,#388,#198,.T.);
#471=EDGE_CURVE('',#388,#389,#199,.T.);
#472=EDGE_CURVE('',#389,#384,#200,.T.);
#473=EDGE_CURVE('',#390,#391,#201,.T.);
#474=EDGE_CURVE('',#390,#392,#202,.T.);
#475=EDGE_CURVE('',#392,#393,#203,.T.);
#476=EDGE_CURVE('',#393,#394,#204,.T.);
#477=EDGE_CURVE('',#394,#395,#205,.T.);
#478=EDGE_CURVE('',#395,#374,#206,.T.);
#479=EDGE_CURVE('',#373,#396,#207,.T.);
#480=EDGE_CURVE('',#391,#396,#208,.T.);
#481=EDGE_CURVE('',#389,#392,#209,.T.);
#482=EDGE_CURVE('',#393,#388,#210,.T.);
#483=EDGE_CURVE('',#394,#387,#211,.T.);
#484=EDGE_CURVE('',#395,#386,#212,.T.);
#485=EDGE_CURVE('',#396,#385,#213,.T.);
#486=EDGE_CURVE('',#384,#390,#214,.T.);
#487=EDGE_CURVE('',#391,#397,#215,.T.);
#488=EDGE_CURVE('',#398,#397,#216,.T.);
#489=EDGE_CURVE('',#398,#399,#217,.T.);
#490=EDGE_CURVE('',#400,#399,#218,.T.);
#491=EDGE_CURVE('',#400,#383,#219,.T.);
#492=EDGE_CURVE('',#401,#402,#220,.T.);
#493=EDGE_CURVE('',#403,#401,#221,.T.);
#494=EDGE_CURVE('',#404,#403,#222,.T.);
#495=EDGE_CURVE('',#402,#404,#223,.T.);
#496=EDGE_CURVE('',#405,#406,#224,.T.);
#497=EDGE_CURVE('',#407,#405,#225,.T.);
#498=EDGE_CURVE('',#408,#407,#226,.T.);
#499=EDGE_CURVE('',#406,#408,#227,.T.);
#500=EDGE_CURVE('',#409,#407,#228,.T.);
#501=EDGE_CURVE('',#410,#409,#229,.T.);
#502=EDGE_CURVE('',#408,#410,#230,.T.);
#503=EDGE_CURVE('',#411,#409,#231,.T.);
#504=EDGE_CURVE('',#412,#411,#232,.T.);
#505=EDGE_CURVE('',#410,#412,#233,.T.);
#506=EDGE_CURVE('',#413,#411,#234,.T.);
#507=EDGE_CURVE('',#414,#413,#235,.T.);
#508=EDGE_CURVE('',#412,#414,#236,.T.);
#509=EDGE_CURVE('',#415,#413,#237,.T.);
#510=EDGE_CURVE('',#416,#415,#238,.T.);
#511=EDGE_CURVE('',#414,#416,#239,.T.);
#512=EDGE_CURVE('',#417,#415,#240,.T.);
#513=EDGE_CURVE('',#418,#417,#241,.T.);
#514=EDGE_CURVE('',#416,#418,#242,.T.);
#515=EDGE_CURVE('',#401,#417,#243,.T.);
#516=EDGE_CURVE('',#418,#402,#244,.T.);
#517=EDGE_CURVE('',#405,#400,#245,.T.);
#518=EDGE_CURVE('',#399,#403,#246,.T.);
#519=EDGE_CURVE('',#397,#406,#247,.T.);
#520=EDGE_CURVE('',#419,#419,#345,.T.);
#521=EDGE_CURVE('',#420,#420,#346,.T.);
#522=EDGE_CURVE('',#421,#421,#347,.T.);
#523=EDGE_CURVE('',#422,#422,#348,.T.);
#524=EDGE_CURVE('',#423,#423,#349,.T.);
#525=EDGE_CURVE('',#424,#424,#350,.T.);
#526=EDGE_CURVE('',#424,#425,#248,.T.);
#527=EDGE_CURVE('',#425,#425,#351,.T.);
#528=EDGE_CURVE('',#426,#426,#352,.T.);
#529=EDGE_CURVE('',#427,#427,#353,.T.);
#530=EDGE_CURVE('',#427,#428,#249,.T.);
#531=EDGE_CURVE('',#428,#428,#354,.T.);
#532=EDGE_CURVE('',#429,#429,#355,.T.);
#533=EDGE_CURVE('',#430,#430,#356,.T.);
#534=EDGE_CURVE('',#430,#431,#250,.T.);
#535=EDGE_CURVE('',#431,#431,#357,.T.);
#536=EDGE_CURVE('',#432,#432,#358,.T.);
#537=EDGE_CURVE('',#433,#433,#359,.T.);
#538=EDGE_CURVE('',#433,#434,#251,.T.);
#539=EDGE_CURVE('',#434,#434,#360,.T.);
#540=EDGE_CURVE('',#435,#435,#361,.T.);
#541=EDGE_CURVE('',#435,#419,#252,.T.);
#542=EDGE_CURVE('',#429,#420,#253,.T.);
#543=EDGE_CURVE('',#426,#421,#254,.T.);
#544=EDGE_CURVE('',#436,#436,#362,.T.);
#545=EDGE_CURVE('',#436,#422,#255,.T.);
#546=EDGE_CURVE('',#432,#423,#256,.T.);
#547=EDGE_CURVE('',#404,#398,#257,.T.);
#548=ORIENTED_EDGE('',*,*,#437,.F.);
#549=ORIENTED_EDGE('',*,*,#438,.T.);
#550=ORIENTED_EDGE('',*,*,#439,.F.);
#551=ORIENTED_EDGE('',*,*,#440,.F.);
#552=ORIENTED_EDGE('',*,*,#441,.F.);
#553=ORIENTED_EDGE('',*,*,#438,.F.);
#554=ORIENTED_EDGE('',*,*,#442,.F.);
#555=ORIENTED_EDGE('',*,*,#443,.T.);
#556=ORIENTED_EDGE('',*,*,#444,.F.);
#557=ORIENTED_EDGE('',*,*,#445,.F.);
#558=ORIENTED_EDGE('',*,*,#446,.F.);
#559=ORIENTED_EDGE('',*,*,#443,.F.);
#560=ORIENTED_EDGE('',*,*,#440,.T.);
#561=ORIENTED_EDGE('',*,*,#447,.T.);
#562=ORIENTED_EDGE('',*,*,#448,.F.);
#563=ORIENTED_EDGE('',*,*,#449,.F.);
#564=ORIENTED_EDGE('',*,*,#450,.F.);
#565=ORIENTED_EDGE('',*,*,#451,.T.);
#566=ORIENTED_EDGE('',*,*,#445,.T.);
#567=ORIENTED_EDGE('',*,*,#452,.T.);
#568=ORIENTED_EDGE('',*,*,#453,.F.);
#569=ORIENTED_EDGE('',*,*,#454,.T.);
#570=ORIENTED_EDGE('',*,*,#455,.T.);
#571=ORIENTED_EDGE('',*,*,#454,.F.);
#572=ORIENTED_EDGE('',*,*,#455,.F.);
#573=ORIENTED_EDGE('',*,*,#456,.F.);
#574=ORIENTED_EDGE('',*,*,#457,.T.);
#575=ORIENTED_EDGE('',*,*,#458,.T.);
#576=ORIENTED_EDGE('',*,*,#457,.F.);
#577=ORIENTED_EDGE('',*,*,#458,.F.);
#578=ORIENTED_EDGE('',*,*,#459,.F.);
#579=ORIENTED_EDGE('',*,*,#460,.T.);
#580=ORIENTED_EDGE('',*,*,#461,.T.);
#581=ORIENTED_EDGE('',*,*,#460,.F.);
#582=ORIENTED_EDGE('',*,*,#461,.F.);
#583=ORIENTED_EDGE('',*,*,#462,.F.);
#584=ORIENTED_EDGE('',*,*,#463,.T.);
#585=ORIENTED_EDGE('',*,*,#464,.T.);
#586=ORIENTED_EDGE('',*,*,#463,.F.);
#587=ORIENTED_EDGE('',*,*,#464,.F.);
#588=ORIENTED_EDGE('',*,*,#465,.F.);
#589=ORIENTED_EDGE('',*,*,#466,.F.);
#590=ORIENTED_EDGE('',*,*,#467,.T.);
#591=ORIENTED_EDGE('',*,*,#448,.T.);
#592=ORIENTED_EDGE('',*,*,#468,.T.);
#593=ORIENTED_EDGE('',*,*,#469,.T.);
#594=ORIENTED_EDGE('',*,*,#470,.T.);
#595=ORIENTED_EDGE('',*,*,#471,.T.);
#596=ORIENTED_EDGE('',*,*,#472,.T.);
#597=ORIENTED_EDGE('',*,*,#473,.F.);
#598=ORIENTED_EDGE('',*,*,#474,.T.);
#599=ORIENTED_EDGE('',*,*,#475,.T.);
#600=ORIENTED_EDGE('',*,*,#476,.T.);
#601=ORIENTED_EDGE('',*,*,#477,.T.);
#602=ORIENTED_EDGE('',*,*,#478,.T.);
#603=ORIENTED_EDGE('',*,*,#450,.T.);
#604=ORIENTED_EDGE('',*,*,#479,.T.);
#605=ORIENTED_EDGE('',*,*,#480,.F.);
#606=ORIENTED_EDGE('',*,*,#481,.F.);
#607=ORIENTED_EDGE('',*,*,#471,.F.);
#608=ORIENTED_EDGE('',*,*,#482,.F.);
#609=ORIENTED_EDGE('',*,*,#475,.F.);
#610=ORIENTED_EDGE('',*,*,#437,.T.);
#611=ORIENTED_EDGE('',*,*,#442,.T.);
#612=ORIENTED_EDGE('',*,*,#482,.T.);
#613=ORIENTED_EDGE('',*,*,#470,.F.);
#614=ORIENTED_EDGE('',*,*,#483,.F.);
#615=ORIENTED_EDGE('',*,*,#476,.F.);
#616=ORIENTED_EDGE('',*,*,#483,.T.);
#617=ORIENTED_EDGE('',*,*,#469,.F.);
#618=ORIENTED_EDGE('',*,*,#484,.F.);
#619=ORIENTED_EDGE('',*,*,#477,.F.);
#620=ORIENTED_EDGE('',*,*,#439,.T.);
#621=ORIENTED_EDGE('',*,*,#441,.T.);
#622=ORIENTED_EDGE('',*,*,#452,.F.);
#623=ORIENTED_EDGE('',*,*,#444,.T.);
#624=ORIENTED_EDGE('',*,*,#446,.T.);
#625=ORIENTED_EDGE('',*,*,#451,.F.);
#626=ORIENTED_EDGE('',*,*,#478,.F.);
#627=ORIENTED_EDGE('',*,*,#484,.T.);
#628=ORIENTED_EDGE('',*,*,#468,.F.);
#629=ORIENTED_EDGE('',*,*,#447,.F.);
#630=ORIENTED_EDGE('',*,*,#449,.T.);
#631=ORIENTED_EDGE('',*,*,#467,.F.);
#632=ORIENTED_EDGE('',*,*,#485,.F.);
#633=ORIENTED_EDGE('',*,*,#479,.F.);
#634=ORIENTED_EDGE('',*,*,#486,.F.);
#635=ORIENTED_EDGE('',*,*,#472,.F.);
#636=ORIENTED_EDGE('',*,*,#481,.T.);
#637=ORIENTED_EDGE('',*,*,#474,.F.);
#638=ORIENTED_EDGE('',*,*,#465,.T.);
#639=ORIENTED_EDGE('',*,*,#486,.T.);
#640=ORIENTED_EDGE('',*,*,#473,.T.);
#641=ORIENTED_EDGE('',*,*,#487,.T.);
#642=ORIENTED_EDGE('',*,*,#488,.F.);
#643=ORIENTED_EDGE('',*,*,#489,.T.);
#644=ORIENTED_EDGE('',*,*,#490,.F.);
#645=ORIENTED_EDGE('',*,*,#491,.T.);
#646=ORIENTED_EDGE('',*,*,#492,.F.);
#647=ORIENTED_EDGE('',*,*,#493,.F.);
#648=ORIENTED_EDGE('',*,*,#494,.F.);
#649=ORIENTED_EDGE('',*,*,#495,.F.);
#650=ORIENTED_EDGE('',*,*,#496,.F.);
#651=ORIENTED_EDGE('',*,*,#497,.F.);
#652=ORIENTED_EDGE('',*,*,#498,.F.);
#653=ORIENTED_EDGE('',*,*,#499,.F.);
#654=ORIENTED_EDGE('',*,*,#498,.T.);
#655=ORIENTED_EDGE('',*,*,#500,.F.);
#656=ORIENTED_EDGE('',*,*,#501,.F.);
#657=ORIENTED_EDGE('',*,*,#502,.F.);
#658=ORIENTED_EDGE('',*,*,#501,.T.);
#659=ORIENTED_EDGE('',*,*,#503,.F.);
#660=ORIENTED_EDGE('',*,*,#504,.F.);
#661=ORIENTED_EDGE('',*,*,#505,.F.);
#662=ORIENTED_EDGE('',*,*,#504,.T.);
#663=ORIENTED_EDGE('',*,*,#506,.F.);
#664=ORIENTED_EDGE('',*,*,#507,.F.);
#665=ORIENTED_EDGE('',*,*,#508,.F.);
#666=ORIENTED_EDGE('',*,*,#453,.T.);
#667=ORIENTED_EDGE('',*,*,#456,.T.);
#668=ORIENTED_EDGE('',*,*,#459,.T.);
#669=ORIENTED_EDGE('',*,*,#462,.T.);
#670=ORIENTED_EDGE('',*,*,#507,.T.);
#671=ORIENTED_EDGE('',*,*,#509,.F.);
#672=ORIENTED_EDGE('',*,*,#510,.F.);
#673=ORIENTED_EDGE('',*,*,#511,.F.);
#674=ORIENTED_EDGE('',*,*,#510,.T.);
#675=ORIENTED_EDGE('',*,*,#512,.F.);
#676=ORIENTED_EDGE('',*,*,#513,.F.);
#677=ORIENTED_EDGE('',*,*,#514,.F.);
#678=ORIENTED_EDGE('',*,*,#513,.T.);
#679=ORIENTED_EDGE('',*,*,#515,.F.);
#680=ORIENTED_EDGE('',*,*,#492,.T.);
#681=ORIENTED_EDGE('',*,*,#516,.F.);
#682=ORIENTED_EDGE('',*,*,#493,.T.);
#683=ORIENTED_EDGE('',*,*,#515,.T.);
#684=ORIENTED_EDGE('',*,*,#512,.T.);
#685=ORIENTED_EDGE('',*,*,#509,.T.);
#686=ORIENTED_EDGE('',*,*,#506,.T.);
#687=ORIENTED_EDGE('',*,*,#503,.T.);
#688=ORIENTED_EDGE('',*,*,#500,.T.);
#689=ORIENTED_EDGE('',*,*,#497,.T.);
#690=ORIENTED_EDGE('',*,*,#517,.T.);
#691=ORIENTED_EDGE('',*,*,#490,.T.);
#692=ORIENTED_EDGE('',*,*,#518,.T.);
#693=ORIENTED_EDGE('',*,*,#466,.T.);
#694=ORIENTED_EDGE('',*,*,#491,.F.);
#695=ORIENTED_EDGE('',*,*,#517,.F.);
#696=ORIENTED_EDGE('',*,*,#496,.T.);
#697=ORIENTED_EDGE('',*,*,#519,.F.);
#698=ORIENTED_EDGE('',*,*,#487,.F.);
#699=ORIENTED_EDGE('',*,*,#480,.T.);
#700=ORIENTED_EDGE('',*,*,#485,.T.);
#701=ORIENTED_EDGE('',*,*,#520,.T.);
#702=ORIENTED_EDGE('',*,*,#521,.T.);
#703=ORIENTED_EDGE('',*,*,#522,.T.);
#704=ORIENTED_EDGE('',*,*,#523,.T.);
#705=ORIENTED_EDGE('',*,*,#524,.T.);
#706=ORIENTED_EDGE('',*,*,#525,.F.);
#707=ORIENTED_EDGE('',*,*,#526,.T.);
#708=ORIENTED_EDGE('',*,*,#527,.T.);
#709=ORIENTED_EDGE('',*,*,#526,.F.);
#710=ORIENTED_EDGE('',*,*,#527,.F.);
#711=ORIENTED_EDGE('',*,*,#528,.F.);
#712=ORIENTED_EDGE('',*,*,#529,.F.);
#713=ORIENTED_EDGE('',*,*,#530,.T.);
#714=ORIENTED_EDGE('',*,*,#531,.T.);
#715=ORIENTED_EDGE('',*,*,#530,.F.);
#716=ORIENTED_EDGE('',*,*,#531,.F.);
#717=ORIENTED_EDGE('',*,*,#532,.F.);
#718=ORIENTED_EDGE('',*,*,#533,.F.);
#719=ORIENTED_EDGE('',*,*,#534,.T.);
#720=ORIENTED_EDGE('',*,*,#535,.T.);
#721=ORIENTED_EDGE('',*,*,#534,.F.);
#722=ORIENTED_EDGE('',*,*,#535,.F.);
#723=ORIENTED_EDGE('',*,*,#536,.F.);
#724=ORIENTED_EDGE('',*,*,#537,.F.);
#725=ORIENTED_EDGE('',*,*,#538,.T.);
#726=ORIENTED_EDGE('',*,*,#539,.T.);
#727=ORIENTED_EDGE('',*,*,#538,.F.);
#728=ORIENTED_EDGE('',*,*,#539,.F.);
#729=ORIENTED_EDGE('',*,*,#540,.F.);
#730=ORIENTED_EDGE('',*,*,#540,.T.);
#731=ORIENTED_EDGE('',*,*,#541,.T.);
#732=ORIENTED_EDGE('',*,*,#520,.F.);
#733=ORIENTED_EDGE('',*,*,#541,.F.);
#734=ORIENTED_EDGE('',*,*,#532,.T.);
#735=ORIENTED_EDGE('',*,*,#542,.T.);
#736=ORIENTED_EDGE('',*,*,#521,.F.);
#737=ORIENTED_EDGE('',*,*,#542,.F.);
#738=ORIENTED_EDGE('',*,*,#528,.T.);
#739=ORIENTED_EDGE('',*,*,#543,.T.);
#740=ORIENTED_EDGE('',*,*,#522,.F.);
#741=ORIENTED_EDGE('',*,*,#543,.F.);
#742=ORIENTED_EDGE('',*,*,#544,.F.);
#743=ORIENTED_EDGE('',*,*,#545,.T.);
#744=ORIENTED_EDGE('',*,*,#523,.F.);
#745=ORIENTED_EDGE('',*,*,#545,.F.);
#746=ORIENTED_EDGE('',*,*,#536,.T.);
#747=ORIENTED_EDGE('',*,*,#546,.T.);
#748=ORIENTED_EDGE('',*,*,#524,.F.);
#749=ORIENTED_EDGE('',*,*,#546,.F.);
#750=ORIENTED_EDGE('',*,*,#547,.T.);
#751=ORIENTED_EDGE('',*,*,#488,.T.);
#752=ORIENTED_EDGE('',*,*,#519,.T.);
#753=ORIENTED_EDGE('',*,*,#499,.T.);
#754=ORIENTED_EDGE('',*,*,#502,.T.);
#755=ORIENTED_EDGE('',*,*,#505,.T.);
#756=ORIENTED_EDGE('',*,*,#508,.T.);
#757=ORIENTED_EDGE('',*,*,#511,.T.);
#758=ORIENTED_EDGE('',*,*,#514,.T.);
#759=ORIENTED_EDGE('',*,*,#516,.T.);
#760=ORIENTED_EDGE('',*,*,#495,.T.);
#761=ORIENTED_EDGE('',*,*,#494,.T.);
#762=ORIENTED_EDGE('',*,*,#518,.F.);
#763=ORIENTED_EDGE('',*,*,#489,.F.);
#764=ORIENTED_EDGE('',*,*,#547,.F.);
#765=ORIENTED_EDGE('',*,*,#544,.T.);
#766=ORIENTED_EDGE('',*,*,#537,.T.);
#767=ORIENTED_EDGE('',*,*,#533,.T.);
#768=ORIENTED_EDGE('',*,*,#529,.T.);
#769=ORIENTED_EDGE('',*,*,#525,.T.);
#770=CYLINDRICAL_SURFACE('',#844,0.85);
#771=CYLINDRICAL_SURFACE('',#849,0.85);
#772=CYLINDRICAL_SURFACE('',#855,2.25);
#773=CYLINDRICAL_SURFACE('',#859,2.25);
#774=CYLINDRICAL_SURFACE('',#863,2.25);
#775=CYLINDRICAL_SURFACE('',#867,2.25);
#776=CYLINDRICAL_SURFACE('',#895,2.89999999999999);
#777=CYLINDRICAL_SURFACE('',#900,2.89999999999999);
#778=CYLINDRICAL_SURFACE('',#905,2.89999999999999);
#779=CYLINDRICAL_SURFACE('',#910,2.89999999999999);
#780=CYLINDRICAL_SURFACE('',#915,1.7);
#781=CYLINDRICAL_SURFACE('',#916,1.7);
#782=CYLINDRICAL_SURFACE('',#917,1.7);
#783=CYLINDRICAL_SURFACE('',#918,4.49999999999999);
#784=CYLINDRICAL_SURFACE('',#920,1.7);
#785=ADVANCED_FACE('',(#65),#770,.F.);
#786=ADVANCED_FACE('',(#66),#771,.F.);
#787=ADVANCED_FACE('',(#67),#35,.T.);
#788=ADVANCED_FACE('',(#68),#772,.F.);
#789=ADVANCED_FACE('',(#69),#36,.T.);
#790=ADVANCED_FACE('',(#70),#773,.F.);
#791=ADVANCED_FACE('',(#71),#37,.T.);
#792=ADVANCED_FACE('',(#72),#774,.F.);
#793=ADVANCED_FACE('',(#73),#38,.T.);
#794=ADVANCED_FACE('',(#74),#775,.F.);
#795=ADVANCED_FACE('',(#75),#39,.T.);
#796=ADVANCED_FACE('',(#76),#40,.T.);
#797=ADVANCED_FACE('',(#77),#41,.T.);
#798=ADVANCED_FACE('',(#78,#15,#16),#42,.T.);
#799=ADVANCED_FACE('',(#79),#43,.T.);
#800=ADVANCED_FACE('',(#80),#44,.T.);
#801=ADVANCED_FACE('',(#81),#45,.T.);
#802=ADVANCED_FACE('',(#82),#46,.T.);
#803=ADVANCED_FACE('',(#83),#47,.T.);
#804=ADVANCED_FACE('',(#84),#48,.T.);
#805=ADVANCED_FACE('',(#85),#49,.T.);
#806=ADVANCED_FACE('',(#86),#50,.T.);
#807=ADVANCED_FACE('',(#87),#51,.T.);
#808=ADVANCED_FACE('',(#88),#52,.T.);
#809=ADVANCED_FACE('',(#89,#17,#18,#19,#20),#53,.T.);
#810=ADVANCED_FACE('',(#90),#54,.T.);
#811=ADVANCED_FACE('',(#91),#55,.T.);
#812=ADVANCED_FACE('',(#92),#56,.T.);
#813=ADVANCED_FACE('',(#93),#57,.T.);
#814=ADVANCED_FACE('',(#94,#21,#22,#23,#24,#25),#58,.T.);
#815=ADVANCED_FACE('',(#95),#776,.F.);
#816=ADVANCED_FACE('',(#96,#26),#59,.T.);
#817=ADVANCED_FACE('',(#97),#777,.F.);
#818=ADVANCED_FACE('',(#98,#27),#60,.T.);
#819=ADVANCED_FACE('',(#99),#778,.F.);
#820=ADVANCED_FACE('',(#100,#28),#61,.T.);
#821=ADVANCED_FACE('',(#101),#779,.F.);
#822=ADVANCED_FACE('',(#102,#29),#62,.T.);
#823=ADVANCED_FACE('',(#103),#780,.F.);
#824=ADVANCED_FACE('',(#104),#781,.F.);
#825=ADVANCED_FACE('',(#105),#782,.F.);
#826=ADVANCED_FACE('',(#106),#783,.F.);
#827=ADVANCED_FACE('',(#107),#784,.F.);
#828=ADVANCED_FACE('',(#108),#63,.T.);
#829=ADVANCED_FACE('',(#109,#30,#31,#32,#33,#34),#64,.T.);
#830=CLOSED_SHELL('',(#785,#786,#787,#788,#789,#790,#791,#792,#793,#794,
#795,#796,#797,#798,#799,#800,#801,#802,#803,#804,#805,#806,#807,#808,#809,
#810,#811,#812,#813,#814,#815,#816,#817,#818,#819,#820,#821,#822,#823,#824,
#825,#826,#827,#828,#829));
#831=DERIVED_UNIT_ELEMENT(#833,1.);
#832=DERIVED_UNIT_ELEMENT(#1396,-3.);
#833=(
MASS_UNIT()
NAMED_UNIT(*)
SI_UNIT(.KILO.,.GRAM.)
);
#834=DERIVED_UNIT((#831,#832));
#835=MEASURE_REPRESENTATION_ITEM('density measure',
POSITIVE_RATIO_MEASURE(7850.),#834);
#836=PROPERTY_DEFINITION_REPRESENTATION(#841,#838);
#837=PROPERTY_DEFINITION_REPRESENTATION(#842,#839);
#838=REPRESENTATION('material name',(#840),#1393);
#839=REPRESENTATION('density',(#835),#1393);
#840=DESCRIPTIVE_REPRESENTATION_ITEM('\X2\92FC\X0\','\X2\92FC\X0\');
#841=PROPERTY_DEFINITION('material property','material name',#1403);
#842=PROPERTY_DEFINITION('material property','density of part',#1403);
#843=AXIS2_PLACEMENT_3D('',#1160,#923,#924);
#844=AXIS2_PLACEMENT_3D('',#1161,#925,#926);
#845=AXIS2_PLACEMENT_3D('',#1163,#927,#928);
#846=AXIS2_PLACEMENT_3D('',#1167,#930,#931);
#847=AXIS2_PLACEMENT_3D('',#1169,#932,#933);
#848=AXIS2_PLACEMENT_3D('',#1170,#934,#935);
#849=AXIS2_PLACEMENT_3D('',#1171,#936,#937);
#850=AXIS2_PLACEMENT_3D('',#1173,#938,#939);
#851=AXIS2_PLACEMENT_3D('',#1177,#941,#942);
#852=AXIS2_PLACEMENT_3D('',#1179,#943,#944);
#853=AXIS2_PLACEMENT_3D('',#1180,#945,#946);
#854=AXIS2_PLACEMENT_3D('',#1181,#947,#948);
#855=AXIS2_PLACEMENT_3D('',#1192,#955,#956);
#856=AXIS2_PLACEMENT_3D('',#1194,#957,#958);
#857=AXIS2_PLACEMENT_3D('',#1197,#960,#961);
#858=AXIS2_PLACEMENT_3D('',#1198,#962,#963);
#859=AXIS2_PLACEMENT_3D('',#1199,#964,#965);
#860=AXIS2_PLACEMENT_3D('',#1201,#966,#967);
#861=AXIS2_PLACEMENT_3D('',#1204,#969,#970);
#862=AXIS2_PLACEMENT_3D('',#1205,#971,#972);
#863=AXIS2_PLACEMENT_3D('',#1206,#973,#974);
#864=AXIS2_PLACEMENT_3D('',#1208,#975,#976);
#865=AXIS2_PLACEMENT_3D('',#1211,#978,#979);
#866=AXIS2_PLACEMENT_3D('',#1212,#980,#981);
#867=AXIS2_PLACEMENT_3D('',#1213,#982,#983);
#868=AXIS2_PLACEMENT_3D('',#1215,#984,#985);
#869=AXIS2_PLACEMENT_3D('',#1218,#987,#988);
#870=AXIS2_PLACEMENT_3D('',#1219,#989,#990);
#871=AXIS2_PLACEMENT_3D('',#1220,#991,#992);
#872=AXIS2_PLACEMENT_3D('',#1236,#1001,#1002);
#873=AXIS2_PLACEMENT_3D('',#1252,#1011,#1012);
#874=AXIS2_PLACEMENT_3D('',#1255,#1015,#1016);
#875=AXIS2_PLACEMENT_3D('',#1257,#1018,#1019);
#876=AXIS2_PLACEMENT_3D('',#1259,#1021,#1022);
#877=AXIS2_PLACEMENT_3D('',#1260,#1023,#1024);
#878=AXIS2_PLACEMENT_3D('',#1262,#1026,#1027);
#879=AXIS2_PLACEMENT_3D('',#1264,#1029,#1030);
#880=AXIS2_PLACEMENT_3D('',#1274,#1036,#1037);
#881=AXIS2_PLACEMENT_3D('',#1283,#1042,#1043);
#882=AXIS2_PLACEMENT_3D('',#1292,#1048,#1049);
#883=AXIS2_PLACEMENT_3D('',#1298,#1053,#1054);
#884=AXIS2_PLACEMENT_3D('',#1304,#1058,#1059);
#885=AXIS2_PLACEMENT_3D('',#1310,#1063,#1064);
#886=AXIS2_PLACEMENT_3D('',#1316,#1068,#1069);
#887=AXIS2_PLACEMENT_3D('',#1322,#1073,#1074);
#888=AXIS2_PLACEMENT_3D('',#1325,#1077,#1078);
#889=AXIS2_PLACEMENT_3D('',#1328,#1081,#1082);
#890=AXIS2_PLACEMENT_3D('',#1331,#1084,#1085);
#891=AXIS2_PLACEMENT_3D('',#1333,#1086,#1087);
#892=AXIS2_PLACEMENT_3D('',#1335,#1088,#1089);
#893=AXIS2_PLACEMENT_3D('',#1337,#1090,#1091);
#894=AXIS2_PLACEMENT_3D('',#1339,#1092,#1093);
#895=AXIS2_PLACEMENT_3D('',#1340,#1094,#1095);
#896=AXIS2_PLACEMENT_3D('',#1342,#1096,#1097);
#897=AXIS2_PLACEMENT_3D('',#1345,#1099,#1100);
#898=AXIS2_PLACEMENT_3D('',#1346,#1101,#1102);
#899=AXIS2_PLACEMENT_3D('',#1348,#1103,#1104);
#900=AXIS2_PLACEMENT_3D('',#1349,#1105,#1106);
#901=AXIS2_PLACEMENT_3D('',#1351,#1107,#1108);
#902=AXIS2_PLACEMENT_3D('',#1354,#1110,#1111);
#903=AXIS2_PLACEMENT_3D('',#1355,#1112,#1113);
#904=AXIS2_PLACEMENT_3D('',#1357,#1114,#1115);
#905=AXIS2_PLACEMENT_3D('',#1358,#1116,#1117);
#906=AXIS2_PLACEMENT_3D('',#1360,#1118,#1119);
#907=AXIS2_PLACEMENT_3D('',#1363,#1121,#1122);
#908=AXIS2_PLACEMENT_3D('',#1364,#1123,#1124);
#909=AXIS2_PLACEMENT_3D('',#1366,#1125,#1126);
#910=AXIS2_PLACEMENT_3D('',#1367,#1127,#1128);
#911=AXIS2_PLACEMENT_3D('',#1369,#1129,#1130);
#912=AXIS2_PLACEMENT_3D('',#1372,#1132,#1133);
#913=AXIS2_PLACEMENT_3D('',#1373,#1134,#1135);
#914=AXIS2_PLACEMENT_3D('',#1375,#1136,#1137);
#915=AXIS2_PLACEMENT_3D('',#1376,#1138,#1139);
#916=AXIS2_PLACEMENT_3D('',#1378,#1141,#1142);
#917=AXIS2_PLACEMENT_3D('',#1380,#1144,#1145);
#918=AXIS2_PLACEMENT_3D('',#1382,#1147,#1148);
#919=AXIS2_PLACEMENT_3D('',#1384,#1149,#1150);
#920=AXIS2_PLACEMENT_3D('',#1386,#1152,#1153);
#921=AXIS2_PLACEMENT_3D('',#1388,#1155,#1156);
#922=AXIS2_PLACEMENT_3D('',#1390,#1158,#1159);
#923=DIRECTION('axis',(0.,0.,1.));
#924=DIRECTION('refdir',(1.,0.,0.));
#925=DIRECTION('center_axis',(0.801118306432144,0.,0.59850602260904));
#926=DIRECTION('ref_axis',(-0.59850602260904,0.,0.801118306432144));
#927=DIRECTION('center_axis',(0.801118306432144,0.,0.59850602260904));
#928=DIRECTION('ref_axis',(-0.59850602260904,0.,0.801118306432144));
#929=DIRECTION('',(0.801118306432144,0.,0.59850602260904));
#930=DIRECTION('center_axis',(-0.899508158575998,0.,-0.436903962736913));
#931=DIRECTION('ref_axis',(-0.436903962736913,0.,0.899508158575998));
#932=DIRECTION('center_axis',(-0.393919298579169,0.,-0.919145030018057));
#933=DIRECTION('ref_axis',(-0.919145030018057,0.,0.393919298579169));
#934=DIRECTION('center_axis',(-0.899508158575998,0.,-0.436903962736913));
#935=DIRECTION('ref_axis',(-0.436903962736913,0.,0.899508158575998));
#936=DIRECTION('center_axis',(0.801118306432144,0.,0.59850602260904));
#937=DIRECTION('ref_axis',(-0.59850602260904,0.,0.801118306432144));
#938=DIRECTION('center_axis',(0.801118306432144,0.,0.59850602260904));
#939=DIRECTION('ref_axis',(-0.59850602260904,0.,0.801118306432144));
#940=DIRECTION('',(0.801118306432144,0.,0.59850602260904));
#941=DIRECTION('center_axis',(-0.899508158575998,0.,-0.436903962736913));
#942=DIRECTION('ref_axis',(-0.436903962736913,0.,0.899508158575998));
#943=DIRECTION('center_axis',(-0.393919298579169,0.,-0.919145030018057));
#944=DIRECTION('ref_axis',(-0.919145030018057,0.,0.393919298579169));
#945=DIRECTION('center_axis',(-0.899508158575998,0.,-0.436903962736913));
#946=DIRECTION('ref_axis',(-0.436903962736913,0.,0.899508158575998));
#947=DIRECTION('center_axis',(0.393919298579169,0.,0.919145030018057));
#948=DIRECTION('ref_axis',(0.919145030018057,0.,-0.393919298579169));
#949=DIRECTION('',(0.,1.,0.));
#950=DIRECTION('',(0.919145030018057,0.,-0.393919298579169));
#951=DIRECTION('',(0.,1.,0.));
#952=DIRECTION('',(-0.919145030018057,0.,0.393919298579169));
#953=DIRECTION('',(0.,1.,0.));
#954=DIRECTION('',(0.,1.,0.));
#955=DIRECTION('center_axis',(0.,0.,-1.));
#956=DIRECTION('ref_axis',(1.,0.,0.));
#957=DIRECTION('center_axis',(0.,0.,-1.));
#958=DIRECTION('ref_axis',(1.,0.,0.));
#959=DIRECTION('',(0.,0.,-1.));
#960=DIRECTION('center_axis',(0.,0.,-1.));
#961=DIRECTION('ref_axis',(1.,0.,0.));
#962=DIRECTION('center_axis',(0.,0.,1.));
#963=DIRECTION('ref_axis',(1.,0.,0.));
#964=DIRECTION('center_axis',(0.,0.,-1.));
#965=DIRECTION('ref_axis',(1.,0.,0.));
#966=DIRECTION('center_axis',(0.,0.,-1.));
#967=DIRECTION('ref_axis',(1.,0.,0.));
#968=DIRECTION('',(0.,0.,-1.));
#969=DIRECTION('center_axis',(0.,0.,-1.));
#970=DIRECTION('ref_axis',(1.,0.,0.));
#971=DIRECTION('center_axis',(0.,0.,1.));
#972=DIRECTION('ref_axis',(1.,0.,0.));
#973=DIRECTION('center_axis',(0.,0.,-1.));
#974=DIRECTION('ref_axis',(1.,0.,0.));
#975=DIRECTION('center_axis',(0.,0.,-1.));
#976=DIRECTION('ref_axis',(1.,0.,0.));
#977=DIRECTION('',(0.,0.,-1.));
#978=DIRECTION('center_axis',(0.,0.,-1.));
#979=DIRECTION('ref_axis',(1.,0.,0.));
#980=DIRECTION('center_axis',(0.,0.,1.));
#981=DIRECTION('ref_axis',(1.,0.,0.));
#982=DIRECTION('center_axis',(0.,0.,-1.));
#983=DIRECTION('ref_axis',(1.,0.,0.));
#984=DIRECTION('center_axis',(0.,0.,-1.));
#985=DIRECTION('ref_axis',(1.,0.,0.));
#986=DIRECTION('',(0.,0.,-1.));
#987=DIRECTION('center_axis',(0.,0.,-1.));
#988=DIRECTION('ref_axis',(1.,0.,0.));
#989=DIRECTION('center_axis',(0.,0.,1.));
#990=DIRECTION('ref_axis',(1.,0.,0.));
#991=DIRECTION('center_axis',(0.,1.,0.));
#992=DIRECTION('ref_axis',(0.,0.,1.));
#993=DIRECTION('',(-0.906307925325668,0.,0.422617965178817));
#994=DIRECTION('',(-0.422617965178817,0.,-0.906307925325668));
#995=DIRECTION('',(0.857821009065399,0.,-0.513948554240618));
#996=DIRECTION('',(0.436903962736913,0.,-0.899508158575997));
#997=DIRECTION('',(-0.0444006136207193,0.,-0.999013806466209));
#998=DIRECTION('',(-0.764828895241856,0.,-0.644233467776335));
#999=DIRECTION('',(-0.59850602260904,0.,0.801118306432144));
#1000=DIRECTION('',(-0.549043333941983,0.,0.835793884551611));
#1001=DIRECTION('center_axis',(0.,-1.,0.));
#1002=DIRECTION('ref_axis',(0.,0.,-1.));
#1003=DIRECTION('',(0.906307925325668,0.,-0.422617965178817));
#1004=DIRECTION('',(0.549043333941983,0.,-0.835793884551611));
#1005=DIRECTION('',(0.59850602260904,0.,-0.801118306432144));
#1006=DIRECTION('',(0.764828895241856,0.,0.644233467776335));
#1007=DIRECTION('',(0.0444006136207193,0.,0.999013806466209));
#1008=DIRECTION('',(-0.436903962736913,0.,0.899508158575997));
#1009=DIRECTION('',(-0.857821009065399,0.,0.513948554240618));
#1010=DIRECTION('',(0.422617965178817,0.,0.906307925325668));
#1011=DIRECTION('center_axis',(-0.801118306432144,0.,-0.59850602260904));
#1012=DIRECTION('ref_axis',(-0.59850602260904,0.,0.801118306432144));
#1013=DIRECTION('',(0.,-1.,0.));
#1014=DIRECTION('',(0.,1.,0.));
#1015=DIRECTION('center_axis',(0.644233467776335,0.,-0.764828895241856));
#1016=DIRECTION('ref_axis',(-0.764828895241856,0.,-0.644233467776335));
#1017=DIRECTION('',(0.,1.,0.));
#1018=DIRECTION('center_axis',(0.999013806466209,0.,-0.0444006136207193));
#1019=DIRECTION('ref_axis',(-0.0444006136207193,0.,-0.999013806466209));
#1020=DIRECTION('',(0.,1.,0.));
#1021=DIRECTION('center_axis',(0.899508158575998,0.,0.436903962736913));
#1022=DIRECTION('ref_axis',(0.436903962736913,0.,-0.899508158575997));
#1023=DIRECTION('center_axis',(0.513948554240618,0.,0.857821009065399));
#1024=DIRECTION('ref_axis',(0.857821009065399,0.,-0.513948554240618));
#1025=DIRECTION('',(0.,1.,0.));
#1026=DIRECTION('center_axis',(-0.835793884551611,0.,-0.549043333941983));
#1027=DIRECTION('ref_axis',(-0.549043333941983,0.,0.835793884551611));
#1028=DIRECTION('',(0.,-1.,0.));
#1029=DIRECTION('center_axis',(-0.422617965178817,0.,-0.906307925325668));
#1030=DIRECTION('ref_axis',(-0.906307925325668,0.,0.422617965178817));
#1031=DIRECTION('',(0.,-1.,0.));
#1032=DIRECTION('',(0.906307925325668,0.,-0.422617965178817));
#1033=DIRECTION('',(0.,1.,0.));
#1034=DIRECTION('',(-0.906307925325668,0.,0.422617965178817));
#1035=DIRECTION('',(0.,-1.,0.));
#1036=DIRECTION('center_axis',(-0.746631845040303,0.,-0.665237467354112));
#1037=DIRECTION('ref_axis',(-0.665237467354112,0.,0.746631845040303));
#1038=DIRECTION('',(0.,-1.,0.));
#1039=DIRECTION('',(-0.665237467354112,0.,0.746631845040303));
#1040=DIRECTION('',(0.,1.,0.));
#1041=DIRECTION('',(0.665237467354112,0.,-0.746631845040303));
#1042=DIRECTION('center_axis',(0.864144807474284,0.,-0.503243233153942));
#1043=DIRECTION('ref_axis',(-0.503243233153942,0.,-0.864144807474284));
#1044=DIRECTION('',(0.,-1.,0.));
#1045=DIRECTION('',(-0.503243233153942,0.,-0.864144807474284));
#1046=DIRECTION('',(0.,1.,0.));
#1047=DIRECTION('',(0.503243233153942,0.,0.864144807474284));
#1048=DIRECTION('center_axis',(0.8,0.,-0.6));
#1049=DIRECTION('ref_axis',(-0.6,0.,-0.8));
#1050=DIRECTION('',(-0.6,0.,-0.8));
#1051=DIRECTION('',(0.,1.,0.));
#1052=DIRECTION('',(0.6,0.,0.8));
#1053=DIRECTION('center_axis',(1.,0.,0.));
#1054=DIRECTION('ref_axis',(0.,0.,-1.));
#1055=DIRECTION('',(0.,0.,-1.));
#1056=DIRECTION('',(0.,1.,0.));
#1057=DIRECTION('',(0.,0.,1.));
#1058=DIRECTION('center_axis',(0.,0.,1.));
#1059=DIRECTION('ref_axis',(1.,0.,0.));
#1060=DIRECTION('',(1.,0.,0.));
#1061=DIRECTION('',(0.,1.,0.));
#1062=DIRECTION('',(-1.,0.,0.));
#1063=DIRECTION('center_axis',(-1.,0.,0.));
#1064=DIRECTION('ref_axis',(0.,0.,1.));
#1065=DIRECTION('',(0.,0.,1.));
#1066=DIRECTION('',(0.,1.,0.));
#1067=DIRECTION('',(0.,0.,-1.));
#1068=DIRECTION('center_axis',(-0.893711079101613,0.,-0.448642961709009));
#1069=DIRECTION('ref_axis',(-0.448642961709009,0.,0.893711079101613));
#1070=DIRECTION('',(-0.448642961709009,0.,0.893711079101613));
#1071=DIRECTION('',(0.,1.,0.));
#1072=DIRECTION('',(0.448642961709009,0.,-0.893711079101613));
#1073=DIRECTION('center_axis',(-0.986393923832144,0.,0.164398987305356));
#1074=DIRECTION('ref_axis',(0.164398987305356,0.,0.986393923832144));
#1075=DIRECTION('',(0.164398987305356,0.,0.986393923832144));
#1076=DIRECTION('',(-0.164398987305356,0.,-0.986393923832144));
#1077=DIRECTION('center_axis',(0.,1.,0.));
#1078=DIRECTION('ref_axis',(0.,0.,1.));
#1079=DIRECTION('',(-0.422617965178817,0.,-0.906307925325668));
#1080=DIRECTION('',(0.422617965178817,0.,0.906307925325668));
#1081=DIRECTION('center_axis',(0.906307925325668,0.,-0.422617965178817));
#1082=DIRECTION('ref_axis',(-0.422617965178817,0.,-0.906307925325668));
#1083=DIRECTION('',(0.422617965178817,0.,0.906307925325668));
#1084=DIRECTION('center_axis',(-0.906307925325668,0.,0.422617965178817));
#1085=DIRECTION('ref_axis',(0.422617965178816,0.,0.906307925325668));
#1086=DIRECTION('center_axis',(-0.906307925325668,0.,0.422617965178817));
#1087=DIRECTION('ref_axis',(0.422617965178816,0.,0.906307925325668));
#1088=DIRECTION('center_axis',(-0.906307925325668,0.,0.422617965178817));
#1089=DIRECTION('ref_axis',(0.422617965178816,0.,0.906307925325668));
#1090=DIRECTION('center_axis',(-0.906307925325668,0.,0.422617965178817));
#1091=DIRECTION('ref_axis',(0.422617965178816,0.,0.906307925325668));
#1092=DIRECTION('center_axis',(-0.906307925325668,0.,0.422617965178817));
#1093=DIRECTION('ref_axis',(0.422617965178816,0.,0.906307925325668));
#1094=DIRECTION('center_axis',(0.906307925325667,0.,-0.422617965178819));
#1095=DIRECTION('ref_axis',(0.422617965178819,0.,0.906307925325667));
#1096=DIRECTION('center_axis',(0.906307925325668,0.,-0.422617965178817));
#1097=DIRECTION('ref_axis',(0.422617965178819,0.,0.906307925325667));
#1098=DIRECTION('',(0.906307925325667,0.,-0.422617965178819));
#1099=DIRECTION('center_axis',(0.906307925325668,0.,-0.422617965178817));
#1100=DIRECTION('ref_axis',(0.422617965178817,0.,0.906307925325668));
#1101=DIRECTION('center_axis',(-0.906307925325668,0.,0.422617965178817));
#1102=DIRECTION('ref_axis',(0.422617965178817,0.,0.906307925325668));
#1103=DIRECTION('center_axis',(-0.906307925325668,0.,0.422617965178817));
#1104=DIRECTION('ref_axis',(0.422617965178816,0.,0.906307925325668));
#1105=DIRECTION('center_axis',(0.906307925325667,0.,-0.422617965178819));
#1106=DIRECTION('ref_axis',(0.422617965178819,0.,0.906307925325667));
#1107=DIRECTION('center_axis',(0.906307925325668,0.,-0.422617965178817));
#1108=DIRECTION('ref_axis',(0.422617965178819,0.,0.906307925325667));
#1109=DIRECTION('',(0.906307925325667,0.,-0.422617965178819));
#1110=DIRECTION('center_axis',(0.906307925325668,0.,-0.422617965178817));
#1111=DIRECTION('ref_axis',(0.422617965178817,0.,0.906307925325668));
#1112=DIRECTION('center_axis',(-0.906307925325668,0.,0.422617965178817));
#1113=DIRECTION('ref_axis',(0.422617965178817,0.,0.906307925325668));
#1114=DIRECTION('center_axis',(-0.906307925325668,0.,0.422617965178817));
#1115=DIRECTION('ref_axis',(0.422617965178816,0.,0.906307925325668));
#1116=DIRECTION('center_axis',(0.906307925325667,0.,-0.422617965178819));
#1117=DIRECTION('ref_axis',(0.422617965178819,0.,0.906307925325667));
#1118=DIRECTION('center_axis',(0.906307925325668,0.,-0.422617965178817));
#1119=DIRECTION('ref_axis',(0.422617965178819,0.,0.906307925325667));
#1120=DIRECTION('',(0.906307925325667,0.,-0.422617965178819));
#1121=DIRECTION('center_axis',(0.906307925325668,0.,-0.422617965178817));
#1122=DIRECTION('ref_axis',(0.422617965178817,0.,0.906307925325668));
#1123=DIRECTION('center_axis',(-0.906307925325668,0.,0.422617965178817));
#1124=DIRECTION('ref_axis',(0.422617965178817,0.,0.906307925325668));
#1125=DIRECTION('center_axis',(-0.906307925325668,0.,0.422617965178817));
#1126=DIRECTION('ref_axis',(0.422617965178816,0.,0.906307925325668));
#1127=DIRECTION('center_axis',(0.906307925325667,0.,-0.422617965178819));
#1128=DIRECTION('ref_axis',(0.422617965178819,0.,0.906307925325667));
#1129=DIRECTION('center_axis',(0.906307925325668,0.,-0.422617965178817));
#1130=DIRECTION('ref_axis',(0.422617965178819,0.,0.906307925325667));
#1131=DIRECTION('',(0.906307925325667,0.,-0.422617965178819));
#1132=DIRECTION('center_axis',(0.906307925325668,0.,-0.422617965178817));
#1133=DIRECTION('ref_axis',(0.422617965178817,0.,0.906307925325668));
#1134=DIRECTION('center_axis',(-0.906307925325668,0.,0.422617965178817));
#1135=DIRECTION('ref_axis',(0.422617965178817,0.,0.906307925325668));
#1136=DIRECTION('center_axis',(-0.906307925325668,0.,0.422617965178817));
#1137=DIRECTION('ref_axis',(0.422617965178816,0.,0.906307925325668));
#1138=DIRECTION('center_axis',(0.906307925325669,0.,-0.422617965178816));
#1139=DIRECTION('ref_axis',(0.422617965178816,0.,0.906307925325668));
#1140=DIRECTION('',(0.906307925325668,0.,-0.422617965178816));
#1141=DIRECTION('center_axis',(0.906307925325669,0.,-0.422617965178816));
#1142=DIRECTION('ref_axis',(0.422617965178816,0.,0.906307925325668));
#1143=DIRECTION('',(0.906307925325668,0.,-0.422617965178816));
#1144=DIRECTION('center_axis',(0.906307925325669,0.,-0.422617965178816));
#1145=DIRECTION('ref_axis',(0.422617965178816,0.,0.906307925325668));
#1146=DIRECTION('',(0.906307925325668,0.,-0.422617965178816));
#1147=DIRECTION('center_axis',(0.906307925325669,0.,-0.422617965178816));
#1148=DIRECTION('ref_axis',(0.422617965178816,0.,0.906307925325668));
#1149=DIRECTION('center_axis',(0.906307925325668,0.,-0.422617965178817));
#1150=DIRECTION('ref_axis',(0.422617965178816,0.,0.906307925325668));
#1151=DIRECTION('',(0.906307925325668,0.,-0.422617965178816));
#1152=DIRECTION('center_axis',(0.906307925325669,0.,-0.422617965178816));
#1153=DIRECTION('ref_axis',(0.422617965178816,0.,0.906307925325668));
#1154=DIRECTION('',(0.906307925325668,0.,-0.422617965178816));
#1155=DIRECTION('center_axis',(0.,-1.,0.));
#1156=DIRECTION('ref_axis',(0.,0.,-1.));
#1157=DIRECTION('',(-0.422617965178817,0.,-0.906307925325668));
#1158=DIRECTION('center_axis',(-0.906307925325668,0.,0.422617965178817));
#1159=DIRECTION('ref_axis',(0.422617965178817,0.,0.906307925325668));
#1160=CARTESIAN_POINT('',(0.,0.,0.));
#1161=CARTESIAN_POINT('Origin',(48.1,6.731,85.98));
#1162=CARTESIAN_POINT('',(48.6087301192177,6.731,85.2990494395327));
#1163=CARTESIAN_POINT('Origin',(48.1,6.731,85.98));
#1164=CARTESIAN_POINT('',(53.8730483073909,6.731,89.2319593671363));
#1165=CARTESIAN_POINT('',(48.6087301192177,6.731,85.2990494395327));
#1166=CARTESIAN_POINT('',(53.5,7.58092305335652,90.));
#1167=CARTESIAN_POINT('Origin',(53.4949120971118,6.731,90.0104750941817));
#1168=CARTESIAN_POINT('',(53.5,5.88107694664348,90.));
#1169=CARTESIAN_POINT('Origin',(53.4878568540234,6.731,90.0052042054185));
#1170=CARTESIAN_POINT('Origin',(53.4949120971118,6.731,90.0104750941817));
#1171=CARTESIAN_POINT('Origin',(48.1,-6.731,85.98));
#1172=CARTESIAN_POINT('',(48.6087301192177,-6.731,85.2990494395327));
#1173=CARTESIAN_POINT('Origin',(48.1,-6.731,85.98));
#1174=CARTESIAN_POINT('',(53.8730483073909,-6.731,89.2319593671363));
#1175=CARTESIAN_POINT('',(48.6087301192177,-6.731,85.2990494395327));
#1176=CARTESIAN_POINT('',(53.5,-5.88107694664348,90.));
#1177=CARTESIAN_POINT('Origin',(53.4949120971118,-6.731,90.0104750941817));
#1178=CARTESIAN_POINT('',(53.5,-7.58092305335652,90.));
#1179=CARTESIAN_POINT('Origin',(53.4878568540234,-6.731,90.0052042054185));
#1180=CARTESIAN_POINT('Origin',(53.4949120971118,-6.731,90.0104750941817));
#1181=CARTESIAN_POINT('Origin',(50.,0.,91.5));
#1182=CARTESIAN_POINT('',(53.5,10.,90.));
#1183=CARTESIAN_POINT('',(53.5,0.,90.));
#1184=CARTESIAN_POINT('',(50.,10.,91.5));
#1185=CARTESIAN_POINT('',(50.,10.,91.5));
#1186=CARTESIAN_POINT('',(50.,-10.,91.5));
#1187=CARTESIAN_POINT('',(50.,0.,91.5));
#1188=CARTESIAN_POINT('',(53.5,-10.,90.));
#1189=CARTESIAN_POINT('',(50.,-10.,91.5));
#1190=CARTESIAN_POINT('',(53.5,0.,90.));
#1191=CARTESIAN_POINT('',(53.5,0.,90.));
#1192=CARTESIAN_POINT('Origin',(57.,-9.,146.9));
#1193=CARTESIAN_POINT('',(54.75,-9.,146.9));
#1194=CARTESIAN_POINT('Origin',(57.,-9.,146.9));
#1195=CARTESIAN_POINT('',(54.75,-9.,141.9));
#1196=CARTESIAN_POINT('',(54.75,-9.,146.9));
#1197=CARTESIAN_POINT('Origin',(57.,-9.,141.9));
#1198=CARTESIAN_POINT('Origin',(57.,-9.,141.9));
#1199=CARTESIAN_POINT('Origin',(64.,9.,146.9));
#1200=CARTESIAN_POINT('',(61.75,9.,146.9));
#1201=CARTESIAN_POINT('Origin',(64.,9.,146.9));
#1202=CARTESIAN_POINT('',(61.75,9.,141.9));
#1203=CARTESIAN_POINT('',(61.75,9.,146.9));
#1204=CARTESIAN_POINT('Origin',(64.,9.,141.9));
#1205=CARTESIAN_POINT('Origin',(64.,9.,141.9));
#1206=CARTESIAN_POINT('Origin',(57.,9.,146.9));
#1207=CARTESIAN_POINT('',(54.75,9.,146.9));
#1208=CARTESIAN_POINT('Origin',(57.,9.,146.9));
#1209=CARTESIAN_POINT('',(54.75,9.,141.9));
#1210=CARTESIAN_POINT('',(54.75,9.,146.9));
#1211=CARTESIAN_POINT('Origin',(57.,9.,141.9));
#1212=CARTESIAN_POINT('Origin',(57.,9.,141.9));
#1213=CARTESIAN_POINT('Origin',(64.,-9.,146.9));
#1214=CARTESIAN_POINT('',(61.75,-9.,146.9));
#1215=CARTESIAN_POINT('Origin',(64.,-9.,146.9));
#1216=CARTESIAN_POINT('',(61.75,-9.,141.9));
#1217=CARTESIAN_POINT('',(61.75,-9.,146.9));
#1218=CARTESIAN_POINT('Origin',(64.,-9.,141.9));
#1219=CARTESIAN_POINT('Origin',(64.,-9.,141.9));
#1220=CARTESIAN_POINT('Origin',(47.8315195,10.,88.375267));
#1221=CARTESIAN_POINT('',(43.5144388,10.,94.8059552));
#1222=CARTESIAN_POINT('',(40.9854886025705,10.,95.9852230366926));
#1223=CARTESIAN_POINT('',(46.5189985760319,10.,93.4049071639824));
#1224=CARTESIAN_POINT('',(43.7257478,10.,95.2591092));
#1225=CARTESIAN_POINT('',(51.3320883739681,10.,111.570973136018));
#1226=CARTESIAN_POINT('',(43.7257478,10.,95.2591092));
#1227=CARTESIAN_POINT('',(55.2,10.,86.5));
#1228=CARTESIAN_POINT('',(53.5,10.,90.));
#1229=CARTESIAN_POINT('',(55.,10.,82.));
#1230=CARTESIAN_POINT('',(55.2,10.,86.5));
#1231=CARTESIAN_POINT('',(52.59,10.,79.97));
#1232=CARTESIAN_POINT('',(55.,10.,82.));
#1233=CARTESIAN_POINT('',(43.61,10.,91.99));
#1234=CARTESIAN_POINT('',(52.59,10.,79.97));
#1235=CARTESIAN_POINT('',(43.61,10.,91.99));
#1236=CARTESIAN_POINT('Origin',(47.8315195,-10.,88.375267));
#1237=CARTESIAN_POINT('',(40.9854886025705,-10.,95.9852230366926));
#1238=CARTESIAN_POINT('',(43.5144388,-10.,94.8059552));
#1239=CARTESIAN_POINT('',(46.5189985760319,-10.,93.4049071639824));
#1240=CARTESIAN_POINT('',(43.61,-10.,91.99));
#1241=CARTESIAN_POINT('',(43.61,-10.,91.99));
#1242=CARTESIAN_POINT('',(52.59,-10.,79.97));
#1243=CARTESIAN_POINT('',(52.59,-10.,79.97));
#1244=CARTESIAN_POINT('',(55.,-10.,82.));
#1245=CARTESIAN_POINT('',(55.,-10.,82.));
#1246=CARTESIAN_POINT('',(55.2,-10.,86.5));
#1247=CARTESIAN_POINT('',(55.2,-10.,86.5));
#1248=CARTESIAN_POINT('',(53.5,-10.,90.));
#1249=CARTESIAN_POINT('',(43.7257478,-10.,95.2591092));
#1250=CARTESIAN_POINT('',(43.7257478,-10.,95.2591092));
#1251=CARTESIAN_POINT('',(51.3320883739681,-10.,111.570973136018));
#1252=CARTESIAN_POINT('Origin',(52.59,0.,79.97));
#1253=CARTESIAN_POINT('',(43.61,0.,91.99));
#1254=CARTESIAN_POINT('',(52.59,0.,79.97));
#1255=CARTESIAN_POINT('Origin',(55.,0.,82.));
#1256=CARTESIAN_POINT('',(55.,0.,82.));
#1257=CARTESIAN_POINT('Origin',(55.2,0.,86.5));
#1258=CARTESIAN_POINT('',(55.2,0.,86.5));
#1259=CARTESIAN_POINT('Origin',(53.5,0.,90.));
#1260=CARTESIAN_POINT('Origin',(43.7257478,0.,95.2591092));
#1261=CARTESIAN_POINT('',(43.7257478,0.,95.2591092));
#1262=CARTESIAN_POINT('Origin',(43.61,0.,91.99));
#1263=CARTESIAN_POINT('',(40.9854886025705,0.,95.9852230366926));
#1264=CARTESIAN_POINT('Origin',(43.5144388,0.,94.8059552));
#1265=CARTESIAN_POINT('',(43.5144388,-14.,94.8059552));
#1266=CARTESIAN_POINT('',(43.5144388,0.,94.8059552));
#1267=CARTESIAN_POINT('',(40.25173,-14.,96.32738));
#1268=CARTESIAN_POINT('',(43.5144388,-14.,94.8059552));
#1269=CARTESIAN_POINT('',(40.25173,14.,96.32738));
#1270=CARTESIAN_POINT('',(40.25173,0.,96.32738));
#1271=CARTESIAN_POINT('',(43.5144388,14.,94.8059552));
#1272=CARTESIAN_POINT('',(43.5144388,14.,94.8059552));
#1273=CARTESIAN_POINT('',(43.5144388,0.,94.8059552));
#1274=CARTESIAN_POINT('Origin',(57.15645,0.,132.5797));
#1275=CARTESIAN_POINT('',(55.,14.,135.));
#1276=CARTESIAN_POINT('',(55.,-14.,135.));
#1277=CARTESIAN_POINT('',(55.,0.,135.));
#1278=CARTESIAN_POINT('',(57.15645,14.,132.5797));
#1279=CARTESIAN_POINT('',(55.,14.,135.));
#1280=CARTESIAN_POINT('',(57.15645,-14.,132.5797));
#1281=CARTESIAN_POINT('',(57.15645,0.,132.5797));
#1282=CARTESIAN_POINT('',(55.,-14.,135.));
#1283=CARTESIAN_POINT('Origin',(66.5,0.,141.5));
#1284=CARTESIAN_POINT('',(60.4191588,14.,131.0582752));
#1285=CARTESIAN_POINT('',(60.4191588,-14.,131.0582752));
#1286=CARTESIAN_POINT('',(60.4191588,0.,131.0582752));
#1287=CARTESIAN_POINT('',(66.5,14.,141.5));
#1288=CARTESIAN_POINT('',(60.4191588,14.,131.0582752));
#1289=CARTESIAN_POINT('',(66.5,-14.,141.5));
#1290=CARTESIAN_POINT('',(66.5,0.,141.5));
#1291=CARTESIAN_POINT('',(60.4191588,-14.,131.0582752));
#1292=CARTESIAN_POINT('Origin',(68.,0.,143.5));
#1293=CARTESIAN_POINT('',(68.,14.,143.5));
#1294=CARTESIAN_POINT('',(66.5,14.,141.5));
#1295=CARTESIAN_POINT('',(68.,-14.,143.5));
#1296=CARTESIAN_POINT('',(68.,0.,143.5));
#1297=CARTESIAN_POINT('',(66.5,-14.,141.5));
#1298=CARTESIAN_POINT('Origin',(68.,0.,146.9));
#1299=CARTESIAN_POINT('',(68.,14.,146.9));
#1300=CARTESIAN_POINT('',(68.,14.,143.5));
#1301=CARTESIAN_POINT('',(68.,-14.,146.9));
#1302=CARTESIAN_POINT('',(68.,0.,146.9));
#1303=CARTESIAN_POINT('',(68.,-14.,143.5));
#1304=CARTESIAN_POINT('Origin',(52.99,0.,146.9));
#1305=CARTESIAN_POINT('',(52.99,14.,146.9));
#1306=CARTESIAN_POINT('',(68.,14.,146.9));
#1307=CARTESIAN_POINT('',(52.99,-14.,146.9));
#1308=CARTESIAN_POINT('',(52.99,0.,146.9));
#1309=CARTESIAN_POINT('',(68.,-14.,146.9));
#1310=CARTESIAN_POINT('Origin',(52.99,0.,143.));
#1311=CARTESIAN_POINT('',(52.99,14.,143.));
#1312=CARTESIAN_POINT('',(52.99,14.,146.9));
#1313=CARTESIAN_POINT('',(52.99,-14.,143.));
#1314=CARTESIAN_POINT('',(52.99,0.,143.));
#1315=CARTESIAN_POINT('',(52.99,-14.,146.9));
#1316=CARTESIAN_POINT('Origin',(55.5,0.,138.));
#1317=CARTESIAN_POINT('',(55.5,14.,138.));
#1318=CARTESIAN_POINT('',(52.99,14.,143.));
#1319=CARTESIAN_POINT('',(55.5,-14.,138.));
#1320=CARTESIAN_POINT('',(55.5,0.,138.));
#1321=CARTESIAN_POINT('',(52.99,-14.,143.));
#1322=CARTESIAN_POINT('Origin',(55.,0.,135.));
#1323=CARTESIAN_POINT('',(55.5,14.,138.));
#1324=CARTESIAN_POINT('',(55.5,-14.,138.));
#1325=CARTESIAN_POINT('Origin',(50.5467534,14.,114.1459816));
#1326=CARTESIAN_POINT('',(60.8417768,14.,131.9645832));
#1327=CARTESIAN_POINT('',(40.25173,14.,96.32738));
#1328=CARTESIAN_POINT('Origin',(60.8417768,0.,131.9645832));
#1329=CARTESIAN_POINT('',(60.8417768,-14.,131.9645832));
#1330=CARTESIAN_POINT('',(45.5430052591961,-2.0818995585505E-16,99.1562337269463));
#1331=CARTESIAN_POINT('Origin',(46.2614558,0.,100.6969572));
#1332=CARTESIAN_POINT('',(52.727511259196,-2.0818995585505E-16,114.563469726946));
#1333=CARTESIAN_POINT('Origin',(53.4459618,0.,116.1041932));
#1334=CARTESIAN_POINT('',(49.135258259196,8.5,106.859851726946));
#1335=CARTESIAN_POINT('Origin',(49.8537088,8.5,108.4005752));
#1336=CARTESIAN_POINT('',(47.9519279566954,-5.51091059616308E-16,104.322189536034));
#1337=CARTESIAN_POINT('Origin',(49.8537088,0.,108.4005752));
#1338=CARTESIAN_POINT('',(49.135258259196,-8.5,106.859851726946));
#1339=CARTESIAN_POINT('Origin',(49.8537088,-8.5,108.4005752));
#1340=CARTESIAN_POINT('Origin',(46.591,8.5,109.922));
#1341=CARTESIAN_POINT('',(45.3654079009814,8.5,107.293707016556));
#1342=CARTESIAN_POINT('Origin',(46.591,8.5,109.922));
#1343=CARTESIAN_POINT('',(47.4499161292305,8.5,106.321685696644));
#1344=CARTESIAN_POINT('',(45.3654079009814,8.5,107.293707016556));
#1345=CARTESIAN_POINT('Origin',(48.675508228249,8.5,108.949978680089));
#1346=CARTESIAN_POINT('Origin',(48.675508228249,8.5,108.949978680089));
#1347=CARTESIAN_POINT('',(47.957057687445,8.5,107.409255207035));
#1348=CARTESIAN_POINT('Origin',(48.675508228249,8.5,108.949978680089));
#1349=CARTESIAN_POINT('Origin',(50.183253,0.,117.625618));
#1350=CARTESIAN_POINT('',(48.9576609009814,-3.55147571752731E-16,114.997325016556));
#1351=CARTESIAN_POINT('Origin',(50.183253,0.,117.625618));
#1352=CARTESIAN_POINT('',(51.0421691292305,-3.55147571752731E-16,114.025303696644));
#1353=CARTESIAN_POINT('',(48.9576609009814,3.55147571752731E-16,114.997325016556));
#1354=CARTESIAN_POINT('Origin',(52.267761228249,0.,116.653596680089));
#1355=CARTESIAN_POINT('Origin',(52.267761228249,0.,116.653596680089));
#1356=CARTESIAN_POINT('',(51.549310687445,-2.0818995585505E-16,115.112873207035));
#1357=CARTESIAN_POINT('Origin',(52.267761228249,0.,116.653596680089));
#1358=CARTESIAN_POINT('Origin',(46.591,-8.5,109.922));
#1359=CARTESIAN_POINT('',(45.3654079009814,-8.5,107.293707016556));
#1360=CARTESIAN_POINT('Origin',(46.591,-8.5,109.922));
#1361=CARTESIAN_POINT('',(47.4499161292305,-8.5,106.321685696644));
#1362=CARTESIAN_POINT('',(45.3654079009814,-8.5,107.293707016556));
#1363=CARTESIAN_POINT('Origin',(48.675508228249,-8.5,108.949978680089));
#1364=CARTESIAN_POINT('Origin',(48.675508228249,-8.5,108.949978680089));
#1365=CARTESIAN_POINT('',(47.957057687445,-8.5,107.409255207035));
#1366=CARTESIAN_POINT('Origin',(48.675508228249,-8.5,108.949978680089));
#1367=CARTESIAN_POINT('Origin',(42.998747,0.,102.218382));
#1368=CARTESIAN_POINT('',(41.7731549009814,-3.55147571752731E-16,99.5900890165556));
#1369=CARTESIAN_POINT('Origin',(42.998747,0.,102.218382));
#1370=CARTESIAN_POINT('',(43.8576631292305,-3.55147571752731E-16,98.6180676966443));
#1371=CARTESIAN_POINT('',(41.7731549009814,3.55147571752731E-16,99.5900890165556));
#1372=CARTESIAN_POINT('Origin',(45.083255228249,0.,101.246360680089));
#1373=CARTESIAN_POINT('Origin',(45.083255228249,0.,101.246360680089));
#1374=CARTESIAN_POINT('',(44.364804687445,-2.0818995585505E-16,99.7056372070351));
#1375=CARTESIAN_POINT('Origin',(45.083255228249,0.,101.246360680089));
#1376=CARTESIAN_POINT('Origin',(42.998747,0.,102.218382));
#1377=CARTESIAN_POINT('',(42.280296459196,2.0818995585505E-16,100.677658526946));
#1378=CARTESIAN_POINT('Origin',(50.183253,0.,117.625618));
#1379=CARTESIAN_POINT('',(49.464802459196,2.0818995585505E-16,116.084894526946));
#1380=CARTESIAN_POINT('Origin',(46.591,8.5,109.922));
#1381=CARTESIAN_POINT('',(45.872549459196,8.5,108.381276526946));
#1382=CARTESIAN_POINT('Origin',(46.591,0.,109.922));
#1383=CARTESIAN_POINT('',(44.6892191566953,-5.51091059616308E-16,105.843614336034));
#1384=CARTESIAN_POINT('Origin',(46.591,0.,109.922));
#1385=CARTESIAN_POINT('',(44.6892191566953,5.51091059616308E-16,105.843614336034));
#1386=CARTESIAN_POINT('Origin',(46.591,-8.5,109.922));
#1387=CARTESIAN_POINT('',(45.872549459196,-8.5,108.381276526946));
#1388=CARTESIAN_POINT('Origin',(50.5467534,-14.,114.1459816));
#1389=CARTESIAN_POINT('',(40.25173,-14.,96.32738));
#1390=CARTESIAN_POINT('Origin',(40.25173,0.,96.32738));
#1391=UNCERTAINTY_MEASURE_WITH_UNIT(LENGTH_MEASURE(0.01),#1395,
'DISTANCE_ACCURACY_VALUE',
'Maximum model space distance between geometric entities at asserted c
onnectivities');
#1392=UNCERTAINTY_MEASURE_WITH_UNIT(LENGTH_MEASURE(0.01),#1395,
'DISTANCE_ACCURACY_VALUE',
'Maximum model space distance between geometric entities at asserted c
onnectivities');
#1393=(
GEOMETRIC_REPRESENTATION_CONTEXT(3)
GLOBAL_UNCERTAINTY_ASSIGNED_CONTEXT((#1391))
GLOBAL_UNIT_ASSIGNED_CONTEXT((#1395,#1397,#1398))
REPRESENTATION_CONTEXT('','3D')
);
#1394=(
GEOMETRIC_REPRESENTATION_CONTEXT(3)
GLOBAL_UNCERTAINTY_ASSIGNED_CONTEXT((#1392))
GLOBAL_UNIT_ASSIGNED_CONTEXT((#1395,#1397,#1398))
REPRESENTATION_CONTEXT('','3D')
);
#1395=(
LENGTH_UNIT()
NAMED_UNIT(*)
SI_UNIT(.MILLI.,.METRE.)
);
#1396=(
LENGTH_UNIT()
NAMED_UNIT(*)
SI_UNIT($,.METRE.)
);
#1397=(
NAMED_UNIT(*)
PLANE_ANGLE_UNIT()
SI_UNIT($,.RADIAN.)
);
#1398=(
NAMED_UNIT(*)
SI_UNIT($,.STERADIAN.)
SOLID_ANGLE_UNIT()
);
#1399=SHAPE_DEFINITION_REPRESENTATION(#1400,#1401);
#1400=PRODUCT_DEFINITION_SHAPE('',$,#1403);
#1401=SHAPE_REPRESENTATION('',(#843),#1393);
#1402=PRODUCT_DEFINITION_CONTEXT('part definition',#1407,'design');
#1403=PRODUCT_DEFINITION('2026-09-18-20-47-50-462','(\X2\672A4FDD5B58\X0\)',
#1404,#1402);
#1404=PRODUCT_DEFINITION_FORMATION('',$,#1409);
#1405=PRODUCT_RELATED_PRODUCT_CATEGORY('(\X2\672A4FDD5B58\X0\)',
'(\X2\672A4FDD5B58\X0\)',(#1409));
#1406=APPLICATION_PROTOCOL_DEFINITION('international standard',
'automotive_design',2009,#1407);
#1407=APPLICATION_CONTEXT(
'Core Data for Automotive Mechanical Design Process');
#1408=PRODUCT_CONTEXT('part definition',#1407,'mechanical');
#1409=PRODUCT('2026-09-18-20-47-50-462','(\X2\672A4FDD5B58\X0\)',$,(#1408));
#1410=PRESENTATION_STYLE_ASSIGNMENT((#1411));
#1411=SURFACE_STYLE_USAGE(.BOTH.,#1412);
#1412=SURFACE_SIDE_STYLE('',(#1413));
#1413=SURFACE_STYLE_FILL_AREA(#1414);
#1414=FILL_AREA_STYLE('\X2\92FC\X0\ - \X2\30B530C630F3\X0\',(#1415));
#1415=FILL_AREA_STYLE_COLOUR('\X2\92FC\X0\ - \X2\30B530C630F3\X0\',#1416);
#1416=COLOUR_RGB('\X2\92FC\X0\ - \X2\30B530C630F3\X0\',0.627450980392157,
0.627450980392157,0.627450980392157);
ENDSEC;
END-ISO-10303-21;
