ISO-10303-21;
HEADER;
/* Generated by software containing ST-Developer
 * from STEP Tools, Inc. (www.steptools.com) 
 */

FILE_DESCRIPTION(
/* description */ (''),
/* implementation_level */ '2;1');

FILE_NAME(
/* name */ 'MotorMount_v4.step',
/* time_stamp */ '2026-09-16T03:12:39+09:00',
/* author */ (''),
/* organization */ (''),
/* preprocessor_version */ 'ST-DEVELOPER v20.2',
/* originating_system */ 'Autodesk Translation Framework v15.15.0.0',
/* authorisation */ '');

FILE_SCHEMA (('AUTOMOTIVE_DESIGN { 1 0 10303 214 3 1 1 }','FEATURE_BASED_PROCESS_PLANNING'));
ENDSEC;

DATA;
#10=MECHANICAL_DESIGN_GEOMETRIC_PRESENTATION_REPRESENTATION('',(#13,#14),
#1391);
#11=SHAPE_REPRESENTATION_RELATIONSHIP('SRR','None',#1398,#12);
#12=ADVANCED_BREP_SHAPE_REPRESENTATION('',(#15,#16),#1390);
#13=STYLED_ITEM('',(#1407),#15);
#14=STYLED_ITEM('',(#1407),#16);
#15=MANIFOLD_SOLID_BREP('\X2\30DC30C730A3\X0\1',#832);
#16=MANIFOLD_SOLID_BREP('\X2\30DC30C730A3\X0\1',#833);
#17=ELLIPSE('',#862,0.482283811756725,0.225);
#18=ELLIPSE('',#866,0.482283811756725,0.225);
#19=CYLINDRICAL_SURFACE('',#861,0.225);
#20=CYLINDRICAL_SURFACE('',#865,0.225);
#21=CYLINDRICAL_SURFACE('',#869,0.289999999999999);
#22=CYLINDRICAL_SURFACE('',#874,0.289999999999999);
#23=CYLINDRICAL_SURFACE('',#879,0.289999999999999);
#24=CYLINDRICAL_SURFACE('',#884,0.289999999999999);
#25=CYLINDRICAL_SURFACE('',#889,0.17);
#26=CYLINDRICAL_SURFACE('',#891,0.17);
#27=CYLINDRICAL_SURFACE('',#893,0.17);
#28=CYLINDRICAL_SURFACE('',#895,0.449999999999999);
#29=CYLINDRICAL_SURFACE('',#898,0.17);
#30=CYLINDRICAL_SURFACE('',#922,0.225);
#31=CYLINDRICAL_SURFACE('',#923,0.225);
#32=CYLINDRICAL_SURFACE('',#924,0.225);
#33=CYLINDRICAL_SURFACE('',#925,0.225);
#34=FACE_BOUND('',#294,.T.);
#35=FACE_BOUND('',#307,.T.);
#36=FACE_BOUND('',#310,.T.);
#37=FACE_BOUND('',#313,.T.);
#38=FACE_BOUND('',#316,.T.);
#39=FACE_BOUND('',#324,.T.);
#40=FACE_BOUND('',#325,.T.);
#41=FACE_BOUND('',#326,.T.);
#42=FACE_BOUND('',#327,.T.);
#43=FACE_BOUND('',#328,.T.);
#44=FACE_BOUND('',#332,.T.);
#45=FACE_BOUND('',#333,.T.);
#46=FACE_BOUND('',#335,.T.);
#47=FACE_BOUND('',#336,.T.);
#48=FACE_BOUND('',#337,.T.);
#49=FACE_BOUND('',#338,.T.);
#50=FACE_BOUND('',#339,.T.);
#51=FACE_BOUND('',#341,.T.);
#52=FACE_BOUND('',#346,.T.);
#53=FACE_BOUND('',#347,.T.);
#54=FACE_BOUND('',#348,.T.);
#55=FACE_BOUND('',#349,.T.);
#56=FACE_BOUND('',#352,.T.);
#57=FACE_BOUND('',#353,.T.);
#58=FACE_BOUND('',#354,.T.);
#59=FACE_BOUND('',#355,.T.);
#60=LINE('',#1170,#135);
#61=LINE('',#1172,#136);
#62=LINE('',#1174,#137);
#63=LINE('',#1175,#138);
#64=LINE('',#1178,#139);
#65=LINE('',#1180,#140);
#66=LINE('',#1182,#141);
#67=LINE('',#1184,#142);
#68=LINE('',#1186,#143);
#69=LINE('',#1188,#144);
#70=LINE('',#1190,#145);
#71=LINE('',#1192,#146);
#72=LINE('',#1193,#147);
#73=LINE('',#1196,#148);
#74=LINE('',#1198,#149);
#75=LINE('',#1199,#150);
#76=LINE('',#1202,#151);
#77=LINE('',#1203,#152);
#78=LINE('',#1206,#153);
#79=LINE('',#1207,#154);
#80=LINE('',#1210,#155);
#81=LINE('',#1211,#156);
#82=LINE('',#1214,#157);
#83=LINE('',#1215,#158);
#84=LINE('',#1218,#159);
#85=LINE('',#1219,#160);
#86=LINE('',#1221,#161);
#87=LINE('',#1224,#162);
#88=LINE('',#1225,#163);
#89=LINE('',#1227,#164);
#90=LINE('',#1234,#165);
#91=LINE('',#1241,#166);
#92=LINE('',#1246,#167);
#93=LINE('',#1255,#168);
#94=LINE('',#1264,#169);
#95=LINE('',#1273,#170);
#96=LINE('',#1281,#171);
#97=LINE('',#1285,#172);
#98=LINE('',#1289,#173);
#99=LINE('',#1294,#174);
#100=LINE('',#1299,#175);
#101=LINE('',#1303,#176);
#102=LINE('',#1305,#177);
#103=LINE('',#1307,#178);
#104=LINE('',#1309,#179);
#105=LINE('',#1311,#180);
#106=LINE('',#1312,#181);
#107=LINE('',#1315,#182);
#108=LINE('',#1317,#183);
#109=LINE('',#1318,#184);
#110=LINE('',#1321,#185);
#111=LINE('',#1322,#186);
#112=LINE('',#1325,#187);
#113=LINE('',#1326,#188);
#114=LINE('',#1329,#189);
#115=LINE('',#1330,#190);
#116=LINE('',#1333,#191);
#117=LINE('',#1334,#192);
#118=LINE('',#1336,#193);
#119=LINE('',#1341,#194);
#120=LINE('',#1343,#195);
#121=LINE('',#1345,#196);
#122=LINE('',#1346,#197);
#123=LINE('',#1349,#198);
#124=LINE('',#1351,#199);
#125=LINE('',#1352,#200);
#126=LINE('',#1355,#201);
#127=LINE('',#1356,#202);
#128=LINE('',#1367,#203);
#129=LINE('',#1368,#204);
#130=LINE('',#1370,#205);
#131=LINE('',#1381,#206);
#132=LINE('',#1383,#207);
#133=LINE('',#1385,#208);
#134=LINE('',#1387,#209);
#135=VECTOR('',#936,1.);
#136=VECTOR('',#937,1.);
#137=VECTOR('',#938,1.);
#138=VECTOR('',#939,1.);
#139=VECTOR('',#942,1.);
#140=VECTOR('',#943,1.);
#141=VECTOR('',#944,1.);
#142=VECTOR('',#945,1.);
#143=VECTOR('',#946,1.);
#144=VECTOR('',#947,1.);
#145=VECTOR('',#948,1.);
#146=VECTOR('',#949,1.);
#147=VECTOR('',#950,1.);
#148=VECTOR('',#953,1.);
#149=VECTOR('',#954,1.);
#150=VECTOR('',#955,1.);
#151=VECTOR('',#958,1.);
#152=VECTOR('',#959,1.);
#153=VECTOR('',#962,1.);
#154=VECTOR('',#963,1.);
#155=VECTOR('',#966,1.);
#156=VECTOR('',#967,1.);
#157=VECTOR('',#970,1.);
#158=VECTOR('',#971,1.);
#159=VECTOR('',#974,1.);
#160=VECTOR('',#975,1.);
#161=VECTOR('',#978,1.);
#162=VECTOR('',#981,1.);
#163=VECTOR('',#982,1.);
#164=VECTOR('',#985,1.);
#165=VECTOR('',#994,1.);
#166=VECTOR('',#1003,1.);
#167=VECTOR('',#1008,0.289999999999999);
#168=VECTOR('',#1019,0.289999999999999);
#169=VECTOR('',#1030,0.289999999999999);
#170=VECTOR('',#1041,0.289999999999999);
#171=VECTOR('',#1052,0.17);
#172=VECTOR('',#1057,0.17);
#173=VECTOR('',#1062,0.17);
#174=VECTOR('',#1067,0.449999999999999);
#175=VECTOR('',#1074,0.17);
#176=VECTOR('',#1077,1.);
#177=VECTOR('',#1078,1.);
#178=VECTOR('',#1079,1.);
#179=VECTOR('',#1080,1.);
#180=VECTOR('',#1081,1.);
#181=VECTOR('',#1082,1.);
#182=VECTOR('',#1085,1.);
#183=VECTOR('',#1086,1.);
#184=VECTOR('',#1087,1.);
#185=VECTOR('',#1090,1.);
#186=VECTOR('',#1091,1.);
#187=VECTOR('',#1094,1.);
#188=VECTOR('',#1095,1.);
#189=VECTOR('',#1098,1.);
#190=VECTOR('',#1099,1.);
#191=VECTOR('',#1102,1.);
#192=VECTOR('',#1103,1.);
#193=VECTOR('',#1106,1.);
#194=VECTOR('',#1111,1.);
#195=VECTOR('',#1112,1.);
#196=VECTOR('',#1113,1.);
#197=VECTOR('',#1114,1.);
#198=VECTOR('',#1117,1.);
#199=VECTOR('',#1118,1.);
#200=VECTOR('',#1119,1.);
#201=VECTOR('',#1122,1.);
#202=VECTOR('',#1123,1.);
#203=VECTOR('',#1134,1.);
#204=VECTOR('',#1135,1.);
#205=VECTOR('',#1138,1.);
#206=VECTOR('',#1151,0.225);
#207=VECTOR('',#1154,0.225);
#208=VECTOR('',#1157,0.225);
#209=VECTOR('',#1160,0.225);
#210=PLANE('',#850);
#211=PLANE('',#851);
#212=PLANE('',#852);
#213=PLANE('',#853);
#214=PLANE('',#854);
#215=PLANE('',#855);
#216=PLANE('',#856);
#217=PLANE('',#857);
#218=PLANE('',#858);
#219=PLANE('',#859);
#220=PLANE('',#860);
#221=PLANE('',#864);
#222=PLANE('',#868);
#223=PLANE('',#872);
#224=PLANE('',#877);
#225=PLANE('',#882);
#226=PLANE('',#887);
#227=PLANE('',#900);
#228=PLANE('',#901);
#229=PLANE('',#902);
#230=PLANE('',#903);
#231=PLANE('',#904);
#232=PLANE('',#905);
#233=PLANE('',#906);
#234=PLANE('',#907);
#235=PLANE('',#908);
#236=PLANE('',#909);
#237=PLANE('',#910);
#238=PLANE('',#915);
#239=PLANE('',#916);
#240=PLANE('',#921);
#241=FACE_OUTER_BOUND('',#288,.T.);
#242=FACE_OUTER_BOUND('',#289,.T.);
#243=FACE_OUTER_BOUND('',#290,.T.);
#244=FACE_OUTER_BOUND('',#291,.T.);
#245=FACE_OUTER_BOUND('',#292,.T.);
#246=FACE_OUTER_BOUND('',#293,.T.);
#247=FACE_OUTER_BOUND('',#295,.T.);
#248=FACE_OUTER_BOUND('',#296,.T.);
#249=FACE_OUTER_BOUND('',#297,.T.);
#250=FACE_OUTER_BOUND('',#298,.T.);
#251=FACE_OUTER_BOUND('',#299,.T.);
#252=FACE_OUTER_BOUND('',#300,.T.);
#253=FACE_OUTER_BOUND('',#301,.T.);
#254=FACE_OUTER_BOUND('',#302,.T.);
#255=FACE_OUTER_BOUND('',#303,.T.);
#256=FACE_OUTER_BOUND('',#304,.T.);
#257=FACE_OUTER_BOUND('',#305,.T.);
#258=FACE_OUTER_BOUND('',#306,.T.);
#259=FACE_OUTER_BOUND('',#308,.T.);
#260=FACE_OUTER_BOUND('',#309,.T.);
#261=FACE_OUTER_BOUND('',#311,.T.);
#262=FACE_OUTER_BOUND('',#312,.T.);
#263=FACE_OUTER_BOUND('',#314,.T.);
#264=FACE_OUTER_BOUND('',#315,.T.);
#265=FACE_OUTER_BOUND('',#317,.T.);
#266=FACE_OUTER_BOUND('',#318,.T.);
#267=FACE_OUTER_BOUND('',#319,.T.);
#268=FACE_OUTER_BOUND('',#320,.T.);
#269=FACE_OUTER_BOUND('',#321,.T.);
#270=FACE_OUTER_BOUND('',#322,.T.);
#271=FACE_OUTER_BOUND('',#323,.T.);
#272=FACE_OUTER_BOUND('',#329,.T.);
#273=FACE_OUTER_BOUND('',#330,.T.);
#274=FACE_OUTER_BOUND('',#331,.T.);
#275=FACE_OUTER_BOUND('',#334,.T.);
#276=FACE_OUTER_BOUND('',#340,.T.);
#277=FACE_OUTER_BOUND('',#342,.T.);
#278=FACE_OUTER_BOUND('',#343,.T.);
#279=FACE_OUTER_BOUND('',#344,.T.);
#280=FACE_OUTER_BOUND('',#345,.T.);
#281=FACE_OUTER_BOUND('',#350,.T.);
#282=FACE_OUTER_BOUND('',#351,.T.);
#283=FACE_OUTER_BOUND('',#356,.T.);
#284=FACE_OUTER_BOUND('',#357,.T.);
#285=FACE_OUTER_BOUND('',#358,.T.);
#286=FACE_OUTER_BOUND('',#359,.T.);
#287=FACE_OUTER_BOUND('',#360,.T.);
#288=EDGE_LOOP('',(#570,#571,#572));
#289=EDGE_LOOP('',(#573,#574,#575,#576));
#290=EDGE_LOOP('',(#577,#578,#579,#580,#581,#582,#583,#584,#585,#586));
#291=EDGE_LOOP('',(#587,#588,#589,#590));
#292=EDGE_LOOP('',(#591,#592,#593,#594));
#293=EDGE_LOOP('',(#595,#596,#597,#598));
#294=EDGE_LOOP('',(#599));
#295=EDGE_LOOP('',(#600,#601,#602,#603));
#296=EDGE_LOOP('',(#604,#605,#606,#607));
#297=EDGE_LOOP('',(#608,#609,#610,#611));
#298=EDGE_LOOP('',(#612,#613,#614,#615));
#299=EDGE_LOOP('',(#616,#617,#618,#619));
#300=EDGE_LOOP('',(#620,#621,#622,#623,#624,#625,#626,#627,#628,#629));
#301=EDGE_LOOP('',(#630,#631));
#302=EDGE_LOOP('',(#632,#633));
#303=EDGE_LOOP('',(#634,#635));
#304=EDGE_LOOP('',(#636,#637));
#305=EDGE_LOOP('',(#638,#639,#640,#641));
#306=EDGE_LOOP('',(#642));
#307=EDGE_LOOP('',(#643));
#308=EDGE_LOOP('',(#644,#645,#646,#647));
#309=EDGE_LOOP('',(#648));
#310=EDGE_LOOP('',(#649));
#311=EDGE_LOOP('',(#650,#651,#652,#653));
#312=EDGE_LOOP('',(#654));
#313=EDGE_LOOP('',(#655));
#314=EDGE_LOOP('',(#656,#657,#658,#659));
#315=EDGE_LOOP('',(#660));
#316=EDGE_LOOP('',(#661));
#317=EDGE_LOOP('',(#662,#663,#664,#665));
#318=EDGE_LOOP('',(#666,#667,#668,#669));
#319=EDGE_LOOP('',(#670,#671,#672,#673));
#320=EDGE_LOOP('',(#674,#675,#676,#677));
#321=EDGE_LOOP('',(#678,#679,#680,#681));
#322=EDGE_LOOP('',(#682,#683,#684,#685,#686,#687));
#323=EDGE_LOOP('',(#688,#689,#690,#691));
#324=EDGE_LOOP('',(#692));
#325=EDGE_LOOP('',(#693));
#326=EDGE_LOOP('',(#694));
#327=EDGE_LOOP('',(#695));
#328=EDGE_LOOP('',(#696));
#329=EDGE_LOOP('',(#697,#698,#699,#700));
#330=EDGE_LOOP('',(#701,#702,#703,#704));
#331=EDGE_LOOP('',(#705,#706,#707,#708));
#332=EDGE_LOOP('',(#709,#710));
#333=EDGE_LOOP('',(#711,#712));
#334=EDGE_LOOP('',(#713,#714,#715,#716));
#335=EDGE_LOOP('',(#717));
#336=EDGE_LOOP('',(#718));
#337=EDGE_LOOP('',(#719));
#338=EDGE_LOOP('',(#720));
#339=EDGE_LOOP('',(#721));
#340=EDGE_LOOP('',(#722,#723,#724,#725));
#341=EDGE_LOOP('',(#726,#727,#728,#729));
#342=EDGE_LOOP('',(#730,#731,#732,#733,#734,#735));
#343=EDGE_LOOP('',(#736,#737,#738,#739));
#344=EDGE_LOOP('',(#740,#741,#742,#743));
#345=EDGE_LOOP('',(#744,#745,#746,#747));
#346=EDGE_LOOP('',(#748));
#347=EDGE_LOOP('',(#749));
#348=EDGE_LOOP('',(#750));
#349=EDGE_LOOP('',(#751));
#350=EDGE_LOOP('',(#752,#753,#754,#755));
#351=EDGE_LOOP('',(#756,#757,#758,#759));
#352=EDGE_LOOP('',(#760));
#353=EDGE_LOOP('',(#761));
#354=EDGE_LOOP('',(#762));
#355=EDGE_LOOP('',(#763));
#356=EDGE_LOOP('',(#764,#765,#766,#767));
#357=EDGE_LOOP('',(#768,#769,#770,#771));
#358=EDGE_LOOP('',(#772,#773,#774,#775));
#359=EDGE_LOOP('',(#776,#777,#778,#779));
#360=EDGE_LOOP('',(#780,#781,#782,#783));
#361=CIRCLE('',#848,0.439368880455617);
#362=CIRCLE('',#849,0.53);
#363=CIRCLE('',#863,0.225);
#364=CIRCLE('',#867,0.225);
#365=CIRCLE('',#870,0.289999999999999);
#366=CIRCLE('',#871,0.289999999999999);
#367=CIRCLE('',#873,0.17);
#368=CIRCLE('',#875,0.289999999999999);
#369=CIRCLE('',#876,0.289999999999999);
#370=CIRCLE('',#878,0.17);
#371=CIRCLE('',#880,0.289999999999999);
#372=CIRCLE('',#881,0.289999999999999);
#373=CIRCLE('',#883,0.17);
#374=CIRCLE('',#885,0.289999999999999);
#375=CIRCLE('',#886,0.289999999999999);
#376=CIRCLE('',#888,0.17);
#377=CIRCLE('',#890,0.17);
#378=CIRCLE('',#892,0.17);
#379=CIRCLE('',#894,0.17);
#380=CIRCLE('',#896,0.449999999999999);
#381=CIRCLE('',#897,0.449999999999999);
#382=CIRCLE('',#899,0.17);
#383=CIRCLE('',#911,0.225);
#384=CIRCLE('',#912,0.225);
#385=CIRCLE('',#913,0.225);
#386=CIRCLE('',#914,0.225);
#387=CIRCLE('',#917,0.225);
#388=CIRCLE('',#918,0.225);
#389=CIRCLE('',#919,0.225);
#390=CIRCLE('',#920,0.225);
#391=VERTEX_POINT('',#1163);
#392=VERTEX_POINT('',#1165);
#393=VERTEX_POINT('',#1168);
#394=VERTEX_POINT('',#1169);
#395=VERTEX_POINT('',#1171);
#396=VERTEX_POINT('',#1173);
#397=VERTEX_POINT('',#1177);
#398=VERTEX_POINT('',#1179);
#399=VERTEX_POINT('',#1181);
#400=VERTEX_POINT('',#1183);
#401=VERTEX_POINT('',#1185);
#402=VERTEX_POINT('',#1187);
#403=VERTEX_POINT('',#1189);
#404=VERTEX_POINT('',#1191);
#405=VERTEX_POINT('',#1195);
#406=VERTEX_POINT('',#1197);
#407=VERTEX_POINT('',#1201);
#408=VERTEX_POINT('',#1205);
#409=VERTEX_POINT('',#1209);
#410=VERTEX_POINT('',#1213);
#411=VERTEX_POINT('',#1217);
#412=VERTEX_POINT('',#1223);
#413=VERTEX_POINT('',#1229);
#414=VERTEX_POINT('',#1230);
#415=VERTEX_POINT('',#1236);
#416=VERTEX_POINT('',#1237);
#417=VERTEX_POINT('',#1243);
#418=VERTEX_POINT('',#1245);
#419=VERTEX_POINT('',#1249);
#420=VERTEX_POINT('',#1252);
#421=VERTEX_POINT('',#1254);
#422=VERTEX_POINT('',#1258);
#423=VERTEX_POINT('',#1261);
#424=VERTEX_POINT('',#1263);
#425=VERTEX_POINT('',#1267);
#426=VERTEX_POINT('',#1270);
#427=VERTEX_POINT('',#1272);
#428=VERTEX_POINT('',#1276);
#429=VERTEX_POINT('',#1279);
#430=VERTEX_POINT('',#1283);
#431=VERTEX_POINT('',#1287);
#432=VERTEX_POINT('',#1291);
#433=VERTEX_POINT('',#1293);
#434=VERTEX_POINT('',#1297);
#435=VERTEX_POINT('',#1301);
#436=VERTEX_POINT('',#1302);
#437=VERTEX_POINT('',#1304);
#438=VERTEX_POINT('',#1306);
#439=VERTEX_POINT('',#1308);
#440=VERTEX_POINT('',#1310);
#441=VERTEX_POINT('',#1314);
#442=VERTEX_POINT('',#1316);
#443=VERTEX_POINT('',#1320);
#444=VERTEX_POINT('',#1324);
#445=VERTEX_POINT('',#1328);
#446=VERTEX_POINT('',#1332);
#447=VERTEX_POINT('',#1339);
#448=VERTEX_POINT('',#1340);
#449=VERTEX_POINT('',#1342);
#450=VERTEX_POINT('',#1344);
#451=VERTEX_POINT('',#1348);
#452=VERTEX_POINT('',#1350);
#453=VERTEX_POINT('',#1354);
#454=VERTEX_POINT('',#1357);
#455=VERTEX_POINT('',#1359);
#456=VERTEX_POINT('',#1361);
#457=VERTEX_POINT('',#1363);
#458=VERTEX_POINT('',#1366);
#459=VERTEX_POINT('',#1371);
#460=VERTEX_POINT('',#1373);
#461=VERTEX_POINT('',#1375);
#462=VERTEX_POINT('',#1377);
#463=EDGE_CURVE('',#391,#391,#361,.T.);
#464=EDGE_CURVE('',#391,#392,#362,.T.);
#465=EDGE_CURVE('',#393,#394,#60,.T.);
#466=EDGE_CURVE('',#395,#393,#61,.T.);
#467=EDGE_CURVE('',#395,#396,#62,.T.);
#468=EDGE_CURVE('',#394,#396,#63,.T.);
#469=EDGE_CURVE('',#397,#393,#64,.T.);
#470=EDGE_CURVE('',#397,#398,#65,.T.);
#471=EDGE_CURVE('',#398,#399,#66,.T.);
#472=EDGE_CURVE('',#399,#400,#67,.T.);
#473=EDGE_CURVE('',#400,#401,#68,.T.);
#474=EDGE_CURVE('',#401,#402,#69,.T.);
#475=EDGE_CURVE('',#402,#403,#70,.T.);
#476=EDGE_CURVE('',#403,#404,#71,.T.);
#477=EDGE_CURVE('',#404,#395,#72,.T.);
#478=EDGE_CURVE('',#405,#398,#73,.T.);
#479=EDGE_CURVE('',#406,#405,#74,.T.);
#480=EDGE_CURVE('',#399,#406,#75,.T.);
#481=EDGE_CURVE('',#407,#406,#76,.T.);
#482=EDGE_CURVE('',#400,#407,#77,.T.);
#483=EDGE_CURVE('',#408,#407,#78,.T.);
#484=EDGE_CURVE('',#401,#408,#79,.T.);
#485=EDGE_CURVE('',#409,#408,#80,.T.);
#486=EDGE_CURVE('',#402,#409,#81,.T.);
#487=EDGE_CURVE('',#410,#409,#82,.T.);
#488=EDGE_CURVE('',#403,#410,#83,.T.);
#489=EDGE_CURVE('',#411,#410,#84,.T.);
#490=EDGE_CURVE('',#404,#411,#85,.T.);
#491=EDGE_CURVE('',#396,#411,#86,.T.);
#492=EDGE_CURVE('',#412,#397,#87,.T.);
#493=EDGE_CURVE('',#405,#412,#88,.T.);
#494=EDGE_CURVE('',#394,#412,#89,.T.);
#495=EDGE_CURVE('',#413,#414,#17,.T.);
#496=EDGE_CURVE('',#413,#414,#363,.T.);
#497=EDGE_CURVE('',#414,#413,#90,.T.);
#498=EDGE_CURVE('',#415,#416,#18,.T.);
#499=EDGE_CURVE('',#415,#416,#364,.T.);
#500=EDGE_CURVE('',#416,#415,#91,.T.);
#501=EDGE_CURVE('',#417,#417,#365,.T.);
#502=EDGE_CURVE('',#417,#418,#92,.T.);
#503=EDGE_CURVE('',#418,#418,#366,.T.);
#504=EDGE_CURVE('',#419,#419,#367,.T.);
#505=EDGE_CURVE('',#420,#420,#368,.T.);
#506=EDGE_CURVE('',#420,#421,#93,.T.);
#507=EDGE_CURVE('',#421,#421,#369,.T.);
#508=EDGE_CURVE('',#422,#422,#370,.T.);
#509=EDGE_CURVE('',#423,#423,#371,.T.);
#510=EDGE_CURVE('',#423,#424,#94,.T.);
#511=EDGE_CURVE('',#424,#424,#372,.T.);
#512=EDGE_CURVE('',#425,#425,#373,.T.);
#513=EDGE_CURVE('',#426,#426,#374,.T.);
#514=EDGE_CURVE('',#426,#427,#95,.T.);
#515=EDGE_CURVE('',#427,#427,#375,.T.);
#516=EDGE_CURVE('',#428,#428,#376,.T.);
#517=EDGE_CURVE('',#429,#429,#377,.T.);
#518=EDGE_CURVE('',#429,#428,#96,.T.);
#519=EDGE_CURVE('',#430,#430,#378,.T.);
#520=EDGE_CURVE('',#430,#422,#97,.T.);
#521=EDGE_CURVE('',#431,#431,#379,.T.);
#522=EDGE_CURVE('',#431,#419,#98,.T.);
#523=EDGE_CURVE('',#432,#432,#380,.T.);
#524=EDGE_CURVE('',#432,#433,#99,.T.);
#525=EDGE_CURVE('',#433,#433,#381,.T.);
#526=EDGE_CURVE('',#434,#434,#382,.T.);
#527=EDGE_CURVE('',#434,#425,#100,.T.);
#528=EDGE_CURVE('',#435,#436,#101,.T.);
#529=EDGE_CURVE('',#436,#437,#102,.T.);
#530=EDGE_CURVE('',#437,#438,#103,.T.);
#531=EDGE_CURVE('',#438,#439,#104,.T.);
#532=EDGE_CURVE('',#439,#440,#105,.T.);
#533=EDGE_CURVE('',#440,#435,#106,.T.);
#534=EDGE_CURVE('',#441,#436,#107,.T.);
#535=EDGE_CURVE('',#442,#441,#108,.T.);
#536=EDGE_CURVE('',#437,#442,#109,.T.);
#537=EDGE_CURVE('',#443,#442,#110,.T.);
#538=EDGE_CURVE('',#438,#443,#111,.T.);
#539=EDGE_CURVE('',#444,#443,#112,.T.);
#540=EDGE_CURVE('',#439,#444,#113,.T.);
#541=EDGE_CURVE('',#445,#444,#114,.T.);
#542=EDGE_CURVE('',#440,#445,#115,.T.);
#543=EDGE_CURVE('',#446,#445,#116,.T.);
#544=EDGE_CURVE('',#435,#446,#117,.T.);
#545=EDGE_CURVE('',#441,#446,#118,.T.);
#546=EDGE_CURVE('',#447,#448,#119,.T.);
#547=EDGE_CURVE('',#448,#449,#120,.T.);
#548=EDGE_CURVE('',#449,#450,#121,.T.);
#549=EDGE_CURVE('',#450,#447,#122,.T.);
#550=EDGE_CURVE('',#451,#448,#123,.T.);
#551=EDGE_CURVE('',#447,#452,#124,.T.);
#552=EDGE_CURVE('',#451,#452,#125,.T.);
#553=EDGE_CURVE('',#453,#449,#126,.T.);
#554=EDGE_CURVE('',#453,#451,#127,.T.);
#555=EDGE_CURVE('',#454,#454,#383,.T.);
#556=EDGE_CURVE('',#455,#455,#384,.T.);
#557=EDGE_CURVE('',#456,#456,#385,.T.);
#558=EDGE_CURVE('',#457,#457,#386,.T.);
#559=EDGE_CURVE('',#458,#450,#128,.T.);
#560=EDGE_CURVE('',#458,#453,#129,.T.);
#561=EDGE_CURVE('',#452,#458,#130,.T.);
#562=EDGE_CURVE('',#459,#459,#387,.T.);
#563=EDGE_CURVE('',#460,#460,#388,.T.);
#564=EDGE_CURVE('',#461,#461,#389,.T.);
#565=EDGE_CURVE('',#462,#462,#390,.T.);
#566=EDGE_CURVE('',#462,#457,#131,.T.);
#567=EDGE_CURVE('',#461,#456,#132,.T.);
#568=EDGE_CURVE('',#460,#455,#133,.T.);
#569=EDGE_CURVE('',#459,#454,#134,.T.);
#570=ORIENTED_EDGE('',*,*,#463,.F.);
#571=ORIENTED_EDGE('',*,*,#464,.T.);
#572=ORIENTED_EDGE('',*,*,#464,.F.);
#573=ORIENTED_EDGE('',*,*,#465,.F.);
#574=ORIENTED_EDGE('',*,*,#466,.F.);
#575=ORIENTED_EDGE('',*,*,#467,.T.);
#576=ORIENTED_EDGE('',*,*,#468,.F.);
#577=ORIENTED_EDGE('',*,*,#469,.F.);
#578=ORIENTED_EDGE('',*,*,#470,.T.);
#579=ORIENTED_EDGE('',*,*,#471,.T.);
#580=ORIENTED_EDGE('',*,*,#472,.T.);
#581=ORIENTED_EDGE('',*,*,#473,.T.);
#582=ORIENTED_EDGE('',*,*,#474,.T.);
#583=ORIENTED_EDGE('',*,*,#475,.T.);
#584=ORIENTED_EDGE('',*,*,#476,.T.);
#585=ORIENTED_EDGE('',*,*,#477,.T.);
#586=ORIENTED_EDGE('',*,*,#466,.T.);
#587=ORIENTED_EDGE('',*,*,#478,.F.);
#588=ORIENTED_EDGE('',*,*,#479,.F.);
#589=ORIENTED_EDGE('',*,*,#480,.F.);
#590=ORIENTED_EDGE('',*,*,#471,.F.);
#591=ORIENTED_EDGE('',*,*,#480,.T.);
#592=ORIENTED_EDGE('',*,*,#481,.F.);
#593=ORIENTED_EDGE('',*,*,#482,.F.);
#594=ORIENTED_EDGE('',*,*,#472,.F.);
#595=ORIENTED_EDGE('',*,*,#482,.T.);
#596=ORIENTED_EDGE('',*,*,#483,.F.);
#597=ORIENTED_EDGE('',*,*,#484,.F.);
#598=ORIENTED_EDGE('',*,*,#473,.F.);
#599=ORIENTED_EDGE('',*,*,#463,.T.);
#600=ORIENTED_EDGE('',*,*,#484,.T.);
#601=ORIENTED_EDGE('',*,*,#485,.F.);
#602=ORIENTED_EDGE('',*,*,#486,.F.);
#603=ORIENTED_EDGE('',*,*,#474,.F.);
#604=ORIENTED_EDGE('',*,*,#486,.T.);
#605=ORIENTED_EDGE('',*,*,#487,.F.);
#606=ORIENTED_EDGE('',*,*,#488,.F.);
#607=ORIENTED_EDGE('',*,*,#475,.F.);
#608=ORIENTED_EDGE('',*,*,#488,.T.);
#609=ORIENTED_EDGE('',*,*,#489,.F.);
#610=ORIENTED_EDGE('',*,*,#490,.F.);
#611=ORIENTED_EDGE('',*,*,#476,.F.);
#612=ORIENTED_EDGE('',*,*,#490,.T.);
#613=ORIENTED_EDGE('',*,*,#491,.F.);
#614=ORIENTED_EDGE('',*,*,#467,.F.);
#615=ORIENTED_EDGE('',*,*,#477,.F.);
#616=ORIENTED_EDGE('',*,*,#492,.F.);
#617=ORIENTED_EDGE('',*,*,#493,.F.);
#618=ORIENTED_EDGE('',*,*,#478,.T.);
#619=ORIENTED_EDGE('',*,*,#470,.F.);
#620=ORIENTED_EDGE('',*,*,#494,.F.);
#621=ORIENTED_EDGE('',*,*,#468,.T.);
#622=ORIENTED_EDGE('',*,*,#491,.T.);
#623=ORIENTED_EDGE('',*,*,#489,.T.);
#624=ORIENTED_EDGE('',*,*,#487,.T.);
#625=ORIENTED_EDGE('',*,*,#485,.T.);
#626=ORIENTED_EDGE('',*,*,#483,.T.);
#627=ORIENTED_EDGE('',*,*,#481,.T.);
#628=ORIENTED_EDGE('',*,*,#479,.T.);
#629=ORIENTED_EDGE('',*,*,#493,.T.);
#630=ORIENTED_EDGE('',*,*,#495,.F.);
#631=ORIENTED_EDGE('',*,*,#496,.T.);
#632=ORIENTED_EDGE('',*,*,#497,.F.);
#633=ORIENTED_EDGE('',*,*,#496,.F.);
#634=ORIENTED_EDGE('',*,*,#498,.F.);
#635=ORIENTED_EDGE('',*,*,#499,.T.);
#636=ORIENTED_EDGE('',*,*,#500,.F.);
#637=ORIENTED_EDGE('',*,*,#499,.F.);
#638=ORIENTED_EDGE('',*,*,#501,.F.);
#639=ORIENTED_EDGE('',*,*,#502,.T.);
#640=ORIENTED_EDGE('',*,*,#503,.T.);
#641=ORIENTED_EDGE('',*,*,#502,.F.);
#642=ORIENTED_EDGE('',*,*,#503,.F.);
#643=ORIENTED_EDGE('',*,*,#504,.F.);
#644=ORIENTED_EDGE('',*,*,#505,.F.);
#645=ORIENTED_EDGE('',*,*,#506,.T.);
#646=ORIENTED_EDGE('',*,*,#507,.T.);
#647=ORIENTED_EDGE('',*,*,#506,.F.);
#648=ORIENTED_EDGE('',*,*,#507,.F.);
#649=ORIENTED_EDGE('',*,*,#508,.F.);
#650=ORIENTED_EDGE('',*,*,#509,.F.);
#651=ORIENTED_EDGE('',*,*,#510,.T.);
#652=ORIENTED_EDGE('',*,*,#511,.T.);
#653=ORIENTED_EDGE('',*,*,#510,.F.);
#654=ORIENTED_EDGE('',*,*,#511,.F.);
#655=ORIENTED_EDGE('',*,*,#512,.F.);
#656=ORIENTED_EDGE('',*,*,#513,.F.);
#657=ORIENTED_EDGE('',*,*,#514,.T.);
#658=ORIENTED_EDGE('',*,*,#515,.T.);
#659=ORIENTED_EDGE('',*,*,#514,.F.);
#660=ORIENTED_EDGE('',*,*,#515,.F.);
#661=ORIENTED_EDGE('',*,*,#516,.F.);
#662=ORIENTED_EDGE('',*,*,#517,.F.);
#663=ORIENTED_EDGE('',*,*,#518,.T.);
#664=ORIENTED_EDGE('',*,*,#516,.T.);
#665=ORIENTED_EDGE('',*,*,#518,.F.);
#666=ORIENTED_EDGE('',*,*,#519,.F.);
#667=ORIENTED_EDGE('',*,*,#520,.T.);
#668=ORIENTED_EDGE('',*,*,#508,.T.);
#669=ORIENTED_EDGE('',*,*,#520,.F.);
#670=ORIENTED_EDGE('',*,*,#521,.F.);
#671=ORIENTED_EDGE('',*,*,#522,.T.);
#672=ORIENTED_EDGE('',*,*,#504,.T.);
#673=ORIENTED_EDGE('',*,*,#522,.F.);
#674=ORIENTED_EDGE('',*,*,#523,.F.);
#675=ORIENTED_EDGE('',*,*,#524,.T.);
#676=ORIENTED_EDGE('',*,*,#525,.F.);
#677=ORIENTED_EDGE('',*,*,#524,.F.);
#678=ORIENTED_EDGE('',*,*,#526,.F.);
#679=ORIENTED_EDGE('',*,*,#527,.T.);
#680=ORIENTED_EDGE('',*,*,#512,.T.);
#681=ORIENTED_EDGE('',*,*,#527,.F.);
#682=ORIENTED_EDGE('',*,*,#528,.T.);
#683=ORIENTED_EDGE('',*,*,#529,.T.);
#684=ORIENTED_EDGE('',*,*,#530,.T.);
#685=ORIENTED_EDGE('',*,*,#531,.T.);
#686=ORIENTED_EDGE('',*,*,#532,.T.);
#687=ORIENTED_EDGE('',*,*,#533,.T.);
#688=ORIENTED_EDGE('',*,*,#534,.F.);
#689=ORIENTED_EDGE('',*,*,#535,.F.);
#690=ORIENTED_EDGE('',*,*,#536,.F.);
#691=ORIENTED_EDGE('',*,*,#529,.F.);
#692=ORIENTED_EDGE('',*,*,#525,.T.);
#693=ORIENTED_EDGE('',*,*,#513,.T.);
#694=ORIENTED_EDGE('',*,*,#509,.T.);
#695=ORIENTED_EDGE('',*,*,#505,.T.);
#696=ORIENTED_EDGE('',*,*,#501,.T.);
#697=ORIENTED_EDGE('',*,*,#536,.T.);
#698=ORIENTED_EDGE('',*,*,#537,.F.);
#699=ORIENTED_EDGE('',*,*,#538,.F.);
#700=ORIENTED_EDGE('',*,*,#530,.F.);
#701=ORIENTED_EDGE('',*,*,#538,.T.);
#702=ORIENTED_EDGE('',*,*,#539,.F.);
#703=ORIENTED_EDGE('',*,*,#540,.F.);
#704=ORIENTED_EDGE('',*,*,#531,.F.);
#705=ORIENTED_EDGE('',*,*,#540,.T.);
#706=ORIENTED_EDGE('',*,*,#541,.F.);
#707=ORIENTED_EDGE('',*,*,#542,.F.);
#708=ORIENTED_EDGE('',*,*,#532,.F.);
#709=ORIENTED_EDGE('',*,*,#497,.T.);
#710=ORIENTED_EDGE('',*,*,#495,.T.);
#711=ORIENTED_EDGE('',*,*,#500,.T.);
#712=ORIENTED_EDGE('',*,*,#498,.T.);
#713=ORIENTED_EDGE('',*,*,#542,.T.);
#714=ORIENTED_EDGE('',*,*,#543,.F.);
#715=ORIENTED_EDGE('',*,*,#544,.F.);
#716=ORIENTED_EDGE('',*,*,#533,.F.);
#717=ORIENTED_EDGE('',*,*,#526,.T.);
#718=ORIENTED_EDGE('',*,*,#523,.T.);
#719=ORIENTED_EDGE('',*,*,#521,.T.);
#720=ORIENTED_EDGE('',*,*,#519,.T.);
#721=ORIENTED_EDGE('',*,*,#517,.T.);
#722=ORIENTED_EDGE('',*,*,#544,.T.);
#723=ORIENTED_EDGE('',*,*,#545,.F.);
#724=ORIENTED_EDGE('',*,*,#534,.T.);
#725=ORIENTED_EDGE('',*,*,#528,.F.);
#726=ORIENTED_EDGE('',*,*,#469,.T.);
#727=ORIENTED_EDGE('',*,*,#465,.T.);
#728=ORIENTED_EDGE('',*,*,#494,.T.);
#729=ORIENTED_EDGE('',*,*,#492,.T.);
#730=ORIENTED_EDGE('',*,*,#545,.T.);
#731=ORIENTED_EDGE('',*,*,#543,.T.);
#732=ORIENTED_EDGE('',*,*,#541,.T.);
#733=ORIENTED_EDGE('',*,*,#539,.T.);
#734=ORIENTED_EDGE('',*,*,#537,.T.);
#735=ORIENTED_EDGE('',*,*,#535,.T.);
#736=ORIENTED_EDGE('',*,*,#546,.T.);
#737=ORIENTED_EDGE('',*,*,#547,.T.);
#738=ORIENTED_EDGE('',*,*,#548,.T.);
#739=ORIENTED_EDGE('',*,*,#549,.T.);
#740=ORIENTED_EDGE('',*,*,#550,.T.);
#741=ORIENTED_EDGE('',*,*,#546,.F.);
#742=ORIENTED_EDGE('',*,*,#551,.T.);
#743=ORIENTED_EDGE('',*,*,#552,.F.);
#744=ORIENTED_EDGE('',*,*,#553,.T.);
#745=ORIENTED_EDGE('',*,*,#547,.F.);
#746=ORIENTED_EDGE('',*,*,#550,.F.);
#747=ORIENTED_EDGE('',*,*,#554,.F.);
#748=ORIENTED_EDGE('',*,*,#555,.T.);
#749=ORIENTED_EDGE('',*,*,#556,.T.);
#750=ORIENTED_EDGE('',*,*,#557,.T.);
#751=ORIENTED_EDGE('',*,*,#558,.T.);
#752=ORIENTED_EDGE('',*,*,#559,.T.);
#753=ORIENTED_EDGE('',*,*,#548,.F.);
#754=ORIENTED_EDGE('',*,*,#553,.F.);
#755=ORIENTED_EDGE('',*,*,#560,.F.);
#756=ORIENTED_EDGE('',*,*,#551,.F.);
#757=ORIENTED_EDGE('',*,*,#549,.F.);
#758=ORIENTED_EDGE('',*,*,#559,.F.);
#759=ORIENTED_EDGE('',*,*,#561,.F.);
#760=ORIENTED_EDGE('',*,*,#562,.T.);
#761=ORIENTED_EDGE('',*,*,#563,.T.);
#762=ORIENTED_EDGE('',*,*,#564,.T.);
#763=ORIENTED_EDGE('',*,*,#565,.T.);
#764=ORIENTED_EDGE('',*,*,#552,.T.);
#765=ORIENTED_EDGE('',*,*,#561,.T.);
#766=ORIENTED_EDGE('',*,*,#560,.T.);
#767=ORIENTED_EDGE('',*,*,#554,.T.);
#768=ORIENTED_EDGE('',*,*,#565,.F.);
#769=ORIENTED_EDGE('',*,*,#566,.T.);
#770=ORIENTED_EDGE('',*,*,#558,.F.);
#771=ORIENTED_EDGE('',*,*,#566,.F.);
#772=ORIENTED_EDGE('',*,*,#564,.F.);
#773=ORIENTED_EDGE('',*,*,#567,.T.);
#774=ORIENTED_EDGE('',*,*,#557,.F.);
#775=ORIENTED_EDGE('',*,*,#567,.F.);
#776=ORIENTED_EDGE('',*,*,#563,.F.);
#777=ORIENTED_EDGE('',*,*,#568,.T.);
#778=ORIENTED_EDGE('',*,*,#556,.F.);
#779=ORIENTED_EDGE('',*,*,#568,.F.);
#780=ORIENTED_EDGE('',*,*,#562,.F.);
#781=ORIENTED_EDGE('',*,*,#569,.T.);
#782=ORIENTED_EDGE('',*,*,#555,.F.);
#783=ORIENTED_EDGE('',*,*,#569,.F.);
#784=SPHERICAL_SURFACE('',#847,0.53);
#785=ADVANCED_FACE('',(#241),#784,.F.);
#786=ADVANCED_FACE('',(#242),#210,.T.);
#787=ADVANCED_FACE('',(#243),#211,.T.);
#788=ADVANCED_FACE('',(#244),#212,.T.);
#789=ADVANCED_FACE('',(#245),#213,.T.);
#790=ADVANCED_FACE('',(#246,#34),#214,.T.);
#791=ADVANCED_FACE('',(#247),#215,.T.);
#792=ADVANCED_FACE('',(#248),#216,.T.);
#793=ADVANCED_FACE('',(#249),#217,.T.);
#794=ADVANCED_FACE('',(#250),#218,.T.);
#795=ADVANCED_FACE('',(#251),#219,.T.);
#796=ADVANCED_FACE('',(#252),#220,.T.);
#797=ADVANCED_FACE('',(#253),#19,.F.);
#798=ADVANCED_FACE('',(#254),#221,.T.);
#799=ADVANCED_FACE('',(#255),#20,.F.);
#800=ADVANCED_FACE('',(#256),#222,.T.);
#801=ADVANCED_FACE('',(#257),#21,.F.);
#802=ADVANCED_FACE('',(#258,#35),#223,.T.);
#803=ADVANCED_FACE('',(#259),#22,.F.);
#804=ADVANCED_FACE('',(#260,#36),#224,.T.);
#805=ADVANCED_FACE('',(#261),#23,.F.);
#806=ADVANCED_FACE('',(#262,#37),#225,.T.);
#807=ADVANCED_FACE('',(#263),#24,.F.);
#808=ADVANCED_FACE('',(#264,#38),#226,.T.);
#809=ADVANCED_FACE('',(#265),#25,.F.);
#810=ADVANCED_FACE('',(#266),#26,.F.);
#811=ADVANCED_FACE('',(#267),#27,.F.);
#812=ADVANCED_FACE('',(#268),#28,.F.);
#813=ADVANCED_FACE('',(#269),#29,.F.);
#814=ADVANCED_FACE('',(#270),#227,.T.);
#815=ADVANCED_FACE('',(#271,#39,#40,#41,#42,#43),#228,.T.);
#816=ADVANCED_FACE('',(#272),#229,.T.);
#817=ADVANCED_FACE('',(#273),#230,.T.);
#818=ADVANCED_FACE('',(#274,#44,#45),#231,.T.);
#819=ADVANCED_FACE('',(#275,#46,#47,#48,#49,#50),#232,.T.);
#820=ADVANCED_FACE('',(#276,#51),#233,.T.);
#821=ADVANCED_FACE('',(#277),#234,.T.);
#822=ADVANCED_FACE('',(#278),#235,.T.);
#823=ADVANCED_FACE('',(#279),#236,.T.);
#824=ADVANCED_FACE('',(#280,#52,#53,#54,#55),#237,.T.);
#825=ADVANCED_FACE('',(#281),#238,.T.);
#826=ADVANCED_FACE('',(#282,#56,#57,#58,#59),#239,.T.);
#827=ADVANCED_FACE('',(#283),#240,.T.);
#828=ADVANCED_FACE('',(#284),#30,.F.);
#829=ADVANCED_FACE('',(#285),#31,.F.);
#830=ADVANCED_FACE('',(#286),#32,.F.);
#831=ADVANCED_FACE('',(#287),#33,.F.);
#832=CLOSED_SHELL('',(#785,#786,#787,#788,#789,#790,#791,#792,#793,#794,
#795,#796,#797,#798,#799,#800,#801,#802,#803,#804,#805,#806,#807,#808,#809,
#810,#811,#812,#813,#814,#815,#816,#817,#818,#819,#820,#821));
#833=CLOSED_SHELL('',(#822,#823,#824,#825,#826,#827,#828,#829,#830,#831));
#834=DERIVED_UNIT_ELEMENT(#836,1.);
#835=DERIVED_UNIT_ELEMENT(#1393,-3.);
#836=(
MASS_UNIT()
NAMED_UNIT(*)
SI_UNIT(.KILO.,.GRAM.)
);
#837=DERIVED_UNIT((#834,#835));
#838=MEASURE_REPRESENTATION_ITEM('density measure',
POSITIVE_RATIO_MEASURE(7850.),#837);
#839=PROPERTY_DEFINITION_REPRESENTATION(#844,#841);
#840=PROPERTY_DEFINITION_REPRESENTATION(#845,#842);
#841=REPRESENTATION('material name',(#843),#1390);
#842=REPRESENTATION('density',(#838),#1390);
#843=DESCRIPTIVE_REPRESENTATION_ITEM('\X2\92FC\X0\','\X2\92FC\X0\');
#844=PROPERTY_DEFINITION('material property','material name',#1400);
#845=PROPERTY_DEFINITION('material property','density of part',#1400);
#846=AXIS2_PLACEMENT_3D('',#1161,#926,#927);
#847=AXIS2_PLACEMENT_3D('',#1162,#928,#929);
#848=AXIS2_PLACEMENT_3D('',#1164,#930,#931);
#849=AXIS2_PLACEMENT_3D('',#1166,#932,#933);
#850=AXIS2_PLACEMENT_3D('',#1167,#934,#935);
#851=AXIS2_PLACEMENT_3D('',#1176,#940,#941);
#852=AXIS2_PLACEMENT_3D('',#1194,#951,#952);
#853=AXIS2_PLACEMENT_3D('',#1200,#956,#957);
#854=AXIS2_PLACEMENT_3D('',#1204,#960,#961);
#855=AXIS2_PLACEMENT_3D('',#1208,#964,#965);
#856=AXIS2_PLACEMENT_3D('',#1212,#968,#969);
#857=AXIS2_PLACEMENT_3D('',#1216,#972,#973);
#858=AXIS2_PLACEMENT_3D('',#1220,#976,#977);
#859=AXIS2_PLACEMENT_3D('',#1222,#979,#980);
#860=AXIS2_PLACEMENT_3D('',#1226,#983,#984);
#861=AXIS2_PLACEMENT_3D('',#1228,#986,#987);
#862=AXIS2_PLACEMENT_3D('',#1231,#988,#989);
#863=AXIS2_PLACEMENT_3D('',#1232,#990,#991);
#864=AXIS2_PLACEMENT_3D('',#1233,#992,#993);
#865=AXIS2_PLACEMENT_3D('',#1235,#995,#996);
#866=AXIS2_PLACEMENT_3D('',#1238,#997,#998);
#867=AXIS2_PLACEMENT_3D('',#1239,#999,#1000);
#868=AXIS2_PLACEMENT_3D('',#1240,#1001,#1002);
#869=AXIS2_PLACEMENT_3D('',#1242,#1004,#1005);
#870=AXIS2_PLACEMENT_3D('',#1244,#1006,#1007);
#871=AXIS2_PLACEMENT_3D('',#1247,#1009,#1010);
#872=AXIS2_PLACEMENT_3D('',#1248,#1011,#1012);
#873=AXIS2_PLACEMENT_3D('',#1250,#1013,#1014);
#874=AXIS2_PLACEMENT_3D('',#1251,#1015,#1016);
#875=AXIS2_PLACEMENT_3D('',#1253,#1017,#1018);
#876=AXIS2_PLACEMENT_3D('',#1256,#1020,#1021);
#877=AXIS2_PLACEMENT_3D('',#1257,#1022,#1023);
#878=AXIS2_PLACEMENT_3D('',#1259,#1024,#1025);
#879=AXIS2_PLACEMENT_3D('',#1260,#1026,#1027);
#880=AXIS2_PLACEMENT_3D('',#1262,#1028,#1029);
#881=AXIS2_PLACEMENT_3D('',#1265,#1031,#1032);
#882=AXIS2_PLACEMENT_3D('',#1266,#1033,#1034);
#883=AXIS2_PLACEMENT_3D('',#1268,#1035,#1036);
#884=AXIS2_PLACEMENT_3D('',#1269,#1037,#1038);
#885=AXIS2_PLACEMENT_3D('',#1271,#1039,#1040);
#886=AXIS2_PLACEMENT_3D('',#1274,#1042,#1043);
#887=AXIS2_PLACEMENT_3D('',#1275,#1044,#1045);
#888=AXIS2_PLACEMENT_3D('',#1277,#1046,#1047);
#889=AXIS2_PLACEMENT_3D('',#1278,#1048,#1049);
#890=AXIS2_PLACEMENT_3D('',#1280,#1050,#1051);
#891=AXIS2_PLACEMENT_3D('',#1282,#1053,#1054);
#892=AXIS2_PLACEMENT_3D('',#1284,#1055,#1056);
#893=AXIS2_PLACEMENT_3D('',#1286,#1058,#1059);
#894=AXIS2_PLACEMENT_3D('',#1288,#1060,#1061);
#895=AXIS2_PLACEMENT_3D('',#1290,#1063,#1064);
#896=AXIS2_PLACEMENT_3D('',#1292,#1065,#1066);
#897=AXIS2_PLACEMENT_3D('',#1295,#1068,#1069);
#898=AXIS2_PLACEMENT_3D('',#1296,#1070,#1071);
#899=AXIS2_PLACEMENT_3D('',#1298,#1072,#1073);
#900=AXIS2_PLACEMENT_3D('',#1300,#1075,#1076);
#901=AXIS2_PLACEMENT_3D('',#1313,#1083,#1084);
#902=AXIS2_PLACEMENT_3D('',#1319,#1088,#1089);
#903=AXIS2_PLACEMENT_3D('',#1323,#1092,#1093);
#904=AXIS2_PLACEMENT_3D('',#1327,#1096,#1097);
#905=AXIS2_PLACEMENT_3D('',#1331,#1100,#1101);
#906=AXIS2_PLACEMENT_3D('',#1335,#1104,#1105);
#907=AXIS2_PLACEMENT_3D('',#1337,#1107,#1108);
#908=AXIS2_PLACEMENT_3D('',#1338,#1109,#1110);
#909=AXIS2_PLACEMENT_3D('',#1347,#1115,#1116);
#910=AXIS2_PLACEMENT_3D('',#1353,#1120,#1121);
#911=AXIS2_PLACEMENT_3D('',#1358,#1124,#1125);
#912=AXIS2_PLACEMENT_3D('',#1360,#1126,#1127);
#913=AXIS2_PLACEMENT_3D('',#1362,#1128,#1129);
#914=AXIS2_PLACEMENT_3D('',#1364,#1130,#1131);
#915=AXIS2_PLACEMENT_3D('',#1365,#1132,#1133);
#916=AXIS2_PLACEMENT_3D('',#1369,#1136,#1137);
#917=AXIS2_PLACEMENT_3D('',#1372,#1139,#1140);
#918=AXIS2_PLACEMENT_3D('',#1374,#1141,#1142);
#919=AXIS2_PLACEMENT_3D('',#1376,#1143,#1144);
#920=AXIS2_PLACEMENT_3D('',#1378,#1145,#1146);
#921=AXIS2_PLACEMENT_3D('',#1379,#1147,#1148);
#922=AXIS2_PLACEMENT_3D('',#1380,#1149,#1150);
#923=AXIS2_PLACEMENT_3D('',#1382,#1152,#1153);
#924=AXIS2_PLACEMENT_3D('',#1384,#1155,#1156);
#925=AXIS2_PLACEMENT_3D('',#1386,#1158,#1159);
#926=DIRECTION('axis',(0.,0.,1.));
#927=DIRECTION('refdir',(1.,0.,0.));
#928=DIRECTION('center_axis',(1.,-6.12323399573677E-17,0.));
#929=DIRECTION('ref_axis',(0.,-1.,0.));
#930=DIRECTION('center_axis',(0.800998056715849,0.,0.598666946755401));
#931=DIRECTION('ref_axis',(0.,-1.,0.));
#932=DIRECTION('center_axis',(0.,0.,-1.));
#933=DIRECTION('ref_axis',(0.,1.,0.));
#934=DIRECTION('center_axis',(0.906110101884462,0.,-0.423041940311987));
#935=DIRECTION('ref_axis',(-0.423041940311987,0.,-0.906110101884462));
#936=DIRECTION('',(0.,1.,0.));
#937=DIRECTION('',(0.423041940311987,0.,0.906110101884462));
#938=DIRECTION('',(0.,1.,0.));
#939=DIRECTION('',(-0.423041940311987,0.,-0.906110101884462));
#940=DIRECTION('center_axis',(0.,-1.,0.));
#941=DIRECTION('ref_axis',(0.,0.,-1.));
#942=DIRECTION('',(0.90630778703665,0.,-0.422618261740699));
#943=DIRECTION('',(-0.423067824069156,0.,-0.906098016904015));
#944=DIRECTION('',(-0.211620363850334,0.,-0.977351943571942));
#945=DIRECTION('',(-0.231901067399898,0.,-0.972739376677426));
#946=DIRECTION('',(0.598666946755401,0.,-0.800998056715849));
#947=DIRECTION('',(0.903517202099787,0.,0.428551823598701));
#948=DIRECTION('',(0.170083067061369,0.,0.985429728747311));
#949=DIRECTION('',(-0.537570989770881,0.,0.843218495383465));
#950=DIRECTION('',(-0.833862279245583,0.,0.55197255298734));
#951=DIRECTION('center_axis',(-0.977351943571942,0.,0.211620363850334));
#952=DIRECTION('ref_axis',(0.211620363850334,0.,0.977351943571942));
#953=DIRECTION('',(0.,-1.,0.));
#954=DIRECTION('',(0.211620363850334,0.,0.977351943571942));
#955=DIRECTION('',(0.,1.,0.));
#956=DIRECTION('center_axis',(-0.972739376677426,0.,0.231901067399898));
#957=DIRECTION('ref_axis',(0.231901067399898,0.,0.972739376677426));
#958=DIRECTION('',(0.231901067399898,0.,0.972739376677426));
#959=DIRECTION('',(0.,1.,0.));
#960=DIRECTION('center_axis',(-0.800998056715849,0.,-0.598666946755401));
#961=DIRECTION('ref_axis',(-0.598666946755401,0.,0.800998056715849));
#962=DIRECTION('',(-0.598666946755401,0.,0.800998056715849));
#963=DIRECTION('',(0.,1.,0.));
#964=DIRECTION('center_axis',(0.428551823598701,0.,-0.903517202099787));
#965=DIRECTION('ref_axis',(-0.903517202099787,0.,-0.428551823598701));
#966=DIRECTION('',(-0.903517202099787,0.,-0.428551823598701));
#967=DIRECTION('',(0.,1.,0.));
#968=DIRECTION('center_axis',(0.985429728747311,0.,-0.170083067061369));
#969=DIRECTION('ref_axis',(-0.170083067061369,0.,-0.985429728747311));
#970=DIRECTION('',(-0.170083067061369,0.,-0.985429728747311));
#971=DIRECTION('',(0.,1.,0.));
#972=DIRECTION('center_axis',(0.843218495383465,0.,0.537570989770881));
#973=DIRECTION('ref_axis',(0.537570989770881,0.,-0.843218495383465));
#974=DIRECTION('',(0.537570989770881,0.,-0.843218495383465));
#975=DIRECTION('',(0.,1.,0.));
#976=DIRECTION('center_axis',(0.55197255298734,0.,0.833862279245583));
#977=DIRECTION('ref_axis',(0.833862279245583,0.,-0.55197255298734));
#978=DIRECTION('',(0.833862279245583,0.,-0.55197255298734));
#979=DIRECTION('center_axis',(-0.906098016904015,0.,0.423067824069156));
#980=DIRECTION('ref_axis',(0.423067824069156,0.,0.906098016904015));
#981=DIRECTION('',(0.,-1.,0.));
#982=DIRECTION('',(0.423067824069156,0.,0.906098016904015));
#983=DIRECTION('center_axis',(0.,1.,0.));
#984=DIRECTION('ref_axis',(0.,0.,1.));
#985=DIRECTION('',(-0.90630778703665,0.,0.422618261740699));
#986=DIRECTION('center_axis',(0.000107762068788375,0.,0.999999994193668));
#987=DIRECTION('ref_axis',(-0.999999994193668,0.,0.000107762068788375));
#988=DIRECTION('center_axis',(-0.884555498741319,0.,-0.466434957573397));
#989=DIRECTION('ref_axis',(-0.466434957573396,0.,0.884555498741319));
#990=DIRECTION('center_axis',(-0.000107762068787765,0.,-0.999999994193668));
#991=DIRECTION('ref_axis',(-0.999999994193668,0.,0.000107762068787764));
#992=DIRECTION('center_axis',(0.000107762068787765,0.,0.999999994193668));
#993=DIRECTION('ref_axis',(-0.999999994193668,0.,0.000107762068787765));
#994=DIRECTION('',(0.,-1.,0.));
#995=DIRECTION('center_axis',(0.000107762068788375,0.,0.999999994193668));
#996=DIRECTION('ref_axis',(-0.999999994193668,0.,0.000107762068788375));
#997=DIRECTION('center_axis',(-0.884555498741319,0.,-0.466434957573397));
#998=DIRECTION('ref_axis',(-0.466434957573396,0.,0.884555498741319));
#999=DIRECTION('center_axis',(-0.000107762068787765,0.,-0.999999994193668));
#1000=DIRECTION('ref_axis',(-0.999999994193668,0.,0.000107762068787764));
#1001=DIRECTION('center_axis',(0.000107762068787765,0.,0.999999994193668));
#1002=DIRECTION('ref_axis',(-0.999999994193668,0.,0.000107762068787765));
#1003=DIRECTION('',(0.,-1.,0.));
#1004=DIRECTION('center_axis',(0.906307787036649,0.,-0.422618261740702));
#1005=DIRECTION('ref_axis',(-0.422618261740702,0.,-0.906307787036649));
#1006=DIRECTION('center_axis',(0.90630778703665,0.,-0.422618261740699));
#1007=DIRECTION('ref_axis',(-0.422618261740702,0.,-0.906307787036649));
#1008=DIRECTION('',(0.906307787036649,0.,-0.422618261740702));
#1009=DIRECTION('center_axis',(0.90630778703665,0.,-0.422618261740699));
#1010=DIRECTION('ref_axis',(-0.422618261740699,0.,-0.90630778703665));
#1011=DIRECTION('center_axis',(-0.90630778703665,0.,0.422618261740699));
#1012=DIRECTION('ref_axis',(-0.422618261740699,0.,-0.90630778703665));
#1013=DIRECTION('center_axis',(-0.90630778703665,0.,0.422618261740699));
#1014=DIRECTION('ref_axis',(-0.422618261740699,0.,-0.90630778703665));
#1015=DIRECTION('center_axis',(0.906307787036649,0.,-0.422618261740702));
#1016=DIRECTION('ref_axis',(-0.422618261740702,0.,-0.906307787036649));
#1017=DIRECTION('center_axis',(0.90630778703665,0.,-0.422618261740699));
#1018=DIRECTION('ref_axis',(-0.422618261740702,0.,-0.906307787036649));
#1019=DIRECTION('',(0.906307787036649,0.,-0.422618261740702));
#1020=DIRECTION('center_axis',(0.90630778703665,0.,-0.422618261740699));
#1021=DIRECTION('ref_axis',(-0.422618261740699,0.,-0.90630778703665));
#1022=DIRECTION('center_axis',(-0.90630778703665,0.,0.422618261740699));
#1023=DIRECTION('ref_axis',(-0.422618261740699,0.,-0.90630778703665));
#1024=DIRECTION('center_axis',(-0.90630778703665,0.,0.422618261740699));
#1025=DIRECTION('ref_axis',(-0.422618261740699,0.,-0.90630778703665));
#1026=DIRECTION('center_axis',(0.906307787036649,0.,-0.422618261740702));
#1027=DIRECTION('ref_axis',(-0.422618261740702,0.,-0.906307787036649));
#1028=DIRECTION('center_axis',(0.90630778703665,0.,-0.422618261740699));
#1029=DIRECTION('ref_axis',(-0.422618261740702,0.,-0.906307787036649));
#1030=DIRECTION('',(0.906307787036649,0.,-0.422618261740702));
#1031=DIRECTION('center_axis',(0.90630778703665,0.,-0.422618261740699));
#1032=DIRECTION('ref_axis',(-0.422618261740699,0.,-0.90630778703665));
#1033=DIRECTION('center_axis',(-0.90630778703665,0.,0.422618261740699));
#1034=DIRECTION('ref_axis',(-0.422618261740699,0.,-0.90630778703665));
#1035=DIRECTION('center_axis',(-0.90630778703665,0.,0.422618261740699));
#1036=DIRECTION('ref_axis',(-0.422618261740699,0.,-0.90630778703665));
#1037=DIRECTION('center_axis',(0.906307787036649,0.,-0.422618261740702));
#1038=DIRECTION('ref_axis',(-0.422618261740702,0.,-0.906307787036649));
#1039=DIRECTION('center_axis',(0.90630778703665,0.,-0.422618261740699));
#1040=DIRECTION('ref_axis',(-0.422618261740702,0.,-0.906307787036649));
#1041=DIRECTION('',(0.906307787036649,0.,-0.422618261740702));
#1042=DIRECTION('center_axis',(0.90630778703665,0.,-0.422618261740699));
#1043=DIRECTION('ref_axis',(-0.422618261740699,0.,-0.90630778703665));
#1044=DIRECTION('center_axis',(-0.90630778703665,0.,0.422618261740699));
#1045=DIRECTION('ref_axis',(-0.422618261740699,0.,-0.90630778703665));
#1046=DIRECTION('center_axis',(-0.90630778703665,0.,0.422618261740699));
#1047=DIRECTION('ref_axis',(-0.422618261740698,0.,-0.90630778703665));
#1048=DIRECTION('center_axis',(-0.90630778703665,0.,0.422618261740699));
#1049=DIRECTION('ref_axis',(-0.422618261740698,0.,-0.90630778703665));
#1050=DIRECTION('center_axis',(-0.90630778703665,0.,0.422618261740699));
#1051=DIRECTION('ref_axis',(-0.422618261740698,0.,-0.90630778703665));
#1052=DIRECTION('',(-0.90630778703665,0.,0.422618261740698));
#1053=DIRECTION('center_axis',(-0.90630778703665,0.,0.422618261740699));
#1054=DIRECTION('ref_axis',(-0.422618261740699,0.,-0.90630778703665));
#1055=DIRECTION('center_axis',(-0.90630778703665,0.,0.422618261740699));
#1056=DIRECTION('ref_axis',(-0.422618261740699,0.,-0.90630778703665));
#1057=DIRECTION('',(-0.90630778703665,0.,0.422618261740699));
#1058=DIRECTION('center_axis',(-0.90630778703665,0.,0.422618261740699));
#1059=DIRECTION('ref_axis',(-0.422618261740699,0.,-0.90630778703665));
#1060=DIRECTION('center_axis',(-0.90630778703665,0.,0.422618261740699));
#1061=DIRECTION('ref_axis',(-0.422618261740699,0.,-0.90630778703665));
#1062=DIRECTION('',(-0.90630778703665,0.,0.422618261740699));
#1063=DIRECTION('center_axis',(-0.90630778703665,0.,0.422618261740699));
#1064=DIRECTION('ref_axis',(-0.422618261740699,0.,-0.90630778703665));
#1065=DIRECTION('center_axis',(-0.90630778703665,0.,0.422618261740699));
#1066=DIRECTION('ref_axis',(-0.422618261740699,0.,-0.90630778703665));
#1067=DIRECTION('',(-0.90630778703665,0.,0.422618261740699));
#1068=DIRECTION('center_axis',(0.90630778703665,0.,-0.422618261740699));
#1069=DIRECTION('ref_axis',(-0.422618261740699,0.,-0.90630778703665));
#1070=DIRECTION('center_axis',(-0.90630778703665,0.,0.422618261740699));
#1071=DIRECTION('ref_axis',(-0.422618261740699,0.,-0.90630778703665));
#1072=DIRECTION('center_axis',(-0.90630778703665,0.,0.422618261740699));
#1073=DIRECTION('ref_axis',(-0.422618261740699,0.,-0.90630778703665));
#1074=DIRECTION('',(-0.90630778703665,0.,0.422618261740699));
#1075=DIRECTION('center_axis',(0.,1.,0.));
#1076=DIRECTION('ref_axis',(-0.422618261740699,0.,-0.90630778703665));
#1077=DIRECTION('',(-0.90630778703665,0.,0.422618261740699));
#1078=DIRECTION('',(0.422618261740699,0.,0.90630778703665));
#1079=DIRECTION('',(-0.404605782578569,0.,0.914491203185675));
#1080=DIRECTION('',(0.999999994193668,0.,-0.000107762068788153));
#1081=DIRECTION('',(0.466434957573397,0.,-0.884555498741319));
#1082=DIRECTION('',(-0.422618261740699,0.,-0.90630778703665));
#1083=DIRECTION('center_axis',(-0.90630778703665,0.,0.422618261740699));
#1084=DIRECTION('ref_axis',(-0.422618261740699,0.,-0.90630778703665));
#1085=DIRECTION('',(0.,1.,0.));
#1086=DIRECTION('',(-0.422618261740699,0.,-0.90630778703665));
#1087=DIRECTION('',(0.,-1.,0.));
#1088=DIRECTION('center_axis',(-0.914491203185675,0.,-0.404605782578569));
#1089=DIRECTION('ref_axis',(0.404605782578569,0.,-0.914491203185675));
#1090=DIRECTION('',(0.404605782578569,0.,-0.914491203185675));
#1091=DIRECTION('',(0.,-1.,0.));
#1092=DIRECTION('center_axis',(0.000107762068788153,0.,0.999999994193668));
#1093=DIRECTION('ref_axis',(-0.999999994193668,0.,0.000107762068788153));
#1094=DIRECTION('',(-0.999999994193668,0.,0.000107762068788153));
#1095=DIRECTION('',(0.,-1.,0.));
#1096=DIRECTION('center_axis',(0.884555498741319,0.,0.466434957573397));
#1097=DIRECTION('ref_axis',(-0.466434957573397,0.,0.884555498741319));
#1098=DIRECTION('',(-0.466434957573397,0.,0.884555498741319));
#1099=DIRECTION('',(0.,-1.,0.));
#1100=DIRECTION('center_axis',(0.90630778703665,0.,-0.422618261740699));
#1101=DIRECTION('ref_axis',(0.422618261740699,0.,0.90630778703665));
#1102=DIRECTION('',(0.422618261740699,0.,0.90630778703665));
#1103=DIRECTION('',(0.,-1.,0.));
#1104=DIRECTION('center_axis',(-0.422618261740699,0.,-0.90630778703665));
#1105=DIRECTION('ref_axis',(0.90630778703665,0.,-0.422618261740699));
#1106=DIRECTION('',(0.90630778703665,0.,-0.422618261740699));
#1107=DIRECTION('center_axis',(0.,-1.,0.));
#1108=DIRECTION('ref_axis',(0.422618261740699,0.,0.90630778703665));
#1109=DIRECTION('center_axis',(0.,-1.,0.));
#1110=DIRECTION('ref_axis',(0.422618261740699,0.,0.90630778703665));
#1111=DIRECTION('',(-0.000496094527856372,0.,0.999999876945102));
#1112=DIRECTION('',(-0.999999994193668,0.,0.000107762068787765));
#1113=DIRECTION('',(0.466434957573397,0.,-0.884555498741319));
#1114=DIRECTION('',(0.999999994193668,0.,-0.000107762068788153));
#1115=DIRECTION('center_axis',(0.999999876945102,0.,0.000496094527856372));
#1116=DIRECTION('ref_axis',(-0.000496094527856372,0.,0.999999876945102));
#1117=DIRECTION('',(0.,-1.,0.));
#1118=DIRECTION('',(0.,1.,0.));
#1119=DIRECTION('',(0.000496094527856372,0.,-0.999999876945102));
#1120=DIRECTION('center_axis',(0.000107762068787765,0.,0.999999994193668));
#1121=DIRECTION('ref_axis',(-0.999999994193668,0.,0.000107762068787765));
#1122=DIRECTION('',(0.,-1.,0.));
#1123=DIRECTION('',(0.999999994193668,0.,-0.000107762068787765));
#1124=DIRECTION('center_axis',(-0.000107762068787765,0.,-0.999999994193668));
#1125=DIRECTION('ref_axis',(-0.999999994193668,0.,0.000107762068788375));
#1126=DIRECTION('center_axis',(-0.000107762068787765,0.,-0.999999994193668));
#1127=DIRECTION('ref_axis',(-0.999999994193668,0.,0.000107762068788375));
#1128=DIRECTION('center_axis',(-0.000107762068787765,0.,-0.999999994193668));
#1129=DIRECTION('ref_axis',(-0.999999994193668,0.,0.000107762068788375));
#1130=DIRECTION('center_axis',(-0.000107762068787765,0.,-0.999999994193668));
#1131=DIRECTION('ref_axis',(-0.999999994193668,0.,0.000107762068788375));
#1132=DIRECTION('center_axis',(-0.884555498741319,0.,-0.466434957573397));
#1133=DIRECTION('ref_axis',(0.466434957573397,0.,-0.884555498741319));
#1134=DIRECTION('',(0.,-1.,0.));
#1135=DIRECTION('',(-0.466434957573397,0.,0.884555498741319));
#1136=DIRECTION('center_axis',(-0.000107762068788153,0.,-0.999999994193668));
#1137=DIRECTION('ref_axis',(0.999999994193668,0.,-0.000107762068788153));
#1138=DIRECTION('',(-0.999999994193668,0.,0.000107762068788153));
#1139=DIRECTION('center_axis',(0.000107762068788153,0.,0.999999994193668));
#1140=DIRECTION('ref_axis',(-0.999999994193668,0.,0.000107762068788375));
#1141=DIRECTION('center_axis',(0.000107762068788153,0.,0.999999994193668));
#1142=DIRECTION('ref_axis',(-0.999999994193668,0.,0.000107762068788375));
#1143=DIRECTION('center_axis',(0.000107762068788153,0.,0.999999994193668));
#1144=DIRECTION('ref_axis',(-0.999999994193668,0.,0.000107762068788375));
#1145=DIRECTION('center_axis',(0.000107762068788153,0.,0.999999994193668));
#1146=DIRECTION('ref_axis',(-0.999999994193668,0.,0.000107762068788375));
#1147=DIRECTION('center_axis',(0.,1.,0.));
#1148=DIRECTION('ref_axis',(-0.422618261740699,0.,-0.90630778703665));
#1149=DIRECTION('center_axis',(0.000107762068788375,0.,0.999999994193668));
#1150=DIRECTION('ref_axis',(-0.999999994193668,0.,0.000107762068788375));
#1151=DIRECTION('',(0.000107762068788375,0.,0.999999994193668));
#1152=DIRECTION('center_axis',(0.000107762068788375,0.,0.999999994193668));
#1153=DIRECTION('ref_axis',(-0.999999994193668,0.,0.000107762068788375));
#1154=DIRECTION('',(0.000107762068788375,0.,0.999999994193668));
#1155=DIRECTION('center_axis',(0.000107762068788375,0.,0.999999994193668));
#1156=DIRECTION('ref_axis',(-0.999999994193668,0.,0.000107762068788375));
#1157=DIRECTION('',(0.000107762068788375,0.,0.999999994193668));
#1158=DIRECTION('center_axis',(0.000107762068788375,0.,0.999999994193668));
#1159=DIRECTION('ref_axis',(-0.999999994193668,0.,0.000107762068788375));
#1160=DIRECTION('',(0.000107762068788375,0.,0.999999994193668));
#1161=CARTESIAN_POINT('',(0.,0.,0.));
#1162=CARTESIAN_POINT('Origin',(4.404,0.,8.294));
#1163=CARTESIAN_POINT('',(4.03395738045738,0.379431758979183,8.294));
#1164=CARTESIAN_POINT('Origin',(4.16658143725237,0.,8.11655307004621));
#1165=CARTESIAN_POINT('',(4.934,3.24531401774049E-17,8.294));
#1166=CARTESIAN_POINT('Origin',(4.404,0.,8.294));
#1167=CARTESIAN_POINT('Origin',(4.439,0.,9.716));
#1168=CARTESIAN_POINT('',(4.33323258433653,-0.7,9.48945762996405));
#1169=CARTESIAN_POINT('',(4.33323258433653,0.7,9.48945762996405));
#1170=CARTESIAN_POINT('',(4.33323258433653,0.,9.48945762996405));
#1171=CARTESIAN_POINT('',(4.291,-0.7,9.399));
#1172=CARTESIAN_POINT('',(4.439,-0.7,9.716));
#1173=CARTESIAN_POINT('',(4.291,0.7,9.399));
#1174=CARTESIAN_POINT('',(4.291,0.,9.399));
#1175=CARTESIAN_POINT('',(4.439,0.7,9.716));
#1176=CARTESIAN_POINT('Origin',(4.506,-0.7,8.742));
#1177=CARTESIAN_POINT('',(4.05223855455593,-0.7,9.62048729794657));
#1178=CARTESIAN_POINT('',(4.3930841593363,-0.7,9.46154838218901));
#1179=CARTESIAN_POINT('',(4.031,-0.7,9.575));
#1180=CARTESIAN_POINT('',(4.031,-0.7,9.575));
#1181=CARTESIAN_POINT('',(3.955,-0.7,9.224));
#1182=CARTESIAN_POINT('',(3.955,-0.7,9.224));
#1183=CARTESIAN_POINT('',(3.806,-0.7,8.599));
#1184=CARTESIAN_POINT('',(3.806,-0.7,8.599));
#1185=CARTESIAN_POINT('',(4.525,-0.7,7.637));
#1186=CARTESIAN_POINT('',(4.525,-0.7,7.637));
#1187=CARTESIAN_POINT('',(5.109,-0.7,7.914));
#1188=CARTESIAN_POINT('',(5.109,-0.7,7.914));
#1189=CARTESIAN_POINT('',(5.206,-0.7,8.476));
#1190=CARTESIAN_POINT('',(5.206,-0.7,8.476));
#1191=CARTESIAN_POINT('',(4.856,-0.7,9.025));
#1192=CARTESIAN_POINT('',(4.856,-0.7,9.025));
#1193=CARTESIAN_POINT('',(4.291,-0.7,9.399));
#1194=CARTESIAN_POINT('Origin',(3.955,0.,9.224));
#1195=CARTESIAN_POINT('',(4.031,0.7,9.575));
#1196=CARTESIAN_POINT('',(4.031,0.,9.575));
#1197=CARTESIAN_POINT('',(3.955,0.7,9.224));
#1198=CARTESIAN_POINT('',(3.955,0.7,9.224));
#1199=CARTESIAN_POINT('',(3.955,0.,9.224));
#1200=CARTESIAN_POINT('Origin',(3.806,0.,8.599));
#1201=CARTESIAN_POINT('',(3.806,0.7,8.599));
#1202=CARTESIAN_POINT('',(3.806,0.7,8.599));
#1203=CARTESIAN_POINT('',(3.806,0.,8.599));
#1204=CARTESIAN_POINT('Origin',(4.525,0.,7.637));
#1205=CARTESIAN_POINT('',(4.525,0.7,7.637));
#1206=CARTESIAN_POINT('',(4.525,0.7,7.637));
#1207=CARTESIAN_POINT('',(4.525,0.,7.637));
#1208=CARTESIAN_POINT('Origin',(5.109,0.,7.914));
#1209=CARTESIAN_POINT('',(5.109,0.7,7.914));
#1210=CARTESIAN_POINT('',(5.109,0.7,7.914));
#1211=CARTESIAN_POINT('',(5.109,0.,7.914));
#1212=CARTESIAN_POINT('Origin',(5.206,0.,8.476));
#1213=CARTESIAN_POINT('',(5.206,0.7,8.476));
#1214=CARTESIAN_POINT('',(5.206,0.7,8.476));
#1215=CARTESIAN_POINT('',(5.206,0.,8.476));
#1216=CARTESIAN_POINT('Origin',(4.856,0.,9.025));
#1217=CARTESIAN_POINT('',(4.856,0.7,9.025));
#1218=CARTESIAN_POINT('',(4.856,0.7,9.025));
#1219=CARTESIAN_POINT('',(4.856,0.,9.025));
#1220=CARTESIAN_POINT('Origin',(4.291,0.,9.399));
#1221=CARTESIAN_POINT('',(4.291,0.7,9.399));
#1222=CARTESIAN_POINT('Origin',(4.031,0.,9.575));
#1223=CARTESIAN_POINT('',(4.05223855455593,0.7,9.62048729794657));
#1224=CARTESIAN_POINT('',(4.05223855455593,0.,9.62048729794657));
#1225=CARTESIAN_POINT('',(4.031,0.7,9.575));
#1226=CARTESIAN_POINT('Origin',(4.506,0.7,8.742));
#1227=CARTESIAN_POINT('',(4.3930841593363,0.7,9.46154838218901));
#1228=CARTESIAN_POINT('Origin',(5.7,0.9,14.69));
#1229=CARTESIAN_POINT('',(5.50739497453092,0.783617414153872,14.2900207531936));
#1230=CARTESIAN_POINT('',(5.50739497453092,1.01638258584613,14.2900207531936));
#1231=CARTESIAN_POINT('Origin',(5.69991755312997,0.9,13.924917531905));
#1232=CARTESIAN_POINT('Origin',(5.69995689517248,0.9,14.2900000023225));
#1233=CARTESIAN_POINT('Origin',(5.69995689517248,0.9,14.2900000023225));
#1234=CARTESIAN_POINT('',(5.50739497453092,0.45,14.2900207531936));
#1235=CARTESIAN_POINT('Origin',(5.7,-0.9,14.69));
#1236=CARTESIAN_POINT('',(5.50739497453092,-1.01638258584613,14.2900207531936));
#1237=CARTESIAN_POINT('',(5.50739497453092,-0.783617414153872,14.2900207531936));
#1238=CARTESIAN_POINT('Origin',(5.69991755312997,-0.9,13.924917531905));
#1239=CARTESIAN_POINT('Origin',(5.69995689517248,-0.9,14.2900000023225));
#1240=CARTESIAN_POINT('Origin',(5.69995689517248,-0.9,14.2900000023225));
#1241=CARTESIAN_POINT('',(5.50739497453092,-0.45,14.2900207531936));
#1242=CARTESIAN_POINT('Origin',(4.65866016009194,0.85,10.9927751376582));
#1243=CARTESIAN_POINT('',(4.78121945599674,0.85,11.2556043958988));
#1244=CARTESIAN_POINT('Origin',(4.65866016009193,0.85,10.9927751376582));
#1245=CARTESIAN_POINT('',(5.0077964027559,0.85,11.1499498304637));
#1246=CARTESIAN_POINT('',(4.78121945599674,0.85,11.2556043958988));
#1247=CARTESIAN_POINT('Origin',(4.8852371068511,0.85,10.887120572223));
#1248=CARTESIAN_POINT('Origin',(4.8852371068511,0.85,10.887120572223));
#1249=CARTESIAN_POINT('',(4.95708221134702,0.85,11.0411928960193));
#1250=CARTESIAN_POINT('Origin',(4.8852371068511,0.85,10.887120572223));
#1251=CARTESIAN_POINT('Origin',(5.01788568257153,0.,11.7631367566394));
#1252=CARTESIAN_POINT('',(5.14044497847634,3.55147571752731E-17,12.02596601488));
#1253=CARTESIAN_POINT('Origin',(5.01788568257153,0.,11.7631367566394));
#1254=CARTESIAN_POINT('',(5.3670219252355,3.55147571752731E-17,11.9203114494448));
#1255=CARTESIAN_POINT('',(5.14044497847634,-3.55147571752731E-17,12.02596601488));
#1256=CARTESIAN_POINT('Origin',(5.24446262933069,0.,11.6574821912042));
#1257=CARTESIAN_POINT('Origin',(5.24446262933069,0.,11.6574821912042));
#1258=CARTESIAN_POINT('',(5.31630773382661,2.0818995585505E-17,11.8115545150004));
#1259=CARTESIAN_POINT('Origin',(5.2444626293307,0.,11.6574821912042));
#1260=CARTESIAN_POINT('Origin',(4.65866016009194,-0.85,10.9927751376582));
#1261=CARTESIAN_POINT('',(4.78121945599674,-0.85,11.2556043958988));
#1262=CARTESIAN_POINT('Origin',(4.65866016009193,-0.85,10.9927751376582));
#1263=CARTESIAN_POINT('',(5.0077964027559,-0.85,11.1499498304637));
#1264=CARTESIAN_POINT('',(4.78121945599674,-0.85,11.2556043958988));
#1265=CARTESIAN_POINT('Origin',(4.8852371068511,-0.85,10.887120572223));
#1266=CARTESIAN_POINT('Origin',(4.8852371068511,-0.85,10.887120572223));
#1267=CARTESIAN_POINT('',(4.95708221134702,-0.85,11.0411928960193));
#1268=CARTESIAN_POINT('Origin',(4.8852371068511,-0.85,10.887120572223));
#1269=CARTESIAN_POINT('Origin',(4.29943463761234,0.,10.2224135186771));
#1270=CARTESIAN_POINT('',(4.42199393351715,3.55147571752731E-17,10.4852427769177));
#1271=CARTESIAN_POINT('Origin',(4.29943463761234,0.,10.2224135186771));
#1272=CARTESIAN_POINT('',(4.64857088027631,3.55147571752731E-17,10.3795882114825));
#1273=CARTESIAN_POINT('',(4.42199393351715,-3.55147571752731E-17,10.4852427769177));
#1274=CARTESIAN_POINT('Origin',(4.52601158437151,0.,10.1167589532419));
#1275=CARTESIAN_POINT('Origin',(4.52601158437151,0.,10.1167589532419));
#1276=CARTESIAN_POINT('',(4.59785668886743,2.0818995585505E-17,10.2708312770381));
#1277=CARTESIAN_POINT('Origin',(4.52601158437151,0.,10.1167589532419));
#1278=CARTESIAN_POINT('Origin',(4.29943463761234,0.,10.2224135186771));
#1279=CARTESIAN_POINT('',(4.69755054544146,2.0818995585505E-17,10.2243432682466));
#1280=CARTESIAN_POINT('Origin',(4.62570544094554,0.,10.0702709444504));
#1281=CARTESIAN_POINT('',(4.37127974210826,2.0818995585505E-17,10.3764858424733));
#1282=CARTESIAN_POINT('Origin',(5.01788568257153,0.,11.7631367566394));
#1283=CARTESIAN_POINT('',(5.41600159040064,2.0818995585505E-17,11.7650665062089));
#1284=CARTESIAN_POINT('Origin',(5.34415648590473,0.,11.6109941824127));
#1285=CARTESIAN_POINT('',(5.08973078706745,2.0818995585505E-17,11.9172090804356));
#1286=CARTESIAN_POINT('Origin',(4.65866016009194,0.85,10.9927751376582));
#1287=CARTESIAN_POINT('',(5.05677606792105,0.85,10.9947048872278));
#1288=CARTESIAN_POINT('Origin',(4.98493096342513,0.85,10.8406325634316));
#1289=CARTESIAN_POINT('',(4.73050526458786,0.85,11.1468474614544));
#1290=CARTESIAN_POINT('Origin',(4.65866016009194,0.,10.9927751376582));
#1291=CARTESIAN_POINT('',(5.17510918120844,5.51091059616308E-17,11.2484710675981));
#1292=CARTESIAN_POINT('Origin',(4.98493096342513,0.,10.8406325634316));
#1293=CARTESIAN_POINT('',(4.84883837787525,-5.51091059616308E-17,11.4006136418247));
#1294=CARTESIAN_POINT('',(4.84883837787525,5.51091059616308E-17,11.4006136418247));
#1295=CARTESIAN_POINT('Origin',(4.65866016009194,0.,10.9927751376582));
#1296=CARTESIAN_POINT('Origin',(4.65866016009194,-0.85,10.9927751376582));
#1297=CARTESIAN_POINT('',(5.05677606792105,-0.85,10.9947048872278));
#1298=CARTESIAN_POINT('Origin',(4.98493096342513,-0.85,10.8406325634316));
#1299=CARTESIAN_POINT('',(4.73050526458786,-0.85,11.1468474614544));
#1300=CARTESIAN_POINT('Origin',(4.83924086554654,1.4,11.9633004004632));
#1301=CARTESIAN_POINT('',(4.35100357081408,1.4,9.48117088287659));
#1302=CARTESIAN_POINT('',(4.02473276748089,1.4,9.63331345710324));
#1303=CARTESIAN_POINT('',(4.02473276748089,1.4,9.63331345710324));
#1304=CARTESIAN_POINT('',(5.75746764061776,1.4,13.3491753839535));
#1305=CARTESIAN_POINT('',(5.75746764061776,1.4,13.3491753839535));
#1306=CARTESIAN_POINT('',(5.29923770327232,1.4,14.3848680625606));
#1307=CARTESIAN_POINT('',(5.29923770327232,1.4,14.3848680625606));
#1308=CARTESIAN_POINT('',(5.45739002694346,1.4,14.3848510197389));
#1309=CARTESIAN_POINT('',(6.79975627158576,1.4,14.3847063635745));
#1310=CARTESIAN_POINT('',(6.08373844395095,1.4,13.1970328097269));
#1311=CARTESIAN_POINT('',(6.08373844395095,1.4,13.1970328097269));
#1312=CARTESIAN_POINT('',(4.35100357081408,1.4,9.48117088287659));
#1313=CARTESIAN_POINT('Origin',(5.75746764061776,0.,13.3491753839535));
#1314=CARTESIAN_POINT('',(4.02473276748089,-1.4,9.63331345710324));
#1315=CARTESIAN_POINT('',(4.02473276748089,0.,9.63331345710324));
#1316=CARTESIAN_POINT('',(5.75746764061776,-1.4,13.3491753839535));
#1317=CARTESIAN_POINT('',(5.75746764061776,-1.4,13.3491753839535));
#1318=CARTESIAN_POINT('',(5.75746764061776,0.,13.3491753839535));
#1319=CARTESIAN_POINT('Origin',(5.29923770327232,0.,14.3848680625606));
#1320=CARTESIAN_POINT('',(5.29923770327232,-1.4,14.3848680625606));
#1321=CARTESIAN_POINT('',(5.29923770327232,-1.4,14.3848680625606));
#1322=CARTESIAN_POINT('',(5.29923770327232,0.,14.3848680625606));
#1323=CARTESIAN_POINT('Origin',(5.45739002694346,0.,14.3848510197389));
#1324=CARTESIAN_POINT('',(5.45739002694346,-1.4,14.3848510197389));
#1325=CARTESIAN_POINT('',(6.79975627158576,-1.4,14.3847063635745));
#1326=CARTESIAN_POINT('',(5.45739002694346,0.,14.3848510197389));
#1327=CARTESIAN_POINT('Origin',(6.08373844395095,0.,13.1970328097269));
#1328=CARTESIAN_POINT('',(6.08373844395095,-1.4,13.1970328097269));
#1329=CARTESIAN_POINT('',(6.08373844395095,-1.4,13.1970328097269));
#1330=CARTESIAN_POINT('',(6.08373844395095,0.,13.1970328097269));
#1331=CARTESIAN_POINT('Origin',(4.35100357081408,0.,9.48117088287659));
#1332=CARTESIAN_POINT('',(4.35100357081408,-1.4,9.48117088287659));
#1333=CARTESIAN_POINT('',(4.35100357081408,-1.4,9.48117088287659));
#1334=CARTESIAN_POINT('',(4.35100357081408,0.,9.48117088287659));
#1335=CARTESIAN_POINT('Origin',(4.02473276748089,0.,9.63331345710324));
#1336=CARTESIAN_POINT('',(4.02473276748089,-1.4,9.63331345710324));
#1337=CARTESIAN_POINT('Origin',(4.83924086554654,-1.4,11.9633004004632));
#1338=CARTESIAN_POINT('Origin',(6.06354275505229,-1.4,14.5651622594697));
#1339=CARTESIAN_POINT('',(6.79975627158576,-1.4,14.3847063635745));
#1340=CARTESIAN_POINT('',(6.79960734982558,-1.4,14.6848946008896));
#1341=CARTESIAN_POINT('',(6.79960734982558,-1.4,14.6848946008896));
#1342=CARTESIAN_POINT('',(5.29908878151213,-1.4,14.6850562998757));
#1343=CARTESIAN_POINT('',(5.29908878151213,-1.4,14.6850562998757));
#1344=CARTESIAN_POINT('',(5.45739002694346,-1.4,14.3848510197389));
#1345=CARTESIAN_POINT('',(6.08373844395095,-1.4,13.1970328097269));
#1346=CARTESIAN_POINT('',(6.79975627158576,-1.4,14.3847063635745));
#1347=CARTESIAN_POINT('Origin',(6.79975627158576,0.,14.3847063635745));
#1348=CARTESIAN_POINT('',(6.79960734982558,1.4,14.6848946008896));
#1349=CARTESIAN_POINT('',(6.79960734982558,0.,14.6848946008896));
#1350=CARTESIAN_POINT('',(6.79975627158576,1.4,14.3847063635745));
#1351=CARTESIAN_POINT('',(6.79975627158576,0.,14.3847063635745));
#1352=CARTESIAN_POINT('',(6.79960734982558,1.4,14.6848946008896));
#1353=CARTESIAN_POINT('Origin',(6.79960734982558,0.,14.6848946008896));
#1354=CARTESIAN_POINT('',(5.29908878151213,1.4,14.6850562998757));
#1355=CARTESIAN_POINT('',(5.29908878151213,0.,14.6850562998757));
#1356=CARTESIAN_POINT('',(5.29908878151213,1.4,14.6850562998757));
#1357=CARTESIAN_POINT('',(6.62499945316571,-0.9,14.6849134169978));
#1358=CARTESIAN_POINT('Origin',(6.39999945447214,-0.9,14.6849376634633));
#1359=CARTESIAN_POINT('',(5.92499946129458,0.9,14.6849888504455));
#1360=CARTESIAN_POINT('Origin',(5.699999462601,0.9,14.685013096911));
#1361=CARTESIAN_POINT('',(6.62499945316571,0.9,14.6849134169978));
#1362=CARTESIAN_POINT('Origin',(6.39999945447214,0.9,14.6849376634633));
#1363=CARTESIAN_POINT('',(5.92499946129458,-0.9,14.6849888504455));
#1364=CARTESIAN_POINT('Origin',(5.699999462601,-0.9,14.685013096911));
#1365=CARTESIAN_POINT('Origin',(5.29908878151213,0.,14.6850562998757));
#1366=CARTESIAN_POINT('',(5.45739002694346,1.4,14.3848510197389));
#1367=CARTESIAN_POINT('',(5.45739002694346,0.,14.3848510197389));
#1368=CARTESIAN_POINT('',(6.08373844395095,1.4,13.1970328097269));
#1369=CARTESIAN_POINT('Origin',(5.45739002694346,0.,14.3848510197389));
#1370=CARTESIAN_POINT('',(6.79975627158576,1.4,14.3847063635745));
#1371=CARTESIAN_POINT('',(6.62496710426215,-0.9,14.3847251992169));
#1372=CARTESIAN_POINT('Origin',(6.39996710556858,-0.9,14.3847494456824));
#1373=CARTESIAN_POINT('',(5.92496711239102,0.9,14.3848006326646));
#1374=CARTESIAN_POINT('Origin',(5.69996711369744,0.9,14.3848248791301));
#1375=CARTESIAN_POINT('',(6.62496710426215,0.9,14.3847251992169));
#1376=CARTESIAN_POINT('Origin',(6.39996710556858,0.9,14.3847494456824));
#1377=CARTESIAN_POINT('',(5.92496711239102,-0.9,14.3848006326646));
#1378=CARTESIAN_POINT('Origin',(5.69996711369744,-0.9,14.3848248791301));
#1379=CARTESIAN_POINT('Origin',(6.06354275505229,1.4,14.5651622594697));
#1380=CARTESIAN_POINT('Origin',(5.7,-0.9,14.69));
#1381=CARTESIAN_POINT('',(5.92499999869358,-0.9,14.6899757535345));
#1382=CARTESIAN_POINT('Origin',(6.4,0.9,14.69));
#1383=CARTESIAN_POINT('',(6.62499999869358,0.9,14.6899757535345));
#1384=CARTESIAN_POINT('Origin',(5.7,0.9,14.69));
#1385=CARTESIAN_POINT('',(5.92499999869358,0.9,14.6899757535345));
#1386=CARTESIAN_POINT('Origin',(6.4,-0.9,14.69));
#1387=CARTESIAN_POINT('',(6.62499999869358,-0.9,14.6899757535345));
#1388=UNCERTAINTY_MEASURE_WITH_UNIT(LENGTH_MEASURE(0.001),#1392,
'DISTANCE_ACCURACY_VALUE',
'Maximum model space distance between geometric entities at asserted c
onnectivities');
#1389=UNCERTAINTY_MEASURE_WITH_UNIT(LENGTH_MEASURE(0.001),#1392,
'DISTANCE_ACCURACY_VALUE',
'Maximum model space distance between geometric entities at asserted c
onnectivities');
#1390=(
GEOMETRIC_REPRESENTATION_CONTEXT(3)
GLOBAL_UNCERTAINTY_ASSIGNED_CONTEXT((#1388))
GLOBAL_UNIT_ASSIGNED_CONTEXT((#1392,#1394,#1395))
REPRESENTATION_CONTEXT('','3D')
);
#1391=(
GEOMETRIC_REPRESENTATION_CONTEXT(3)
GLOBAL_UNCERTAINTY_ASSIGNED_CONTEXT((#1389))
GLOBAL_UNIT_ASSIGNED_CONTEXT((#1392,#1394,#1395))
REPRESENTATION_CONTEXT('','3D')
);
#1392=(
LENGTH_UNIT()
NAMED_UNIT(*)
SI_UNIT(.CENTI.,.METRE.)
);
#1393=(
LENGTH_UNIT()
NAMED_UNIT(*)
SI_UNIT($,.METRE.)
);
#1394=(
NAMED_UNIT(*)
PLANE_ANGLE_UNIT()
SI_UNIT($,.RADIAN.)
);
#1395=(
NAMED_UNIT(*)
SI_UNIT($,.STERADIAN.)
SOLID_ANGLE_UNIT()
);
#1396=SHAPE_DEFINITION_REPRESENTATION(#1397,#1398);
#1397=PRODUCT_DEFINITION_SHAPE('',$,#1400);
#1398=SHAPE_REPRESENTATION('',(#846),#1390);
#1399=PRODUCT_DEFINITION_CONTEXT('part definition',#1404,'design');
#1400=PRODUCT_DEFINITION('2026-09-16-03-12-39-211','MotorMount_v4',#1401,
#1399);
#1401=PRODUCT_DEFINITION_FORMATION('',$,#1406);
#1402=PRODUCT_RELATED_PRODUCT_CATEGORY('MotorMount_v4','MotorMount_v4',
(#1406));
#1403=APPLICATION_PROTOCOL_DEFINITION('international standard',
'automotive_design',2009,#1404);
#1404=APPLICATION_CONTEXT(
'Core Data for Automotive Mechanical Design Process');
#1405=PRODUCT_CONTEXT('part definition',#1404,'mechanical');
#1406=PRODUCT('2026-09-16-03-12-39-211','MotorMount_v4',$,(#1405));
#1407=PRESENTATION_STYLE_ASSIGNMENT((#1408));
#1408=SURFACE_STYLE_USAGE(.BOTH.,#1409);
#1409=SURFACE_SIDE_STYLE('',(#1410));
#1410=SURFACE_STYLE_FILL_AREA(#1411);
#1411=FILL_AREA_STYLE('\X2\92FC\X0\ - \X2\30B530C630F3\X0\',(#1412));
#1412=FILL_AREA_STYLE_COLOUR('\X2\92FC\X0\ - \X2\30B530C630F3\X0\',#1413);
#1413=COLOUR_RGB('\X2\92FC\X0\ - \X2\30B530C630F3\X0\',0.627450980392157,
0.627450980392157,0.627450980392157);
ENDSEC;
END-ISO-10303-21;
