ISO-10303-21;
HEADER;
/* Generated by software containing ST-Developer
 * from STEP Tools, Inc. (www.steptools.com) 
 */

FILE_DESCRIPTION(
/* description */ (''),
/* implementation_level */ '2;1');

FILE_NAME(
/* name */ 'MotorMount_v3.step',
/* time_stamp */ '2026-09-16T02:53:18+09:00',
/* author */ (''),
/* organization */ (''),
/* preprocessor_version */ 'ST-DEVELOPER v20.2',
/* originating_system */ 'Autodesk Translation Framework v15.15.0.0',
/* authorisation */ '');

FILE_SCHEMA (('AUTOMOTIVE_DESIGN { 1 0 10303 214 3 1 1 }'));
ENDSEC;

DATA;
#10=MECHANICAL_DESIGN_GEOMETRIC_PRESENTATION_REPRESENTATION('',(#15,#16),
#1021);
#11=SHAPE_REPRESENTATION_RELATIONSHIP('SRR','None',#1028,#12);
#12=ADVANCED_BREP_SHAPE_REPRESENTATION('',(#17,#18),#1020);
#13=ELLIPSE('',#642,0.482283811756725,0.225);
#14=ELLIPSE('',#643,0.482283811756725,0.225);
#15=STYLED_ITEM('',(#1037),#17);
#16=STYLED_ITEM('',(#1037),#18);
#17=MANIFOLD_SOLID_BREP('\X2\30DC30C730A3\X0\1',#600);
#18=MANIFOLD_SOLID_BREP('\X2\30DC30C730A3\X0\1',#601);
#19=FACE_BOUND('',#104,.T.);
#20=FACE_BOUND('',#105,.T.);
#21=FACE_BOUND('',#106,.T.);
#22=FACE_BOUND('',#107,.T.);
#23=FACE_BOUND('',#110,.T.);
#24=FACE_BOUND('',#111,.T.);
#25=FACE_BOUND('',#112,.T.);
#26=FACE_BOUND('',#113,.T.);
#27=FACE_BOUND('',#119,.T.);
#28=FACE_BOUND('',#120,.T.);
#29=FACE_BOUND('',#121,.T.);
#30=FACE_BOUND('',#122,.T.);
#31=FACE_BOUND('',#123,.T.);
#32=FACE_BOUND('',#125,.T.);
#33=FACE_BOUND('',#126,.T.);
#34=FACE_BOUND('',#130,.T.);
#35=FACE_BOUND('',#131,.T.);
#36=FACE_BOUND('',#132,.T.);
#37=FACE_BOUND('',#133,.T.);
#38=FACE_BOUND('',#134,.T.);
#39=FACE_BOUND('',#142,.T.);
#40=FACE_BOUND('',#145,.T.);
#41=FACE_BOUND('',#148,.T.);
#42=FACE_BOUND('',#151,.T.);
#43=PLANE('',#627);
#44=PLANE('',#628);
#45=PLANE('',#629);
#46=PLANE('',#630);
#47=PLANE('',#631);
#48=PLANE('',#632);
#49=PLANE('',#633);
#50=PLANE('',#634);
#51=PLANE('',#635);
#52=PLANE('',#641);
#53=PLANE('',#644);
#54=PLANE('',#645);
#55=PLANE('',#646);
#56=PLANE('',#652);
#57=PLANE('',#662);
#58=PLANE('',#665);
#59=PLANE('',#668);
#60=PLANE('',#671);
#61=PLANE('',#674);
#62=PLANE('',#677);
#63=FACE_OUTER_BOUND('',#98,.T.);
#64=FACE_OUTER_BOUND('',#99,.T.);
#65=FACE_OUTER_BOUND('',#100,.T.);
#66=FACE_OUTER_BOUND('',#101,.T.);
#67=FACE_OUTER_BOUND('',#102,.T.);
#68=FACE_OUTER_BOUND('',#103,.T.);
#69=FACE_OUTER_BOUND('',#108,.T.);
#70=FACE_OUTER_BOUND('',#109,.T.);
#71=FACE_OUTER_BOUND('',#114,.T.);
#72=FACE_OUTER_BOUND('',#115,.T.);
#73=FACE_OUTER_BOUND('',#116,.T.);
#74=FACE_OUTER_BOUND('',#117,.T.);
#75=FACE_OUTER_BOUND('',#118,.T.);
#76=FACE_OUTER_BOUND('',#124,.T.);
#77=FACE_OUTER_BOUND('',#127,.T.);
#78=FACE_OUTER_BOUND('',#128,.T.);
#79=FACE_OUTER_BOUND('',#129,.T.);
#80=FACE_OUTER_BOUND('',#135,.T.);
#81=FACE_OUTER_BOUND('',#136,.T.);
#82=FACE_OUTER_BOUND('',#137,.T.);
#83=FACE_OUTER_BOUND('',#138,.T.);
#84=FACE_OUTER_BOUND('',#139,.T.);
#85=FACE_OUTER_BOUND('',#140,.T.);
#86=FACE_OUTER_BOUND('',#141,.T.);
#87=FACE_OUTER_BOUND('',#143,.T.);
#88=FACE_OUTER_BOUND('',#144,.T.);
#89=FACE_OUTER_BOUND('',#146,.T.);
#90=FACE_OUTER_BOUND('',#147,.T.);
#91=FACE_OUTER_BOUND('',#149,.T.);
#92=FACE_OUTER_BOUND('',#150,.T.);
#93=FACE_OUTER_BOUND('',#152,.T.);
#94=FACE_OUTER_BOUND('',#153,.T.);
#95=FACE_OUTER_BOUND('',#154,.T.);
#96=FACE_OUTER_BOUND('',#155,.T.);
#97=FACE_OUTER_BOUND('',#156,.T.);
#98=EDGE_LOOP('',(#400,#401,#402,#403));
#99=EDGE_LOOP('',(#404,#405,#406,#407));
#100=EDGE_LOOP('',(#408,#409,#410,#411));
#101=EDGE_LOOP('',(#412,#413,#414,#415));
#102=EDGE_LOOP('',(#416,#417,#418,#419));
#103=EDGE_LOOP('',(#420,#421,#422,#423));
#104=EDGE_LOOP('',(#424));
#105=EDGE_LOOP('',(#425));
#106=EDGE_LOOP('',(#426));
#107=EDGE_LOOP('',(#427));
#108=EDGE_LOOP('',(#428,#429,#430,#431));
#109=EDGE_LOOP('',(#432,#433,#434,#435));
#110=EDGE_LOOP('',(#436));
#111=EDGE_LOOP('',(#437));
#112=EDGE_LOOP('',(#438));
#113=EDGE_LOOP('',(#439));
#114=EDGE_LOOP('',(#440,#441,#442,#443));
#115=EDGE_LOOP('',(#444,#445,#446,#447));
#116=EDGE_LOOP('',(#448,#449,#450,#451,#452,#453));
#117=EDGE_LOOP('',(#454,#455,#456,#457));
#118=EDGE_LOOP('',(#458,#459,#460,#461));
#119=EDGE_LOOP('',(#462));
#120=EDGE_LOOP('',(#463));
#121=EDGE_LOOP('',(#464));
#122=EDGE_LOOP('',(#465));
#123=EDGE_LOOP('',(#466));
#124=EDGE_LOOP('',(#467,#468,#469,#470));
#125=EDGE_LOOP('',(#471,#472));
#126=EDGE_LOOP('',(#473,#474));
#127=EDGE_LOOP('',(#475,#476,#477,#478));
#128=EDGE_LOOP('',(#479,#480,#481,#482));
#129=EDGE_LOOP('',(#483,#484,#485,#486));
#130=EDGE_LOOP('',(#487));
#131=EDGE_LOOP('',(#488));
#132=EDGE_LOOP('',(#489));
#133=EDGE_LOOP('',(#490));
#134=EDGE_LOOP('',(#491));
#135=EDGE_LOOP('',(#492,#493,#494,#495,#496,#497));
#136=EDGE_LOOP('',(#498,#499,#500,#501));
#137=EDGE_LOOP('',(#502,#503,#504,#505));
#138=EDGE_LOOP('',(#506,#507,#508,#509));
#139=EDGE_LOOP('',(#510,#511,#512,#513));
#140=EDGE_LOOP('',(#514,#515,#516,#517));
#141=EDGE_LOOP('',(#518));
#142=EDGE_LOOP('',(#519));
#143=EDGE_LOOP('',(#520,#521,#522,#523));
#144=EDGE_LOOP('',(#524));
#145=EDGE_LOOP('',(#525));
#146=EDGE_LOOP('',(#526,#527,#528,#529));
#147=EDGE_LOOP('',(#530));
#148=EDGE_LOOP('',(#531));
#149=EDGE_LOOP('',(#532,#533,#534,#535));
#150=EDGE_LOOP('',(#536));
#151=EDGE_LOOP('',(#537));
#152=EDGE_LOOP('',(#538,#539,#540,#541));
#153=EDGE_LOOP('',(#542,#543));
#154=EDGE_LOOP('',(#544,#545));
#155=EDGE_LOOP('',(#546,#547));
#156=EDGE_LOOP('',(#548,#549));
#157=LINE('',#862,#202);
#158=LINE('',#868,#203);
#159=LINE('',#874,#204);
#160=LINE('',#880,#205);
#161=LINE('',#885,#206);
#162=LINE('',#887,#207);
#163=LINE('',#889,#208);
#164=LINE('',#890,#209);
#165=LINE('',#893,#210);
#166=LINE('',#895,#211);
#167=LINE('',#896,#212);
#168=LINE('',#899,#213);
#169=LINE('',#900,#214);
#170=LINE('',#903,#215);
#171=LINE('',#904,#216);
#172=LINE('',#906,#217);
#173=LINE('',#911,#218);
#174=LINE('',#913,#219);
#175=LINE('',#915,#220);
#176=LINE('',#917,#221);
#177=LINE('',#919,#222);
#178=LINE('',#920,#223);
#179=LINE('',#923,#224);
#180=LINE('',#925,#225);
#181=LINE('',#926,#226);
#182=LINE('',#929,#227);
#183=LINE('',#930,#228);
#184=LINE('',#943,#229);
#185=LINE('',#944,#230);
#186=LINE('',#947,#231);
#187=LINE('',#951,#232);
#188=LINE('',#955,#233);
#189=LINE('',#956,#234);
#190=LINE('',#959,#235);
#191=LINE('',#960,#236);
#192=LINE('',#962,#237);
#193=LINE('',#976,#238);
#194=LINE('',#979,#239);
#195=LINE('',#982,#240);
#196=LINE('',#986,#241);
#197=LINE('',#990,#242);
#198=LINE('',#996,#243);
#199=LINE('',#1001,#244);
#200=LINE('',#1006,#245);
#201=LINE('',#1011,#246);
#202=VECTOR('',#686,0.225);
#203=VECTOR('',#693,0.225);
#204=VECTOR('',#700,0.225);
#205=VECTOR('',#707,0.225);
#206=VECTOR('',#712,1.);
#207=VECTOR('',#713,1.);
#208=VECTOR('',#714,1.);
#209=VECTOR('',#715,1.);
#210=VECTOR('',#718,1.);
#211=VECTOR('',#719,1.);
#212=VECTOR('',#720,1.);
#213=VECTOR('',#723,1.);
#214=VECTOR('',#724,1.);
#215=VECTOR('',#727,1.);
#216=VECTOR('',#728,1.);
#217=VECTOR('',#731,1.);
#218=VECTOR('',#736,1.);
#219=VECTOR('',#737,1.);
#220=VECTOR('',#738,1.);
#221=VECTOR('',#739,1.);
#222=VECTOR('',#740,1.);
#223=VECTOR('',#741,1.);
#224=VECTOR('',#744,1.);
#225=VECTOR('',#745,1.);
#226=VECTOR('',#746,1.);
#227=VECTOR('',#749,1.);
#228=VECTOR('',#750,1.);
#229=VECTOR('',#763,1.);
#230=VECTOR('',#764,1.);
#231=VECTOR('',#765,1.);
#232=VECTOR('',#768,1.);
#233=VECTOR('',#773,1.);
#234=VECTOR('',#774,1.);
#235=VECTOR('',#777,1.);
#236=VECTOR('',#778,1.);
#237=VECTOR('',#781,1.);
#238=VECTOR('',#796,0.17);
#239=VECTOR('',#801,0.449999999999999);
#240=VECTOR('',#804,0.17);
#241=VECTOR('',#809,0.17);
#242=VECTOR('',#814,0.17);
#243=VECTOR('',#823,0.289999999999999);
#244=VECTOR('',#830,0.289999999999999);
#245=VECTOR('',#837,0.289999999999999);
#246=VECTOR('',#844,0.289999999999999);
#247=CIRCLE('',#616,0.225);
#248=CIRCLE('',#617,0.225);
#249=CIRCLE('',#619,0.225);
#250=CIRCLE('',#620,0.225);
#251=CIRCLE('',#622,0.225);
#252=CIRCLE('',#623,0.225);
#253=CIRCLE('',#625,0.225);
#254=CIRCLE('',#626,0.225);
#255=CIRCLE('',#636,0.17);
#256=CIRCLE('',#637,0.449999999999999);
#257=CIRCLE('',#638,0.17);
#258=CIRCLE('',#639,0.17);
#259=CIRCLE('',#640,0.17);
#260=CIRCLE('',#647,0.449999999999999);
#261=CIRCLE('',#648,0.289999999999999);
#262=CIRCLE('',#649,0.289999999999999);
#263=CIRCLE('',#650,0.289999999999999);
#264=CIRCLE('',#651,0.289999999999999);
#265=CIRCLE('',#654,0.17);
#266=CIRCLE('',#657,0.17);
#267=CIRCLE('',#659,0.17);
#268=CIRCLE('',#661,0.17);
#269=CIRCLE('',#663,0.289999999999999);
#270=CIRCLE('',#666,0.289999999999999);
#271=CIRCLE('',#669,0.289999999999999);
#272=CIRCLE('',#672,0.289999999999999);
#273=CIRCLE('',#675,0.225);
#274=CIRCLE('',#678,0.225);
#275=VERTEX_POINT('',#859);
#276=VERTEX_POINT('',#861);
#277=VERTEX_POINT('',#865);
#278=VERTEX_POINT('',#867);
#279=VERTEX_POINT('',#871);
#280=VERTEX_POINT('',#873);
#281=VERTEX_POINT('',#877);
#282=VERTEX_POINT('',#879);
#283=VERTEX_POINT('',#883);
#284=VERTEX_POINT('',#884);
#285=VERTEX_POINT('',#886);
#286=VERTEX_POINT('',#888);
#287=VERTEX_POINT('',#892);
#288=VERTEX_POINT('',#894);
#289=VERTEX_POINT('',#898);
#290=VERTEX_POINT('',#902);
#291=VERTEX_POINT('',#909);
#292=VERTEX_POINT('',#910);
#293=VERTEX_POINT('',#912);
#294=VERTEX_POINT('',#914);
#295=VERTEX_POINT('',#916);
#296=VERTEX_POINT('',#918);
#297=VERTEX_POINT('',#922);
#298=VERTEX_POINT('',#924);
#299=VERTEX_POINT('',#928);
#300=VERTEX_POINT('',#931);
#301=VERTEX_POINT('',#933);
#302=VERTEX_POINT('',#935);
#303=VERTEX_POINT('',#937);
#304=VERTEX_POINT('',#939);
#305=VERTEX_POINT('',#942);
#306=VERTEX_POINT('',#945);
#307=VERTEX_POINT('',#946);
#308=VERTEX_POINT('',#949);
#309=VERTEX_POINT('',#950);
#310=VERTEX_POINT('',#954);
#311=VERTEX_POINT('',#958);
#312=VERTEX_POINT('',#963);
#313=VERTEX_POINT('',#965);
#314=VERTEX_POINT('',#967);
#315=VERTEX_POINT('',#969);
#316=VERTEX_POINT('',#971);
#317=VERTEX_POINT('',#975);
#318=VERTEX_POINT('',#981);
#319=VERTEX_POINT('',#985);
#320=VERTEX_POINT('',#989);
#321=VERTEX_POINT('',#993);
#322=VERTEX_POINT('',#998);
#323=VERTEX_POINT('',#1003);
#324=VERTEX_POINT('',#1008);
#325=EDGE_CURVE('',#275,#275,#247,.T.);
#326=EDGE_CURVE('',#275,#276,#157,.T.);
#327=EDGE_CURVE('',#276,#276,#248,.T.);
#328=EDGE_CURVE('',#277,#277,#249,.T.);
#329=EDGE_CURVE('',#277,#278,#158,.T.);
#330=EDGE_CURVE('',#278,#278,#250,.T.);
#331=EDGE_CURVE('',#279,#279,#251,.T.);
#332=EDGE_CURVE('',#279,#280,#159,.T.);
#333=EDGE_CURVE('',#280,#280,#252,.T.);
#334=EDGE_CURVE('',#281,#281,#253,.T.);
#335=EDGE_CURVE('',#281,#282,#160,.T.);
#336=EDGE_CURVE('',#282,#282,#254,.T.);
#337=EDGE_CURVE('',#283,#284,#161,.T.);
#338=EDGE_CURVE('',#284,#285,#162,.T.);
#339=EDGE_CURVE('',#285,#286,#163,.T.);
#340=EDGE_CURVE('',#286,#283,#164,.T.);
#341=EDGE_CURVE('',#287,#284,#165,.T.);
#342=EDGE_CURVE('',#288,#287,#166,.T.);
#343=EDGE_CURVE('',#285,#288,#167,.T.);
#344=EDGE_CURVE('',#289,#288,#168,.T.);
#345=EDGE_CURVE('',#286,#289,#169,.T.);
#346=EDGE_CURVE('',#290,#289,#170,.T.);
#347=EDGE_CURVE('',#283,#290,#171,.T.);
#348=EDGE_CURVE('',#287,#290,#172,.T.);
#349=EDGE_CURVE('',#291,#292,#173,.T.);
#350=EDGE_CURVE('',#292,#293,#174,.T.);
#351=EDGE_CURVE('',#293,#294,#175,.T.);
#352=EDGE_CURVE('',#294,#295,#176,.T.);
#353=EDGE_CURVE('',#295,#296,#177,.T.);
#354=EDGE_CURVE('',#296,#291,#178,.T.);
#355=EDGE_CURVE('',#297,#292,#179,.T.);
#356=EDGE_CURVE('',#291,#298,#180,.T.);
#357=EDGE_CURVE('',#297,#298,#181,.T.);
#358=EDGE_CURVE('',#299,#293,#182,.T.);
#359=EDGE_CURVE('',#299,#297,#183,.T.);
#360=EDGE_CURVE('',#300,#300,#255,.T.);
#361=EDGE_CURVE('',#301,#301,#256,.T.);
#362=EDGE_CURVE('',#302,#302,#257,.T.);
#363=EDGE_CURVE('',#303,#303,#258,.T.);
#364=EDGE_CURVE('',#304,#304,#259,.T.);
#365=EDGE_CURVE('',#305,#294,#184,.T.);
#366=EDGE_CURVE('',#305,#299,#185,.T.);
#367=EDGE_CURVE('',#306,#307,#186,.T.);
#368=EDGE_CURVE('',#307,#306,#13,.T.);
#369=EDGE_CURVE('',#308,#309,#187,.T.);
#370=EDGE_CURVE('',#309,#308,#14,.T.);
#371=EDGE_CURVE('',#310,#295,#188,.T.);
#372=EDGE_CURVE('',#310,#305,#189,.T.);
#373=EDGE_CURVE('',#311,#296,#190,.T.);
#374=EDGE_CURVE('',#311,#310,#191,.T.);
#375=EDGE_CURVE('',#298,#311,#192,.T.);
#376=EDGE_CURVE('',#312,#312,#260,.T.);
#377=EDGE_CURVE('',#313,#313,#261,.T.);
#378=EDGE_CURVE('',#314,#314,#262,.T.);
#379=EDGE_CURVE('',#315,#315,#263,.T.);
#380=EDGE_CURVE('',#316,#316,#264,.T.);
#381=EDGE_CURVE('',#300,#317,#193,.T.);
#382=EDGE_CURVE('',#317,#317,#265,.T.);
#383=EDGE_CURVE('',#301,#312,#194,.T.);
#384=EDGE_CURVE('',#302,#318,#195,.T.);
#385=EDGE_CURVE('',#318,#318,#266,.T.);
#386=EDGE_CURVE('',#303,#319,#196,.T.);
#387=EDGE_CURVE('',#319,#319,#267,.T.);
#388=EDGE_CURVE('',#304,#320,#197,.T.);
#389=EDGE_CURVE('',#320,#320,#268,.T.);
#390=EDGE_CURVE('',#321,#321,#269,.T.);
#391=EDGE_CURVE('',#313,#321,#198,.T.);
#392=EDGE_CURVE('',#322,#322,#270,.T.);
#393=EDGE_CURVE('',#314,#322,#199,.T.);
#394=EDGE_CURVE('',#323,#323,#271,.T.);
#395=EDGE_CURVE('',#315,#323,#200,.T.);
#396=EDGE_CURVE('',#324,#324,#272,.T.);
#397=EDGE_CURVE('',#316,#324,#201,.T.);
#398=EDGE_CURVE('',#309,#308,#273,.T.);
#399=EDGE_CURVE('',#307,#306,#274,.T.);
#400=ORIENTED_EDGE('',*,*,#325,.F.);
#401=ORIENTED_EDGE('',*,*,#326,.T.);
#402=ORIENTED_EDGE('',*,*,#327,.F.);
#403=ORIENTED_EDGE('',*,*,#326,.F.);
#404=ORIENTED_EDGE('',*,*,#328,.F.);
#405=ORIENTED_EDGE('',*,*,#329,.T.);
#406=ORIENTED_EDGE('',*,*,#330,.F.);
#407=ORIENTED_EDGE('',*,*,#329,.F.);
#408=ORIENTED_EDGE('',*,*,#331,.F.);
#409=ORIENTED_EDGE('',*,*,#332,.T.);
#410=ORIENTED_EDGE('',*,*,#333,.F.);
#411=ORIENTED_EDGE('',*,*,#332,.F.);
#412=ORIENTED_EDGE('',*,*,#334,.F.);
#413=ORIENTED_EDGE('',*,*,#335,.T.);
#414=ORIENTED_EDGE('',*,*,#336,.F.);
#415=ORIENTED_EDGE('',*,*,#335,.F.);
#416=ORIENTED_EDGE('',*,*,#337,.T.);
#417=ORIENTED_EDGE('',*,*,#338,.T.);
#418=ORIENTED_EDGE('',*,*,#339,.T.);
#419=ORIENTED_EDGE('',*,*,#340,.T.);
#420=ORIENTED_EDGE('',*,*,#341,.F.);
#421=ORIENTED_EDGE('',*,*,#342,.F.);
#422=ORIENTED_EDGE('',*,*,#343,.F.);
#423=ORIENTED_EDGE('',*,*,#338,.F.);
#424=ORIENTED_EDGE('',*,*,#325,.T.);
#425=ORIENTED_EDGE('',*,*,#328,.T.);
#426=ORIENTED_EDGE('',*,*,#331,.T.);
#427=ORIENTED_EDGE('',*,*,#334,.T.);
#428=ORIENTED_EDGE('',*,*,#343,.T.);
#429=ORIENTED_EDGE('',*,*,#344,.F.);
#430=ORIENTED_EDGE('',*,*,#345,.F.);
#431=ORIENTED_EDGE('',*,*,#339,.F.);
#432=ORIENTED_EDGE('',*,*,#345,.T.);
#433=ORIENTED_EDGE('',*,*,#346,.F.);
#434=ORIENTED_EDGE('',*,*,#347,.F.);
#435=ORIENTED_EDGE('',*,*,#340,.F.);
#436=ORIENTED_EDGE('',*,*,#327,.T.);
#437=ORIENTED_EDGE('',*,*,#330,.T.);
#438=ORIENTED_EDGE('',*,*,#333,.T.);
#439=ORIENTED_EDGE('',*,*,#336,.T.);
#440=ORIENTED_EDGE('',*,*,#347,.T.);
#441=ORIENTED_EDGE('',*,*,#348,.F.);
#442=ORIENTED_EDGE('',*,*,#341,.T.);
#443=ORIENTED_EDGE('',*,*,#337,.F.);
#444=ORIENTED_EDGE('',*,*,#348,.T.);
#445=ORIENTED_EDGE('',*,*,#346,.T.);
#446=ORIENTED_EDGE('',*,*,#344,.T.);
#447=ORIENTED_EDGE('',*,*,#342,.T.);
#448=ORIENTED_EDGE('',*,*,#349,.T.);
#449=ORIENTED_EDGE('',*,*,#350,.T.);
#450=ORIENTED_EDGE('',*,*,#351,.T.);
#451=ORIENTED_EDGE('',*,*,#352,.T.);
#452=ORIENTED_EDGE('',*,*,#353,.T.);
#453=ORIENTED_EDGE('',*,*,#354,.T.);
#454=ORIENTED_EDGE('',*,*,#355,.T.);
#455=ORIENTED_EDGE('',*,*,#349,.F.);
#456=ORIENTED_EDGE('',*,*,#356,.T.);
#457=ORIENTED_EDGE('',*,*,#357,.F.);
#458=ORIENTED_EDGE('',*,*,#358,.T.);
#459=ORIENTED_EDGE('',*,*,#350,.F.);
#460=ORIENTED_EDGE('',*,*,#355,.F.);
#461=ORIENTED_EDGE('',*,*,#359,.F.);
#462=ORIENTED_EDGE('',*,*,#360,.T.);
#463=ORIENTED_EDGE('',*,*,#361,.T.);
#464=ORIENTED_EDGE('',*,*,#362,.T.);
#465=ORIENTED_EDGE('',*,*,#363,.T.);
#466=ORIENTED_EDGE('',*,*,#364,.T.);
#467=ORIENTED_EDGE('',*,*,#365,.T.);
#468=ORIENTED_EDGE('',*,*,#351,.F.);
#469=ORIENTED_EDGE('',*,*,#358,.F.);
#470=ORIENTED_EDGE('',*,*,#366,.F.);
#471=ORIENTED_EDGE('',*,*,#367,.T.);
#472=ORIENTED_EDGE('',*,*,#368,.T.);
#473=ORIENTED_EDGE('',*,*,#369,.T.);
#474=ORIENTED_EDGE('',*,*,#370,.T.);
#475=ORIENTED_EDGE('',*,*,#371,.T.);
#476=ORIENTED_EDGE('',*,*,#352,.F.);
#477=ORIENTED_EDGE('',*,*,#365,.F.);
#478=ORIENTED_EDGE('',*,*,#372,.F.);
#479=ORIENTED_EDGE('',*,*,#373,.T.);
#480=ORIENTED_EDGE('',*,*,#353,.F.);
#481=ORIENTED_EDGE('',*,*,#371,.F.);
#482=ORIENTED_EDGE('',*,*,#374,.F.);
#483=ORIENTED_EDGE('',*,*,#356,.F.);
#484=ORIENTED_EDGE('',*,*,#354,.F.);
#485=ORIENTED_EDGE('',*,*,#373,.F.);
#486=ORIENTED_EDGE('',*,*,#375,.F.);
#487=ORIENTED_EDGE('',*,*,#376,.T.);
#488=ORIENTED_EDGE('',*,*,#377,.T.);
#489=ORIENTED_EDGE('',*,*,#378,.T.);
#490=ORIENTED_EDGE('',*,*,#379,.T.);
#491=ORIENTED_EDGE('',*,*,#380,.T.);
#492=ORIENTED_EDGE('',*,*,#357,.T.);
#493=ORIENTED_EDGE('',*,*,#375,.T.);
#494=ORIENTED_EDGE('',*,*,#374,.T.);
#495=ORIENTED_EDGE('',*,*,#372,.T.);
#496=ORIENTED_EDGE('',*,*,#366,.T.);
#497=ORIENTED_EDGE('',*,*,#359,.T.);
#498=ORIENTED_EDGE('',*,*,#360,.F.);
#499=ORIENTED_EDGE('',*,*,#381,.T.);
#500=ORIENTED_EDGE('',*,*,#382,.T.);
#501=ORIENTED_EDGE('',*,*,#381,.F.);
#502=ORIENTED_EDGE('',*,*,#361,.F.);
#503=ORIENTED_EDGE('',*,*,#383,.T.);
#504=ORIENTED_EDGE('',*,*,#376,.F.);
#505=ORIENTED_EDGE('',*,*,#383,.F.);
#506=ORIENTED_EDGE('',*,*,#362,.F.);
#507=ORIENTED_EDGE('',*,*,#384,.T.);
#508=ORIENTED_EDGE('',*,*,#385,.T.);
#509=ORIENTED_EDGE('',*,*,#384,.F.);
#510=ORIENTED_EDGE('',*,*,#363,.F.);
#511=ORIENTED_EDGE('',*,*,#386,.T.);
#512=ORIENTED_EDGE('',*,*,#387,.T.);
#513=ORIENTED_EDGE('',*,*,#386,.F.);
#514=ORIENTED_EDGE('',*,*,#364,.F.);
#515=ORIENTED_EDGE('',*,*,#388,.T.);
#516=ORIENTED_EDGE('',*,*,#389,.T.);
#517=ORIENTED_EDGE('',*,*,#388,.F.);
#518=ORIENTED_EDGE('',*,*,#390,.F.);
#519=ORIENTED_EDGE('',*,*,#389,.F.);
#520=ORIENTED_EDGE('',*,*,#377,.F.);
#521=ORIENTED_EDGE('',*,*,#391,.T.);
#522=ORIENTED_EDGE('',*,*,#390,.T.);
#523=ORIENTED_EDGE('',*,*,#391,.F.);
#524=ORIENTED_EDGE('',*,*,#392,.F.);
#525=ORIENTED_EDGE('',*,*,#382,.F.);
#526=ORIENTED_EDGE('',*,*,#378,.F.);
#527=ORIENTED_EDGE('',*,*,#393,.T.);
#528=ORIENTED_EDGE('',*,*,#392,.T.);
#529=ORIENTED_EDGE('',*,*,#393,.F.);
#530=ORIENTED_EDGE('',*,*,#394,.F.);
#531=ORIENTED_EDGE('',*,*,#387,.F.);
#532=ORIENTED_EDGE('',*,*,#379,.F.);
#533=ORIENTED_EDGE('',*,*,#395,.T.);
#534=ORIENTED_EDGE('',*,*,#394,.T.);
#535=ORIENTED_EDGE('',*,*,#395,.F.);
#536=ORIENTED_EDGE('',*,*,#396,.F.);
#537=ORIENTED_EDGE('',*,*,#385,.F.);
#538=ORIENTED_EDGE('',*,*,#380,.F.);
#539=ORIENTED_EDGE('',*,*,#397,.T.);
#540=ORIENTED_EDGE('',*,*,#396,.T.);
#541=ORIENTED_EDGE('',*,*,#397,.F.);
#542=ORIENTED_EDGE('',*,*,#369,.F.);
#543=ORIENTED_EDGE('',*,*,#398,.F.);
#544=ORIENTED_EDGE('',*,*,#370,.F.);
#545=ORIENTED_EDGE('',*,*,#398,.T.);
#546=ORIENTED_EDGE('',*,*,#367,.F.);
#547=ORIENTED_EDGE('',*,*,#399,.F.);
#548=ORIENTED_EDGE('',*,*,#368,.F.);
#549=ORIENTED_EDGE('',*,*,#399,.T.);
#550=CYLINDRICAL_SURFACE('',#615,0.225);
#551=CYLINDRICAL_SURFACE('',#618,0.225);
#552=CYLINDRICAL_SURFACE('',#621,0.225);
#553=CYLINDRICAL_SURFACE('',#624,0.225);
#554=CYLINDRICAL_SURFACE('',#653,0.17);
#555=CYLINDRICAL_SURFACE('',#655,0.449999999999999);
#556=CYLINDRICAL_SURFACE('',#656,0.17);
#557=CYLINDRICAL_SURFACE('',#658,0.17);
#558=CYLINDRICAL_SURFACE('',#660,0.17);
#559=CYLINDRICAL_SURFACE('',#664,0.289999999999999);
#560=CYLINDRICAL_SURFACE('',#667,0.289999999999999);
#561=CYLINDRICAL_SURFACE('',#670,0.289999999999999);
#562=CYLINDRICAL_SURFACE('',#673,0.289999999999999);
#563=CYLINDRICAL_SURFACE('',#676,0.225);
#564=CYLINDRICAL_SURFACE('',#679,0.225);
#565=ADVANCED_FACE('',(#63),#550,.F.);
#566=ADVANCED_FACE('',(#64),#551,.F.);
#567=ADVANCED_FACE('',(#65),#552,.F.);
#568=ADVANCED_FACE('',(#66),#553,.F.);
#569=ADVANCED_FACE('',(#67),#43,.T.);
#570=ADVANCED_FACE('',(#68,#19,#20,#21,#22),#44,.T.);
#571=ADVANCED_FACE('',(#69),#45,.T.);
#572=ADVANCED_FACE('',(#70,#23,#24,#25,#26),#46,.T.);
#573=ADVANCED_FACE('',(#71),#47,.T.);
#574=ADVANCED_FACE('',(#72),#48,.T.);
#575=ADVANCED_FACE('',(#73),#49,.T.);
#576=ADVANCED_FACE('',(#74),#50,.T.);
#577=ADVANCED_FACE('',(#75,#27,#28,#29,#30,#31),#51,.T.);
#578=ADVANCED_FACE('',(#76,#32,#33),#52,.T.);
#579=ADVANCED_FACE('',(#77),#53,.T.);
#580=ADVANCED_FACE('',(#78),#54,.T.);
#581=ADVANCED_FACE('',(#79,#34,#35,#36,#37,#38),#55,.T.);
#582=ADVANCED_FACE('',(#80),#56,.T.);
#583=ADVANCED_FACE('',(#81),#554,.F.);
#584=ADVANCED_FACE('',(#82),#555,.F.);
#585=ADVANCED_FACE('',(#83),#556,.F.);
#586=ADVANCED_FACE('',(#84),#557,.F.);
#587=ADVANCED_FACE('',(#85),#558,.F.);
#588=ADVANCED_FACE('',(#86,#39),#57,.T.);
#589=ADVANCED_FACE('',(#87),#559,.F.);
#590=ADVANCED_FACE('',(#88,#40),#58,.T.);
#591=ADVANCED_FACE('',(#89),#560,.F.);
#592=ADVANCED_FACE('',(#90,#41),#59,.T.);
#593=ADVANCED_FACE('',(#91),#561,.F.);
#594=ADVANCED_FACE('',(#92,#42),#60,.T.);
#595=ADVANCED_FACE('',(#93),#562,.F.);
#596=ADVANCED_FACE('',(#94),#61,.T.);
#597=ADVANCED_FACE('',(#95),#563,.F.);
#598=ADVANCED_FACE('',(#96),#62,.T.);
#599=ADVANCED_FACE('',(#97),#564,.F.);
#600=CLOSED_SHELL('',(#565,#566,#567,#568,#569,#570,#571,#572,#573,#574));
#601=CLOSED_SHELL('',(#575,#576,#577,#578,#579,#580,#581,#582,#583,#584,
#585,#586,#587,#588,#589,#590,#591,#592,#593,#594,#595,#596,#597,#598,#599));
#602=DERIVED_UNIT_ELEMENT(#604,1.);
#603=DERIVED_UNIT_ELEMENT(#1023,-3.);
#604=(
MASS_UNIT()
NAMED_UNIT(*)
SI_UNIT(.KILO.,.GRAM.)
);
#605=DERIVED_UNIT((#602,#603));
#606=MEASURE_REPRESENTATION_ITEM('density measure',
POSITIVE_RATIO_MEASURE(7850.),#605);
#607=PROPERTY_DEFINITION_REPRESENTATION(#612,#609);
#608=PROPERTY_DEFINITION_REPRESENTATION(#613,#610);
#609=REPRESENTATION('material name',(#611),#1020);
#610=REPRESENTATION('density',(#606),#1020);
#611=DESCRIPTIVE_REPRESENTATION_ITEM('\X2\92FC\X0\','\X2\92FC\X0\');
#612=PROPERTY_DEFINITION('material property','material name',#1030);
#613=PROPERTY_DEFINITION('material property','density of part',#1030);
#614=AXIS2_PLACEMENT_3D('',#857,#680,#681);
#615=AXIS2_PLACEMENT_3D('',#858,#682,#683);
#616=AXIS2_PLACEMENT_3D('',#860,#684,#685);
#617=AXIS2_PLACEMENT_3D('',#863,#687,#688);
#618=AXIS2_PLACEMENT_3D('',#864,#689,#690);
#619=AXIS2_PLACEMENT_3D('',#866,#691,#692);
#620=AXIS2_PLACEMENT_3D('',#869,#694,#695);
#621=AXIS2_PLACEMENT_3D('',#870,#696,#697);
#622=AXIS2_PLACEMENT_3D('',#872,#698,#699);
#623=AXIS2_PLACEMENT_3D('',#875,#701,#702);
#624=AXIS2_PLACEMENT_3D('',#876,#703,#704);
#625=AXIS2_PLACEMENT_3D('',#878,#705,#706);
#626=AXIS2_PLACEMENT_3D('',#881,#708,#709);
#627=AXIS2_PLACEMENT_3D('',#882,#710,#711);
#628=AXIS2_PLACEMENT_3D('',#891,#716,#717);
#629=AXIS2_PLACEMENT_3D('',#897,#721,#722);
#630=AXIS2_PLACEMENT_3D('',#901,#725,#726);
#631=AXIS2_PLACEMENT_3D('',#905,#729,#730);
#632=AXIS2_PLACEMENT_3D('',#907,#732,#733);
#633=AXIS2_PLACEMENT_3D('',#908,#734,#735);
#634=AXIS2_PLACEMENT_3D('',#921,#742,#743);
#635=AXIS2_PLACEMENT_3D('',#927,#747,#748);
#636=AXIS2_PLACEMENT_3D('',#932,#751,#752);
#637=AXIS2_PLACEMENT_3D('',#934,#753,#754);
#638=AXIS2_PLACEMENT_3D('',#936,#755,#756);
#639=AXIS2_PLACEMENT_3D('',#938,#757,#758);
#640=AXIS2_PLACEMENT_3D('',#940,#759,#760);
#641=AXIS2_PLACEMENT_3D('',#941,#761,#762);
#642=AXIS2_PLACEMENT_3D('',#948,#766,#767);
#643=AXIS2_PLACEMENT_3D('',#952,#769,#770);
#644=AXIS2_PLACEMENT_3D('',#953,#771,#772);
#645=AXIS2_PLACEMENT_3D('',#957,#775,#776);
#646=AXIS2_PLACEMENT_3D('',#961,#779,#780);
#647=AXIS2_PLACEMENT_3D('',#964,#782,#783);
#648=AXIS2_PLACEMENT_3D('',#966,#784,#785);
#649=AXIS2_PLACEMENT_3D('',#968,#786,#787);
#650=AXIS2_PLACEMENT_3D('',#970,#788,#789);
#651=AXIS2_PLACEMENT_3D('',#972,#790,#791);
#652=AXIS2_PLACEMENT_3D('',#973,#792,#793);
#653=AXIS2_PLACEMENT_3D('',#974,#794,#795);
#654=AXIS2_PLACEMENT_3D('',#977,#797,#798);
#655=AXIS2_PLACEMENT_3D('',#978,#799,#800);
#656=AXIS2_PLACEMENT_3D('',#980,#802,#803);
#657=AXIS2_PLACEMENT_3D('',#983,#805,#806);
#658=AXIS2_PLACEMENT_3D('',#984,#807,#808);
#659=AXIS2_PLACEMENT_3D('',#987,#810,#811);
#660=AXIS2_PLACEMENT_3D('',#988,#812,#813);
#661=AXIS2_PLACEMENT_3D('',#991,#815,#816);
#662=AXIS2_PLACEMENT_3D('',#992,#817,#818);
#663=AXIS2_PLACEMENT_3D('',#994,#819,#820);
#664=AXIS2_PLACEMENT_3D('',#995,#821,#822);
#665=AXIS2_PLACEMENT_3D('',#997,#824,#825);
#666=AXIS2_PLACEMENT_3D('',#999,#826,#827);
#667=AXIS2_PLACEMENT_3D('',#1000,#828,#829);
#668=AXIS2_PLACEMENT_3D('',#1002,#831,#832);
#669=AXIS2_PLACEMENT_3D('',#1004,#833,#834);
#670=AXIS2_PLACEMENT_3D('',#1005,#835,#836);
#671=AXIS2_PLACEMENT_3D('',#1007,#838,#839);
#672=AXIS2_PLACEMENT_3D('',#1009,#840,#841);
#673=AXIS2_PLACEMENT_3D('',#1010,#842,#843);
#674=AXIS2_PLACEMENT_3D('',#1012,#845,#846);
#675=AXIS2_PLACEMENT_3D('',#1013,#847,#848);
#676=AXIS2_PLACEMENT_3D('',#1014,#849,#850);
#677=AXIS2_PLACEMENT_3D('',#1015,#851,#852);
#678=AXIS2_PLACEMENT_3D('',#1016,#853,#854);
#679=AXIS2_PLACEMENT_3D('',#1017,#855,#856);
#680=DIRECTION('axis',(0.,0.,1.));
#681=DIRECTION('refdir',(1.,0.,0.));
#682=DIRECTION('center_axis',(0.000107762068788375,0.,0.999999994193668));
#683=DIRECTION('ref_axis',(-0.999999994193668,0.,0.000107762068788375));
#684=DIRECTION('center_axis',(0.000107762068788153,0.,0.999999994193668));
#685=DIRECTION('ref_axis',(-0.999999994193668,0.,0.000107762068788375));
#686=DIRECTION('',(0.000107762068788375,0.,0.999999994193668));
#687=DIRECTION('center_axis',(-0.000107762068787765,0.,-0.999999994193668));
#688=DIRECTION('ref_axis',(-0.999999994193668,0.,0.000107762068788375));
#689=DIRECTION('center_axis',(0.000107762068788375,0.,0.999999994193668));
#690=DIRECTION('ref_axis',(-0.999999994193668,0.,0.000107762068788375));
#691=DIRECTION('center_axis',(0.000107762068788153,0.,0.999999994193668));
#692=DIRECTION('ref_axis',(-0.999999994193668,0.,0.000107762068788375));
#693=DIRECTION('',(0.000107762068788375,0.,0.999999994193668));
#694=DIRECTION('center_axis',(-0.000107762068787765,0.,-0.999999994193668));
#695=DIRECTION('ref_axis',(-0.999999994193668,0.,0.000107762068788375));
#696=DIRECTION('center_axis',(0.000107762068788375,0.,0.999999994193668));
#697=DIRECTION('ref_axis',(-0.999999994193668,0.,0.000107762068788375));
#698=DIRECTION('center_axis',(0.000107762068788153,0.,0.999999994193668));
#699=DIRECTION('ref_axis',(-0.999999994193668,0.,0.000107762068788375));
#700=DIRECTION('',(0.000107762068788375,0.,0.999999994193668));
#701=DIRECTION('center_axis',(-0.000107762068787765,0.,-0.999999994193668));
#702=DIRECTION('ref_axis',(-0.999999994193668,0.,0.000107762068788375));
#703=DIRECTION('center_axis',(0.000107762068788375,0.,0.999999994193668));
#704=DIRECTION('ref_axis',(-0.999999994193668,0.,0.000107762068788375));
#705=DIRECTION('center_axis',(0.000107762068788153,0.,0.999999994193668));
#706=DIRECTION('ref_axis',(-0.999999994193668,0.,0.000107762068788375));
#707=DIRECTION('',(0.000107762068788375,0.,0.999999994193668));
#708=DIRECTION('center_axis',(-0.000107762068787765,0.,-0.999999994193668));
#709=DIRECTION('ref_axis',(-0.999999994193668,0.,0.000107762068788375));
#710=DIRECTION('center_axis',(0.,1.,0.));
#711=DIRECTION('ref_axis',(-0.422618261740699,0.,-0.90630778703665));
#712=DIRECTION('',(0.000496094527856372,0.,-0.999999876945102));
#713=DIRECTION('',(-0.999999994193668,0.,0.000107762068788153));
#714=DIRECTION('',(-0.466434957573397,0.,0.884555498741319));
#715=DIRECTION('',(0.999999994193668,0.,-0.000107762068787765));
#716=DIRECTION('center_axis',(-0.000107762068788153,0.,-0.999999994193668));
#717=DIRECTION('ref_axis',(0.999999994193668,0.,-0.000107762068788153));
#718=DIRECTION('',(0.,1.,0.));
#719=DIRECTION('',(0.999999994193668,0.,-0.000107762068788153));
#720=DIRECTION('',(0.,-1.,0.));
#721=DIRECTION('center_axis',(-0.884555498741319,0.,-0.466434957573397));
#722=DIRECTION('ref_axis',(0.466434957573397,0.,-0.884555498741319));
#723=DIRECTION('',(0.466434957573397,0.,-0.884555498741319));
#724=DIRECTION('',(0.,-1.,0.));
#725=DIRECTION('center_axis',(0.000107762068787765,0.,0.999999994193668));
#726=DIRECTION('ref_axis',(-0.999999994193668,0.,0.000107762068787765));
#727=DIRECTION('',(-0.999999994193668,0.,0.000107762068787765));
#728=DIRECTION('',(0.,-1.,0.));
#729=DIRECTION('center_axis',(0.999999876945102,0.,0.000496094527856372));
#730=DIRECTION('ref_axis',(-0.000496094527856372,0.,0.999999876945102));
#731=DIRECTION('',(-0.000496094527856372,0.,0.999999876945102));
#732=DIRECTION('center_axis',(0.,-1.,0.));
#733=DIRECTION('ref_axis',(0.422618261740699,0.,0.90630778703665));
#734=DIRECTION('center_axis',(0.,-1.,0.));
#735=DIRECTION('ref_axis',(0.422618261740699,0.,0.90630778703665));
#736=DIRECTION('',(0.90630778703665,0.,-0.422618261740699));
#737=DIRECTION('',(0.422618261740699,0.,0.90630778703665));
#738=DIRECTION('',(-0.466434957573397,0.,0.884555498741319));
#739=DIRECTION('',(-0.999999994193668,0.,0.000107762068788153));
#740=DIRECTION('',(0.404605782578569,0.,-0.914491203185675));
#741=DIRECTION('',(-0.422618261740699,0.,-0.90630778703665));
#742=DIRECTION('center_axis',(-0.422618261740699,0.,-0.90630778703665));
#743=DIRECTION('ref_axis',(0.90630778703665,0.,-0.422618261740699));
#744=DIRECTION('',(0.,-1.,0.));
#745=DIRECTION('',(0.,1.,0.));
#746=DIRECTION('',(-0.90630778703665,0.,0.422618261740699));
#747=DIRECTION('center_axis',(0.90630778703665,0.,-0.422618261740699));
#748=DIRECTION('ref_axis',(0.422618261740699,0.,0.90630778703665));
#749=DIRECTION('',(0.,-1.,0.));
#750=DIRECTION('',(-0.422618261740699,0.,-0.90630778703665));
#751=DIRECTION('center_axis',(-0.90630778703665,0.,0.422618261740699));
#752=DIRECTION('ref_axis',(-0.422618261740699,0.,-0.90630778703665));
#753=DIRECTION('center_axis',(-0.90630778703665,0.,0.422618261740699));
#754=DIRECTION('ref_axis',(-0.422618261740699,0.,-0.90630778703665));
#755=DIRECTION('center_axis',(-0.90630778703665,0.,0.422618261740699));
#756=DIRECTION('ref_axis',(-0.422618261740699,0.,-0.90630778703665));
#757=DIRECTION('center_axis',(-0.90630778703665,0.,0.422618261740699));
#758=DIRECTION('ref_axis',(-0.422618261740699,0.,-0.90630778703665));
#759=DIRECTION('center_axis',(-0.90630778703665,0.,0.422618261740699));
#760=DIRECTION('ref_axis',(-0.422618261740698,0.,-0.90630778703665));
#761=DIRECTION('center_axis',(0.884555498741319,0.,0.466434957573397));
#762=DIRECTION('ref_axis',(-0.466434957573397,0.,0.884555498741319));
#763=DIRECTION('',(0.,-1.,0.));
#764=DIRECTION('',(0.466434957573397,0.,-0.884555498741319));
#765=DIRECTION('',(0.,-1.,0.));
#766=DIRECTION('center_axis',(-0.884555498741319,0.,-0.466434957573397));
#767=DIRECTION('ref_axis',(-0.466434957573396,0.,0.884555498741319));
#768=DIRECTION('',(0.,-1.,0.));
#769=DIRECTION('center_axis',(-0.884555498741319,0.,-0.466434957573397));
#770=DIRECTION('ref_axis',(-0.466434957573396,0.,0.884555498741319));
#771=DIRECTION('center_axis',(0.000107762068788153,0.,0.999999994193668));
#772=DIRECTION('ref_axis',(-0.999999994193668,0.,0.000107762068788153));
#773=DIRECTION('',(0.,-1.,0.));
#774=DIRECTION('',(0.999999994193668,0.,-0.000107762068788153));
#775=DIRECTION('center_axis',(-0.914491203185675,0.,-0.404605782578569));
#776=DIRECTION('ref_axis',(0.404605782578569,0.,-0.914491203185675));
#777=DIRECTION('',(0.,-1.,0.));
#778=DIRECTION('',(-0.404605782578569,0.,0.914491203185675));
#779=DIRECTION('center_axis',(-0.90630778703665,0.,0.422618261740699));
#780=DIRECTION('ref_axis',(-0.422618261740699,0.,-0.90630778703665));
#781=DIRECTION('',(0.422618261740699,0.,0.90630778703665));
#782=DIRECTION('center_axis',(0.90630778703665,0.,-0.422618261740699));
#783=DIRECTION('ref_axis',(-0.422618261740699,0.,-0.90630778703665));
#784=DIRECTION('center_axis',(0.90630778703665,0.,-0.422618261740699));
#785=DIRECTION('ref_axis',(-0.422618261740702,0.,-0.906307787036649));
#786=DIRECTION('center_axis',(0.90630778703665,0.,-0.422618261740699));
#787=DIRECTION('ref_axis',(-0.422618261740702,0.,-0.906307787036649));
#788=DIRECTION('center_axis',(0.90630778703665,0.,-0.422618261740699));
#789=DIRECTION('ref_axis',(-0.422618261740702,0.,-0.906307787036649));
#790=DIRECTION('center_axis',(0.90630778703665,0.,-0.422618261740699));
#791=DIRECTION('ref_axis',(-0.422618261740702,0.,-0.906307787036649));
#792=DIRECTION('center_axis',(0.,1.,0.));
#793=DIRECTION('ref_axis',(-0.422618261740699,0.,-0.90630778703665));
#794=DIRECTION('center_axis',(-0.90630778703665,0.,0.422618261740699));
#795=DIRECTION('ref_axis',(-0.422618261740699,0.,-0.90630778703665));
#796=DIRECTION('',(-0.90630778703665,0.,0.422618261740699));
#797=DIRECTION('center_axis',(-0.90630778703665,0.,0.422618261740699));
#798=DIRECTION('ref_axis',(-0.422618261740699,0.,-0.90630778703665));
#799=DIRECTION('center_axis',(-0.90630778703665,0.,0.422618261740699));
#800=DIRECTION('ref_axis',(-0.422618261740699,0.,-0.90630778703665));
#801=DIRECTION('',(-0.90630778703665,0.,0.422618261740699));
#802=DIRECTION('center_axis',(-0.90630778703665,0.,0.422618261740699));
#803=DIRECTION('ref_axis',(-0.422618261740699,0.,-0.90630778703665));
#804=DIRECTION('',(-0.90630778703665,0.,0.422618261740699));
#805=DIRECTION('center_axis',(-0.90630778703665,0.,0.422618261740699));
#806=DIRECTION('ref_axis',(-0.422618261740699,0.,-0.90630778703665));
#807=DIRECTION('center_axis',(-0.90630778703665,0.,0.422618261740699));
#808=DIRECTION('ref_axis',(-0.422618261740699,0.,-0.90630778703665));
#809=DIRECTION('',(-0.90630778703665,0.,0.422618261740699));
#810=DIRECTION('center_axis',(-0.90630778703665,0.,0.422618261740699));
#811=DIRECTION('ref_axis',(-0.422618261740699,0.,-0.90630778703665));
#812=DIRECTION('center_axis',(-0.90630778703665,0.,0.422618261740699));
#813=DIRECTION('ref_axis',(-0.422618261740698,0.,-0.90630778703665));
#814=DIRECTION('',(-0.90630778703665,0.,0.422618261740698));
#815=DIRECTION('center_axis',(-0.90630778703665,0.,0.422618261740699));
#816=DIRECTION('ref_axis',(-0.422618261740698,0.,-0.90630778703665));
#817=DIRECTION('center_axis',(-0.90630778703665,0.,0.422618261740699));
#818=DIRECTION('ref_axis',(-0.422618261740699,0.,-0.90630778703665));
#819=DIRECTION('center_axis',(0.90630778703665,0.,-0.422618261740699));
#820=DIRECTION('ref_axis',(-0.422618261740699,0.,-0.90630778703665));
#821=DIRECTION('center_axis',(0.906307787036649,0.,-0.422618261740702));
#822=DIRECTION('ref_axis',(-0.422618261740702,0.,-0.906307787036649));
#823=DIRECTION('',(0.906307787036649,0.,-0.422618261740702));
#824=DIRECTION('center_axis',(-0.90630778703665,0.,0.422618261740699));
#825=DIRECTION('ref_axis',(-0.422618261740699,0.,-0.90630778703665));
#826=DIRECTION('center_axis',(0.90630778703665,0.,-0.422618261740699));
#827=DIRECTION('ref_axis',(-0.422618261740699,0.,-0.90630778703665));
#828=DIRECTION('center_axis',(0.906307787036649,0.,-0.422618261740702));
#829=DIRECTION('ref_axis',(-0.422618261740702,0.,-0.906307787036649));
#830=DIRECTION('',(0.906307787036649,0.,-0.422618261740702));
#831=DIRECTION('center_axis',(-0.90630778703665,0.,0.422618261740699));
#832=DIRECTION('ref_axis',(-0.422618261740699,0.,-0.90630778703665));
#833=DIRECTION('center_axis',(0.90630778703665,0.,-0.422618261740699));
#834=DIRECTION('ref_axis',(-0.422618261740699,0.,-0.90630778703665));
#835=DIRECTION('center_axis',(0.906307787036649,0.,-0.422618261740702));
#836=DIRECTION('ref_axis',(-0.422618261740702,0.,-0.906307787036649));
#837=DIRECTION('',(0.906307787036649,0.,-0.422618261740702));
#838=DIRECTION('center_axis',(-0.90630778703665,0.,0.422618261740699));
#839=DIRECTION('ref_axis',(-0.422618261740699,0.,-0.90630778703665));
#840=DIRECTION('center_axis',(0.90630778703665,0.,-0.422618261740699));
#841=DIRECTION('ref_axis',(-0.422618261740699,0.,-0.90630778703665));
#842=DIRECTION('center_axis',(0.906307787036649,0.,-0.422618261740702));
#843=DIRECTION('ref_axis',(-0.422618261740702,0.,-0.906307787036649));
#844=DIRECTION('',(0.906307787036649,0.,-0.422618261740702));
#845=DIRECTION('center_axis',(0.000107762068787765,0.,0.999999994193668));
#846=DIRECTION('ref_axis',(-0.999999994193668,0.,0.000107762068787765));
#847=DIRECTION('center_axis',(-0.000107762068787765,0.,-0.999999994193668));
#848=DIRECTION('ref_axis',(-0.999999994193668,0.,0.000107762068787764));
#849=DIRECTION('center_axis',(0.000107762068788375,0.,0.999999994193668));
#850=DIRECTION('ref_axis',(-0.999999994193668,0.,0.000107762068788375));
#851=DIRECTION('center_axis',(0.000107762068787765,0.,0.999999994193668));
#852=DIRECTION('ref_axis',(-0.999999994193668,0.,0.000107762068787765));
#853=DIRECTION('center_axis',(-0.000107762068787765,0.,-0.999999994193668));
#854=DIRECTION('ref_axis',(-0.999999994193668,0.,0.000107762068787764));
#855=DIRECTION('center_axis',(0.000107762068788375,0.,0.999999994193668));
#856=DIRECTION('ref_axis',(-0.999999994193668,0.,0.000107762068788375));
#857=CARTESIAN_POINT('',(0.,0.,0.));
#858=CARTESIAN_POINT('Origin',(6.4,-0.9,14.69));
#859=CARTESIAN_POINT('',(6.62496710426215,-0.9,14.3847251992169));
#860=CARTESIAN_POINT('Origin',(6.39996710556858,-0.9,14.3847494456824));
#861=CARTESIAN_POINT('',(6.62499945316571,-0.9,14.6849134169978));
#862=CARTESIAN_POINT('',(6.62499999869358,-0.9,14.6899757535345));
#863=CARTESIAN_POINT('Origin',(6.39999945447214,-0.9,14.6849376634633));
#864=CARTESIAN_POINT('Origin',(5.7,0.9,14.69));
#865=CARTESIAN_POINT('',(5.92496711239102,0.9,14.3848006326646));
#866=CARTESIAN_POINT('Origin',(5.69996711369744,0.9,14.3848248791301));
#867=CARTESIAN_POINT('',(5.92499946129458,0.9,14.6849888504455));
#868=CARTESIAN_POINT('',(5.92499999869358,0.9,14.6899757535345));
#869=CARTESIAN_POINT('Origin',(5.699999462601,0.9,14.685013096911));
#870=CARTESIAN_POINT('Origin',(6.4,0.9,14.69));
#871=CARTESIAN_POINT('',(6.62496710426215,0.9,14.3847251992169));
#872=CARTESIAN_POINT('Origin',(6.39996710556858,0.9,14.3847494456824));
#873=CARTESIAN_POINT('',(6.62499945316571,0.9,14.6849134169978));
#874=CARTESIAN_POINT('',(6.62499999869358,0.9,14.6899757535345));
#875=CARTESIAN_POINT('Origin',(6.39999945447214,0.9,14.6849376634633));
#876=CARTESIAN_POINT('Origin',(5.7,-0.9,14.69));
#877=CARTESIAN_POINT('',(5.92496711239102,-0.9,14.3848006326646));
#878=CARTESIAN_POINT('Origin',(5.69996711369744,-0.9,14.3848248791301));
#879=CARTESIAN_POINT('',(5.92499946129458,-0.9,14.6849888504455));
#880=CARTESIAN_POINT('',(5.92499999869358,-0.9,14.6899757535345));
#881=CARTESIAN_POINT('Origin',(5.699999462601,-0.9,14.685013096911));
#882=CARTESIAN_POINT('Origin',(6.06354275505229,1.4,14.5651622594697));
#883=CARTESIAN_POINT('',(6.79960734982558,1.4,14.6848946008896));
#884=CARTESIAN_POINT('',(6.79975627158576,1.4,14.3847063635745));
#885=CARTESIAN_POINT('',(6.79960734982558,1.4,14.6848946008896));
#886=CARTESIAN_POINT('',(5.45739002694346,1.4,14.3848510197389));
#887=CARTESIAN_POINT('',(6.79975627158576,1.4,14.3847063635745));
#888=CARTESIAN_POINT('',(5.29908878151213,1.4,14.6850562998757));
#889=CARTESIAN_POINT('',(6.08373844395095,1.4,13.1970328097269));
#890=CARTESIAN_POINT('',(5.29908878151213,1.4,14.6850562998757));
#891=CARTESIAN_POINT('Origin',(5.45739002694346,0.,14.3848510197389));
#892=CARTESIAN_POINT('',(6.79975627158576,-1.4,14.3847063635745));
#893=CARTESIAN_POINT('',(6.79975627158576,0.,14.3847063635745));
#894=CARTESIAN_POINT('',(5.45739002694346,-1.4,14.3848510197389));
#895=CARTESIAN_POINT('',(6.79975627158576,-1.4,14.3847063635745));
#896=CARTESIAN_POINT('',(5.45739002694346,0.,14.3848510197389));
#897=CARTESIAN_POINT('Origin',(5.29908878151213,0.,14.6850562998757));
#898=CARTESIAN_POINT('',(5.29908878151213,-1.4,14.6850562998757));
#899=CARTESIAN_POINT('',(6.08373844395095,-1.4,13.1970328097269));
#900=CARTESIAN_POINT('',(5.29908878151213,0.,14.6850562998757));
#901=CARTESIAN_POINT('Origin',(6.79960734982558,0.,14.6848946008896));
#902=CARTESIAN_POINT('',(6.79960734982558,-1.4,14.6848946008896));
#903=CARTESIAN_POINT('',(5.29908878151213,-1.4,14.6850562998757));
#904=CARTESIAN_POINT('',(6.79960734982558,0.,14.6848946008896));
#905=CARTESIAN_POINT('Origin',(6.79975627158576,0.,14.3847063635745));
#906=CARTESIAN_POINT('',(6.79960734982558,-1.4,14.6848946008896));
#907=CARTESIAN_POINT('Origin',(6.06354275505229,-1.4,14.5651622594697));
#908=CARTESIAN_POINT('Origin',(4.83924086554654,-1.4,11.9633004004632));
#909=CARTESIAN_POINT('',(4.02473276748089,-1.4,9.63331345710324));
#910=CARTESIAN_POINT('',(4.35100357081408,-1.4,9.48117088287659));
#911=CARTESIAN_POINT('',(4.02473276748089,-1.4,9.63331345710324));
#912=CARTESIAN_POINT('',(6.08373844395095,-1.4,13.1970328097269));
#913=CARTESIAN_POINT('',(4.35100357081408,-1.4,9.48117088287659));
#914=CARTESIAN_POINT('',(5.45739002694346,-1.4,14.3848510197389));
#915=CARTESIAN_POINT('',(6.08373844395095,-1.4,13.1970328097269));
#916=CARTESIAN_POINT('',(5.29923770327232,-1.4,14.3848680625606));
#917=CARTESIAN_POINT('',(6.79975627158576,-1.4,14.3847063635745));
#918=CARTESIAN_POINT('',(5.75746764061776,-1.4,13.3491753839535));
#919=CARTESIAN_POINT('',(5.29923770327232,-1.4,14.3848680625606));
#920=CARTESIAN_POINT('',(5.75746764061776,-1.4,13.3491753839535));
#921=CARTESIAN_POINT('Origin',(4.02473276748089,0.,9.63331345710324));
#922=CARTESIAN_POINT('',(4.35100357081408,1.4,9.48117088287659));
#923=CARTESIAN_POINT('',(4.35100357081408,0.,9.48117088287659));
#924=CARTESIAN_POINT('',(4.02473276748089,1.4,9.63331345710324));
#925=CARTESIAN_POINT('',(4.02473276748089,0.,9.63331345710324));
#926=CARTESIAN_POINT('',(4.02473276748089,1.4,9.63331345710324));
#927=CARTESIAN_POINT('Origin',(4.35100357081408,0.,9.48117088287659));
#928=CARTESIAN_POINT('',(6.08373844395095,1.4,13.1970328097269));
#929=CARTESIAN_POINT('',(6.08373844395095,0.,13.1970328097269));
#930=CARTESIAN_POINT('',(4.35100357081408,1.4,9.48117088287659));
#931=CARTESIAN_POINT('',(5.05677606792105,-0.85,10.9947048872278));
#932=CARTESIAN_POINT('Origin',(4.98493096342513,-0.85,10.8406325634316));
#933=CARTESIAN_POINT('',(5.17510918120844,5.51091059616308E-17,11.2484710675981));
#934=CARTESIAN_POINT('Origin',(4.98493096342513,0.,10.8406325634316));
#935=CARTESIAN_POINT('',(5.05677606792105,0.85,10.9947048872278));
#936=CARTESIAN_POINT('Origin',(4.98493096342513,0.85,10.8406325634316));
#937=CARTESIAN_POINT('',(5.41600159040064,2.0818995585505E-17,11.7650665062089));
#938=CARTESIAN_POINT('Origin',(5.34415648590473,0.,11.6109941824127));
#939=CARTESIAN_POINT('',(4.69755054544146,2.0818995585505E-17,10.2243432682466));
#940=CARTESIAN_POINT('Origin',(4.62570544094554,0.,10.0702709444504));
#941=CARTESIAN_POINT('Origin',(6.08373844395095,0.,13.1970328097269));
#942=CARTESIAN_POINT('',(5.45739002694346,1.4,14.3848510197389));
#943=CARTESIAN_POINT('',(5.45739002694346,0.,14.3848510197389));
#944=CARTESIAN_POINT('',(6.08373844395095,1.4,13.1970328097269));
#945=CARTESIAN_POINT('',(5.50739497453092,1.01638258584613,14.2900207531936));
#946=CARTESIAN_POINT('',(5.50739497453092,0.783617414153872,14.2900207531936));
#947=CARTESIAN_POINT('',(5.50739497453092,0.45,14.2900207531936));
#948=CARTESIAN_POINT('Origin',(5.69991755312997,0.9,13.924917531905));
#949=CARTESIAN_POINT('',(5.50739497453092,-0.783617414153872,14.2900207531936));
#950=CARTESIAN_POINT('',(5.50739497453092,-1.01638258584613,14.2900207531936));
#951=CARTESIAN_POINT('',(5.50739497453092,-0.45,14.2900207531936));
#952=CARTESIAN_POINT('Origin',(5.69991755312997,-0.9,13.924917531905));
#953=CARTESIAN_POINT('Origin',(5.45739002694346,0.,14.3848510197389));
#954=CARTESIAN_POINT('',(5.29923770327232,1.4,14.3848680625606));
#955=CARTESIAN_POINT('',(5.29923770327232,0.,14.3848680625606));
#956=CARTESIAN_POINT('',(6.79975627158576,1.4,14.3847063635745));
#957=CARTESIAN_POINT('Origin',(5.29923770327232,0.,14.3848680625606));
#958=CARTESIAN_POINT('',(5.75746764061776,1.4,13.3491753839535));
#959=CARTESIAN_POINT('',(5.75746764061776,0.,13.3491753839535));
#960=CARTESIAN_POINT('',(5.29923770327232,1.4,14.3848680625606));
#961=CARTESIAN_POINT('Origin',(5.75746764061776,0.,13.3491753839535));
#962=CARTESIAN_POINT('',(5.75746764061776,1.4,13.3491753839535));
#963=CARTESIAN_POINT('',(4.84883837787525,-5.51091059616308E-17,11.4006136418247));
#964=CARTESIAN_POINT('Origin',(4.65866016009194,0.,10.9927751376582));
#965=CARTESIAN_POINT('',(4.42199393351715,3.55147571752731E-17,10.4852427769177));
#966=CARTESIAN_POINT('Origin',(4.29943463761234,0.,10.2224135186771));
#967=CARTESIAN_POINT('',(4.78121945599674,-0.85,11.2556043958988));
#968=CARTESIAN_POINT('Origin',(4.65866016009193,-0.85,10.9927751376582));
#969=CARTESIAN_POINT('',(5.14044497847634,3.55147571752731E-17,12.02596601488));
#970=CARTESIAN_POINT('Origin',(5.01788568257153,0.,11.7631367566394));
#971=CARTESIAN_POINT('',(4.78121945599674,0.85,11.2556043958988));
#972=CARTESIAN_POINT('Origin',(4.65866016009193,0.85,10.9927751376582));
#973=CARTESIAN_POINT('Origin',(4.83924086554654,1.4,11.9633004004632));
#974=CARTESIAN_POINT('Origin',(4.65866016009194,-0.85,10.9927751376582));
#975=CARTESIAN_POINT('',(4.95708221134702,-0.85,11.0411928960193));
#976=CARTESIAN_POINT('',(4.73050526458786,-0.85,11.1468474614544));
#977=CARTESIAN_POINT('Origin',(4.8852371068511,-0.85,10.887120572223));
#978=CARTESIAN_POINT('Origin',(4.65866016009194,0.,10.9927751376582));
#979=CARTESIAN_POINT('',(4.84883837787525,5.51091059616308E-17,11.4006136418247));
#980=CARTESIAN_POINT('Origin',(4.65866016009194,0.85,10.9927751376582));
#981=CARTESIAN_POINT('',(4.95708221134702,0.85,11.0411928960193));
#982=CARTESIAN_POINT('',(4.73050526458786,0.85,11.1468474614544));
#983=CARTESIAN_POINT('Origin',(4.8852371068511,0.85,10.887120572223));
#984=CARTESIAN_POINT('Origin',(5.01788568257153,0.,11.7631367566394));
#985=CARTESIAN_POINT('',(5.31630773382661,2.0818995585505E-17,11.8115545150004));
#986=CARTESIAN_POINT('',(5.08973078706745,2.0818995585505E-17,11.9172090804356));
#987=CARTESIAN_POINT('Origin',(5.2444626293307,0.,11.6574821912042));
#988=CARTESIAN_POINT('Origin',(4.29943463761234,0.,10.2224135186771));
#989=CARTESIAN_POINT('',(4.59785668886743,2.0818995585505E-17,10.2708312770381));
#990=CARTESIAN_POINT('',(4.37127974210826,2.0818995585505E-17,10.3764858424733));
#991=CARTESIAN_POINT('Origin',(4.52601158437151,0.,10.1167589532419));
#992=CARTESIAN_POINT('Origin',(4.52601158437151,0.,10.1167589532419));
#993=CARTESIAN_POINT('',(4.64857088027631,3.55147571752731E-17,10.3795882114825));
#994=CARTESIAN_POINT('Origin',(4.52601158437151,0.,10.1167589532419));
#995=CARTESIAN_POINT('Origin',(4.29943463761234,0.,10.2224135186771));
#996=CARTESIAN_POINT('',(4.42199393351715,-3.55147571752731E-17,10.4852427769177));
#997=CARTESIAN_POINT('Origin',(4.8852371068511,-0.85,10.887120572223));
#998=CARTESIAN_POINT('',(5.0077964027559,-0.85,11.1499498304637));
#999=CARTESIAN_POINT('Origin',(4.8852371068511,-0.85,10.887120572223));
#1000=CARTESIAN_POINT('Origin',(4.65866016009194,-0.85,10.9927751376582));
#1001=CARTESIAN_POINT('',(4.78121945599674,-0.85,11.2556043958988));
#1002=CARTESIAN_POINT('Origin',(5.24446262933069,0.,11.6574821912042));
#1003=CARTESIAN_POINT('',(5.3670219252355,3.55147571752731E-17,11.9203114494448));
#1004=CARTESIAN_POINT('Origin',(5.24446262933069,0.,11.6574821912042));
#1005=CARTESIAN_POINT('Origin',(5.01788568257153,0.,11.7631367566394));
#1006=CARTESIAN_POINT('',(5.14044497847634,-3.55147571752731E-17,12.02596601488));
#1007=CARTESIAN_POINT('Origin',(4.8852371068511,0.85,10.887120572223));
#1008=CARTESIAN_POINT('',(5.0077964027559,0.85,11.1499498304637));
#1009=CARTESIAN_POINT('Origin',(4.8852371068511,0.85,10.887120572223));
#1010=CARTESIAN_POINT('Origin',(4.65866016009194,0.85,10.9927751376582));
#1011=CARTESIAN_POINT('',(4.78121945599674,0.85,11.2556043958988));
#1012=CARTESIAN_POINT('Origin',(5.69995689517248,-0.9,14.2900000023225));
#1013=CARTESIAN_POINT('Origin',(5.69995689517248,-0.9,14.2900000023225));
#1014=CARTESIAN_POINT('Origin',(5.7,-0.9,14.69));
#1015=CARTESIAN_POINT('Origin',(5.69995689517248,0.9,14.2900000023225));
#1016=CARTESIAN_POINT('Origin',(5.69995689517248,0.9,14.2900000023225));
#1017=CARTESIAN_POINT('Origin',(5.7,0.9,14.69));
#1018=UNCERTAINTY_MEASURE_WITH_UNIT(LENGTH_MEASURE(0.001),#1022,
'DISTANCE_ACCURACY_VALUE',
'Maximum model space distance between geometric entities at asserted c
onnectivities');
#1019=UNCERTAINTY_MEASURE_WITH_UNIT(LENGTH_MEASURE(0.001),#1022,
'DISTANCE_ACCURACY_VALUE',
'Maximum model space distance between geometric entities at asserted c
onnectivities');
#1020=(
GEOMETRIC_REPRESENTATION_CONTEXT(3)
GLOBAL_UNCERTAINTY_ASSIGNED_CONTEXT((#1018))
GLOBAL_UNIT_ASSIGNED_CONTEXT((#1022,#1024,#1025))
REPRESENTATION_CONTEXT('','3D')
);
#1021=(
GEOMETRIC_REPRESENTATION_CONTEXT(3)
GLOBAL_UNCERTAINTY_ASSIGNED_CONTEXT((#1019))
GLOBAL_UNIT_ASSIGNED_CONTEXT((#1022,#1024,#1025))
REPRESENTATION_CONTEXT('','3D')
);
#1022=(
LENGTH_UNIT()
NAMED_UNIT(*)
SI_UNIT(.CENTI.,.METRE.)
);
#1023=(
LENGTH_UNIT()
NAMED_UNIT(*)
SI_UNIT($,.METRE.)
);
#1024=(
NAMED_UNIT(*)
PLANE_ANGLE_UNIT()
SI_UNIT($,.RADIAN.)
);
#1025=(
NAMED_UNIT(*)
SI_UNIT($,.STERADIAN.)
SOLID_ANGLE_UNIT()
);
#1026=SHAPE_DEFINITION_REPRESENTATION(#1027,#1028);
#1027=PRODUCT_DEFINITION_SHAPE('',$,#1030);
#1028=SHAPE_REPRESENTATION('',(#614),#1020);
#1029=PRODUCT_DEFINITION_CONTEXT('part definition',#1034,'design');
#1030=PRODUCT_DEFINITION('2026-09-16-02-53-18-500','MotorMount_v3',#1031,
#1029);
#1031=PRODUCT_DEFINITION_FORMATION('',$,#1036);
#1032=PRODUCT_RELATED_PRODUCT_CATEGORY('MotorMount_v3','MotorMount_v3',
(#1036));
#1033=APPLICATION_PROTOCOL_DEFINITION('international standard',
'automotive_design',2009,#1034);
#1034=APPLICATION_CONTEXT(
'Core Data for Automotive Mechanical Design Process');
#1035=PRODUCT_CONTEXT('part definition',#1034,'mechanical');
#1036=PRODUCT('2026-09-16-02-53-18-500','MotorMount_v3',$,(#1035));
#1037=PRESENTATION_STYLE_ASSIGNMENT((#1038));
#1038=SURFACE_STYLE_USAGE(.BOTH.,#1039);
#1039=SURFACE_SIDE_STYLE('',(#1040));
#1040=SURFACE_STYLE_FILL_AREA(#1041);
#1041=FILL_AREA_STYLE('\X2\92FC\X0\ - \X2\30B530C630F3\X0\',(#1042));
#1042=FILL_AREA_STYLE_COLOUR('\X2\92FC\X0\ - \X2\30B530C630F3\X0\',#1043);
#1043=COLOUR_RGB('\X2\92FC\X0\ - \X2\30B530C630F3\X0\',0.627450980392157,
0.627450980392157,0.627450980392157);
ENDSEC;
END-ISO-10303-21;
