ISO-10303-21;
HEADER;
/* Generated by software containing ST-Developer
 * from STEP Tools, Inc. (www.steptools.com) 
 */

FILE_DESCRIPTION(
/* description */ (''),
/* implementation_level */ '2;1');

FILE_NAME(
/* name */ 'MotorClampStrap_v1.step',
/* time_stamp */ '2026-09-22T12:23:19+09:00',
/* author */ (''),
/* organization */ (''),
/* preprocessor_version */ 'ST-DEVELOPER v20.2',
/* originating_system */ 'Autodesk Translation Framework v15.15.0.0',
/* authorisation */ '');

FILE_SCHEMA (('AUTOMOTIVE_DESIGN { 1 0 10303 214 3 1 1 }'));
ENDSEC;

DATA;
#10=MECHANICAL_DESIGN_GEOMETRIC_PRESENTATION_REPRESENTATION('',(#13),#481);
#11=SHAPE_REPRESENTATION_RELATIONSHIP('SRR','None',#488,#12);
#12=ADVANCED_BREP_SHAPE_REPRESENTATION('',(#14),#480);
#13=STYLED_ITEM('',(#498),#14);
#14=MANIFOLD_SOLID_BREP('\X2\30DC30C730A3\X0\1',#289);
#15=FACE_BOUND('',#60,.T.);
#16=FACE_BOUND('',#61,.T.);
#17=FACE_BOUND('',#62,.T.);
#18=FACE_BOUND('',#63,.T.);
#19=FACE_BOUND('',#65,.T.);
#20=FACE_BOUND('',#66,.T.);
#21=FACE_BOUND('',#67,.T.);
#22=FACE_BOUND('',#68,.T.);
#23=FACE_BOUND('',#69,.T.);
#24=PLANE('',#315);
#25=PLANE('',#316);
#26=PLANE('',#317);
#27=PLANE('',#318);
#28=PLANE('',#319);
#29=PLANE('',#320);
#30=PLANE('',#321);
#31=PLANE('',#322);
#32=PLANE('',#323);
#33=PLANE('',#324);
#34=PLANE('',#325);
#35=FACE_OUTER_BOUND('',#50,.T.);
#36=FACE_OUTER_BOUND('',#51,.T.);
#37=FACE_OUTER_BOUND('',#52,.T.);
#38=FACE_OUTER_BOUND('',#53,.T.);
#39=FACE_OUTER_BOUND('',#54,.T.);
#40=FACE_OUTER_BOUND('',#55,.T.);
#41=FACE_OUTER_BOUND('',#56,.T.);
#42=FACE_OUTER_BOUND('',#57,.T.);
#43=FACE_OUTER_BOUND('',#58,.T.);
#44=FACE_OUTER_BOUND('',#59,.T.);
#45=FACE_OUTER_BOUND('',#64,.T.);
#46=FACE_OUTER_BOUND('',#70,.T.);
#47=FACE_OUTER_BOUND('',#71,.T.);
#48=FACE_OUTER_BOUND('',#72,.T.);
#49=FACE_OUTER_BOUND('',#73,.T.);
#50=EDGE_LOOP('',(#198,#199,#200,#201));
#51=EDGE_LOOP('',(#202,#203,#204,#205));
#52=EDGE_LOOP('',(#206,#207,#208,#209));
#53=EDGE_LOOP('',(#210,#211,#212,#213));
#54=EDGE_LOOP('',(#214,#215,#216,#217));
#55=EDGE_LOOP('',(#218,#219,#220,#221));
#56=EDGE_LOOP('',(#222,#223,#224,#225));
#57=EDGE_LOOP('',(#226,#227,#228,#229));
#58=EDGE_LOOP('',(#230,#231,#232,#233));
#59=EDGE_LOOP('',(#234,#235,#236,#237));
#60=EDGE_LOOP('',(#238));
#61=EDGE_LOOP('',(#239));
#62=EDGE_LOOP('',(#240));
#63=EDGE_LOOP('',(#241));
#64=EDGE_LOOP('',(#242,#243,#244,#245));
#65=EDGE_LOOP('',(#246));
#66=EDGE_LOOP('',(#247));
#67=EDGE_LOOP('',(#248));
#68=EDGE_LOOP('',(#249));
#69=EDGE_LOOP('',(#250,#251,#252,#253));
#70=EDGE_LOOP('',(#254,#255,#256,#257));
#71=EDGE_LOOP('',(#258,#259,#260,#261));
#72=EDGE_LOOP('',(#262,#263,#264,#265));
#73=EDGE_LOOP('',(#266,#267,#268,#269));
#74=LINE('',#407,#102);
#75=LINE('',#413,#103);
#76=LINE('',#419,#104);
#77=LINE('',#425,#105);
#78=LINE('',#430,#106);
#79=LINE('',#432,#107);
#80=LINE('',#434,#108);
#81=LINE('',#435,#109);
#82=LINE('',#438,#110);
#83=LINE('',#440,#111);
#84=LINE('',#441,#112);
#85=LINE('',#444,#113);
#86=LINE('',#445,#114);
#87=LINE('',#448,#115);
#88=LINE('',#449,#116);
#89=LINE('',#451,#117);
#90=LINE('',#455,#118);
#91=LINE('',#457,#119);
#92=LINE('',#459,#120);
#93=LINE('',#460,#121);
#94=LINE('',#464,#122);
#95=LINE('',#466,#123);
#96=LINE('',#468,#124);
#97=LINE('',#469,#125);
#98=LINE('',#471,#126);
#99=LINE('',#472,#127);
#100=LINE('',#474,#128);
#101=LINE('',#476,#129);
#102=VECTOR('',#332,0.17);
#103=VECTOR('',#339,0.17);
#104=VECTOR('',#346,0.17);
#105=VECTOR('',#353,0.17);
#106=VECTOR('',#358,1.);
#107=VECTOR('',#359,1.);
#108=VECTOR('',#360,1.);
#109=VECTOR('',#361,1.);
#110=VECTOR('',#364,1.);
#111=VECTOR('',#365,1.);
#112=VECTOR('',#366,1.);
#113=VECTOR('',#369,1.);
#114=VECTOR('',#370,1.);
#115=VECTOR('',#373,1.);
#116=VECTOR('',#374,1.);
#117=VECTOR('',#377,1.);
#118=VECTOR('',#380,1.);
#119=VECTOR('',#381,1.);
#120=VECTOR('',#382,1.);
#121=VECTOR('',#383,1.);
#122=VECTOR('',#386,1.);
#123=VECTOR('',#387,1.);
#124=VECTOR('',#388,1.);
#125=VECTOR('',#389,1.);
#126=VECTOR('',#392,1.);
#127=VECTOR('',#393,1.);
#128=VECTOR('',#396,1.);
#129=VECTOR('',#399,1.);
#130=CIRCLE('',#304,0.17);
#131=CIRCLE('',#305,0.17);
#132=CIRCLE('',#307,0.17);
#133=CIRCLE('',#308,0.17);
#134=CIRCLE('',#310,0.17);
#135=CIRCLE('',#311,0.17);
#136=CIRCLE('',#313,0.17);
#137=CIRCLE('',#314,0.17);
#138=VERTEX_POINT('',#404);
#139=VERTEX_POINT('',#406);
#140=VERTEX_POINT('',#410);
#141=VERTEX_POINT('',#412);
#142=VERTEX_POINT('',#416);
#143=VERTEX_POINT('',#418);
#144=VERTEX_POINT('',#422);
#145=VERTEX_POINT('',#424);
#146=VERTEX_POINT('',#428);
#147=VERTEX_POINT('',#429);
#148=VERTEX_POINT('',#431);
#149=VERTEX_POINT('',#433);
#150=VERTEX_POINT('',#437);
#151=VERTEX_POINT('',#439);
#152=VERTEX_POINT('',#443);
#153=VERTEX_POINT('',#447);
#154=VERTEX_POINT('',#453);
#155=VERTEX_POINT('',#454);
#156=VERTEX_POINT('',#456);
#157=VERTEX_POINT('',#458);
#158=VERTEX_POINT('',#462);
#159=VERTEX_POINT('',#463);
#160=VERTEX_POINT('',#465);
#161=VERTEX_POINT('',#467);
#162=EDGE_CURVE('',#138,#138,#130,.T.);
#163=EDGE_CURVE('',#138,#139,#74,.T.);
#164=EDGE_CURVE('',#139,#139,#131,.T.);
#165=EDGE_CURVE('',#140,#140,#132,.T.);
#166=EDGE_CURVE('',#140,#141,#75,.T.);
#167=EDGE_CURVE('',#141,#141,#133,.T.);
#168=EDGE_CURVE('',#142,#142,#134,.T.);
#169=EDGE_CURVE('',#142,#143,#76,.T.);
#170=EDGE_CURVE('',#143,#143,#135,.T.);
#171=EDGE_CURVE('',#144,#144,#136,.T.);
#172=EDGE_CURVE('',#144,#145,#77,.T.);
#173=EDGE_CURVE('',#145,#145,#137,.T.);
#174=EDGE_CURVE('',#146,#147,#78,.T.);
#175=EDGE_CURVE('',#147,#148,#79,.T.);
#176=EDGE_CURVE('',#148,#149,#80,.T.);
#177=EDGE_CURVE('',#149,#146,#81,.T.);
#178=EDGE_CURVE('',#150,#148,#82,.T.);
#179=EDGE_CURVE('',#151,#147,#83,.T.);
#180=EDGE_CURVE('',#150,#151,#84,.T.);
#181=EDGE_CURVE('',#152,#149,#85,.T.);
#182=EDGE_CURVE('',#152,#150,#86,.T.);
#183=EDGE_CURVE('',#153,#146,#87,.T.);
#184=EDGE_CURVE('',#153,#152,#88,.T.);
#185=EDGE_CURVE('',#151,#153,#89,.T.);
#186=EDGE_CURVE('',#154,#155,#90,.T.);
#187=EDGE_CURVE('',#155,#156,#91,.T.);
#188=EDGE_CURVE('',#156,#157,#92,.T.);
#189=EDGE_CURVE('',#157,#154,#93,.T.);
#190=EDGE_CURVE('',#158,#159,#94,.T.);
#191=EDGE_CURVE('',#159,#160,#95,.T.);
#192=EDGE_CURVE('',#160,#161,#96,.T.);
#193=EDGE_CURVE('',#161,#158,#97,.T.);
#194=EDGE_CURVE('',#157,#160,#98,.T.);
#195=EDGE_CURVE('',#154,#159,#99,.T.);
#196=EDGE_CURVE('',#156,#161,#100,.T.);
#197=EDGE_CURVE('',#155,#158,#101,.T.);
#198=ORIENTED_EDGE('',*,*,#162,.F.);
#199=ORIENTED_EDGE('',*,*,#163,.T.);
#200=ORIENTED_EDGE('',*,*,#164,.F.);
#201=ORIENTED_EDGE('',*,*,#163,.F.);
#202=ORIENTED_EDGE('',*,*,#165,.F.);
#203=ORIENTED_EDGE('',*,*,#166,.T.);
#204=ORIENTED_EDGE('',*,*,#167,.F.);
#205=ORIENTED_EDGE('',*,*,#166,.F.);
#206=ORIENTED_EDGE('',*,*,#168,.F.);
#207=ORIENTED_EDGE('',*,*,#169,.T.);
#208=ORIENTED_EDGE('',*,*,#170,.F.);
#209=ORIENTED_EDGE('',*,*,#169,.F.);
#210=ORIENTED_EDGE('',*,*,#171,.F.);
#211=ORIENTED_EDGE('',*,*,#172,.T.);
#212=ORIENTED_EDGE('',*,*,#173,.F.);
#213=ORIENTED_EDGE('',*,*,#172,.F.);
#214=ORIENTED_EDGE('',*,*,#174,.T.);
#215=ORIENTED_EDGE('',*,*,#175,.T.);
#216=ORIENTED_EDGE('',*,*,#176,.T.);
#217=ORIENTED_EDGE('',*,*,#177,.T.);
#218=ORIENTED_EDGE('',*,*,#178,.T.);
#219=ORIENTED_EDGE('',*,*,#175,.F.);
#220=ORIENTED_EDGE('',*,*,#179,.F.);
#221=ORIENTED_EDGE('',*,*,#180,.F.);
#222=ORIENTED_EDGE('',*,*,#181,.T.);
#223=ORIENTED_EDGE('',*,*,#176,.F.);
#224=ORIENTED_EDGE('',*,*,#178,.F.);
#225=ORIENTED_EDGE('',*,*,#182,.F.);
#226=ORIENTED_EDGE('',*,*,#183,.T.);
#227=ORIENTED_EDGE('',*,*,#177,.F.);
#228=ORIENTED_EDGE('',*,*,#181,.F.);
#229=ORIENTED_EDGE('',*,*,#184,.F.);
#230=ORIENTED_EDGE('',*,*,#179,.T.);
#231=ORIENTED_EDGE('',*,*,#174,.F.);
#232=ORIENTED_EDGE('',*,*,#183,.F.);
#233=ORIENTED_EDGE('',*,*,#185,.F.);
#234=ORIENTED_EDGE('',*,*,#186,.T.);
#235=ORIENTED_EDGE('',*,*,#187,.T.);
#236=ORIENTED_EDGE('',*,*,#188,.T.);
#237=ORIENTED_EDGE('',*,*,#189,.T.);
#238=ORIENTED_EDGE('',*,*,#162,.T.);
#239=ORIENTED_EDGE('',*,*,#165,.T.);
#240=ORIENTED_EDGE('',*,*,#168,.T.);
#241=ORIENTED_EDGE('',*,*,#171,.T.);
#242=ORIENTED_EDGE('',*,*,#190,.T.);
#243=ORIENTED_EDGE('',*,*,#191,.T.);
#244=ORIENTED_EDGE('',*,*,#192,.T.);
#245=ORIENTED_EDGE('',*,*,#193,.T.);
#246=ORIENTED_EDGE('',*,*,#164,.T.);
#247=ORIENTED_EDGE('',*,*,#167,.T.);
#248=ORIENTED_EDGE('',*,*,#170,.T.);
#249=ORIENTED_EDGE('',*,*,#173,.T.);
#250=ORIENTED_EDGE('',*,*,#180,.T.);
#251=ORIENTED_EDGE('',*,*,#185,.T.);
#252=ORIENTED_EDGE('',*,*,#184,.T.);
#253=ORIENTED_EDGE('',*,*,#182,.T.);
#254=ORIENTED_EDGE('',*,*,#194,.T.);
#255=ORIENTED_EDGE('',*,*,#191,.F.);
#256=ORIENTED_EDGE('',*,*,#195,.F.);
#257=ORIENTED_EDGE('',*,*,#189,.F.);
#258=ORIENTED_EDGE('',*,*,#196,.T.);
#259=ORIENTED_EDGE('',*,*,#192,.F.);
#260=ORIENTED_EDGE('',*,*,#194,.F.);
#261=ORIENTED_EDGE('',*,*,#188,.F.);
#262=ORIENTED_EDGE('',*,*,#197,.T.);
#263=ORIENTED_EDGE('',*,*,#193,.F.);
#264=ORIENTED_EDGE('',*,*,#196,.F.);
#265=ORIENTED_EDGE('',*,*,#187,.F.);
#266=ORIENTED_EDGE('',*,*,#195,.T.);
#267=ORIENTED_EDGE('',*,*,#190,.F.);
#268=ORIENTED_EDGE('',*,*,#197,.F.);
#269=ORIENTED_EDGE('',*,*,#186,.F.);
#270=CYLINDRICAL_SURFACE('',#303,0.17);
#271=CYLINDRICAL_SURFACE('',#306,0.17);
#272=CYLINDRICAL_SURFACE('',#309,0.17);
#273=CYLINDRICAL_SURFACE('',#312,0.17);
#274=ADVANCED_FACE('',(#35),#270,.F.);
#275=ADVANCED_FACE('',(#36),#271,.F.);
#276=ADVANCED_FACE('',(#37),#272,.F.);
#277=ADVANCED_FACE('',(#38),#273,.F.);
#278=ADVANCED_FACE('',(#39),#24,.F.);
#279=ADVANCED_FACE('',(#40),#25,.F.);
#280=ADVANCED_FACE('',(#41),#26,.F.);
#281=ADVANCED_FACE('',(#42),#27,.F.);
#282=ADVANCED_FACE('',(#43),#28,.F.);
#283=ADVANCED_FACE('',(#44,#15,#16,#17,#18),#29,.T.);
#284=ADVANCED_FACE('',(#45,#19,#20,#21,#22,#23),#30,.F.);
#285=ADVANCED_FACE('',(#46),#31,.F.);
#286=ADVANCED_FACE('',(#47),#32,.F.);
#287=ADVANCED_FACE('',(#48),#33,.F.);
#288=ADVANCED_FACE('',(#49),#34,.F.);
#289=CLOSED_SHELL('',(#274,#275,#276,#277,#278,#279,#280,#281,#282,#283,
#284,#285,#286,#287,#288));
#290=DERIVED_UNIT_ELEMENT(#292,1.);
#291=DERIVED_UNIT_ELEMENT(#483,-3.);
#292=(
MASS_UNIT()
NAMED_UNIT(*)
SI_UNIT(.KILO.,.GRAM.)
);
#293=DERIVED_UNIT((#290,#291));
#294=MEASURE_REPRESENTATION_ITEM('density measure',
POSITIVE_RATIO_MEASURE(7850.),#293);
#295=PROPERTY_DEFINITION_REPRESENTATION(#300,#297);
#296=PROPERTY_DEFINITION_REPRESENTATION(#301,#298);
#297=REPRESENTATION('material name',(#299),#480);
#298=REPRESENTATION('density',(#294),#480);
#299=DESCRIPTIVE_REPRESENTATION_ITEM('\X2\92FC\X0\','\X2\92FC\X0\');
#300=PROPERTY_DEFINITION('material property','material name',#490);
#301=PROPERTY_DEFINITION('material property','density of part',#490);
#302=AXIS2_PLACEMENT_3D('',#402,#326,#327);
#303=AXIS2_PLACEMENT_3D('',#403,#328,#329);
#304=AXIS2_PLACEMENT_3D('',#405,#330,#331);
#305=AXIS2_PLACEMENT_3D('',#408,#333,#334);
#306=AXIS2_PLACEMENT_3D('',#409,#335,#336);
#307=AXIS2_PLACEMENT_3D('',#411,#337,#338);
#308=AXIS2_PLACEMENT_3D('',#414,#340,#341);
#309=AXIS2_PLACEMENT_3D('',#415,#342,#343);
#310=AXIS2_PLACEMENT_3D('',#417,#344,#345);
#311=AXIS2_PLACEMENT_3D('',#420,#347,#348);
#312=AXIS2_PLACEMENT_3D('',#421,#349,#350);
#313=AXIS2_PLACEMENT_3D('',#423,#351,#352);
#314=AXIS2_PLACEMENT_3D('',#426,#354,#355);
#315=AXIS2_PLACEMENT_3D('',#427,#356,#357);
#316=AXIS2_PLACEMENT_3D('',#436,#362,#363);
#317=AXIS2_PLACEMENT_3D('',#442,#367,#368);
#318=AXIS2_PLACEMENT_3D('',#446,#371,#372);
#319=AXIS2_PLACEMENT_3D('',#450,#375,#376);
#320=AXIS2_PLACEMENT_3D('',#452,#378,#379);
#321=AXIS2_PLACEMENT_3D('',#461,#384,#385);
#322=AXIS2_PLACEMENT_3D('',#470,#390,#391);
#323=AXIS2_PLACEMENT_3D('',#473,#394,#395);
#324=AXIS2_PLACEMENT_3D('',#475,#397,#398);
#325=AXIS2_PLACEMENT_3D('',#477,#400,#401);
#326=DIRECTION('axis',(0.,0.,1.));
#327=DIRECTION('refdir',(1.,0.,0.));
#328=DIRECTION('center_axis',(-0.4226106279576,0.,-0.90631134668903));
#329=DIRECTION('ref_axis',(0.90631134668903,0.,-0.4226106279576));
#330=DIRECTION('center_axis',(-0.422610627957599,0.,-0.906311346689031));
#331=DIRECTION('ref_axis',(0.90631134668903,0.,-0.422610627957599));
#332=DIRECTION('',(-0.4226106279576,0.,-0.90631134668903));
#333=DIRECTION('center_axis',(0.422610627957599,0.,0.906311346689031));
#334=DIRECTION('ref_axis',(0.90631134668903,0.,-0.422610627957599));
#335=DIRECTION('center_axis',(-0.4226106279576,0.,-0.90631134668903));
#336=DIRECTION('ref_axis',(0.90631134668903,0.,-0.4226106279576));
#337=DIRECTION('center_axis',(-0.422610627957599,0.,-0.906311346689031));
#338=DIRECTION('ref_axis',(0.90631134668903,0.,-0.422610627957599));
#339=DIRECTION('',(-0.4226106279576,0.,-0.90631134668903));
#340=DIRECTION('center_axis',(0.422610627957599,0.,0.906311346689031));
#341=DIRECTION('ref_axis',(0.90631134668903,0.,-0.422610627957599));
#342=DIRECTION('center_axis',(-0.422610627957597,0.,-0.906311346689031));
#343=DIRECTION('ref_axis',(0.906311346689031,0.,-0.422610627957597));
#344=DIRECTION('center_axis',(-0.422610627957599,0.,-0.906311346689031));
#345=DIRECTION('ref_axis',(0.90631134668903,0.,-0.422610627957599));
#346=DIRECTION('',(-0.422610627957597,0.,-0.906311346689031));
#347=DIRECTION('center_axis',(0.422610627957599,0.,0.906311346689031));
#348=DIRECTION('ref_axis',(0.90631134668903,0.,-0.422610627957599));
#349=DIRECTION('center_axis',(-0.422610627957597,0.,-0.906311346689031));
#350=DIRECTION('ref_axis',(0.906311346689031,0.,-0.422610627957597));
#351=DIRECTION('center_axis',(-0.422610627957599,0.,-0.906311346689031));
#352=DIRECTION('ref_axis',(0.90631134668903,0.,-0.422610627957599));
#353=DIRECTION('',(-0.422610627957597,0.,-0.906311346689031));
#354=DIRECTION('center_axis',(0.422610627957599,0.,0.906311346689031));
#355=DIRECTION('ref_axis',(0.90631134668903,0.,-0.422610627957599));
#356=DIRECTION('center_axis',(0.422610627957599,0.,0.906311346689031));
#357=DIRECTION('ref_axis',(0.90631134668903,0.,-0.422610627957599));
#358=DIRECTION('',(0.,-1.,0.));
#359=DIRECTION('',(-0.906311346689031,0.,0.422610627957599));
#360=DIRECTION('',(0.,1.,0.));
#361=DIRECTION('',(0.906311346689031,0.,-0.422610627957599));
#362=DIRECTION('center_axis',(0.,1.,0.));
#363=DIRECTION('ref_axis',(0.422610627957599,0.,0.90631134668903));
#364=DIRECTION('',(-0.422610627957599,0.,-0.906311346689031));
#365=DIRECTION('',(-0.422610627957599,0.,-0.906311346689031));
#366=DIRECTION('',(0.906311346689031,0.,-0.422610627957599));
#367=DIRECTION('center_axis',(0.906311346689031,0.,-0.422610627957599));
#368=DIRECTION('ref_axis',(-0.422610627957599,0.,-0.90631134668903));
#369=DIRECTION('',(-0.422610627957599,0.,-0.906311346689031));
#370=DIRECTION('',(0.,-1.,0.));
#371=DIRECTION('center_axis',(0.,-1.,0.));
#372=DIRECTION('ref_axis',(-0.422610627957599,0.,-0.90631134668903));
#373=DIRECTION('',(-0.422610627957599,0.,-0.906311346689031));
#374=DIRECTION('',(-0.906311346689031,0.,0.422610627957599));
#375=DIRECTION('center_axis',(-0.906311346689031,0.,0.422610627957599));
#376=DIRECTION('ref_axis',(0.422610627957599,0.,0.90631134668903));
#377=DIRECTION('',(0.,1.,0.));
#378=DIRECTION('center_axis',(0.422610627957599,0.,0.906311346689031));
#379=DIRECTION('ref_axis',(0.90631134668903,0.,-0.422610627957599));
#380=DIRECTION('',(0.,1.,0.));
#381=DIRECTION('',(-0.906311346689031,0.,0.422610627957599));
#382=DIRECTION('',(0.,-1.,0.));
#383=DIRECTION('',(0.906311346689031,0.,-0.422610627957599));
#384=DIRECTION('center_axis',(0.422610627957599,0.,0.906311346689031));
#385=DIRECTION('ref_axis',(0.90631134668903,0.,-0.422610627957599));
#386=DIRECTION('',(0.,-1.,0.));
#387=DIRECTION('',(-0.906311346689031,0.,0.422610627957599));
#388=DIRECTION('',(0.,1.,0.));
#389=DIRECTION('',(0.906311346689031,0.,-0.422610627957599));
#390=DIRECTION('center_axis',(0.,1.,0.));
#391=DIRECTION('ref_axis',(0.422610627957599,0.,0.90631134668903));
#392=DIRECTION('',(-0.422610627957599,0.,-0.906311346689031));
#393=DIRECTION('',(-0.422610627957599,0.,-0.906311346689031));
#394=DIRECTION('center_axis',(0.906311346689031,0.,-0.422610627957599));
#395=DIRECTION('ref_axis',(-0.422610627957599,0.,-0.90631134668903));
#396=DIRECTION('',(-0.422610627957599,0.,-0.906311346689031));
#397=DIRECTION('center_axis',(0.,-1.,0.));
#398=DIRECTION('ref_axis',(-0.422610627957599,0.,-0.90631134668903));
#399=DIRECTION('',(-0.422610627957599,0.,-0.906311346689031));
#400=DIRECTION('center_axis',(-0.906311346689031,0.,0.422610627957599));
#401=DIRECTION('ref_axis',(0.422610627957599,0.,0.90631134668903));
#402=CARTESIAN_POINT('',(0.,0.,0.));
#403=CARTESIAN_POINT('Origin',(8.5976045,-1.65,10.7559295));
#404=CARTESIAN_POINT('',(8.5069231652565,-1.65,10.9637200087561));
#405=CARTESIAN_POINT('Origin',(8.66099609419364,-1.65,10.8918762020034));
#406=CARTESIAN_POINT('',(8.38013997686922,-1.65,10.6918266047494));
#407=CARTESIAN_POINT('',(8.44353157106287,-1.65,10.8277733067528));
#408=CARTESIAN_POINT('Origin',(8.53421290580636,-1.65,10.6199827979966));
#409=CARTESIAN_POINT('Origin',(8.5976045,1.65,10.7559295));
#410=CARTESIAN_POINT('',(8.5069231652565,1.65,10.9637200087561));
#411=CARTESIAN_POINT('Origin',(8.66099609419364,1.65,10.8918762020034));
#412=CARTESIAN_POINT('',(8.38013997686922,1.65,10.6918266047494));
#413=CARTESIAN_POINT('',(8.44353157106287,1.65,10.8277733067528));
#414=CARTESIAN_POINT('Origin',(8.53421290580636,1.65,10.6199827979966));
#415=CARTESIAN_POINT('Origin',(6.9662465,-1.65,11.5166275));
#416=CARTESIAN_POINT('',(6.8755651652565,-1.65,11.7244180087561));
#417=CARTESIAN_POINT('Origin',(7.02963809419364,-1.65,11.6525742020034));
#418=CARTESIAN_POINT('',(6.74878197686922,-1.65,11.4525246047494));
#419=CARTESIAN_POINT('',(6.81217357106287,-1.65,11.5884713067528));
#420=CARTESIAN_POINT('Origin',(6.90285490580636,-1.65,11.3806807979966));
#421=CARTESIAN_POINT('Origin',(6.9662465,1.65,11.5166275));
#422=CARTESIAN_POINT('',(6.8755651652565,1.65,11.7244180087561));
#423=CARTESIAN_POINT('Origin',(7.02963809419364,1.65,11.6525742020034));
#424=CARTESIAN_POINT('',(6.74878197686922,1.65,11.4525246047494));
#425=CARTESIAN_POINT('',(6.81217357106287,1.65,11.5884713067528));
#426=CARTESIAN_POINT('Origin',(6.90285490580636,1.65,11.3806807979966));
#427=CARTESIAN_POINT('Origin',(7.5940941748817,0.,10.9700881461324));
#428=CARTESIAN_POINT('',(8.50040552157073,0.6,10.5474775181748));
#429=CARTESIAN_POINT('',(8.50040552157073,-0.6,10.5474775181748));
#430=CARTESIAN_POINT('',(8.50040552157073,0.,10.5474775181748));
#431=CARTESIAN_POINT('',(6.68778282819267,-0.6,11.39269877409));
#432=CARTESIAN_POINT('',(7.5940941748817,-0.6,10.9700881461324));
#433=CARTESIAN_POINT('',(6.68778282819267,0.6,11.39269877409));
#434=CARTESIAN_POINT('',(6.68778282819267,0.,11.39269877409));
#435=CARTESIAN_POINT('',(7.5940941748817,0.6,10.9700881461324));
#436=CARTESIAN_POINT('Origin',(7.6109986,-0.6,11.0063406));
#437=CARTESIAN_POINT('',(6.72159155914423,-0.6,11.4652034260119));
#438=CARTESIAN_POINT('',(6.70468725331097,-0.6,11.4289512279576));
#439=CARTESIAN_POINT('',(8.53421425252229,-0.6,10.6199821700967));
#440=CARTESIAN_POINT('',(8.51730994668903,-0.6,10.5837299720424));
#441=CARTESIAN_POINT('',(7.62790290580636,-0.6,11.0425927979966));
#442=CARTESIAN_POINT('Origin',(6.70468725331097,0.,11.4289512279576));
#443=CARTESIAN_POINT('',(6.72159155914423,0.6,11.4652034260119));
#444=CARTESIAN_POINT('',(6.70468725331097,0.6,11.4289512279576));
#445=CARTESIAN_POINT('',(6.72159155911733,0.,11.4652034259542));
#446=CARTESIAN_POINT('Origin',(7.6109986,0.6,11.0063406));
#447=CARTESIAN_POINT('',(8.53421425252229,0.6,10.6199821700967));
#448=CARTESIAN_POINT('',(8.51730994668903,0.6,10.5837299720424));
#449=CARTESIAN_POINT('',(7.62790290580636,0.6,11.0425927979966));
#450=CARTESIAN_POINT('Origin',(8.51730994668903,0.,10.5837299720424));
#451=CARTESIAN_POINT('',(8.53421425249539,0.,10.619982170039));
#452=CARTESIAN_POINT('Origin',(7.75468609419364,0.,11.3144862020034));
#453=CARTESIAN_POINT('',(8.84225971022048,-1.9,10.8073534484542));
#454=CARTESIAN_POINT('',(8.84225971022048,1.9,10.8073534484542));
#455=CARTESIAN_POINT('',(8.84225971022048,0.,10.8073534484542));
#456=CARTESIAN_POINT('',(6.6671124781668,1.9,11.8216189555525));
#457=CARTESIAN_POINT('',(7.75468609419364,1.9,11.3144862020034));
#458=CARTESIAN_POINT('',(6.6671124781668,-1.9,11.8216189555525));
#459=CARTESIAN_POINT('',(6.6671124781668,0.,11.8216189555525));
#460=CARTESIAN_POINT('',(7.75468609419364,-1.9,11.3144862020034));
#461=CARTESIAN_POINT('Origin',(7.62790290580636,0.,11.0425927979966));
#462=CARTESIAN_POINT('',(8.7154765218332,1.9,10.5354600444475));
#463=CARTESIAN_POINT('',(8.7154765218332,-1.9,10.5354600444475));
#464=CARTESIAN_POINT('',(8.7154765218332,0.,10.5354600444475));
#465=CARTESIAN_POINT('',(6.54032928977952,-1.9,11.5497255515458));
#466=CARTESIAN_POINT('',(7.62790290580636,-1.9,11.0425927979966));
#467=CARTESIAN_POINT('',(6.54032928977952,1.9,11.5497255515458));
#468=CARTESIAN_POINT('',(6.54032928977952,0.,11.5497255515458));
#469=CARTESIAN_POINT('',(7.62790290580636,1.9,11.0425927979966));
#470=CARTESIAN_POINT('Origin',(7.6912945,-1.9,11.1785395));
#471=CARTESIAN_POINT('',(6.60372088397316,-1.9,11.6856722535491));
#472=CARTESIAN_POINT('',(8.77886811602684,-1.9,10.6714067464509));
#473=CARTESIAN_POINT('Origin',(6.60372088397316,0.,11.6856722535491));
#474=CARTESIAN_POINT('',(6.60372088397316,1.9,11.6856722535491));
#475=CARTESIAN_POINT('Origin',(7.6912945,1.9,11.1785395));
#476=CARTESIAN_POINT('',(8.77886811602684,1.9,10.6714067464509));
#477=CARTESIAN_POINT('Origin',(8.77886811602684,0.,10.6714067464509));
#478=UNCERTAINTY_MEASURE_WITH_UNIT(LENGTH_MEASURE(0.001),#482,
'DISTANCE_ACCURACY_VALUE',
'Maximum model space distance between geometric entities at asserted c
onnectivities');
#479=UNCERTAINTY_MEASURE_WITH_UNIT(LENGTH_MEASURE(0.001),#482,
'DISTANCE_ACCURACY_VALUE',
'Maximum model space distance between geometric entities at asserted c
onnectivities');
#480=(
GEOMETRIC_REPRESENTATION_CONTEXT(3)
GLOBAL_UNCERTAINTY_ASSIGNED_CONTEXT((#478))
GLOBAL_UNIT_ASSIGNED_CONTEXT((#482,#484,#485))
REPRESENTATION_CONTEXT('','3D')
);
#481=(
GEOMETRIC_REPRESENTATION_CONTEXT(3)
GLOBAL_UNCERTAINTY_ASSIGNED_CONTEXT((#479))
GLOBAL_UNIT_ASSIGNED_CONTEXT((#482,#484,#485))
REPRESENTATION_CONTEXT('','3D')
);
#482=(
LENGTH_UNIT()
NAMED_UNIT(*)
SI_UNIT(.CENTI.,.METRE.)
);
#483=(
LENGTH_UNIT()
NAMED_UNIT(*)
SI_UNIT($,.METRE.)
);
#484=(
NAMED_UNIT(*)
PLANE_ANGLE_UNIT()
SI_UNIT($,.RADIAN.)
);
#485=(
NAMED_UNIT(*)
SI_UNIT($,.STERADIAN.)
SOLID_ANGLE_UNIT()
);
#486=SHAPE_DEFINITION_REPRESENTATION(#487,#488);
#487=PRODUCT_DEFINITION_SHAPE('',$,#490);
#488=SHAPE_REPRESENTATION('',(#302),#480);
#489=PRODUCT_DEFINITION_CONTEXT('part definition',#494,'design');
#490=PRODUCT_DEFINITION('2026-09-22-12-23-19-083','MotorClampStrap_v1',
#491,#489);
#491=PRODUCT_DEFINITION_FORMATION('',$,#496);
#492=PRODUCT_RELATED_PRODUCT_CATEGORY('MotorClampStrap_v1',
'MotorClampStrap_v1',(#496));
#493=APPLICATION_PROTOCOL_DEFINITION('international standard',
'automotive_design',2009,#494);
#494=APPLICATION_CONTEXT(
'Core Data for Automotive Mechanical Design Process');
#495=PRODUCT_CONTEXT('part definition',#494,'mechanical');
#496=PRODUCT('2026-09-22-12-23-19-083','MotorClampStrap_v1',$,(#495));
#497=PRESENTATION_STYLE_ASSIGNMENT((#499));
#498=PRESENTATION_STYLE_ASSIGNMENT((#500));
#499=SURFACE_STYLE_USAGE(.BOTH.,#501);
#500=SURFACE_STYLE_USAGE(.BOTH.,#502);
#501=SURFACE_SIDE_STYLE('',(#503));
#502=SURFACE_SIDE_STYLE('',(#504));
#503=SURFACE_STYLE_FILL_AREA(#505);
#504=SURFACE_STYLE_FILL_AREA(#506);
#505=FILL_AREA_STYLE('\X2\92FC\X0\ - \X2\30B530C630F3\X0\',(#507));
#506=FILL_AREA_STYLE('Opaque(160,160,160)',(#508));
#507=FILL_AREA_STYLE_COLOUR('\X2\92FC\X0\ - \X2\30B530C630F3\X0\',#509);
#508=FILL_AREA_STYLE_COLOUR('Opaque(160,160,160)',#510);
#509=COLOUR_RGB('\X2\92FC\X0\ - \X2\30B530C630F3\X0\',0.627450980392157,
0.627450980392157,0.627450980392157);
#510=COLOUR_RGB('Opaque(160,160,160)',0.627450980392157,0.627450980392157,
0.627450980392157);
ENDSEC;
END-ISO-10303-21;
