ISO-10303-21;
HEADER;
/* Generated by software containing ST-Developer
 * from STEP Tools, Inc. (www.steptools.com) 
 */

FILE_DESCRIPTION(
/* description */ (''),
/* implementation_level */ '2;1');

FILE_NAME(
/* name */ 'MotorMount_v9.step',
/* time_stamp */ '2026-09-22T12:23:18+09:00',
/* author */ (''),
/* organization */ (''),
/* preprocessor_version */ 'ST-DEVELOPER v20.2',
/* originating_system */ 'Autodesk Translation Framework v15.15.0.0',
/* authorisation */ '');

FILE_SCHEMA (('AUTOMOTIVE_DESIGN { 1 0 10303 214 3 1 1 }'));
ENDSEC;

DATA;
#10=MECHANICAL_DESIGN_GEOMETRIC_PRESENTATION_REPRESENTATION('',(#13),#1623);
#11=SHAPE_REPRESENTATION_RELATIONSHIP('SRR','None',#1630,#12);
#12=ADVANCED_BREP_SHAPE_REPRESENTATION('',(#14),#1622);
#13=STYLED_ITEM('',(#1640),#14);
#14=MANIFOLD_SOLID_BREP('\X2\30DC30C730A3\X0\1',#983);
#15=FACE_BOUND('',#141,.T.);
#16=FACE_BOUND('',#142,.T.);
#17=FACE_BOUND('',#143,.T.);
#18=FACE_BOUND('',#144,.T.);
#19=FACE_BOUND('',#145,.T.);
#20=FACE_BOUND('',#150,.T.);
#21=FACE_BOUND('',#151,.T.);
#22=FACE_BOUND('',#152,.T.);
#23=FACE_BOUND('',#153,.T.);
#24=FACE_BOUND('',#154,.T.);
#25=FACE_BOUND('',#160,.T.);
#26=FACE_BOUND('',#161,.T.);
#27=FACE_BOUND('',#162,.T.);
#28=FACE_BOUND('',#163,.T.);
#29=FACE_BOUND('',#167,.T.);
#30=FACE_BOUND('',#168,.T.);
#31=FACE_BOUND('',#169,.T.);
#32=FACE_BOUND('',#170,.T.);
#33=PLANE('',#1000);
#34=PLANE('',#1001);
#35=PLANE('',#1007);
#36=PLANE('',#1010);
#37=PLANE('',#1013);
#38=PLANE('',#1017);
#39=PLANE('',#1018);
#40=PLANE('',#1019);
#41=PLANE('',#1023);
#42=PLANE('',#1024);
#43=PLANE('',#1052);
#44=PLANE('',#1053);
#45=PLANE('',#1055);
#46=PLANE('',#1056);
#47=PLANE('',#1057);
#48=PLANE('',#1060);
#49=PLANE('',#1061);
#50=PLANE('',#1062);
#51=PLANE('',#1063);
#52=PLANE('',#1064);
#53=PLANE('',#1065);
#54=PLANE('',#1066);
#55=PLANE('',#1067);
#56=PLANE('',#1068);
#57=PLANE('',#1069);
#58=PLANE('',#1070);
#59=PLANE('',#1071);
#60=PLANE('',#1072);
#61=PLANE('',#1073);
#62=PLANE('',#1074);
#63=PLANE('',#1075);
#64=PLANE('',#1076);
#65=FACE_OUTER_BOUND('',#111,.T.);
#66=FACE_OUTER_BOUND('',#112,.T.);
#67=FACE_OUTER_BOUND('',#113,.T.);
#68=FACE_OUTER_BOUND('',#114,.T.);
#69=FACE_OUTER_BOUND('',#115,.T.);
#70=FACE_OUTER_BOUND('',#116,.T.);
#71=FACE_OUTER_BOUND('',#117,.T.);
#72=FACE_OUTER_BOUND('',#118,.T.);
#73=FACE_OUTER_BOUND('',#119,.T.);
#74=FACE_OUTER_BOUND('',#120,.T.);
#75=FACE_OUTER_BOUND('',#121,.T.);
#76=FACE_OUTER_BOUND('',#122,.T.);
#77=FACE_OUTER_BOUND('',#123,.T.);
#78=FACE_OUTER_BOUND('',#124,.T.);
#79=FACE_OUTER_BOUND('',#125,.T.);
#80=FACE_OUTER_BOUND('',#126,.T.);
#81=FACE_OUTER_BOUND('',#127,.T.);
#82=FACE_OUTER_BOUND('',#128,.T.);
#83=FACE_OUTER_BOUND('',#129,.T.);
#84=FACE_OUTER_BOUND('',#130,.T.);
#85=FACE_OUTER_BOUND('',#131,.T.);
#86=FACE_OUTER_BOUND('',#132,.T.);
#87=FACE_OUTER_BOUND('',#133,.T.);
#88=FACE_OUTER_BOUND('',#134,.T.);
#89=FACE_OUTER_BOUND('',#135,.T.);
#90=FACE_OUTER_BOUND('',#136,.T.);
#91=FACE_OUTER_BOUND('',#137,.T.);
#92=FACE_OUTER_BOUND('',#138,.T.);
#93=FACE_OUTER_BOUND('',#139,.T.);
#94=FACE_OUTER_BOUND('',#140,.T.);
#95=FACE_OUTER_BOUND('',#146,.T.);
#96=FACE_OUTER_BOUND('',#147,.T.);
#97=FACE_OUTER_BOUND('',#148,.T.);
#98=FACE_OUTER_BOUND('',#149,.T.);
#99=FACE_OUTER_BOUND('',#155,.T.);
#100=FACE_OUTER_BOUND('',#156,.T.);
#101=FACE_OUTER_BOUND('',#157,.T.);
#102=FACE_OUTER_BOUND('',#158,.T.);
#103=FACE_OUTER_BOUND('',#159,.T.);
#104=FACE_OUTER_BOUND('',#164,.T.);
#105=FACE_OUTER_BOUND('',#165,.T.);
#106=FACE_OUTER_BOUND('',#166,.T.);
#107=FACE_OUTER_BOUND('',#171,.T.);
#108=FACE_OUTER_BOUND('',#172,.T.);
#109=FACE_OUTER_BOUND('',#173,.T.);
#110=FACE_OUTER_BOUND('',#174,.T.);
#111=EDGE_LOOP('',(#647,#648,#649,#650));
#112=EDGE_LOOP('',(#651,#652));
#113=EDGE_LOOP('',(#653,#654,#655,#656,#657,#658,#659,#660,#661,#662,#663,
#664,#665,#666,#667,#668,#669,#670,#671,#672,#673,#674));
#114=EDGE_LOOP('',(#675,#676));
#115=EDGE_LOOP('',(#677,#678,#679,#680));
#116=EDGE_LOOP('',(#681,#682,#683,#684,#685,#686,#687,#688,#689,#690,#691,
#692,#693,#694,#695,#696,#697,#698,#699));
#117=EDGE_LOOP('',(#700,#701));
#118=EDGE_LOOP('',(#702,#703,#704,#705,#706,#707,#708,#709));
#119=EDGE_LOOP('',(#710));
#120=EDGE_LOOP('',(#711,#712,#713,#714,#715,#716,#717,#718,#719));
#121=EDGE_LOOP('',(#720,#721));
#122=EDGE_LOOP('',(#722,#723,#724,#725,#726,#727,#728,#729));
#123=EDGE_LOOP('',(#730));
#124=EDGE_LOOP('',(#731,#732,#733,#734,#735,#736,#737,#738,#739));
#125=EDGE_LOOP('',(#740,#741,#742,#743));
#126=EDGE_LOOP('',(#744,#745,#746,#747));
#127=EDGE_LOOP('',(#748,#749,#750,#751));
#128=EDGE_LOOP('',(#752,#753,#754,#755));
#129=EDGE_LOOP('',(#756,#757,#758,#759));
#130=EDGE_LOOP('',(#760,#761,#762,#763));
#131=EDGE_LOOP('',(#764,#765,#766,#767));
#132=EDGE_LOOP('',(#768,#769,#770,#771));
#133=EDGE_LOOP('',(#772,#773,#774,#775));
#134=EDGE_LOOP('',(#776,#777,#778,#779));
#135=EDGE_LOOP('',(#780,#781,#782,#783,#784,#785));
#136=EDGE_LOOP('',(#786,#787,#788,#789));
#137=EDGE_LOOP('',(#790,#791,#792,#793));
#138=EDGE_LOOP('',(#794,#795,#796,#797));
#139=EDGE_LOOP('',(#798,#799,#800,#801,#802,#803,#804,#805));
#140=EDGE_LOOP('',(#806));
#141=EDGE_LOOP('',(#807));
#142=EDGE_LOOP('',(#808));
#143=EDGE_LOOP('',(#809));
#144=EDGE_LOOP('',(#810));
#145=EDGE_LOOP('',(#811));
#146=EDGE_LOOP('',(#812,#813,#814,#815,#816,#817,#818));
#147=EDGE_LOOP('',(#819,#820,#821,#822,#823,#824,#825));
#148=EDGE_LOOP('',(#826,#827,#828,#829));
#149=EDGE_LOOP('',(#830,#831,#832,#833,#834,#835,#836,#837));
#150=EDGE_LOOP('',(#838));
#151=EDGE_LOOP('',(#839));
#152=EDGE_LOOP('',(#840));
#153=EDGE_LOOP('',(#841));
#154=EDGE_LOOP('',(#842));
#155=EDGE_LOOP('',(#843,#844,#845,#846,#847,#848));
#156=EDGE_LOOP('',(#849,#850,#851,#852));
#157=EDGE_LOOP('',(#853,#854,#855,#856,#857,#858));
#158=EDGE_LOOP('',(#859,#860,#861,#862));
#159=EDGE_LOOP('',(#863,#864,#865,#866,#867,#868,#869,#870,#871,#872,#873,
#874));
#160=EDGE_LOOP('',(#875));
#161=EDGE_LOOP('',(#876));
#162=EDGE_LOOP('',(#877));
#163=EDGE_LOOP('',(#878));
#164=EDGE_LOOP('',(#879,#880,#881,#882));
#165=EDGE_LOOP('',(#883,#884,#885,#886));
#166=EDGE_LOOP('',(#887,#888,#889,#890));
#167=EDGE_LOOP('',(#891));
#168=EDGE_LOOP('',(#892));
#169=EDGE_LOOP('',(#893));
#170=EDGE_LOOP('',(#894));
#171=EDGE_LOOP('',(#895,#896,#897,#898));
#172=EDGE_LOOP('',(#899,#900,#901,#902));
#173=EDGE_LOOP('',(#903,#904,#905,#906));
#174=EDGE_LOOP('',(#907,#908,#909,#910,#911,#912,#913,#914,#915,#916,#917,
#918,#919,#920,#921,#922));
#175=CIRCLE('',#998,0.23);
#176=CIRCLE('',#999,0.23);
#177=CIRCLE('',#1002,0.23);
#178=CIRCLE('',#1003,0.23);
#179=CIRCLE('',#1004,0.23);
#180=CIRCLE('',#1005,0.23);
#181=CIRCLE('',#1006,0.23);
#182=CIRCLE('',#1008,0.23);
#183=CIRCLE('',#1011,1.27);
#184=CIRCLE('',#1012,1.27);
#185=CIRCLE('',#1014,0.23);
#186=CIRCLE('',#1016,0.23);
#187=CIRCLE('',#1020,0.23);
#188=CIRCLE('',#1022,0.23);
#189=CIRCLE('',#1026,0.225);
#190=CIRCLE('',#1027,0.225);
#191=CIRCLE('',#1029,0.225);
#192=CIRCLE('',#1030,0.225);
#193=CIRCLE('',#1032,0.225);
#194=CIRCLE('',#1033,0.225);
#195=CIRCLE('',#1035,0.225);
#196=CIRCLE('',#1036,0.225);
#197=CIRCLE('',#1038,0.17);
#198=CIRCLE('',#1039,0.17);
#199=CIRCLE('',#1041,0.17);
#200=CIRCLE('',#1042,0.17);
#201=CIRCLE('',#1044,0.17);
#202=CIRCLE('',#1045,0.17);
#203=CIRCLE('',#1047,0.17);
#204=CIRCLE('',#1048,0.17);
#205=CIRCLE('',#1050,0.35);
#206=CIRCLE('',#1051,0.35);
#207=CIRCLE('',#1054,1.27);
#208=CIRCLE('',#1059,1.27);
#209=LINE('',#1347,#313);
#210=LINE('',#1351,#314);
#211=LINE('',#1354,#315);
#212=LINE('',#1357,#316);
#213=LINE('',#1359,#317);
#214=LINE('',#1361,#318);
#215=LINE('',#1363,#319);
#216=LINE('',#1365,#320);
#217=LINE('',#1369,#321);
#218=LINE('',#1371,#322);
#219=LINE('',#1373,#323);
#220=LINE('',#1375,#324);
#221=LINE('',#1381,#325);
#222=LINE('',#1383,#326);
#223=LINE('',#1385,#327);
#224=LINE('',#1391,#328);
#225=LINE('',#1393,#329);
#226=LINE('',#1395,#330);
#227=LINE('',#1396,#331);
#228=LINE('',#1400,#332);
#229=LINE('',#1403,#333);
#230=LINE('',#1404,#334);
#231=LINE('',#1407,#335);
#232=LINE('',#1409,#336);
#233=LINE('',#1410,#337);
#234=LINE('',#1412,#338);
#235=LINE('',#1414,#339);
#236=LINE('',#1420,#340);
#237=LINE('',#1421,#341);
#238=LINE('',#1425,#342);
#239=LINE('',#1428,#343);
#240=LINE('',#1429,#344);
#241=LINE('',#1431,#345);
#242=LINE('',#1436,#346);
#243=LINE('',#1438,#347);
#244=LINE('',#1440,#348);
#245=LINE('',#1441,#349);
#246=LINE('',#1445,#350);
#247=LINE('',#1448,#351);
#248=LINE('',#1449,#352);
#249=LINE('',#1451,#353);
#250=LINE('',#1456,#354);
#251=LINE('',#1458,#355);
#252=LINE('',#1460,#356);
#253=LINE('',#1461,#357);
#254=LINE('',#1466,#358);
#255=LINE('',#1472,#359);
#256=LINE('',#1478,#360);
#257=LINE('',#1484,#361);
#258=LINE('',#1490,#362);
#259=LINE('',#1496,#363);
#260=LINE('',#1502,#364);
#261=LINE('',#1508,#365);
#262=LINE('',#1514,#366);
#263=LINE('',#1518,#367);
#264=LINE('',#1520,#368);
#265=LINE('',#1521,#369);
#266=LINE('',#1526,#370);
#267=LINE('',#1527,#371);
#268=LINE('',#1528,#372);
#269=LINE('',#1531,#373);
#270=LINE('',#1532,#374);
#271=LINE('',#1537,#375);
#272=LINE('',#1541,#376);
#273=LINE('',#1543,#377);
#274=LINE('',#1545,#378);
#275=LINE('',#1547,#379);
#276=LINE('',#1548,#380);
#277=LINE('',#1552,#381);
#278=LINE('',#1554,#382);
#279=LINE('',#1555,#383);
#280=LINE('',#1557,#384);
#281=LINE('',#1558,#385);
#282=LINE('',#1560,#386);
#283=LINE('',#1562,#387);
#284=LINE('',#1563,#388);
#285=LINE('',#1566,#389);
#286=LINE('',#1568,#390);
#287=LINE('',#1569,#391);
#288=LINE('',#1572,#392);
#289=LINE('',#1574,#393);
#290=LINE('',#1575,#394);
#291=LINE('',#1578,#395);
#292=LINE('',#1579,#396);
#293=LINE('',#1582,#397);
#294=LINE('',#1583,#398);
#295=LINE('',#1585,#399);
#296=LINE('',#1587,#400);
#297=LINE('',#1589,#401);
#298=LINE('',#1591,#402);
#299=LINE('',#1593,#403);
#300=LINE('',#1595,#404);
#301=LINE('',#1596,#405);
#302=LINE('',#1599,#406);
#303=LINE('',#1600,#407);
#304=LINE('',#1602,#408);
#305=LINE('',#1606,#409);
#306=LINE('',#1608,#410);
#307=LINE('',#1610,#411);
#308=LINE('',#1611,#412);
#309=LINE('',#1613,#413);
#310=LINE('',#1614,#414);
#311=LINE('',#1616,#415);
#312=LINE('',#1618,#416);
#313=VECTOR('',#1081,1.);
#314=VECTOR('',#1084,1.);
#315=VECTOR('',#1089,1.);
#316=VECTOR('',#1092,1.);
#317=VECTOR('',#1093,1.);
#318=VECTOR('',#1094,1.);
#319=VECTOR('',#1095,1.);
#320=VECTOR('',#1096,1.);
#321=VECTOR('',#1099,1.);
#322=VECTOR('',#1100,1.);
#323=VECTOR('',#1101,1.);
#324=VECTOR('',#1102,1.);
#325=VECTOR('',#1107,1.);
#326=VECTOR('',#1108,1.);
#327=VECTOR('',#1109,1.);
#328=VECTOR('',#1114,1.);
#329=VECTOR('',#1115,1.);
#330=VECTOR('',#1116,1.);
#331=VECTOR('',#1117,1.);
#332=VECTOR('',#1120,1.);
#333=VECTOR('',#1125,1.);
#334=VECTOR('',#1126,1.);
#335=VECTOR('',#1129,1.);
#336=VECTOR('',#1130,1.);
#337=VECTOR('',#1131,1.);
#338=VECTOR('',#1132,1.);
#339=VECTOR('',#1133,1.);
#340=VECTOR('',#1138,1.);
#341=VECTOR('',#1139,1.);
#342=VECTOR('',#1142,1.);
#343=VECTOR('',#1147,1.);
#344=VECTOR('',#1148,1.);
#345=VECTOR('',#1149,0.23);
#346=VECTOR('',#1156,1.);
#347=VECTOR('',#1157,1.);
#348=VECTOR('',#1158,1.);
#349=VECTOR('',#1159,1.);
#350=VECTOR('',#1162,1.);
#351=VECTOR('',#1167,1.);
#352=VECTOR('',#1168,1.);
#353=VECTOR('',#1169,0.23);
#354=VECTOR('',#1176,1.);
#355=VECTOR('',#1177,1.);
#356=VECTOR('',#1178,1.);
#357=VECTOR('',#1179,1.);
#358=VECTOR('',#1184,0.225);
#359=VECTOR('',#1191,0.225);
#360=VECTOR('',#1198,0.225);
#361=VECTOR('',#1205,0.225);
#362=VECTOR('',#1212,0.17);
#363=VECTOR('',#1219,0.17);
#364=VECTOR('',#1226,0.17);
#365=VECTOR('',#1233,0.17);
#366=VECTOR('',#1240,0.35);
#367=VECTOR('',#1245,1.);
#368=VECTOR('',#1246,1.);
#369=VECTOR('',#1247,1.);
#370=VECTOR('',#1252,1.);
#371=VECTOR('',#1253,1.);
#372=VECTOR('',#1254,1.);
#373=VECTOR('',#1259,1.);
#374=VECTOR('',#1260,1.);
#375=VECTOR('',#1267,1.27);
#376=VECTOR('',#1272,1.);
#377=VECTOR('',#1273,1.);
#378=VECTOR('',#1274,1.);
#379=VECTOR('',#1275,1.);
#380=VECTOR('',#1276,1.);
#381=VECTOR('',#1279,1.);
#382=VECTOR('',#1280,1.);
#383=VECTOR('',#1281,1.);
#384=VECTOR('',#1282,1.);
#385=VECTOR('',#1283,1.);
#386=VECTOR('',#1286,1.);
#387=VECTOR('',#1289,1.);
#388=VECTOR('',#1290,1.);
#389=VECTOR('',#1293,1.);
#390=VECTOR('',#1294,1.);
#391=VECTOR('',#1295,1.);
#392=VECTOR('',#1298,1.);
#393=VECTOR('',#1299,1.);
#394=VECTOR('',#1300,1.);
#395=VECTOR('',#1303,1.);
#396=VECTOR('',#1304,1.);
#397=VECTOR('',#1307,1.);
#398=VECTOR('',#1308,1.);
#399=VECTOR('',#1311,1.);
#400=VECTOR('',#1312,1.);
#401=VECTOR('',#1313,1.);
#402=VECTOR('',#1314,1.);
#403=VECTOR('',#1315,1.);
#404=VECTOR('',#1316,1.);
#405=VECTOR('',#1317,1.);
#406=VECTOR('',#1320,1.);
#407=VECTOR('',#1321,1.);
#408=VECTOR('',#1324,1.);
#409=VECTOR('',#1327,1.);
#410=VECTOR('',#1328,1.);
#411=VECTOR('',#1329,1.);
#412=VECTOR('',#1330,1.);
#413=VECTOR('',#1333,1.);
#414=VECTOR('',#1334,1.);
#415=VECTOR('',#1337,1.);
#416=VECTOR('',#1340,1.);
#417=VERTEX_POINT('',#1345);
#418=VERTEX_POINT('',#1346);
#419=VERTEX_POINT('',#1348);
#420=VERTEX_POINT('',#1350);
#421=VERTEX_POINT('',#1356);
#422=VERTEX_POINT('',#1358);
#423=VERTEX_POINT('',#1360);
#424=VERTEX_POINT('',#1362);
#425=VERTEX_POINT('',#1364);
#426=VERTEX_POINT('',#1366);
#427=VERTEX_POINT('',#1368);
#428=VERTEX_POINT('',#1370);
#429=VERTEX_POINT('',#1372);
#430=VERTEX_POINT('',#1374);
#431=VERTEX_POINT('',#1376);
#432=VERTEX_POINT('',#1378);
#433=VERTEX_POINT('',#1380);
#434=VERTEX_POINT('',#1382);
#435=VERTEX_POINT('',#1384);
#436=VERTEX_POINT('',#1386);
#437=VERTEX_POINT('',#1388);
#438=VERTEX_POINT('',#1390);
#439=VERTEX_POINT('',#1392);
#440=VERTEX_POINT('',#1394);
#441=VERTEX_POINT('',#1398);
#442=VERTEX_POINT('',#1399);
#443=VERTEX_POINT('',#1406);
#444=VERTEX_POINT('',#1408);
#445=VERTEX_POINT('',#1411);
#446=VERTEX_POINT('',#1413);
#447=VERTEX_POINT('',#1415);
#448=VERTEX_POINT('',#1417);
#449=VERTEX_POINT('',#1419);
#450=VERTEX_POINT('',#1423);
#451=VERTEX_POINT('',#1424);
#452=VERTEX_POINT('',#1430);
#453=VERTEX_POINT('',#1435);
#454=VERTEX_POINT('',#1437);
#455=VERTEX_POINT('',#1439);
#456=VERTEX_POINT('',#1443);
#457=VERTEX_POINT('',#1444);
#458=VERTEX_POINT('',#1450);
#459=VERTEX_POINT('',#1455);
#460=VERTEX_POINT('',#1457);
#461=VERTEX_POINT('',#1459);
#462=VERTEX_POINT('',#1463);
#463=VERTEX_POINT('',#1465);
#464=VERTEX_POINT('',#1469);
#465=VERTEX_POINT('',#1471);
#466=VERTEX_POINT('',#1475);
#467=VERTEX_POINT('',#1477);
#468=VERTEX_POINT('',#1481);
#469=VERTEX_POINT('',#1483);
#470=VERTEX_POINT('',#1487);
#471=VERTEX_POINT('',#1489);
#472=VERTEX_POINT('',#1493);
#473=VERTEX_POINT('',#1495);
#474=VERTEX_POINT('',#1499);
#475=VERTEX_POINT('',#1501);
#476=VERTEX_POINT('',#1505);
#477=VERTEX_POINT('',#1507);
#478=VERTEX_POINT('',#1511);
#479=VERTEX_POINT('',#1513);
#480=VERTEX_POINT('',#1517);
#481=VERTEX_POINT('',#1519);
#482=VERTEX_POINT('',#1523);
#483=VERTEX_POINT('',#1525);
#484=VERTEX_POINT('',#1535);
#485=VERTEX_POINT('',#1540);
#486=VERTEX_POINT('',#1542);
#487=VERTEX_POINT('',#1544);
#488=VERTEX_POINT('',#1546);
#489=VERTEX_POINT('',#1550);
#490=VERTEX_POINT('',#1551);
#491=VERTEX_POINT('',#1553);
#492=VERTEX_POINT('',#1556);
#493=VERTEX_POINT('',#1565);
#494=VERTEX_POINT('',#1567);
#495=VERTEX_POINT('',#1571);
#496=VERTEX_POINT('',#1573);
#497=VERTEX_POINT('',#1577);
#498=VERTEX_POINT('',#1581);
#499=VERTEX_POINT('',#1586);
#500=VERTEX_POINT('',#1588);
#501=VERTEX_POINT('',#1590);
#502=VERTEX_POINT('',#1592);
#503=VERTEX_POINT('',#1594);
#504=VERTEX_POINT('',#1598);
#505=VERTEX_POINT('',#1604);
#506=VERTEX_POINT('',#1605);
#507=VERTEX_POINT('',#1607);
#508=VERTEX_POINT('',#1609);
#509=EDGE_CURVE('',#417,#418,#209,.T.);
#510=EDGE_CURVE('',#417,#419,#175,.T.);
#511=EDGE_CURVE('',#420,#419,#210,.T.);
#512=EDGE_CURVE('',#418,#420,#176,.T.);
#513=EDGE_CURVE('',#419,#417,#211,.T.);
#514=EDGE_CURVE('',#420,#421,#212,.T.);
#515=EDGE_CURVE('',#421,#422,#213,.T.);
#516=EDGE_CURVE('',#422,#423,#214,.T.);
#517=EDGE_CURVE('',#423,#424,#215,.T.);
#518=EDGE_CURVE('',#424,#425,#216,.T.);
#519=EDGE_CURVE('',#425,#426,#177,.T.);
#520=EDGE_CURVE('',#426,#427,#217,.T.);
#521=EDGE_CURVE('',#427,#428,#218,.T.);
#522=EDGE_CURVE('',#429,#428,#219,.T.);
#523=EDGE_CURVE('',#430,#429,#220,.T.);
#524=EDGE_CURVE('',#430,#431,#178,.T.);
#525=EDGE_CURVE('',#431,#432,#179,.T.);
#526=EDGE_CURVE('',#433,#432,#221,.T.);
#527=EDGE_CURVE('',#433,#434,#222,.T.);
#528=EDGE_CURVE('',#435,#434,#223,.T.);
#529=EDGE_CURVE('',#435,#436,#180,.T.);
#530=EDGE_CURVE('',#436,#437,#181,.T.);
#531=EDGE_CURVE('',#438,#437,#224,.T.);
#532=EDGE_CURVE('',#439,#438,#225,.T.);
#533=EDGE_CURVE('',#439,#440,#226,.T.);
#534=EDGE_CURVE('',#440,#418,#227,.T.);
#535=EDGE_CURVE('',#441,#442,#228,.T.);
#536=EDGE_CURVE('',#442,#441,#182,.T.);
#537=EDGE_CURVE('',#426,#441,#229,.T.);
#538=EDGE_CURVE('',#442,#425,#230,.T.);
#539=EDGE_CURVE('',#440,#443,#231,.T.);
#540=EDGE_CURVE('',#444,#443,#232,.T.);
#541=EDGE_CURVE('',#427,#444,#233,.T.);
#542=EDGE_CURVE('',#424,#445,#234,.T.);
#543=EDGE_CURVE('',#445,#446,#235,.T.);
#544=EDGE_CURVE('',#446,#447,#183,.T.);
#545=EDGE_CURVE('',#447,#448,#184,.T.);
#546=EDGE_CURVE('',#448,#449,#236,.T.);
#547=EDGE_CURVE('',#449,#421,#237,.T.);
#548=EDGE_CURVE('',#450,#451,#238,.T.);
#549=EDGE_CURVE('',#451,#450,#185,.T.);
#550=EDGE_CURVE('',#451,#435,#239,.T.);
#551=EDGE_CURVE('',#437,#450,#240,.T.);
#552=EDGE_CURVE('',#436,#452,#241,.T.);
#553=EDGE_CURVE('',#452,#452,#186,.T.);
#554=EDGE_CURVE('',#434,#453,#242,.T.);
#555=EDGE_CURVE('',#454,#453,#243,.T.);
#556=EDGE_CURVE('',#455,#454,#244,.T.);
#557=EDGE_CURVE('',#455,#438,#245,.T.);
#558=EDGE_CURVE('',#456,#457,#246,.T.);
#559=EDGE_CURVE('',#457,#456,#187,.T.);
#560=EDGE_CURVE('',#457,#430,#247,.T.);
#561=EDGE_CURVE('',#432,#456,#248,.T.);
#562=EDGE_CURVE('',#431,#458,#249,.T.);
#563=EDGE_CURVE('',#458,#458,#188,.T.);
#564=EDGE_CURVE('',#459,#429,#250,.T.);
#565=EDGE_CURVE('',#460,#459,#251,.T.);
#566=EDGE_CURVE('',#460,#461,#252,.T.);
#567=EDGE_CURVE('',#461,#433,#253,.T.);
#568=EDGE_CURVE('',#462,#462,#189,.T.);
#569=EDGE_CURVE('',#462,#463,#254,.T.);
#570=EDGE_CURVE('',#463,#463,#190,.T.);
#571=EDGE_CURVE('',#464,#464,#191,.T.);
#572=EDGE_CURVE('',#464,#465,#255,.T.);
#573=EDGE_CURVE('',#465,#465,#192,.T.);
#574=EDGE_CURVE('',#466,#466,#193,.T.);
#575=EDGE_CURVE('',#466,#467,#256,.T.);
#576=EDGE_CURVE('',#467,#467,#194,.T.);
#577=EDGE_CURVE('',#468,#468,#195,.T.);
#578=EDGE_CURVE('',#468,#469,#257,.T.);
#579=EDGE_CURVE('',#469,#469,#196,.T.);
#580=EDGE_CURVE('',#470,#470,#197,.T.);
#581=EDGE_CURVE('',#470,#471,#258,.T.);
#582=EDGE_CURVE('',#471,#471,#198,.T.);
#583=EDGE_CURVE('',#472,#472,#199,.T.);
#584=EDGE_CURVE('',#472,#473,#259,.T.);
#585=EDGE_CURVE('',#473,#473,#200,.T.);
#586=EDGE_CURVE('',#474,#474,#201,.T.);
#587=EDGE_CURVE('',#474,#475,#260,.T.);
#588=EDGE_CURVE('',#475,#475,#202,.T.);
#589=EDGE_CURVE('',#476,#476,#203,.T.);
#590=EDGE_CURVE('',#476,#477,#261,.T.);
#591=EDGE_CURVE('',#477,#477,#204,.T.);
#592=EDGE_CURVE('',#478,#478,#205,.T.);
#593=EDGE_CURVE('',#478,#479,#262,.T.);
#594=EDGE_CURVE('',#479,#479,#206,.T.);
#595=EDGE_CURVE('',#480,#448,#263,.T.);
#596=EDGE_CURVE('',#481,#480,#264,.T.);
#597=EDGE_CURVE('',#449,#481,#265,.T.);
#598=EDGE_CURVE('',#482,#480,#207,.T.);
#599=EDGE_CURVE('',#482,#483,#266,.T.);
#600=EDGE_CURVE('',#423,#483,#267,.T.);
#601=EDGE_CURVE('',#422,#481,#268,.T.);
#602=EDGE_CURVE('',#446,#482,#269,.T.);
#603=EDGE_CURVE('',#483,#445,#270,.T.);
#604=EDGE_CURVE('',#484,#484,#208,.T.);
#605=EDGE_CURVE('',#484,#447,#271,.T.);
#606=EDGE_CURVE('',#485,#439,#272,.T.);
#607=EDGE_CURVE('',#486,#485,#273,.T.);
#608=EDGE_CURVE('',#487,#486,#274,.T.);
#609=EDGE_CURVE('',#487,#488,#275,.T.);
#610=EDGE_CURVE('',#443,#488,#276,.T.);
#611=EDGE_CURVE('',#489,#490,#277,.T.);
#612=EDGE_CURVE('',#491,#489,#278,.T.);
#613=EDGE_CURVE('',#428,#491,#279,.T.);
#614=EDGE_CURVE('',#492,#444,#280,.T.);
#615=EDGE_CURVE('',#490,#492,#281,.T.);
#616=EDGE_CURVE('',#488,#492,#282,.T.);
#617=EDGE_CURVE('',#490,#461,#283,.T.);
#618=EDGE_CURVE('',#453,#487,#284,.T.);
#619=EDGE_CURVE('',#493,#486,#285,.T.);
#620=EDGE_CURVE('',#494,#493,#286,.T.);
#621=EDGE_CURVE('',#454,#494,#287,.T.);
#622=EDGE_CURVE('',#489,#495,#288,.T.);
#623=EDGE_CURVE('',#495,#496,#289,.T.);
#624=EDGE_CURVE('',#496,#491,#290,.T.);
#625=EDGE_CURVE('',#497,#460,#291,.T.);
#626=EDGE_CURVE('',#497,#495,#292,.T.);
#627=EDGE_CURVE('',#498,#496,#293,.T.);
#628=EDGE_CURVE('',#498,#497,#294,.T.);
#629=EDGE_CURVE('',#459,#455,#295,.T.);
#630=EDGE_CURVE('',#494,#499,#296,.T.);
#631=EDGE_CURVE('',#499,#500,#297,.T.);
#632=EDGE_CURVE('',#500,#501,#298,.T.);
#633=EDGE_CURVE('',#501,#502,#299,.T.);
#634=EDGE_CURVE('',#502,#503,#300,.T.);
#635=EDGE_CURVE('',#503,#498,#301,.T.);
#636=EDGE_CURVE('',#485,#504,#302,.T.);
#637=EDGE_CURVE('',#504,#493,#303,.T.);
#638=EDGE_CURVE('',#499,#504,#304,.T.);
#639=EDGE_CURVE('',#505,#506,#305,.T.);
#640=EDGE_CURVE('',#506,#507,#306,.T.);
#641=EDGE_CURVE('',#507,#508,#307,.T.);
#642=EDGE_CURVE('',#508,#505,#308,.T.);
#643=EDGE_CURVE('',#508,#501,#309,.T.);
#644=EDGE_CURVE('',#505,#500,#310,.T.);
#645=EDGE_CURVE('',#507,#502,#311,.T.);
#646=EDGE_CURVE('',#506,#503,#312,.T.);
#647=ORIENTED_EDGE('',*,*,#509,.F.);
#648=ORIENTED_EDGE('',*,*,#510,.T.);
#649=ORIENTED_EDGE('',*,*,#511,.F.);
#650=ORIENTED_EDGE('',*,*,#512,.F.);
#651=ORIENTED_EDGE('',*,*,#513,.F.);
#652=ORIENTED_EDGE('',*,*,#510,.F.);
#653=ORIENTED_EDGE('',*,*,#512,.T.);
#654=ORIENTED_EDGE('',*,*,#514,.T.);
#655=ORIENTED_EDGE('',*,*,#515,.T.);
#656=ORIENTED_EDGE('',*,*,#516,.T.);
#657=ORIENTED_EDGE('',*,*,#517,.T.);
#658=ORIENTED_EDGE('',*,*,#518,.T.);
#659=ORIENTED_EDGE('',*,*,#519,.T.);
#660=ORIENTED_EDGE('',*,*,#520,.T.);
#661=ORIENTED_EDGE('',*,*,#521,.T.);
#662=ORIENTED_EDGE('',*,*,#522,.F.);
#663=ORIENTED_EDGE('',*,*,#523,.F.);
#664=ORIENTED_EDGE('',*,*,#524,.T.);
#665=ORIENTED_EDGE('',*,*,#525,.T.);
#666=ORIENTED_EDGE('',*,*,#526,.F.);
#667=ORIENTED_EDGE('',*,*,#527,.T.);
#668=ORIENTED_EDGE('',*,*,#528,.F.);
#669=ORIENTED_EDGE('',*,*,#529,.T.);
#670=ORIENTED_EDGE('',*,*,#530,.T.);
#671=ORIENTED_EDGE('',*,*,#531,.F.);
#672=ORIENTED_EDGE('',*,*,#532,.F.);
#673=ORIENTED_EDGE('',*,*,#533,.T.);
#674=ORIENTED_EDGE('',*,*,#534,.T.);
#675=ORIENTED_EDGE('',*,*,#535,.F.);
#676=ORIENTED_EDGE('',*,*,#536,.F.);
#677=ORIENTED_EDGE('',*,*,#537,.F.);
#678=ORIENTED_EDGE('',*,*,#519,.F.);
#679=ORIENTED_EDGE('',*,*,#538,.F.);
#680=ORIENTED_EDGE('',*,*,#536,.T.);
#681=ORIENTED_EDGE('',*,*,#509,.T.);
#682=ORIENTED_EDGE('',*,*,#534,.F.);
#683=ORIENTED_EDGE('',*,*,#539,.T.);
#684=ORIENTED_EDGE('',*,*,#540,.F.);
#685=ORIENTED_EDGE('',*,*,#541,.F.);
#686=ORIENTED_EDGE('',*,*,#520,.F.);
#687=ORIENTED_EDGE('',*,*,#537,.T.);
#688=ORIENTED_EDGE('',*,*,#535,.T.);
#689=ORIENTED_EDGE('',*,*,#538,.T.);
#690=ORIENTED_EDGE('',*,*,#518,.F.);
#691=ORIENTED_EDGE('',*,*,#542,.T.);
#692=ORIENTED_EDGE('',*,*,#543,.T.);
#693=ORIENTED_EDGE('',*,*,#544,.T.);
#694=ORIENTED_EDGE('',*,*,#545,.T.);
#695=ORIENTED_EDGE('',*,*,#546,.T.);
#696=ORIENTED_EDGE('',*,*,#547,.T.);
#697=ORIENTED_EDGE('',*,*,#514,.F.);
#698=ORIENTED_EDGE('',*,*,#511,.T.);
#699=ORIENTED_EDGE('',*,*,#513,.T.);
#700=ORIENTED_EDGE('',*,*,#548,.F.);
#701=ORIENTED_EDGE('',*,*,#549,.F.);
#702=ORIENTED_EDGE('',*,*,#529,.F.);
#703=ORIENTED_EDGE('',*,*,#550,.F.);
#704=ORIENTED_EDGE('',*,*,#549,.T.);
#705=ORIENTED_EDGE('',*,*,#551,.F.);
#706=ORIENTED_EDGE('',*,*,#530,.F.);
#707=ORIENTED_EDGE('',*,*,#552,.T.);
#708=ORIENTED_EDGE('',*,*,#553,.T.);
#709=ORIENTED_EDGE('',*,*,#552,.F.);
#710=ORIENTED_EDGE('',*,*,#553,.F.);
#711=ORIENTED_EDGE('',*,*,#551,.T.);
#712=ORIENTED_EDGE('',*,*,#548,.T.);
#713=ORIENTED_EDGE('',*,*,#550,.T.);
#714=ORIENTED_EDGE('',*,*,#528,.T.);
#715=ORIENTED_EDGE('',*,*,#554,.T.);
#716=ORIENTED_EDGE('',*,*,#555,.F.);
#717=ORIENTED_EDGE('',*,*,#556,.F.);
#718=ORIENTED_EDGE('',*,*,#557,.T.);
#719=ORIENTED_EDGE('',*,*,#531,.T.);
#720=ORIENTED_EDGE('',*,*,#558,.F.);
#721=ORIENTED_EDGE('',*,*,#559,.F.);
#722=ORIENTED_EDGE('',*,*,#524,.F.);
#723=ORIENTED_EDGE('',*,*,#560,.F.);
#724=ORIENTED_EDGE('',*,*,#559,.T.);
#725=ORIENTED_EDGE('',*,*,#561,.F.);
#726=ORIENTED_EDGE('',*,*,#525,.F.);
#727=ORIENTED_EDGE('',*,*,#562,.T.);
#728=ORIENTED_EDGE('',*,*,#563,.T.);
#729=ORIENTED_EDGE('',*,*,#562,.F.);
#730=ORIENTED_EDGE('',*,*,#563,.F.);
#731=ORIENTED_EDGE('',*,*,#561,.T.);
#732=ORIENTED_EDGE('',*,*,#558,.T.);
#733=ORIENTED_EDGE('',*,*,#560,.T.);
#734=ORIENTED_EDGE('',*,*,#523,.T.);
#735=ORIENTED_EDGE('',*,*,#564,.F.);
#736=ORIENTED_EDGE('',*,*,#565,.F.);
#737=ORIENTED_EDGE('',*,*,#566,.T.);
#738=ORIENTED_EDGE('',*,*,#567,.T.);
#739=ORIENTED_EDGE('',*,*,#526,.T.);
#740=ORIENTED_EDGE('',*,*,#568,.F.);
#741=ORIENTED_EDGE('',*,*,#569,.T.);
#742=ORIENTED_EDGE('',*,*,#570,.F.);
#743=ORIENTED_EDGE('',*,*,#569,.F.);
#744=ORIENTED_EDGE('',*,*,#571,.F.);
#745=ORIENTED_EDGE('',*,*,#572,.T.);
#746=ORIENTED_EDGE('',*,*,#573,.F.);
#747=ORIENTED_EDGE('',*,*,#572,.F.);
#748=ORIENTED_EDGE('',*,*,#574,.F.);
#749=ORIENTED_EDGE('',*,*,#575,.T.);
#750=ORIENTED_EDGE('',*,*,#576,.F.);
#751=ORIENTED_EDGE('',*,*,#575,.F.);
#752=ORIENTED_EDGE('',*,*,#577,.F.);
#753=ORIENTED_EDGE('',*,*,#578,.T.);
#754=ORIENTED_EDGE('',*,*,#579,.F.);
#755=ORIENTED_EDGE('',*,*,#578,.F.);
#756=ORIENTED_EDGE('',*,*,#580,.F.);
#757=ORIENTED_EDGE('',*,*,#581,.T.);
#758=ORIENTED_EDGE('',*,*,#582,.F.);
#759=ORIENTED_EDGE('',*,*,#581,.F.);
#760=ORIENTED_EDGE('',*,*,#583,.F.);
#761=ORIENTED_EDGE('',*,*,#584,.T.);
#762=ORIENTED_EDGE('',*,*,#585,.F.);
#763=ORIENTED_EDGE('',*,*,#584,.F.);
#764=ORIENTED_EDGE('',*,*,#586,.F.);
#765=ORIENTED_EDGE('',*,*,#587,.T.);
#766=ORIENTED_EDGE('',*,*,#588,.F.);
#767=ORIENTED_EDGE('',*,*,#587,.F.);
#768=ORIENTED_EDGE('',*,*,#589,.F.);
#769=ORIENTED_EDGE('',*,*,#590,.T.);
#770=ORIENTED_EDGE('',*,*,#591,.F.);
#771=ORIENTED_EDGE('',*,*,#590,.F.);
#772=ORIENTED_EDGE('',*,*,#592,.F.);
#773=ORIENTED_EDGE('',*,*,#593,.T.);
#774=ORIENTED_EDGE('',*,*,#594,.F.);
#775=ORIENTED_EDGE('',*,*,#593,.F.);
#776=ORIENTED_EDGE('',*,*,#595,.F.);
#777=ORIENTED_EDGE('',*,*,#596,.F.);
#778=ORIENTED_EDGE('',*,*,#597,.F.);
#779=ORIENTED_EDGE('',*,*,#546,.F.);
#780=ORIENTED_EDGE('',*,*,#598,.F.);
#781=ORIENTED_EDGE('',*,*,#599,.T.);
#782=ORIENTED_EDGE('',*,*,#600,.F.);
#783=ORIENTED_EDGE('',*,*,#516,.F.);
#784=ORIENTED_EDGE('',*,*,#601,.T.);
#785=ORIENTED_EDGE('',*,*,#596,.T.);
#786=ORIENTED_EDGE('',*,*,#547,.F.);
#787=ORIENTED_EDGE('',*,*,#597,.T.);
#788=ORIENTED_EDGE('',*,*,#601,.F.);
#789=ORIENTED_EDGE('',*,*,#515,.F.);
#790=ORIENTED_EDGE('',*,*,#602,.F.);
#791=ORIENTED_EDGE('',*,*,#543,.F.);
#792=ORIENTED_EDGE('',*,*,#603,.F.);
#793=ORIENTED_EDGE('',*,*,#599,.F.);
#794=ORIENTED_EDGE('',*,*,#542,.F.);
#795=ORIENTED_EDGE('',*,*,#517,.F.);
#796=ORIENTED_EDGE('',*,*,#600,.T.);
#797=ORIENTED_EDGE('',*,*,#603,.T.);
#798=ORIENTED_EDGE('',*,*,#604,.T.);
#799=ORIENTED_EDGE('',*,*,#605,.T.);
#800=ORIENTED_EDGE('',*,*,#544,.F.);
#801=ORIENTED_EDGE('',*,*,#602,.T.);
#802=ORIENTED_EDGE('',*,*,#598,.T.);
#803=ORIENTED_EDGE('',*,*,#595,.T.);
#804=ORIENTED_EDGE('',*,*,#545,.F.);
#805=ORIENTED_EDGE('',*,*,#605,.F.);
#806=ORIENTED_EDGE('',*,*,#604,.F.);
#807=ORIENTED_EDGE('',*,*,#582,.T.);
#808=ORIENTED_EDGE('',*,*,#585,.T.);
#809=ORIENTED_EDGE('',*,*,#588,.T.);
#810=ORIENTED_EDGE('',*,*,#591,.T.);
#811=ORIENTED_EDGE('',*,*,#594,.T.);
#812=ORIENTED_EDGE('',*,*,#606,.F.);
#813=ORIENTED_EDGE('',*,*,#607,.F.);
#814=ORIENTED_EDGE('',*,*,#608,.F.);
#815=ORIENTED_EDGE('',*,*,#609,.T.);
#816=ORIENTED_EDGE('',*,*,#610,.F.);
#817=ORIENTED_EDGE('',*,*,#539,.F.);
#818=ORIENTED_EDGE('',*,*,#533,.F.);
#819=ORIENTED_EDGE('',*,*,#611,.F.);
#820=ORIENTED_EDGE('',*,*,#612,.F.);
#821=ORIENTED_EDGE('',*,*,#613,.F.);
#822=ORIENTED_EDGE('',*,*,#521,.F.);
#823=ORIENTED_EDGE('',*,*,#541,.T.);
#824=ORIENTED_EDGE('',*,*,#614,.F.);
#825=ORIENTED_EDGE('',*,*,#615,.F.);
#826=ORIENTED_EDGE('',*,*,#540,.T.);
#827=ORIENTED_EDGE('',*,*,#610,.T.);
#828=ORIENTED_EDGE('',*,*,#616,.T.);
#829=ORIENTED_EDGE('',*,*,#614,.T.);
#830=ORIENTED_EDGE('',*,*,#554,.F.);
#831=ORIENTED_EDGE('',*,*,#527,.F.);
#832=ORIENTED_EDGE('',*,*,#567,.F.);
#833=ORIENTED_EDGE('',*,*,#617,.F.);
#834=ORIENTED_EDGE('',*,*,#615,.T.);
#835=ORIENTED_EDGE('',*,*,#616,.F.);
#836=ORIENTED_EDGE('',*,*,#609,.F.);
#837=ORIENTED_EDGE('',*,*,#618,.F.);
#838=ORIENTED_EDGE('',*,*,#580,.T.);
#839=ORIENTED_EDGE('',*,*,#583,.T.);
#840=ORIENTED_EDGE('',*,*,#586,.T.);
#841=ORIENTED_EDGE('',*,*,#589,.T.);
#842=ORIENTED_EDGE('',*,*,#592,.T.);
#843=ORIENTED_EDGE('',*,*,#618,.T.);
#844=ORIENTED_EDGE('',*,*,#608,.T.);
#845=ORIENTED_EDGE('',*,*,#619,.F.);
#846=ORIENTED_EDGE('',*,*,#620,.F.);
#847=ORIENTED_EDGE('',*,*,#621,.F.);
#848=ORIENTED_EDGE('',*,*,#555,.T.);
#849=ORIENTED_EDGE('',*,*,#612,.T.);
#850=ORIENTED_EDGE('',*,*,#622,.T.);
#851=ORIENTED_EDGE('',*,*,#623,.T.);
#852=ORIENTED_EDGE('',*,*,#624,.T.);
#853=ORIENTED_EDGE('',*,*,#617,.T.);
#854=ORIENTED_EDGE('',*,*,#566,.F.);
#855=ORIENTED_EDGE('',*,*,#625,.F.);
#856=ORIENTED_EDGE('',*,*,#626,.T.);
#857=ORIENTED_EDGE('',*,*,#622,.F.);
#858=ORIENTED_EDGE('',*,*,#611,.T.);
#859=ORIENTED_EDGE('',*,*,#627,.T.);
#860=ORIENTED_EDGE('',*,*,#623,.F.);
#861=ORIENTED_EDGE('',*,*,#626,.F.);
#862=ORIENTED_EDGE('',*,*,#628,.F.);
#863=ORIENTED_EDGE('',*,*,#628,.T.);
#864=ORIENTED_EDGE('',*,*,#625,.T.);
#865=ORIENTED_EDGE('',*,*,#565,.T.);
#866=ORIENTED_EDGE('',*,*,#629,.T.);
#867=ORIENTED_EDGE('',*,*,#556,.T.);
#868=ORIENTED_EDGE('',*,*,#621,.T.);
#869=ORIENTED_EDGE('',*,*,#630,.T.);
#870=ORIENTED_EDGE('',*,*,#631,.T.);
#871=ORIENTED_EDGE('',*,*,#632,.T.);
#872=ORIENTED_EDGE('',*,*,#633,.T.);
#873=ORIENTED_EDGE('',*,*,#634,.T.);
#874=ORIENTED_EDGE('',*,*,#635,.T.);
#875=ORIENTED_EDGE('',*,*,#568,.T.);
#876=ORIENTED_EDGE('',*,*,#571,.T.);
#877=ORIENTED_EDGE('',*,*,#574,.T.);
#878=ORIENTED_EDGE('',*,*,#577,.T.);
#879=ORIENTED_EDGE('',*,*,#607,.T.);
#880=ORIENTED_EDGE('',*,*,#636,.T.);
#881=ORIENTED_EDGE('',*,*,#637,.T.);
#882=ORIENTED_EDGE('',*,*,#619,.T.);
#883=ORIENTED_EDGE('',*,*,#620,.T.);
#884=ORIENTED_EDGE('',*,*,#637,.F.);
#885=ORIENTED_EDGE('',*,*,#638,.F.);
#886=ORIENTED_EDGE('',*,*,#630,.F.);
#887=ORIENTED_EDGE('',*,*,#639,.T.);
#888=ORIENTED_EDGE('',*,*,#640,.T.);
#889=ORIENTED_EDGE('',*,*,#641,.T.);
#890=ORIENTED_EDGE('',*,*,#642,.T.);
#891=ORIENTED_EDGE('',*,*,#570,.T.);
#892=ORIENTED_EDGE('',*,*,#573,.T.);
#893=ORIENTED_EDGE('',*,*,#576,.T.);
#894=ORIENTED_EDGE('',*,*,#579,.T.);
#895=ORIENTED_EDGE('',*,*,#643,.T.);
#896=ORIENTED_EDGE('',*,*,#632,.F.);
#897=ORIENTED_EDGE('',*,*,#644,.F.);
#898=ORIENTED_EDGE('',*,*,#642,.F.);
#899=ORIENTED_EDGE('',*,*,#645,.T.);
#900=ORIENTED_EDGE('',*,*,#633,.F.);
#901=ORIENTED_EDGE('',*,*,#643,.F.);
#902=ORIENTED_EDGE('',*,*,#641,.F.);
#903=ORIENTED_EDGE('',*,*,#646,.T.);
#904=ORIENTED_EDGE('',*,*,#634,.F.);
#905=ORIENTED_EDGE('',*,*,#645,.F.);
#906=ORIENTED_EDGE('',*,*,#640,.F.);
#907=ORIENTED_EDGE('',*,*,#532,.T.);
#908=ORIENTED_EDGE('',*,*,#557,.F.);
#909=ORIENTED_EDGE('',*,*,#629,.F.);
#910=ORIENTED_EDGE('',*,*,#564,.T.);
#911=ORIENTED_EDGE('',*,*,#522,.T.);
#912=ORIENTED_EDGE('',*,*,#613,.T.);
#913=ORIENTED_EDGE('',*,*,#624,.F.);
#914=ORIENTED_EDGE('',*,*,#627,.F.);
#915=ORIENTED_EDGE('',*,*,#635,.F.);
#916=ORIENTED_EDGE('',*,*,#646,.F.);
#917=ORIENTED_EDGE('',*,*,#639,.F.);
#918=ORIENTED_EDGE('',*,*,#644,.T.);
#919=ORIENTED_EDGE('',*,*,#631,.F.);
#920=ORIENTED_EDGE('',*,*,#638,.T.);
#921=ORIENTED_EDGE('',*,*,#636,.F.);
#922=ORIENTED_EDGE('',*,*,#606,.T.);
#923=CYLINDRICAL_SURFACE('',#997,0.23);
#924=CYLINDRICAL_SURFACE('',#1009,0.23);
#925=CYLINDRICAL_SURFACE('',#1015,0.23);
#926=CYLINDRICAL_SURFACE('',#1021,0.23);
#927=CYLINDRICAL_SURFACE('',#1025,0.225);
#928=CYLINDRICAL_SURFACE('',#1028,0.225);
#929=CYLINDRICAL_SURFACE('',#1031,0.225);
#930=CYLINDRICAL_SURFACE('',#1034,0.225);
#931=CYLINDRICAL_SURFACE('',#1037,0.17);
#932=CYLINDRICAL_SURFACE('',#1040,0.17);
#933=CYLINDRICAL_SURFACE('',#1043,0.17);
#934=CYLINDRICAL_SURFACE('',#1046,0.17);
#935=CYLINDRICAL_SURFACE('',#1049,0.35);
#936=CYLINDRICAL_SURFACE('',#1058,1.27);
#937=ADVANCED_FACE('',(#65),#923,.F.);
#938=ADVANCED_FACE('',(#66),#33,.F.);
#939=ADVANCED_FACE('',(#67),#34,.T.);
#940=ADVANCED_FACE('',(#68),#35,.F.);
#941=ADVANCED_FACE('',(#69),#924,.F.);
#942=ADVANCED_FACE('',(#70),#36,.F.);
#943=ADVANCED_FACE('',(#71),#37,.F.);
#944=ADVANCED_FACE('',(#72),#925,.F.);
#945=ADVANCED_FACE('',(#73),#38,.F.);
#946=ADVANCED_FACE('',(#74),#39,.F.);
#947=ADVANCED_FACE('',(#75),#40,.F.);
#948=ADVANCED_FACE('',(#76),#926,.F.);
#949=ADVANCED_FACE('',(#77),#41,.F.);
#950=ADVANCED_FACE('',(#78),#42,.F.);
#951=ADVANCED_FACE('',(#79),#927,.F.);
#952=ADVANCED_FACE('',(#80),#928,.F.);
#953=ADVANCED_FACE('',(#81),#929,.F.);
#954=ADVANCED_FACE('',(#82),#930,.F.);
#955=ADVANCED_FACE('',(#83),#931,.F.);
#956=ADVANCED_FACE('',(#84),#932,.F.);
#957=ADVANCED_FACE('',(#85),#933,.F.);
#958=ADVANCED_FACE('',(#86),#934,.F.);
#959=ADVANCED_FACE('',(#87),#935,.F.);
#960=ADVANCED_FACE('',(#88),#43,.T.);
#961=ADVANCED_FACE('',(#89),#44,.T.);
#962=ADVANCED_FACE('',(#90),#45,.T.);
#963=ADVANCED_FACE('',(#91),#46,.T.);
#964=ADVANCED_FACE('',(#92),#47,.T.);
#965=ADVANCED_FACE('',(#93),#936,.F.);
#966=ADVANCED_FACE('',(#94,#15,#16,#17,#18,#19),#48,.F.);
#967=ADVANCED_FACE('',(#95),#49,.F.);
#968=ADVANCED_FACE('',(#96),#50,.F.);
#969=ADVANCED_FACE('',(#97),#51,.F.);
#970=ADVANCED_FACE('',(#98,#20,#21,#22,#23,#24),#52,.F.);
#971=ADVANCED_FACE('',(#99),#53,.F.);
#972=ADVANCED_FACE('',(#100),#54,.F.);
#973=ADVANCED_FACE('',(#101),#55,.F.);
#974=ADVANCED_FACE('',(#102),#56,.F.);
#975=ADVANCED_FACE('',(#103,#25,#26,#27,#28),#57,.F.);
#976=ADVANCED_FACE('',(#104),#58,.F.);
#977=ADVANCED_FACE('',(#105),#59,.F.);
#978=ADVANCED_FACE('',(#106,#29,#30,#31,#32),#60,.T.);
#979=ADVANCED_FACE('',(#107),#61,.F.);
#980=ADVANCED_FACE('',(#108),#62,.F.);
#981=ADVANCED_FACE('',(#109),#63,.F.);
#982=ADVANCED_FACE('',(#110),#64,.F.);
#983=CLOSED_SHELL('',(#937,#938,#939,#940,#941,#942,#943,#944,#945,#946,
#947,#948,#949,#950,#951,#952,#953,#954,#955,#956,#957,#958,#959,#960,#961,
#962,#963,#964,#965,#966,#967,#968,#969,#970,#971,#972,#973,#974,#975,#976,
#977,#978,#979,#980,#981,#982));
#984=DERIVED_UNIT_ELEMENT(#986,1.);
#985=DERIVED_UNIT_ELEMENT(#1625,-3.);
#986=(
MASS_UNIT()
NAMED_UNIT(*)
SI_UNIT(.KILO.,.GRAM.)
);
#987=DERIVED_UNIT((#984,#985));
#988=MEASURE_REPRESENTATION_ITEM('density measure',
POSITIVE_RATIO_MEASURE(7850.),#987);
#989=PROPERTY_DEFINITION_REPRESENTATION(#994,#991);
#990=PROPERTY_DEFINITION_REPRESENTATION(#995,#992);
#991=REPRESENTATION('material name',(#993),#1622);
#992=REPRESENTATION('density',(#988),#1622);
#993=DESCRIPTIVE_REPRESENTATION_ITEM('\X2\92FC\X0\','\X2\92FC\X0\');
#994=PROPERTY_DEFINITION('material property','material name',#1632);
#995=PROPERTY_DEFINITION('material property','density of part',#1632);
#996=AXIS2_PLACEMENT_3D('',#1343,#1077,#1078);
#997=AXIS2_PLACEMENT_3D('',#1344,#1079,#1080);
#998=AXIS2_PLACEMENT_3D('',#1349,#1082,#1083);
#999=AXIS2_PLACEMENT_3D('',#1352,#1085,#1086);
#1000=AXIS2_PLACEMENT_3D('',#1353,#1087,#1088);
#1001=AXIS2_PLACEMENT_3D('',#1355,#1090,#1091);
#1002=AXIS2_PLACEMENT_3D('',#1367,#1097,#1098);
#1003=AXIS2_PLACEMENT_3D('',#1377,#1103,#1104);
#1004=AXIS2_PLACEMENT_3D('',#1379,#1105,#1106);
#1005=AXIS2_PLACEMENT_3D('',#1387,#1110,#1111);
#1006=AXIS2_PLACEMENT_3D('',#1389,#1112,#1113);
#1007=AXIS2_PLACEMENT_3D('',#1397,#1118,#1119);
#1008=AXIS2_PLACEMENT_3D('',#1401,#1121,#1122);
#1009=AXIS2_PLACEMENT_3D('',#1402,#1123,#1124);
#1010=AXIS2_PLACEMENT_3D('',#1405,#1127,#1128);
#1011=AXIS2_PLACEMENT_3D('',#1416,#1134,#1135);
#1012=AXIS2_PLACEMENT_3D('',#1418,#1136,#1137);
#1013=AXIS2_PLACEMENT_3D('',#1422,#1140,#1141);
#1014=AXIS2_PLACEMENT_3D('',#1426,#1143,#1144);
#1015=AXIS2_PLACEMENT_3D('',#1427,#1145,#1146);
#1016=AXIS2_PLACEMENT_3D('',#1432,#1150,#1151);
#1017=AXIS2_PLACEMENT_3D('',#1433,#1152,#1153);
#1018=AXIS2_PLACEMENT_3D('',#1434,#1154,#1155);
#1019=AXIS2_PLACEMENT_3D('',#1442,#1160,#1161);
#1020=AXIS2_PLACEMENT_3D('',#1446,#1163,#1164);
#1021=AXIS2_PLACEMENT_3D('',#1447,#1165,#1166);
#1022=AXIS2_PLACEMENT_3D('',#1452,#1170,#1171);
#1023=AXIS2_PLACEMENT_3D('',#1453,#1172,#1173);
#1024=AXIS2_PLACEMENT_3D('',#1454,#1174,#1175);
#1025=AXIS2_PLACEMENT_3D('',#1462,#1180,#1181);
#1026=AXIS2_PLACEMENT_3D('',#1464,#1182,#1183);
#1027=AXIS2_PLACEMENT_3D('',#1467,#1185,#1186);
#1028=AXIS2_PLACEMENT_3D('',#1468,#1187,#1188);
#1029=AXIS2_PLACEMENT_3D('',#1470,#1189,#1190);
#1030=AXIS2_PLACEMENT_3D('',#1473,#1192,#1193);
#1031=AXIS2_PLACEMENT_3D('',#1474,#1194,#1195);
#1032=AXIS2_PLACEMENT_3D('',#1476,#1196,#1197);
#1033=AXIS2_PLACEMENT_3D('',#1479,#1199,#1200);
#1034=AXIS2_PLACEMENT_3D('',#1480,#1201,#1202);
#1035=AXIS2_PLACEMENT_3D('',#1482,#1203,#1204);
#1036=AXIS2_PLACEMENT_3D('',#1485,#1206,#1207);
#1037=AXIS2_PLACEMENT_3D('',#1486,#1208,#1209);
#1038=AXIS2_PLACEMENT_3D('',#1488,#1210,#1211);
#1039=AXIS2_PLACEMENT_3D('',#1491,#1213,#1214);
#1040=AXIS2_PLACEMENT_3D('',#1492,#1215,#1216);
#1041=AXIS2_PLACEMENT_3D('',#1494,#1217,#1218);
#1042=AXIS2_PLACEMENT_3D('',#1497,#1220,#1221);
#1043=AXIS2_PLACEMENT_3D('',#1498,#1222,#1223);
#1044=AXIS2_PLACEMENT_3D('',#1500,#1224,#1225);
#1045=AXIS2_PLACEMENT_3D('',#1503,#1227,#1228);
#1046=AXIS2_PLACEMENT_3D('',#1504,#1229,#1230);
#1047=AXIS2_PLACEMENT_3D('',#1506,#1231,#1232);
#1048=AXIS2_PLACEMENT_3D('',#1509,#1234,#1235);
#1049=AXIS2_PLACEMENT_3D('',#1510,#1236,#1237);
#1050=AXIS2_PLACEMENT_3D('',#1512,#1238,#1239);
#1051=AXIS2_PLACEMENT_3D('',#1515,#1241,#1242);
#1052=AXIS2_PLACEMENT_3D('',#1516,#1243,#1244);
#1053=AXIS2_PLACEMENT_3D('',#1522,#1248,#1249);
#1054=AXIS2_PLACEMENT_3D('',#1524,#1250,#1251);
#1055=AXIS2_PLACEMENT_3D('',#1529,#1255,#1256);
#1056=AXIS2_PLACEMENT_3D('',#1530,#1257,#1258);
#1057=AXIS2_PLACEMENT_3D('',#1533,#1261,#1262);
#1058=AXIS2_PLACEMENT_3D('',#1534,#1263,#1264);
#1059=AXIS2_PLACEMENT_3D('',#1536,#1265,#1266);
#1060=AXIS2_PLACEMENT_3D('',#1538,#1268,#1269);
#1061=AXIS2_PLACEMENT_3D('',#1539,#1270,#1271);
#1062=AXIS2_PLACEMENT_3D('',#1549,#1277,#1278);
#1063=AXIS2_PLACEMENT_3D('',#1559,#1284,#1285);
#1064=AXIS2_PLACEMENT_3D('',#1561,#1287,#1288);
#1065=AXIS2_PLACEMENT_3D('',#1564,#1291,#1292);
#1066=AXIS2_PLACEMENT_3D('',#1570,#1296,#1297);
#1067=AXIS2_PLACEMENT_3D('',#1576,#1301,#1302);
#1068=AXIS2_PLACEMENT_3D('',#1580,#1305,#1306);
#1069=AXIS2_PLACEMENT_3D('',#1584,#1309,#1310);
#1070=AXIS2_PLACEMENT_3D('',#1597,#1318,#1319);
#1071=AXIS2_PLACEMENT_3D('',#1601,#1322,#1323);
#1072=AXIS2_PLACEMENT_3D('',#1603,#1325,#1326);
#1073=AXIS2_PLACEMENT_3D('',#1612,#1331,#1332);
#1074=AXIS2_PLACEMENT_3D('',#1615,#1335,#1336);
#1075=AXIS2_PLACEMENT_3D('',#1617,#1338,#1339);
#1076=AXIS2_PLACEMENT_3D('',#1619,#1341,#1342);
#1077=DIRECTION('axis',(0.,0.,1.));
#1078=DIRECTION('refdir',(1.,0.,0.));
#1079=DIRECTION('center_axis',(-0.422610627957597,0.,-0.906311346689031));
#1080=DIRECTION('ref_axis',(-0.906311346689031,-1.22464679914735E-16,0.422610627957597));
#1081=DIRECTION('',(0.422610627957597,0.,0.906311346689031));
#1082=DIRECTION('center_axis',(-0.422610627957597,0.,-0.906311346689031));
#1083=DIRECTION('ref_axis',(0.906311346689031,0.,-0.422610627957597));
#1084=DIRECTION('',(-0.422610627957597,0.,-0.906311346689031));
#1085=DIRECTION('center_axis',(-0.422610627957599,0.,-0.906311346689031));
#1086=DIRECTION('ref_axis',(0.906311346689031,0.,-0.422610627957599));
#1087=DIRECTION('center_axis',(-0.422610627957597,0.,-0.906311346689031));
#1088=DIRECTION('ref_axis',(0.906311346689031,0.,-0.422610627957597));
#1089=DIRECTION('',(0.,-1.,0.));
#1090=DIRECTION('center_axis',(0.422610627957599,0.,0.906311346689031));
#1091=DIRECTION('ref_axis',(0.90631134668903,0.,-0.422610627957599));
#1092=DIRECTION('',(0.,1.,0.));
#1093=DIRECTION('',(-0.906311346689031,0.,0.422610627957599));
#1094=DIRECTION('',(0.,1.,0.));
#1095=DIRECTION('',(0.906311346689031,0.,-0.422610627957599));
#1096=DIRECTION('',(0.,1.,0.));
#1097=DIRECTION('center_axis',(-0.422610627957599,0.,-0.906311346689031));
#1098=DIRECTION('ref_axis',(0.906311346689031,0.,-0.422610627957599));
#1099=DIRECTION('',(0.,1.,0.));
#1100=DIRECTION('',(-0.906311346689031,0.,0.422610627957599));
#1101=DIRECTION('',(0.,1.,0.));
#1102=DIRECTION('',(0.906311346689031,0.,-0.422610627957599));
#1103=DIRECTION('center_axis',(-0.422610627957599,0.,-0.906311346689031));
#1104=DIRECTION('ref_axis',(0.906311346689031,0.,-0.422610627957599));
#1105=DIRECTION('center_axis',(-0.422610627957599,0.,-0.906311346689031));
#1106=DIRECTION('ref_axis',(0.906311346689031,0.,-0.422610627957599));
#1107=DIRECTION('',(0.906311346689031,0.,-0.422610627957599));
#1108=DIRECTION('',(0.,-1.,0.));
#1109=DIRECTION('',(-0.906311346689031,0.,0.422610627957599));
#1110=DIRECTION('center_axis',(-0.422610627957599,0.,-0.906311346689031));
#1111=DIRECTION('ref_axis',(0.906311346689031,0.,-0.422610627957599));
#1112=DIRECTION('center_axis',(-0.422610627957599,0.,-0.906311346689031));
#1113=DIRECTION('ref_axis',(0.906311346689031,0.,-0.422610627957599));
#1114=DIRECTION('',(-0.906311346689031,0.,0.422610627957599));
#1115=DIRECTION('',(0.,1.,0.));
#1116=DIRECTION('',(0.906311346689031,0.,-0.422610627957599));
#1117=DIRECTION('',(0.,1.,0.));
#1118=DIRECTION('center_axis',(-0.422610627957597,0.,-0.906311346689031));
#1119=DIRECTION('ref_axis',(0.906311346689031,0.,-0.422610627957597));
#1120=DIRECTION('',(0.,-1.,0.));
#1121=DIRECTION('center_axis',(-0.422610627957597,0.,-0.906311346689031));
#1122=DIRECTION('ref_axis',(0.906311346689031,0.,-0.422610627957597));
#1123=DIRECTION('center_axis',(-0.422610627957597,0.,-0.906311346689031));
#1124=DIRECTION('ref_axis',(-0.906311346689031,1.22464679914735E-16,0.422610627957597));
#1125=DIRECTION('',(-0.422610627957597,0.,-0.906311346689031));
#1126=DIRECTION('',(0.422610627957597,0.,0.906311346689031));
#1127=DIRECTION('center_axis',(-0.906311346689031,0.,0.422610627957599));
#1128=DIRECTION('ref_axis',(0.422610627957599,0.,0.90631134668903));
#1129=DIRECTION('',(-0.422610627957599,0.,-0.906311346689031));
#1130=DIRECTION('',(0.,-1.,0.));
#1131=DIRECTION('',(-0.422610627957599,0.,-0.906311346689031));
#1132=DIRECTION('',(-0.422610627957599,0.,-0.906311346689031));
#1133=DIRECTION('',(0.,-1.,0.));
#1134=DIRECTION('center_axis',(-0.906311346689031,0.,0.422610627957599));
#1135=DIRECTION('ref_axis',(0.422610627957599,0.,0.90631134668903));
#1136=DIRECTION('center_axis',(-0.906311346689031,0.,0.422610627957599));
#1137=DIRECTION('ref_axis',(0.422610627957599,0.,0.90631134668903));
#1138=DIRECTION('',(0.,-1.,0.));
#1139=DIRECTION('',(0.422610627957599,0.,0.906311346689031));
#1140=DIRECTION('center_axis',(0.422610627957598,0.,0.906311346689031));
#1141=DIRECTION('ref_axis',(-0.906311346689031,0.,0.422610627957598));
#1142=DIRECTION('',(-0.906311346689031,0.,0.422610627957598));
#1143=DIRECTION('center_axis',(0.422610627957598,0.,0.906311346689031));
#1144=DIRECTION('ref_axis',(0.906311346689031,0.,-0.422610627957598));
#1145=DIRECTION('center_axis',(-0.422610627957598,0.,-0.906311346689031));
#1146=DIRECTION('ref_axis',(0.906311346689031,0.,-0.422610627957598));
#1147=DIRECTION('',(-0.422610627957598,0.,-0.906311346689031));
#1148=DIRECTION('',(0.422610627957598,0.,0.906311346689031));
#1149=DIRECTION('',(-0.422610627957598,0.,-0.906311346689031));
#1150=DIRECTION('center_axis',(-0.422610627957598,0.,-0.906311346689031));
#1151=DIRECTION('ref_axis',(0.906311346689031,0.,-0.422610627957598));
#1152=DIRECTION('center_axis',(-0.422610627957598,0.,-0.906311346689031));
#1153=DIRECTION('ref_axis',(0.906311346689031,0.,-0.422610627957598));
#1154=DIRECTION('center_axis',(0.,-1.,0.));
#1155=DIRECTION('ref_axis',(0.,0.,-1.));
#1156=DIRECTION('',(-0.422610627957599,0.,-0.906311346689031));
#1157=DIRECTION('',(0.,0.,-1.));
#1158=DIRECTION('',(-1.,0.,0.));
#1159=DIRECTION('',(0.,0.,-1.));
#1160=DIRECTION('center_axis',(0.422610627957598,0.,0.906311346689031));
#1161=DIRECTION('ref_axis',(-0.906311346689031,0.,0.422610627957598));
#1162=DIRECTION('',(0.906311346689031,0.,-0.422610627957598));
#1163=DIRECTION('center_axis',(0.422610627957598,0.,0.906311346689031));
#1164=DIRECTION('ref_axis',(0.906311346689031,0.,-0.422610627957598));
#1165=DIRECTION('center_axis',(-0.422610627957598,0.,-0.906311346689031));
#1166=DIRECTION('ref_axis',(0.906311346689031,0.,-0.422610627957598));
#1167=DIRECTION('',(-0.422610627957598,0.,-0.906311346689031));
#1168=DIRECTION('',(0.422610627957598,0.,0.906311346689031));
#1169=DIRECTION('',(-0.422610627957598,0.,-0.906311346689031));
#1170=DIRECTION('center_axis',(-0.422610627957598,0.,-0.906311346689031));
#1171=DIRECTION('ref_axis',(0.906311346689031,0.,-0.422610627957598));
#1172=DIRECTION('center_axis',(-0.422610627957598,0.,-0.906311346689031));
#1173=DIRECTION('ref_axis',(0.906311346689031,0.,-0.422610627957598));
#1174=DIRECTION('center_axis',(0.,1.,0.));
#1175=DIRECTION('ref_axis',(0.,0.,1.));
#1176=DIRECTION('',(0.,0.,-1.));
#1177=DIRECTION('',(1.,0.,0.));
#1178=DIRECTION('',(0.,0.,-1.));
#1179=DIRECTION('',(0.422610627957599,0.,0.906311346689031));
#1180=DIRECTION('center_axis',(0.,0.,1.));
#1181=DIRECTION('ref_axis',(1.,0.,0.));
#1182=DIRECTION('center_axis',(0.,0.,1.));
#1183=DIRECTION('ref_axis',(1.,0.,0.));
#1184=DIRECTION('',(0.,0.,1.));
#1185=DIRECTION('center_axis',(0.,0.,-1.));
#1186=DIRECTION('ref_axis',(1.,0.,0.));
#1187=DIRECTION('center_axis',(0.,0.,1.));
#1188=DIRECTION('ref_axis',(1.,0.,0.));
#1189=DIRECTION('center_axis',(0.,0.,1.));
#1190=DIRECTION('ref_axis',(1.,0.,0.));
#1191=DIRECTION('',(0.,0.,1.));
#1192=DIRECTION('center_axis',(0.,0.,-1.));
#1193=DIRECTION('ref_axis',(1.,0.,0.));
#1194=DIRECTION('center_axis',(0.,0.,1.));
#1195=DIRECTION('ref_axis',(1.,0.,0.));
#1196=DIRECTION('center_axis',(0.,0.,1.));
#1197=DIRECTION('ref_axis',(1.,0.,0.));
#1198=DIRECTION('',(0.,0.,1.));
#1199=DIRECTION('center_axis',(0.,0.,-1.));
#1200=DIRECTION('ref_axis',(1.,0.,0.));
#1201=DIRECTION('center_axis',(0.,0.,1.));
#1202=DIRECTION('ref_axis',(1.,0.,0.));
#1203=DIRECTION('center_axis',(0.,0.,1.));
#1204=DIRECTION('ref_axis',(1.,0.,0.));
#1205=DIRECTION('',(0.,0.,1.));
#1206=DIRECTION('center_axis',(0.,0.,-1.));
#1207=DIRECTION('ref_axis',(1.,0.,0.));
#1208=DIRECTION('center_axis',(0.906311346689031,0.,-0.422610627957597));
#1209=DIRECTION('ref_axis',(0.422610627957597,0.,0.906311346689031));
#1210=DIRECTION('center_axis',(0.906311346689031,0.,-0.422610627957599));
#1211=DIRECTION('ref_axis',(0.422610627957599,0.,0.90631134668903));
#1212=DIRECTION('',(0.906311346689031,0.,-0.422610627957597));
#1213=DIRECTION('center_axis',(-0.906311346689031,0.,0.422610627957599));
#1214=DIRECTION('ref_axis',(0.422610627957599,0.,0.90631134668903));
#1215=DIRECTION('center_axis',(0.906311346689031,0.,-0.422610627957597));
#1216=DIRECTION('ref_axis',(0.422610627957597,0.,0.906311346689031));
#1217=DIRECTION('center_axis',(0.906311346689031,0.,-0.422610627957599));
#1218=DIRECTION('ref_axis',(0.422610627957599,0.,0.90631134668903));
#1219=DIRECTION('',(0.906311346689031,0.,-0.422610627957597));
#1220=DIRECTION('center_axis',(-0.906311346689031,0.,0.422610627957599));
#1221=DIRECTION('ref_axis',(0.422610627957599,0.,0.90631134668903));
#1222=DIRECTION('center_axis',(0.906311346689031,0.,-0.422610627957597));
#1223=DIRECTION('ref_axis',(0.422610627957597,0.,0.906311346689031));
#1224=DIRECTION('center_axis',(0.906311346689031,0.,-0.422610627957599));
#1225=DIRECTION('ref_axis',(0.422610627957599,0.,0.90631134668903));
#1226=DIRECTION('',(0.906311346689031,0.,-0.422610627957597));
#1227=DIRECTION('center_axis',(-0.906311346689031,0.,0.422610627957599));
#1228=DIRECTION('ref_axis',(0.422610627957599,0.,0.90631134668903));
#1229=DIRECTION('center_axis',(0.906311346689031,0.,-0.422610627957597));
#1230=DIRECTION('ref_axis',(0.422610627957597,0.,0.906311346689031));
#1231=DIRECTION('center_axis',(0.906311346689031,0.,-0.422610627957599));
#1232=DIRECTION('ref_axis',(0.422610627957599,0.,0.90631134668903));
#1233=DIRECTION('',(0.906311346689031,0.,-0.422610627957597));
#1234=DIRECTION('center_axis',(-0.906311346689031,0.,0.422610627957599));
#1235=DIRECTION('ref_axis',(0.422610627957599,0.,0.90631134668903));
#1236=DIRECTION('center_axis',(0.906311346689031,0.,-0.422610627957597));
#1237=DIRECTION('ref_axis',(0.422610627957597,0.,0.906311346689031));
#1238=DIRECTION('center_axis',(0.906311346689031,0.,-0.422610627957599));
#1239=DIRECTION('ref_axis',(0.422610627957599,0.,0.906311346689031));
#1240=DIRECTION('',(0.906311346689031,0.,-0.422610627957597));
#1241=DIRECTION('center_axis',(-0.906311346689031,0.,0.422610627957599));
#1242=DIRECTION('ref_axis',(0.422610627957599,0.,0.906311346689031));
#1243=DIRECTION('center_axis',(0.422610627957599,0.,0.906311346689031));
#1244=DIRECTION('ref_axis',(0.90631134668903,0.,-0.422610627957599));
#1245=DIRECTION('',(0.906311346689031,0.,-0.422610627957599));
#1246=DIRECTION('',(0.,1.,0.));
#1247=DIRECTION('',(-0.906311346689031,0.,0.422610627957599));
#1248=DIRECTION('center_axis',(0.906311346689031,0.,-0.422610627957599));
#1249=DIRECTION('ref_axis',(-0.422610627957599,0.,-0.90631134668903));
#1250=DIRECTION('center_axis',(0.906311346689031,0.,-0.422610627957599));
#1251=DIRECTION('ref_axis',(0.422610627957599,0.,0.90631134668903));
#1252=DIRECTION('',(0.,1.,0.));
#1253=DIRECTION('',(-0.422610627957599,0.,-0.906311346689031));
#1254=DIRECTION('',(-0.422610627957599,0.,-0.906311346689031));
#1255=DIRECTION('center_axis',(0.,1.,0.));
#1256=DIRECTION('ref_axis',(0.422610627957599,0.,0.90631134668903));
#1257=DIRECTION('center_axis',(0.422610627957599,0.,0.906311346689031));
#1258=DIRECTION('ref_axis',(0.90631134668903,0.,-0.422610627957599));
#1259=DIRECTION('',(-0.906311346689031,0.,0.422610627957599));
#1260=DIRECTION('',(0.906311346689031,0.,-0.422610627957599));
#1261=DIRECTION('center_axis',(0.,-1.,0.));
#1262=DIRECTION('ref_axis',(-0.422610627957599,0.,-0.90631134668903));
#1263=DIRECTION('center_axis',(0.906311346689031,0.,-0.422610627957599));
#1264=DIRECTION('ref_axis',(0.422610627957599,0.,0.90631134668903));
#1265=DIRECTION('center_axis',(-0.906311346689031,0.,0.422610627957599));
#1266=DIRECTION('ref_axis',(0.422610627957599,0.,0.90631134668903));
#1267=DIRECTION('',(0.90631134668903,0.,-0.422610627957599));
#1268=DIRECTION('center_axis',(-0.906311346689031,0.,0.422610627957599));
#1269=DIRECTION('ref_axis',(-0.422610627957599,0.,-0.90631134668903));
#1270=DIRECTION('center_axis',(0.,1.,0.));
#1271=DIRECTION('ref_axis',(0.422610627957599,0.,0.90631134668903));
#1272=DIRECTION('',(0.,0.,1.));
#1273=DIRECTION('',(1.,0.,0.));
#1274=DIRECTION('',(0.,0.,-1.));
#1275=DIRECTION('',(-0.422610627957599,0.,-0.906311346689031));
#1276=DIRECTION('',(-0.906311346689031,0.,0.422610627957599));
#1277=DIRECTION('center_axis',(0.,-1.,0.));
#1278=DIRECTION('ref_axis',(-0.422610627957599,0.,-0.90631134668903));
#1279=DIRECTION('',(0.,0.,1.));
#1280=DIRECTION('',(-1.,0.,0.));
#1281=DIRECTION('',(0.,0.,-1.));
#1282=DIRECTION('',(0.906311346689031,0.,-0.422610627957599));
#1283=DIRECTION('',(-0.422610627957599,0.,-0.906311346689031));
#1284=DIRECTION('center_axis',(0.422610627957599,0.,0.906311346689031));
#1285=DIRECTION('ref_axis',(0.90631134668903,0.,-0.422610627957599));
#1286=DIRECTION('',(0.,1.,0.));
#1287=DIRECTION('center_axis',(0.906311346689031,0.,-0.422610627957599));
#1288=DIRECTION('ref_axis',(-0.422610627957599,0.,-0.90631134668903));
#1289=DIRECTION('',(0.,-1.,0.));
#1290=DIRECTION('',(0.,-1.,0.));
#1291=DIRECTION('center_axis',(1.,0.,0.));
#1292=DIRECTION('ref_axis',(0.,0.,-1.));
#1293=DIRECTION('',(0.,1.,0.));
#1294=DIRECTION('',(0.,0.,-1.));
#1295=DIRECTION('',(0.,-1.,0.));
#1296=DIRECTION('center_axis',(0.,0.,1.));
#1297=DIRECTION('ref_axis',(1.,0.,0.));
#1298=DIRECTION('',(0.,1.,0.));
#1299=DIRECTION('',(1.,0.,0.));
#1300=DIRECTION('',(0.,-1.,0.));
#1301=DIRECTION('center_axis',(1.,0.,0.));
#1302=DIRECTION('ref_axis',(0.,0.,-1.));
#1303=DIRECTION('',(0.,-1.,0.));
#1304=DIRECTION('',(0.,0.,-1.));
#1305=DIRECTION('center_axis',(0.,-1.,0.));
#1306=DIRECTION('ref_axis',(0.,0.,-1.));
#1307=DIRECTION('',(0.,0.,-1.));
#1308=DIRECTION('',(-1.,0.,0.));
#1309=DIRECTION('center_axis',(0.,0.,1.));
#1310=DIRECTION('ref_axis',(1.,0.,0.));
#1311=DIRECTION('',(0.,-1.,0.));
#1312=DIRECTION('',(1.,0.,0.));
#1313=DIRECTION('',(0.,-1.,0.));
#1314=DIRECTION('',(-1.,0.,0.));
#1315=DIRECTION('',(0.,1.,0.));
#1316=DIRECTION('',(1.,0.,0.));
#1317=DIRECTION('',(0.,-1.,0.));
#1318=DIRECTION('center_axis',(0.,0.,1.));
#1319=DIRECTION('ref_axis',(1.,0.,0.));
#1320=DIRECTION('',(0.,-1.,0.));
#1321=DIRECTION('',(-1.,0.,0.));
#1322=DIRECTION('center_axis',(0.,1.,0.));
#1323=DIRECTION('ref_axis',(0.,0.,1.));
#1324=DIRECTION('',(0.,0.,-1.));
#1325=DIRECTION('center_axis',(0.,0.,1.));
#1326=DIRECTION('ref_axis',(1.,0.,0.));
#1327=DIRECTION('',(0.,1.,0.));
#1328=DIRECTION('',(-1.,0.,0.));
#1329=DIRECTION('',(0.,-1.,0.));
#1330=DIRECTION('',(1.,0.,0.));
#1331=DIRECTION('center_axis',(0.,1.,0.));
#1332=DIRECTION('ref_axis',(0.,0.,1.));
#1333=DIRECTION('',(0.,0.,-1.));
#1334=DIRECTION('',(0.,0.,-1.));
#1335=DIRECTION('center_axis',(1.,0.,0.));
#1336=DIRECTION('ref_axis',(0.,0.,-1.));
#1337=DIRECTION('',(0.,0.,-1.));
#1338=DIRECTION('center_axis',(0.,-1.,0.));
#1339=DIRECTION('ref_axis',(0.,0.,-1.));
#1340=DIRECTION('',(0.,0.,-1.));
#1341=DIRECTION('center_axis',(-1.,0.,0.));
#1342=DIRECTION('ref_axis',(0.,0.,1.));
#1343=CARTESIAN_POINT('',(0.,0.,0.));
#1344=CARTESIAN_POINT('Origin',(8.4285605,-1.65,10.3934055));
#1345=CARTESIAN_POINT('',(8.46191159237638,-1.76357365329014,9.99167379118162));
#1346=CARTESIAN_POINT('',(8.71547853431278,-1.76357365329014,10.5354618112152));
#1347=CARTESIAN_POINT('',(8.60982509237638,-1.76357365329014,10.3088822911816));
#1348=CARTESIAN_POINT('',(8.46191159237638,-1.53642634670986,9.99167379118162));
#1349=CARTESIAN_POINT('Origin',(8.280647,-1.65,10.076197));
#1350=CARTESIAN_POINT('',(8.71547853431278,-1.53642634670986,10.5354618112152));
#1351=CARTESIAN_POINT('',(8.60982509237638,-1.53642634670986,10.3088822911816));
#1352=CARTESIAN_POINT('Origin',(8.5342139419364,-1.65,10.6199850200336));
#1353=CARTESIAN_POINT('Origin',(8.280647,-1.65,10.076197));
#1354=CARTESIAN_POINT('',(8.46191159237638,-0.825,9.99167379118162));
#1355=CARTESIAN_POINT('Origin',(6.9708291919364,0.,11.3489872700335));
#1356=CARTESIAN_POINT('',(8.71547853431278,-1.3,10.5354618112152));
#1357=CARTESIAN_POINT('',(8.71547853431278,0.,10.5354618112152));
#1358=CARTESIAN_POINT('',(6.54033025857511,-1.3,11.5497278049805));
#1359=CARTESIAN_POINT('',(7.3220243169364,-1.3,11.1852258950335));
#1360=CARTESIAN_POINT('',(6.54033025857511,1.3,11.5497278049805));
#1361=CARTESIAN_POINT('',(6.54033025857511,0.,11.5497278049805));
#1362=CARTESIAN_POINT('',(8.71547853431278,1.3,10.5354618112152));
#1363=CARTESIAN_POINT('',(7.3220243169364,1.3,11.1852258950335));
#1364=CARTESIAN_POINT('',(8.71547853431278,1.53642634670986,10.5354618112152));
#1365=CARTESIAN_POINT('',(8.71547853431278,0.,10.5354618112152));
#1366=CARTESIAN_POINT('',(8.71547853431278,1.76357365329014,10.5354618112152));
#1367=CARTESIAN_POINT('Origin',(8.5342139419364,1.65,10.6199850200336));
#1368=CARTESIAN_POINT('',(8.71547853431278,2.,10.5354618112152));
#1369=CARTESIAN_POINT('',(8.71547853431278,0.,10.5354618112152));
#1370=CARTESIAN_POINT('',(7.2,2.,11.2421255172163));
#1371=CARTESIAN_POINT('',(6.9708291919364,2.,11.3489872700335));
#1372=CARTESIAN_POINT('',(7.2,1.8,11.2421255172163));
#1373=CARTESIAN_POINT('',(7.2,0.,11.2421255172163));
#1374=CARTESIAN_POINT('',(7.06087672480047,1.8,11.3069983392442));
#1375=CARTESIAN_POINT('',(6.52819096895493,1.8,11.5553883242139));
#1376=CARTESIAN_POINT('',(6.69440433219792,1.65,11.4778834644637));
#1377=CARTESIAN_POINT('Origin',(6.9028559419364,1.65,11.3806830200335));
#1378=CARTESIAN_POINT('',(6.74483515907233,1.8,11.4543677008229));
#1379=CARTESIAN_POINT('Origin',(6.9028559419364,1.65,11.3806830200335));
#1380=CARTESIAN_POINT('',(5.22617984956001,1.8,12.1625127288519));
#1381=CARTESIAN_POINT('',(6.52819096895493,1.8,11.5553883242139));
#1382=CARTESIAN_POINT('',(5.22617984956001,-1.8,12.1625127288519));
#1383=CARTESIAN_POINT('',(5.22617984956001,0.,12.1625127288519));
#1384=CARTESIAN_POINT('',(6.74483515907233,-1.8,11.4543677008229));
#1385=CARTESIAN_POINT('',(6.52819096895493,-1.8,11.5553883242139));
#1386=CARTESIAN_POINT('',(6.69440433219792,-1.65,11.4778834644637));
#1387=CARTESIAN_POINT('Origin',(6.9028559419364,-1.65,11.3806830200335));
#1388=CARTESIAN_POINT('',(7.06087672480047,-1.8,11.3069983392442));
#1389=CARTESIAN_POINT('Origin',(6.9028559419364,-1.65,11.3806830200335));
#1390=CARTESIAN_POINT('',(7.2,-1.8,11.2421255172163));
#1391=CARTESIAN_POINT('',(6.52819096895493,-1.8,11.5553883242139));
#1392=CARTESIAN_POINT('',(7.2,-2.,11.2421255172163));
#1393=CARTESIAN_POINT('',(7.2,0.,11.2421255172163));
#1394=CARTESIAN_POINT('',(8.71547853431278,-2.,10.5354618112152));
#1395=CARTESIAN_POINT('',(6.9708291919364,-2.,11.3489872700335));
#1396=CARTESIAN_POINT('',(8.71547853431278,0.,10.5354618112152));
#1397=CARTESIAN_POINT('Origin',(8.280647,1.65,10.076197));
#1398=CARTESIAN_POINT('',(8.46191159237638,1.76357365329014,9.99167379118162));
#1399=CARTESIAN_POINT('',(8.46191159237638,1.53642634670986,9.99167379118162));
#1400=CARTESIAN_POINT('',(8.46191159237638,0.825,9.99167379118162));
#1401=CARTESIAN_POINT('Origin',(8.280647,1.65,10.076197));
#1402=CARTESIAN_POINT('Origin',(8.4285605,1.65,10.3934055));
#1403=CARTESIAN_POINT('',(8.60982509237638,1.76357365329014,10.3088822911816));
#1404=CARTESIAN_POINT('',(8.60982509237638,1.53642634670986,10.3088822911816));
#1405=CARTESIAN_POINT('Origin',(8.08156259237638,0.,9.17599479118162));
#1406=CARTESIAN_POINT('',(7.44764665043999,-2.,7.81652777114808));
#1407=CARTESIAN_POINT('',(8.08156259237638,-2.,9.17599479118162));
#1408=CARTESIAN_POINT('',(7.44764665043999,2.,7.81652777114808));
#1409=CARTESIAN_POINT('',(7.44764665043999,0.,7.81652777114808));
#1410=CARTESIAN_POINT('',(8.08156259237638,2.,9.17599479118162));
#1411=CARTESIAN_POINT('',(8.25060621560182,1.3,9.5385179831682));
#1412=CARTESIAN_POINT('',(8.29286759237638,1.3,9.62914979118162));
#1413=CARTESIAN_POINT('',(8.25060621560182,1.25415329026676,9.5385179831682));
#1414=CARTESIAN_POINT('',(8.25060621560183,0.,9.53851798316821));
#1415=CARTESIAN_POINT('',(7.62936909487023,1.55530143491714E-16,8.20624138088655));
#1416=CARTESIAN_POINT('Origin',(8.16608459237638,0.,9.35725679118162));
#1417=CARTESIAN_POINT('',(8.25060621560182,-1.25415329026676,9.5385179831682));
#1418=CARTESIAN_POINT('Origin',(8.16608459237638,0.,9.35725679118162));
#1419=CARTESIAN_POINT('',(8.25060621560182,-1.3,9.5385179831682));
#1420=CARTESIAN_POINT('',(8.25060621560183,0.,9.53851798316821));
#1421=CARTESIAN_POINT('',(8.29286759237638,-1.3,9.62914979118162));
#1422=CARTESIAN_POINT('Origin',(6.945116,-1.65,11.471312));
#1423=CARTESIAN_POINT('',(7.10313678286407,-1.8,11.3976273192107));
#1424=CARTESIAN_POINT('',(6.78709521713593,-1.8,11.5449966807893));
#1425=CARTESIAN_POINT('',(6.53646440201853,-1.8,11.6618651791804));
#1426=CARTESIAN_POINT('Origin',(6.945116,-1.65,11.471312));
#1427=CARTESIAN_POINT('Origin',(6.7972025,-1.65,11.1541035));
#1428=CARTESIAN_POINT('',(6.63918171713593,-1.8,11.2277881807893));
#1429=CARTESIAN_POINT('',(6.95522328286407,-1.8,11.0804188192107));
#1430=CARTESIAN_POINT('',(6.44083739026152,-1.65,10.9340954444302));
#1431=CARTESIAN_POINT('',(6.58875089026152,-1.65,11.2513039444302));
#1432=CARTESIAN_POINT('Origin',(6.649289,-1.65,10.836895));
#1433=CARTESIAN_POINT('Origin',(6.649289,-1.65,10.836895));
#1434=CARTESIAN_POINT('Origin',(6.15,-1.8,11.9));
#1435=CARTESIAN_POINT('',(5.1,-1.8,11.8919132175892));
#1436=CARTESIAN_POINT('',(4.94144550560509,-1.8,11.551884529638));
#1437=CARTESIAN_POINT('',(5.1,-1.8,14.3));
#1438=CARTESIAN_POINT('',(5.1,-1.8,11.9));
#1439=CARTESIAN_POINT('',(7.2,-1.8,14.3));
#1440=CARTESIAN_POINT('',(6.125,-1.8,14.3));
#1441=CARTESIAN_POINT('',(7.2,-1.8,11.9));
#1442=CARTESIAN_POINT('Origin',(6.945116,1.65,11.471312));
#1443=CARTESIAN_POINT('',(6.78709521713593,1.8,11.5449966807893));
#1444=CARTESIAN_POINT('',(7.10313678286407,1.8,11.3976273192107));
#1445=CARTESIAN_POINT('',(6.53646440201853,1.8,11.6618651791804));
#1446=CARTESIAN_POINT('Origin',(6.945116,1.65,11.471312));
#1447=CARTESIAN_POINT('Origin',(6.7972025,1.65,11.1541035));
#1448=CARTESIAN_POINT('',(6.95522328286407,1.8,11.0804188192107));
#1449=CARTESIAN_POINT('',(6.63918171713593,1.8,11.2277881807893));
#1450=CARTESIAN_POINT('',(6.44083739026152,1.65,10.9340954444302));
#1451=CARTESIAN_POINT('',(6.58875089026152,1.65,11.2513039444302));
#1452=CARTESIAN_POINT('Origin',(6.649289,1.65,10.836895));
#1453=CARTESIAN_POINT('Origin',(6.649289,1.65,10.836895));
#1454=CARTESIAN_POINT('Origin',(6.15,1.8,11.9));
#1455=CARTESIAN_POINT('',(7.2,1.8,14.3));
#1456=CARTESIAN_POINT('',(7.2,1.8,11.9));
#1457=CARTESIAN_POINT('',(5.1,1.8,14.3));
#1458=CARTESIAN_POINT('',(6.125,1.8,14.3));
#1459=CARTESIAN_POINT('',(5.1,1.8,11.8919132175892));
#1460=CARTESIAN_POINT('',(5.1,1.8,11.9));
#1461=CARTESIAN_POINT('',(4.94144550560509,1.8,11.551884529638));
#1462=CARTESIAN_POINT('Origin',(6.4,-0.9,14.5));
#1463=CARTESIAN_POINT('',(6.175,-0.9,14.3));
#1464=CARTESIAN_POINT('Origin',(6.4,-0.9,14.3));
#1465=CARTESIAN_POINT('',(6.175,-0.9,14.7));
#1466=CARTESIAN_POINT('',(6.175,-0.9,14.5));
#1467=CARTESIAN_POINT('Origin',(6.4,-0.9,14.7));
#1468=CARTESIAN_POINT('Origin',(6.4,0.9,14.5));
#1469=CARTESIAN_POINT('',(6.175,0.9,14.3));
#1470=CARTESIAN_POINT('Origin',(6.4,0.9,14.3));
#1471=CARTESIAN_POINT('',(6.175,0.9,14.7));
#1472=CARTESIAN_POINT('',(6.175,0.9,14.5));
#1473=CARTESIAN_POINT('Origin',(6.4,0.9,14.7));
#1474=CARTESIAN_POINT('Origin',(5.7,-0.9,14.5));
#1475=CARTESIAN_POINT('',(5.475,-0.9,14.3));
#1476=CARTESIAN_POINT('Origin',(5.7,-0.9,14.3));
#1477=CARTESIAN_POINT('',(5.475,-0.9,14.7));
#1478=CARTESIAN_POINT('',(5.475,-0.9,14.5));
#1479=CARTESIAN_POINT('Origin',(5.7,-0.9,14.7));
#1480=CARTESIAN_POINT('Origin',(5.7,0.9,14.5));
#1481=CARTESIAN_POINT('',(5.475,0.9,14.3));
#1482=CARTESIAN_POINT('Origin',(5.7,0.9,14.3));
#1483=CARTESIAN_POINT('',(5.475,0.9,14.7));
#1484=CARTESIAN_POINT('',(5.475,0.9,14.5));
#1485=CARTESIAN_POINT('Origin',(5.7,0.9,14.7));
#1486=CARTESIAN_POINT('Origin',(4.8580505,-0.85,10.8997845));
#1487=CARTESIAN_POINT('',(4.60494210087083,-0.85,10.8302347798812));
#1488=CARTESIAN_POINT('Origin',(4.67678590762362,-0.85,10.9843077088184));
#1489=CARTESIAN_POINT('',(4.91762164324721,-0.85,10.6844331210629));
#1490=CARTESIAN_POINT('',(4.78620669324721,-0.85,10.7457115710629));
#1491=CARTESIAN_POINT('Origin',(4.98946545,-0.85,10.83850605));
#1492=CARTESIAN_POINT('Origin',(4.8580505,0.85,10.8997845));
#1493=CARTESIAN_POINT('',(4.60494210087083,0.85,10.8302347798812));
#1494=CARTESIAN_POINT('Origin',(4.67678590762362,0.85,10.9843077088184));
#1495=CARTESIAN_POINT('',(4.91762164324721,0.85,10.6844331210629));
#1496=CARTESIAN_POINT('',(4.78620669324721,0.85,10.7457115710629));
#1497=CARTESIAN_POINT('Origin',(4.98946545,0.85,10.83850605));
#1498=CARTESIAN_POINT('Origin',(4.498832,0.,10.129421));
#1499=CARTESIAN_POINT('',(4.24572360087083,2.0818995585505E-17,10.0598712798812));
#1500=CARTESIAN_POINT('Origin',(4.31756740762362,0.,10.2139442088184));
#1501=CARTESIAN_POINT('',(4.55840314324721,-2.0818995585505E-17,9.91406962106287));
#1502=CARTESIAN_POINT('',(4.42698819324721,2.0818995585505E-17,9.97534807106287));
#1503=CARTESIAN_POINT('Origin',(4.63024695,0.,10.06814255));
#1504=CARTESIAN_POINT('Origin',(5.217269,0.,11.670148));
#1505=CARTESIAN_POINT('',(4.96416060087082,2.0818995585505E-17,11.6005982798812));
#1506=CARTESIAN_POINT('Origin',(5.03600440762362,0.,11.7546712088184));
#1507=CARTESIAN_POINT('',(5.27684014324721,-2.0818995585505E-17,11.4547966210629));
#1508=CARTESIAN_POINT('',(5.14542519324721,2.0818995585505E-17,11.5160750710629));
#1509=CARTESIAN_POINT('Origin',(5.34868395,0.,11.60886955));
#1510=CARTESIAN_POINT('Origin',(4.903366,0.,10.878654));
#1511=CARTESIAN_POINT('',(4.52887218783846,4.28626379701574E-17,10.6670987374772));
#1512=CARTESIAN_POINT('Origin',(4.67678590762362,0.,10.9843077088184));
#1513=CARTESIAN_POINT('',(4.84155173021484,-4.28626379701574E-17,10.5212970786588));
#1514=CARTESIAN_POINT('',(4.75545228021484,4.28626379701574E-17,10.5614450286588));
#1515=CARTESIAN_POINT('Origin',(4.98946545,0.,10.83850605));
#1516=CARTESIAN_POINT('Origin',(7.20834712322544,0.,10.0245206919866));
#1517=CARTESIAN_POINT('',(6.07545793986415,-1.25415329026676,10.5527839769336));
#1518=CARTESIAN_POINT('',(6.75292634822544,-1.25415329026676,10.2368822169866));
#1519=CARTESIAN_POINT('',(6.07545793986415,-1.3,10.5527839769336));
#1520=CARTESIAN_POINT('',(6.07545793986415,0.,10.5527839769336));
#1521=CARTESIAN_POINT('',(7.20834712322544,-1.3,10.0245206919866));
#1522=CARTESIAN_POINT('Origin',(6.32902431663871,0.,11.096570784947));
#1523=CARTESIAN_POINT('',(6.07545793986415,1.25415329026676,10.5527839769336));
#1524=CARTESIAN_POINT('Origin',(5.99093631663871,0.,10.371522784947));
#1525=CARTESIAN_POINT('',(6.07545793986415,1.3,10.5527839769336));
#1526=CARTESIAN_POINT('',(6.07545793986415,0.,10.5527839769336));
#1527=CARTESIAN_POINT('',(6.32902431663871,1.3,11.096570784947));
#1528=CARTESIAN_POINT('',(6.32902431663871,-1.3,11.096570784947));
#1529=CARTESIAN_POINT('Origin',(7.4619135,-1.3,10.5683075));
#1530=CARTESIAN_POINT('Origin',(7.20834712322544,0.,10.0245206919866));
#1531=CARTESIAN_POINT('',(6.75292634822544,1.25415329026676,10.2368822169866));
#1532=CARTESIAN_POINT('',(7.20834712322544,1.3,10.0245206919866));
#1533=CARTESIAN_POINT('Origin',(7.4619135,1.3,10.5683075));
#1534=CARTESIAN_POINT('Origin',(6.668404725,0.,10.055621025));
#1535=CARTESIAN_POINT('',(4.45274995249385,1.55530143491714E-16,9.68749063970493));
#1536=CARTESIAN_POINT('Origin',(4.98946545,0.,10.83850605));
#1537=CARTESIAN_POINT('',(6.13168922749385,1.55530143491714E-16,8.90460561470493));
#1538=CARTESIAN_POINT('Origin',(4.98946545,0.,10.83850605));
#1539=CARTESIAN_POINT('Origin',(6.33691325,-2.,9.98952025));
#1540=CARTESIAN_POINT('',(7.2,-2.,9.5));
#1541=CARTESIAN_POINT('',(7.2,-2.,12.244760125));
#1542=CARTESIAN_POINT('',(5.1,-2.,9.5));
#1543=CARTESIAN_POINT('',(6.243456625,-2.,9.5));
#1544=CARTESIAN_POINT('',(5.1,-2.,11.8919132175892));
#1545=CARTESIAN_POINT('',(5.1,-2.,10.944760125));
#1546=CARTESIAN_POINT('',(3.95834796568722,-2.,9.44357868878483));
#1547=CARTESIAN_POINT('',(4.59226390762362,-2.,10.8030457088184));
#1548=CARTESIAN_POINT('',(5.7029973080636,-2.,8.63005322996645));
#1549=CARTESIAN_POINT('Origin',(6.33691325,2.,9.98952025));
#1550=CARTESIAN_POINT('',(5.1,2.,9.5));
#1551=CARTESIAN_POINT('',(5.1,2.,11.8919132175892));
#1552=CARTESIAN_POINT('',(5.1,2.,10.944760125));
#1553=CARTESIAN_POINT('',(7.2,2.,9.5));
#1554=CARTESIAN_POINT('',(6.243456625,2.,9.5));
#1555=CARTESIAN_POINT('',(7.2,2.,12.244760125));
#1556=CARTESIAN_POINT('',(3.95834796568722,2.,9.44357868878483));
#1557=CARTESIAN_POINT('',(5.7029973080636,2.,8.63005322996645));
#1558=CARTESIAN_POINT('',(4.59226390762362,2.,10.8030457088184));
#1559=CARTESIAN_POINT('Origin',(5.7029973080636,0.,8.63005322996645));
#1560=CARTESIAN_POINT('',(3.95834796568722,0.,9.44357868878483));
#1561=CARTESIAN_POINT('Origin',(4.59226390762362,0.,10.8030457088184));
#1562=CARTESIAN_POINT('',(5.1,1.1,11.8919132175892));
#1563=CARTESIAN_POINT('',(5.1,-1.1,11.8919132175892));
#1564=CARTESIAN_POINT('Origin',(5.1,-2.2,11.9));
#1565=CARTESIAN_POINT('',(5.1,-2.6,9.5));
#1566=CARTESIAN_POINT('',(5.1,-2.2,9.5));
#1567=CARTESIAN_POINT('',(5.1,-2.6,14.3));
#1568=CARTESIAN_POINT('',(5.1,-2.6,11.9));
#1569=CARTESIAN_POINT('',(5.1,-1.1,14.3));
#1570=CARTESIAN_POINT('Origin',(6.15,2.2,9.5));
#1571=CARTESIAN_POINT('',(5.1,2.6,9.5));
#1572=CARTESIAN_POINT('',(5.1,2.2,9.5));
#1573=CARTESIAN_POINT('',(7.2,2.6,9.5));
#1574=CARTESIAN_POINT('',(6.15,2.6,9.5));
#1575=CARTESIAN_POINT('',(7.2,2.2,9.5));
#1576=CARTESIAN_POINT('Origin',(5.1,2.2,11.9));
#1577=CARTESIAN_POINT('',(5.1,2.6,14.3));
#1578=CARTESIAN_POINT('',(5.1,1.1,14.3));
#1579=CARTESIAN_POINT('',(5.1,2.6,11.9));
#1580=CARTESIAN_POINT('Origin',(6.15,2.6,11.9));
#1581=CARTESIAN_POINT('',(7.2,2.6,14.3));
#1582=CARTESIAN_POINT('',(7.2,2.6,11.9));
#1583=CARTESIAN_POINT('',(6.125,2.6,14.3));
#1584=CARTESIAN_POINT('Origin',(6.1,0.,14.3));
#1585=CARTESIAN_POINT('',(7.2,0.,14.3));
#1586=CARTESIAN_POINT('',(7.2,-2.6,14.3));
#1587=CARTESIAN_POINT('',(6.125,-2.6,14.3));
#1588=CARTESIAN_POINT('',(7.2,-2.7,14.3));
#1589=CARTESIAN_POINT('',(7.2,0.,14.3));
#1590=CARTESIAN_POINT('',(5.,-2.7,14.3));
#1591=CARTESIAN_POINT('',(6.1,-2.7,14.3));
#1592=CARTESIAN_POINT('',(5.,2.7,14.3));
#1593=CARTESIAN_POINT('',(5.,0.,14.3));
#1594=CARTESIAN_POINT('',(7.2,2.7,14.3));
#1595=CARTESIAN_POINT('',(6.1,2.7,14.3));
#1596=CARTESIAN_POINT('',(7.2,0.,14.3));
#1597=CARTESIAN_POINT('Origin',(6.15,-2.2,9.5));
#1598=CARTESIAN_POINT('',(7.2,-2.6,9.5));
#1599=CARTESIAN_POINT('',(7.2,-2.2,9.5));
#1600=CARTESIAN_POINT('',(6.15,-2.6,9.5));
#1601=CARTESIAN_POINT('Origin',(6.15,-2.6,11.9));
#1602=CARTESIAN_POINT('',(7.2,-2.6,11.9));
#1603=CARTESIAN_POINT('Origin',(6.1,0.,14.7));
#1604=CARTESIAN_POINT('',(7.2,-2.7,14.7));
#1605=CARTESIAN_POINT('',(7.2,2.7,14.7));
#1606=CARTESIAN_POINT('',(7.2,0.,14.7));
#1607=CARTESIAN_POINT('',(5.,2.7,14.7));
#1608=CARTESIAN_POINT('',(6.1,2.7,14.7));
#1609=CARTESIAN_POINT('',(5.,-2.7,14.7));
#1610=CARTESIAN_POINT('',(5.,0.,14.7));
#1611=CARTESIAN_POINT('',(6.1,-2.7,14.7));
#1612=CARTESIAN_POINT('Origin',(6.1,-2.7,14.5));
#1613=CARTESIAN_POINT('',(5.,-2.7,14.5));
#1614=CARTESIAN_POINT('',(7.2,-2.7,14.5));
#1615=CARTESIAN_POINT('Origin',(5.,0.,14.5));
#1616=CARTESIAN_POINT('',(5.,2.7,14.5));
#1617=CARTESIAN_POINT('Origin',(6.1,2.7,14.5));
#1618=CARTESIAN_POINT('',(7.2,2.7,14.5));
#1619=CARTESIAN_POINT('Origin',(7.2,0.,14.5));
#1620=UNCERTAINTY_MEASURE_WITH_UNIT(LENGTH_MEASURE(0.001),#1624,
'DISTANCE_ACCURACY_VALUE',
'Maximum model space distance between geometric entities at asserted c
onnectivities');
#1621=UNCERTAINTY_MEASURE_WITH_UNIT(LENGTH_MEASURE(0.001),#1624,
'DISTANCE_ACCURACY_VALUE',
'Maximum model space distance between geometric entities at asserted c
onnectivities');
#1622=(
GEOMETRIC_REPRESENTATION_CONTEXT(3)
GLOBAL_UNCERTAINTY_ASSIGNED_CONTEXT((#1620))
GLOBAL_UNIT_ASSIGNED_CONTEXT((#1624,#1626,#1627))
REPRESENTATION_CONTEXT('','3D')
);
#1623=(
GEOMETRIC_REPRESENTATION_CONTEXT(3)
GLOBAL_UNCERTAINTY_ASSIGNED_CONTEXT((#1621))
GLOBAL_UNIT_ASSIGNED_CONTEXT((#1624,#1626,#1627))
REPRESENTATION_CONTEXT('','3D')
);
#1624=(
LENGTH_UNIT()
NAMED_UNIT(*)
SI_UNIT(.CENTI.,.METRE.)
);
#1625=(
LENGTH_UNIT()
NAMED_UNIT(*)
SI_UNIT($,.METRE.)
);
#1626=(
NAMED_UNIT(*)
PLANE_ANGLE_UNIT()
SI_UNIT($,.RADIAN.)
);
#1627=(
NAMED_UNIT(*)
SI_UNIT($,.STERADIAN.)
SOLID_ANGLE_UNIT()
);
#1628=SHAPE_DEFINITION_REPRESENTATION(#1629,#1630);
#1629=PRODUCT_DEFINITION_SHAPE('',$,#1632);
#1630=SHAPE_REPRESENTATION('',(#996),#1622);
#1631=PRODUCT_DEFINITION_CONTEXT('part definition',#1636,'design');
#1632=PRODUCT_DEFINITION('2026-09-22-12-23-18-742','MotorMount_v9',#1633,
#1631);
#1633=PRODUCT_DEFINITION_FORMATION('',$,#1638);
#1634=PRODUCT_RELATED_PRODUCT_CATEGORY('MotorMount_v9','MotorMount_v9',
(#1638));
#1635=APPLICATION_PROTOCOL_DEFINITION('international standard',
'automotive_design',2009,#1636);
#1636=APPLICATION_CONTEXT(
'Core Data for Automotive Mechanical Design Process');
#1637=PRODUCT_CONTEXT('part definition',#1636,'mechanical');
#1638=PRODUCT('2026-09-22-12-23-18-742','MotorMount_v9',$,(#1637));
#1639=PRESENTATION_STYLE_ASSIGNMENT((#1641));
#1640=PRESENTATION_STYLE_ASSIGNMENT((#1642));
#1641=SURFACE_STYLE_USAGE(.BOTH.,#1643);
#1642=SURFACE_STYLE_USAGE(.BOTH.,#1644);
#1643=SURFACE_SIDE_STYLE('',(#1645));
#1644=SURFACE_SIDE_STYLE('',(#1646));
#1645=SURFACE_STYLE_FILL_AREA(#1647);
#1646=SURFACE_STYLE_FILL_AREA(#1648);
#1647=FILL_AREA_STYLE('\X2\92FC\X0\ - \X2\30B530C630F3\X0\',(#1649));
#1648=FILL_AREA_STYLE('Opaque(160,160,160)',(#1650));
#1649=FILL_AREA_STYLE_COLOUR('\X2\92FC\X0\ - \X2\30B530C630F3\X0\',#1651);
#1650=FILL_AREA_STYLE_COLOUR('Opaque(160,160,160)',#1652);
#1651=COLOUR_RGB('\X2\92FC\X0\ - \X2\30B530C630F3\X0\',0.627450980392157,
0.627450980392157,0.627450980392157);
#1652=COLOUR_RGB('Opaque(160,160,160)',0.627450980392157,0.627450980392157,
0.627450980392157);
ENDSEC;
END-ISO-10303-21;
