ISO-10303-21;
HEADER;
/* Generated by software containing ST-Developer
 * from STEP Tools, Inc. (www.steptools.com) 
 */

FILE_DESCRIPTION(
/* description */ (''),
/* implementation_level */ '2;1');

FILE_NAME(
/* name */ 'MotorMount_v2.step',
/* time_stamp */ '2026-09-15T09:20:31+09:00',
/* author */ (''),
/* organization */ (''),
/* preprocessor_version */ 'ST-DEVELOPER v20.2',
/* originating_system */ 'Autodesk Translation Framework v15.15.0.0',
/* authorisation */ '');

FILE_SCHEMA (('AUTOMOTIVE_DESIGN { 1 0 10303 214 3 1 1 }'));
ENDSEC;

DATA;
#10=MECHANICAL_DESIGN_GEOMETRIC_PRESENTATION_REPRESENTATION('',(#13),#897);
#11=SHAPE_REPRESENTATION_RELATIONSHIP('SRR','None',#904,#12);
#12=ADVANCED_BREP_SHAPE_REPRESENTATION('',(#14),#896);
#13=STYLED_ITEM('',(#913),#14);
#14=MANIFOLD_SOLID_BREP('MotorMount_v2',#529);
#15=FACE_BOUND('',#78,.T.);
#16=FACE_BOUND('',#80,.T.);
#17=FACE_BOUND('',#93,.T.);
#18=FACE_BOUND('',#94,.T.);
#19=FACE_BOUND('',#95,.T.);
#20=FACE_BOUND('',#100,.T.);
#21=FACE_BOUND('',#101,.T.);
#22=FACE_BOUND('',#102,.T.);
#23=PLANE('',#546);
#24=PLANE('',#550);
#25=PLANE('',#554);
#26=PLANE('',#558);
#27=PLANE('',#559);
#28=PLANE('',#560);
#29=PLANE('',#563);
#30=PLANE('',#583);
#31=PLANE('',#584);
#32=PLANE('',#585);
#33=PLANE('',#586);
#34=PLANE('',#587);
#35=PLANE('',#588);
#36=PLANE('',#589);
#37=PLANE('',#590);
#38=PLANE('',#591);
#39=PLANE('',#592);
#40=FACE_OUTER_BOUND('',#68,.T.);
#41=FACE_OUTER_BOUND('',#69,.T.);
#42=FACE_OUTER_BOUND('',#70,.T.);
#43=FACE_OUTER_BOUND('',#71,.T.);
#44=FACE_OUTER_BOUND('',#72,.T.);
#45=FACE_OUTER_BOUND('',#73,.T.);
#46=FACE_OUTER_BOUND('',#74,.T.);
#47=FACE_OUTER_BOUND('',#75,.T.);
#48=FACE_OUTER_BOUND('',#76,.T.);
#49=FACE_OUTER_BOUND('',#77,.T.);
#50=FACE_OUTER_BOUND('',#79,.T.);
#51=FACE_OUTER_BOUND('',#81,.T.);
#52=FACE_OUTER_BOUND('',#82,.T.);
#53=FACE_OUTER_BOUND('',#83,.T.);
#54=FACE_OUTER_BOUND('',#84,.T.);
#55=FACE_OUTER_BOUND('',#85,.T.);
#56=FACE_OUTER_BOUND('',#86,.T.);
#57=FACE_OUTER_BOUND('',#87,.T.);
#58=FACE_OUTER_BOUND('',#88,.T.);
#59=FACE_OUTER_BOUND('',#89,.T.);
#60=FACE_OUTER_BOUND('',#90,.T.);
#61=FACE_OUTER_BOUND('',#91,.T.);
#62=FACE_OUTER_BOUND('',#92,.T.);
#63=FACE_OUTER_BOUND('',#96,.T.);
#64=FACE_OUTER_BOUND('',#97,.T.);
#65=FACE_OUTER_BOUND('',#98,.T.);
#66=FACE_OUTER_BOUND('',#99,.T.);
#67=FACE_OUTER_BOUND('',#103,.T.);
#68=EDGE_LOOP('',(#346,#347,#348,#349));
#69=EDGE_LOOP('',(#350,#351));
#70=EDGE_LOOP('',(#352,#353,#354,#355));
#71=EDGE_LOOP('',(#356,#357));
#72=EDGE_LOOP('',(#358,#359,#360,#361));
#73=EDGE_LOOP('',(#362,#363));
#74=EDGE_LOOP('',(#364,#365,#366,#367));
#75=EDGE_LOOP('',(#368,#369));
#76=EDGE_LOOP('',(#370,#371,#372,#373,#374,#375,#376,#377,#378,#379,#380,
#381));
#77=EDGE_LOOP('',(#382));
#78=EDGE_LOOP('',(#383));
#79=EDGE_LOOP('',(#384));
#80=EDGE_LOOP('',(#385));
#81=EDGE_LOOP('',(#386,#387,#388,#389));
#82=EDGE_LOOP('',(#390,#391,#392,#393));
#83=EDGE_LOOP('',(#394,#395,#396,#397));
#84=EDGE_LOOP('',(#398,#399,#400,#401));
#85=EDGE_LOOP('',(#402,#403,#404,#405));
#86=EDGE_LOOP('',(#406,#407,#408,#409));
#87=EDGE_LOOP('',(#410,#411,#412,#413));
#88=EDGE_LOOP('',(#414,#415,#416,#417));
#89=EDGE_LOOP('',(#418,#419,#420,#421,#422,#423,#424,#425,#426,#427,#428,
#429,#430,#431,#432));
#90=EDGE_LOOP('',(#433,#434,#435,#436,#437,#438,#439,#440,#441,#442,#443,
#444,#445,#446,#447));
#91=EDGE_LOOP('',(#448,#449,#450,#451));
#92=EDGE_LOOP('',(#452,#453,#454,#455,#456,#457,#458,#459));
#93=EDGE_LOOP('',(#460));
#94=EDGE_LOOP('',(#461));
#95=EDGE_LOOP('',(#462));
#96=EDGE_LOOP('',(#463,#464,#465,#466));
#97=EDGE_LOOP('',(#467,#468,#469,#470));
#98=EDGE_LOOP('',(#471,#472,#473,#474));
#99=EDGE_LOOP('',(#475,#476,#477,#478,#479,#480,#481,#482));
#100=EDGE_LOOP('',(#483));
#101=EDGE_LOOP('',(#484));
#102=EDGE_LOOP('',(#485));
#103=EDGE_LOOP('',(#486,#487,#488,#489));
#104=CIRCLE('',#544,0.225);
#105=CIRCLE('',#545,0.225);
#106=CIRCLE('',#548,0.225);
#107=CIRCLE('',#549,0.225);
#108=CIRCLE('',#552,0.225);
#109=CIRCLE('',#553,0.225);
#110=CIRCLE('',#556,0.225);
#111=CIRCLE('',#557,0.225);
#112=CIRCLE('',#561,0.29);
#113=CIRCLE('',#562,0.17);
#114=CIRCLE('',#564,0.29);
#115=CIRCLE('',#565,0.17);
#116=CIRCLE('',#567,0.29);
#117=CIRCLE('',#569,0.29);
#118=CIRCLE('',#571,0.45);
#119=CIRCLE('',#572,0.45);
#120=CIRCLE('',#574,0.17);
#121=CIRCLE('',#576,0.29);
#122=CIRCLE('',#577,0.29);
#123=CIRCLE('',#579,0.17);
#124=CIRCLE('',#581,0.29);
#125=CIRCLE('',#582,0.29);
#126=LINE('',#749,#176);
#127=LINE('',#753,#177);
#128=LINE('',#756,#178);
#129=LINE('',#760,#179);
#130=LINE('',#764,#180);
#131=LINE('',#767,#181);
#132=LINE('',#771,#182);
#133=LINE('',#775,#183);
#134=LINE('',#778,#184);
#135=LINE('',#782,#185);
#136=LINE('',#786,#186);
#137=LINE('',#789,#187);
#138=LINE('',#791,#188);
#139=LINE('',#793,#189);
#140=LINE('',#795,#190);
#141=LINE('',#796,#191);
#142=LINE('',#797,#192);
#143=LINE('',#799,#193);
#144=LINE('',#801,#194);
#145=LINE('',#802,#195);
#146=LINE('',#815,#196);
#147=LINE('',#819,#197);
#148=LINE('',#825,#198);
#149=LINE('',#830,#199);
#150=LINE('',#834,#200);
#151=LINE('',#838,#201);
#152=LINE('',#843,#202);
#153=LINE('',#847,#203);
#154=LINE('',#851,#204);
#155=LINE('',#855,#205);
#156=LINE('',#857,#206);
#157=LINE('',#858,#207);
#158=LINE('',#861,#208);
#159=LINE('',#862,#209);
#160=LINE('',#864,#210);
#161=LINE('',#866,#211);
#162=LINE('',#867,#212);
#163=LINE('',#870,#213);
#164=LINE('',#872,#214);
#165=LINE('',#873,#215);
#166=LINE('',#875,#216);
#167=LINE('',#876,#217);
#168=LINE('',#879,#218);
#169=LINE('',#881,#219);
#170=LINE('',#882,#220);
#171=LINE('',#884,#221);
#172=LINE('',#885,#222);
#173=LINE('',#888,#223);
#174=LINE('',#890,#224);
#175=LINE('',#892,#225);
#176=VECTOR('',#597,1.);
#177=VECTOR('',#600,1.);
#178=VECTOR('',#605,1.);
#179=VECTOR('',#608,1.);
#180=VECTOR('',#611,1.);
#181=VECTOR('',#616,1.);
#182=VECTOR('',#619,1.);
#183=VECTOR('',#622,1.);
#184=VECTOR('',#627,1.);
#185=VECTOR('',#630,1.);
#186=VECTOR('',#633,1.);
#187=VECTOR('',#638,1.);
#188=VECTOR('',#641,1.);
#189=VECTOR('',#642,1.);
#190=VECTOR('',#643,1.);
#191=VECTOR('',#644,1.);
#192=VECTOR('',#645,1.);
#193=VECTOR('',#646,1.);
#194=VECTOR('',#647,1.);
#195=VECTOR('',#648,1.);
#196=VECTOR('',#663,0.29);
#197=VECTOR('',#668,0.29);
#198=VECTOR('',#675,0.45);
#199=VECTOR('',#682,0.17);
#200=VECTOR('',#685,1.);
#201=VECTOR('',#688,1.);
#202=VECTOR('',#695,0.17);
#203=VECTOR('',#698,1.);
#204=VECTOR('',#701,1.);
#205=VECTOR('',#706,1.);
#206=VECTOR('',#707,1.);
#207=VECTOR('',#708,1.);
#208=VECTOR('',#711,1.);
#209=VECTOR('',#712,1.);
#210=VECTOR('',#713,1.);
#211=VECTOR('',#714,1.);
#212=VECTOR('',#715,1.);
#213=VECTOR('',#718,1.);
#214=VECTOR('',#719,1.);
#215=VECTOR('',#720,1.);
#216=VECTOR('',#721,1.);
#217=VECTOR('',#722,1.);
#218=VECTOR('',#725,1.);
#219=VECTOR('',#726,1.);
#220=VECTOR('',#727,1.);
#221=VECTOR('',#730,1.);
#222=VECTOR('',#731,1.);
#223=VECTOR('',#736,1.);
#224=VECTOR('',#739,1.);
#225=VECTOR('',#742,1.);
#226=VERTEX_POINT('',#747);
#227=VERTEX_POINT('',#748);
#228=VERTEX_POINT('',#750);
#229=VERTEX_POINT('',#752);
#230=VERTEX_POINT('',#758);
#231=VERTEX_POINT('',#759);
#232=VERTEX_POINT('',#761);
#233=VERTEX_POINT('',#763);
#234=VERTEX_POINT('',#769);
#235=VERTEX_POINT('',#770);
#236=VERTEX_POINT('',#772);
#237=VERTEX_POINT('',#774);
#238=VERTEX_POINT('',#780);
#239=VERTEX_POINT('',#781);
#240=VERTEX_POINT('',#783);
#241=VERTEX_POINT('',#785);
#242=VERTEX_POINT('',#792);
#243=VERTEX_POINT('',#794);
#244=VERTEX_POINT('',#798);
#245=VERTEX_POINT('',#800);
#246=VERTEX_POINT('',#804);
#247=VERTEX_POINT('',#806);
#248=VERTEX_POINT('',#809);
#249=VERTEX_POINT('',#811);
#250=VERTEX_POINT('',#814);
#251=VERTEX_POINT('',#818);
#252=VERTEX_POINT('',#822);
#253=VERTEX_POINT('',#824);
#254=VERTEX_POINT('',#828);
#255=VERTEX_POINT('',#832);
#256=VERTEX_POINT('',#833);
#257=VERTEX_POINT('',#835);
#258=VERTEX_POINT('',#837);
#259=VERTEX_POINT('',#841);
#260=VERTEX_POINT('',#845);
#261=VERTEX_POINT('',#846);
#262=VERTEX_POINT('',#848);
#263=VERTEX_POINT('',#850);
#264=VERTEX_POINT('',#854);
#265=VERTEX_POINT('',#856);
#266=VERTEX_POINT('',#860);
#267=VERTEX_POINT('',#863);
#268=VERTEX_POINT('',#865);
#269=VERTEX_POINT('',#869);
#270=VERTEX_POINT('',#871);
#271=VERTEX_POINT('',#874);
#272=VERTEX_POINT('',#878);
#273=VERTEX_POINT('',#880);
#274=EDGE_CURVE('',#226,#227,#126,.T.);
#275=EDGE_CURVE('',#226,#228,#104,.T.);
#276=EDGE_CURVE('',#229,#228,#127,.T.);
#277=EDGE_CURVE('',#227,#229,#105,.T.);
#278=EDGE_CURVE('',#228,#226,#128,.T.);
#279=EDGE_CURVE('',#230,#231,#129,.T.);
#280=EDGE_CURVE('',#230,#232,#106,.T.);
#281=EDGE_CURVE('',#233,#232,#130,.T.);
#282=EDGE_CURVE('',#231,#233,#107,.T.);
#283=EDGE_CURVE('',#232,#230,#131,.T.);
#284=EDGE_CURVE('',#234,#235,#132,.T.);
#285=EDGE_CURVE('',#234,#236,#108,.T.);
#286=EDGE_CURVE('',#237,#236,#133,.T.);
#287=EDGE_CURVE('',#235,#237,#109,.T.);
#288=EDGE_CURVE('',#236,#234,#134,.T.);
#289=EDGE_CURVE('',#238,#239,#135,.T.);
#290=EDGE_CURVE('',#238,#240,#110,.T.);
#291=EDGE_CURVE('',#241,#240,#136,.T.);
#292=EDGE_CURVE('',#239,#241,#111,.T.);
#293=EDGE_CURVE('',#240,#238,#137,.T.);
#294=EDGE_CURVE('',#235,#229,#138,.T.);
#295=EDGE_CURVE('',#242,#237,#139,.T.);
#296=EDGE_CURVE('',#242,#243,#140,.T.);
#297=EDGE_CURVE('',#239,#243,#141,.T.);
#298=EDGE_CURVE('',#231,#241,#142,.T.);
#299=EDGE_CURVE('',#244,#233,#143,.T.);
#300=EDGE_CURVE('',#245,#244,#144,.T.);
#301=EDGE_CURVE('',#227,#245,#145,.T.);
#302=EDGE_CURVE('',#246,#246,#112,.T.);
#303=EDGE_CURVE('',#247,#247,#113,.T.);
#304=EDGE_CURVE('',#248,#248,#114,.T.);
#305=EDGE_CURVE('',#249,#249,#115,.T.);
#306=EDGE_CURVE('',#246,#250,#146,.T.);
#307=EDGE_CURVE('',#250,#250,#116,.T.);
#308=EDGE_CURVE('',#248,#251,#147,.T.);
#309=EDGE_CURVE('',#251,#251,#117,.T.);
#310=EDGE_CURVE('',#252,#252,#118,.T.);
#311=EDGE_CURVE('',#252,#253,#148,.T.);
#312=EDGE_CURVE('',#253,#253,#119,.T.);
#313=EDGE_CURVE('',#254,#254,#120,.T.);
#314=EDGE_CURVE('',#254,#247,#149,.T.);
#315=EDGE_CURVE('',#255,#256,#150,.T.);
#316=EDGE_CURVE('',#257,#255,#121,.T.);
#317=EDGE_CURVE('',#258,#257,#151,.T.);
#318=EDGE_CURVE('',#256,#258,#122,.T.);
#319=EDGE_CURVE('',#259,#259,#123,.T.);
#320=EDGE_CURVE('',#259,#249,#152,.T.);
#321=EDGE_CURVE('',#260,#261,#153,.T.);
#322=EDGE_CURVE('',#262,#260,#124,.T.);
#323=EDGE_CURVE('',#263,#262,#154,.T.);
#324=EDGE_CURVE('',#261,#263,#125,.T.);
#325=EDGE_CURVE('',#256,#264,#155,.T.);
#326=EDGE_CURVE('',#264,#265,#156,.T.);
#327=EDGE_CURVE('',#265,#255,#157,.T.);
#328=EDGE_CURVE('',#243,#266,#158,.T.);
#329=EDGE_CURVE('',#266,#258,#159,.T.);
#330=EDGE_CURVE('',#257,#267,#160,.T.);
#331=EDGE_CURVE('',#267,#268,#161,.T.);
#332=EDGE_CURVE('',#268,#244,#162,.T.);
#333=EDGE_CURVE('',#245,#269,#163,.T.);
#334=EDGE_CURVE('',#269,#270,#164,.T.);
#335=EDGE_CURVE('',#270,#260,#165,.T.);
#336=EDGE_CURVE('',#261,#271,#166,.T.);
#337=EDGE_CURVE('',#271,#242,#167,.T.);
#338=EDGE_CURVE('',#262,#272,#168,.T.);
#339=EDGE_CURVE('',#272,#273,#169,.T.);
#340=EDGE_CURVE('',#273,#263,#170,.T.);
#341=EDGE_CURVE('',#266,#271,#171,.T.);
#342=EDGE_CURVE('',#273,#264,#172,.T.);
#343=EDGE_CURVE('',#269,#268,#173,.T.);
#344=EDGE_CURVE('',#270,#267,#174,.T.);
#345=EDGE_CURVE('',#272,#265,#175,.T.);
#346=ORIENTED_EDGE('',*,*,#274,.F.);
#347=ORIENTED_EDGE('',*,*,#275,.T.);
#348=ORIENTED_EDGE('',*,*,#276,.F.);
#349=ORIENTED_EDGE('',*,*,#277,.F.);
#350=ORIENTED_EDGE('',*,*,#278,.F.);
#351=ORIENTED_EDGE('',*,*,#275,.F.);
#352=ORIENTED_EDGE('',*,*,#279,.F.);
#353=ORIENTED_EDGE('',*,*,#280,.T.);
#354=ORIENTED_EDGE('',*,*,#281,.F.);
#355=ORIENTED_EDGE('',*,*,#282,.F.);
#356=ORIENTED_EDGE('',*,*,#283,.F.);
#357=ORIENTED_EDGE('',*,*,#280,.F.);
#358=ORIENTED_EDGE('',*,*,#284,.F.);
#359=ORIENTED_EDGE('',*,*,#285,.T.);
#360=ORIENTED_EDGE('',*,*,#286,.F.);
#361=ORIENTED_EDGE('',*,*,#287,.F.);
#362=ORIENTED_EDGE('',*,*,#288,.F.);
#363=ORIENTED_EDGE('',*,*,#285,.F.);
#364=ORIENTED_EDGE('',*,*,#289,.F.);
#365=ORIENTED_EDGE('',*,*,#290,.T.);
#366=ORIENTED_EDGE('',*,*,#291,.F.);
#367=ORIENTED_EDGE('',*,*,#292,.F.);
#368=ORIENTED_EDGE('',*,*,#293,.F.);
#369=ORIENTED_EDGE('',*,*,#290,.F.);
#370=ORIENTED_EDGE('',*,*,#277,.T.);
#371=ORIENTED_EDGE('',*,*,#294,.F.);
#372=ORIENTED_EDGE('',*,*,#287,.T.);
#373=ORIENTED_EDGE('',*,*,#295,.F.);
#374=ORIENTED_EDGE('',*,*,#296,.T.);
#375=ORIENTED_EDGE('',*,*,#297,.F.);
#376=ORIENTED_EDGE('',*,*,#292,.T.);
#377=ORIENTED_EDGE('',*,*,#298,.F.);
#378=ORIENTED_EDGE('',*,*,#282,.T.);
#379=ORIENTED_EDGE('',*,*,#299,.F.);
#380=ORIENTED_EDGE('',*,*,#300,.F.);
#381=ORIENTED_EDGE('',*,*,#301,.F.);
#382=ORIENTED_EDGE('',*,*,#302,.F.);
#383=ORIENTED_EDGE('',*,*,#303,.F.);
#384=ORIENTED_EDGE('',*,*,#304,.F.);
#385=ORIENTED_EDGE('',*,*,#305,.F.);
#386=ORIENTED_EDGE('',*,*,#302,.T.);
#387=ORIENTED_EDGE('',*,*,#306,.T.);
#388=ORIENTED_EDGE('',*,*,#307,.F.);
#389=ORIENTED_EDGE('',*,*,#306,.F.);
#390=ORIENTED_EDGE('',*,*,#304,.T.);
#391=ORIENTED_EDGE('',*,*,#308,.T.);
#392=ORIENTED_EDGE('',*,*,#309,.F.);
#393=ORIENTED_EDGE('',*,*,#308,.F.);
#394=ORIENTED_EDGE('',*,*,#310,.F.);
#395=ORIENTED_EDGE('',*,*,#311,.T.);
#396=ORIENTED_EDGE('',*,*,#312,.F.);
#397=ORIENTED_EDGE('',*,*,#311,.F.);
#398=ORIENTED_EDGE('',*,*,#313,.F.);
#399=ORIENTED_EDGE('',*,*,#314,.T.);
#400=ORIENTED_EDGE('',*,*,#303,.T.);
#401=ORIENTED_EDGE('',*,*,#314,.F.);
#402=ORIENTED_EDGE('',*,*,#315,.F.);
#403=ORIENTED_EDGE('',*,*,#316,.F.);
#404=ORIENTED_EDGE('',*,*,#317,.F.);
#405=ORIENTED_EDGE('',*,*,#318,.F.);
#406=ORIENTED_EDGE('',*,*,#319,.F.);
#407=ORIENTED_EDGE('',*,*,#320,.T.);
#408=ORIENTED_EDGE('',*,*,#305,.T.);
#409=ORIENTED_EDGE('',*,*,#320,.F.);
#410=ORIENTED_EDGE('',*,*,#321,.F.);
#411=ORIENTED_EDGE('',*,*,#322,.F.);
#412=ORIENTED_EDGE('',*,*,#323,.F.);
#413=ORIENTED_EDGE('',*,*,#324,.F.);
#414=ORIENTED_EDGE('',*,*,#315,.T.);
#415=ORIENTED_EDGE('',*,*,#325,.T.);
#416=ORIENTED_EDGE('',*,*,#326,.T.);
#417=ORIENTED_EDGE('',*,*,#327,.T.);
#418=ORIENTED_EDGE('',*,*,#279,.T.);
#419=ORIENTED_EDGE('',*,*,#298,.T.);
#420=ORIENTED_EDGE('',*,*,#291,.T.);
#421=ORIENTED_EDGE('',*,*,#293,.T.);
#422=ORIENTED_EDGE('',*,*,#289,.T.);
#423=ORIENTED_EDGE('',*,*,#297,.T.);
#424=ORIENTED_EDGE('',*,*,#328,.T.);
#425=ORIENTED_EDGE('',*,*,#329,.T.);
#426=ORIENTED_EDGE('',*,*,#317,.T.);
#427=ORIENTED_EDGE('',*,*,#330,.T.);
#428=ORIENTED_EDGE('',*,*,#331,.T.);
#429=ORIENTED_EDGE('',*,*,#332,.T.);
#430=ORIENTED_EDGE('',*,*,#299,.T.);
#431=ORIENTED_EDGE('',*,*,#281,.T.);
#432=ORIENTED_EDGE('',*,*,#283,.T.);
#433=ORIENTED_EDGE('',*,*,#274,.T.);
#434=ORIENTED_EDGE('',*,*,#301,.T.);
#435=ORIENTED_EDGE('',*,*,#333,.T.);
#436=ORIENTED_EDGE('',*,*,#334,.T.);
#437=ORIENTED_EDGE('',*,*,#335,.T.);
#438=ORIENTED_EDGE('',*,*,#321,.T.);
#439=ORIENTED_EDGE('',*,*,#336,.T.);
#440=ORIENTED_EDGE('',*,*,#337,.T.);
#441=ORIENTED_EDGE('',*,*,#295,.T.);
#442=ORIENTED_EDGE('',*,*,#286,.T.);
#443=ORIENTED_EDGE('',*,*,#288,.T.);
#444=ORIENTED_EDGE('',*,*,#284,.T.);
#445=ORIENTED_EDGE('',*,*,#294,.T.);
#446=ORIENTED_EDGE('',*,*,#276,.T.);
#447=ORIENTED_EDGE('',*,*,#278,.T.);
#448=ORIENTED_EDGE('',*,*,#323,.T.);
#449=ORIENTED_EDGE('',*,*,#338,.T.);
#450=ORIENTED_EDGE('',*,*,#339,.T.);
#451=ORIENTED_EDGE('',*,*,#340,.T.);
#452=ORIENTED_EDGE('',*,*,#318,.T.);
#453=ORIENTED_EDGE('',*,*,#329,.F.);
#454=ORIENTED_EDGE('',*,*,#341,.T.);
#455=ORIENTED_EDGE('',*,*,#336,.F.);
#456=ORIENTED_EDGE('',*,*,#324,.T.);
#457=ORIENTED_EDGE('',*,*,#340,.F.);
#458=ORIENTED_EDGE('',*,*,#342,.T.);
#459=ORIENTED_EDGE('',*,*,#325,.F.);
#460=ORIENTED_EDGE('',*,*,#307,.T.);
#461=ORIENTED_EDGE('',*,*,#309,.T.);
#462=ORIENTED_EDGE('',*,*,#312,.T.);
#463=ORIENTED_EDGE('',*,*,#341,.F.);
#464=ORIENTED_EDGE('',*,*,#328,.F.);
#465=ORIENTED_EDGE('',*,*,#296,.F.);
#466=ORIENTED_EDGE('',*,*,#337,.F.);
#467=ORIENTED_EDGE('',*,*,#300,.T.);
#468=ORIENTED_EDGE('',*,*,#332,.F.);
#469=ORIENTED_EDGE('',*,*,#343,.F.);
#470=ORIENTED_EDGE('',*,*,#333,.F.);
#471=ORIENTED_EDGE('',*,*,#343,.T.);
#472=ORIENTED_EDGE('',*,*,#331,.F.);
#473=ORIENTED_EDGE('',*,*,#344,.F.);
#474=ORIENTED_EDGE('',*,*,#334,.F.);
#475=ORIENTED_EDGE('',*,*,#316,.T.);
#476=ORIENTED_EDGE('',*,*,#327,.F.);
#477=ORIENTED_EDGE('',*,*,#345,.F.);
#478=ORIENTED_EDGE('',*,*,#338,.F.);
#479=ORIENTED_EDGE('',*,*,#322,.T.);
#480=ORIENTED_EDGE('',*,*,#335,.F.);
#481=ORIENTED_EDGE('',*,*,#344,.T.);
#482=ORIENTED_EDGE('',*,*,#330,.F.);
#483=ORIENTED_EDGE('',*,*,#310,.T.);
#484=ORIENTED_EDGE('',*,*,#313,.T.);
#485=ORIENTED_EDGE('',*,*,#319,.T.);
#486=ORIENTED_EDGE('',*,*,#345,.T.);
#487=ORIENTED_EDGE('',*,*,#326,.F.);
#488=ORIENTED_EDGE('',*,*,#342,.F.);
#489=ORIENTED_EDGE('',*,*,#339,.F.);
#490=CYLINDRICAL_SURFACE('',#543,0.225);
#491=CYLINDRICAL_SURFACE('',#547,0.225);
#492=CYLINDRICAL_SURFACE('',#551,0.225);
#493=CYLINDRICAL_SURFACE('',#555,0.225);
#494=CYLINDRICAL_SURFACE('',#566,0.29);
#495=CYLINDRICAL_SURFACE('',#568,0.29);
#496=CYLINDRICAL_SURFACE('',#570,0.45);
#497=CYLINDRICAL_SURFACE('',#573,0.17);
#498=CYLINDRICAL_SURFACE('',#575,0.29);
#499=CYLINDRICAL_SURFACE('',#578,0.17);
#500=CYLINDRICAL_SURFACE('',#580,0.29);
#501=ADVANCED_FACE('',(#40),#490,.F.);
#502=ADVANCED_FACE('',(#41),#23,.T.);
#503=ADVANCED_FACE('',(#42),#491,.F.);
#504=ADVANCED_FACE('',(#43),#24,.T.);
#505=ADVANCED_FACE('',(#44),#492,.F.);
#506=ADVANCED_FACE('',(#45),#25,.T.);
#507=ADVANCED_FACE('',(#46),#493,.F.);
#508=ADVANCED_FACE('',(#47),#26,.T.);
#509=ADVANCED_FACE('',(#48),#27,.T.);
#510=ADVANCED_FACE('',(#49,#15),#28,.T.);
#511=ADVANCED_FACE('',(#50,#16),#29,.T.);
#512=ADVANCED_FACE('',(#51),#494,.F.);
#513=ADVANCED_FACE('',(#52),#495,.F.);
#514=ADVANCED_FACE('',(#53),#496,.F.);
#515=ADVANCED_FACE('',(#54),#497,.F.);
#516=ADVANCED_FACE('',(#55),#498,.F.);
#517=ADVANCED_FACE('',(#56),#499,.F.);
#518=ADVANCED_FACE('',(#57),#500,.F.);
#519=ADVANCED_FACE('',(#58),#30,.T.);
#520=ADVANCED_FACE('',(#59),#31,.T.);
#521=ADVANCED_FACE('',(#60),#32,.T.);
#522=ADVANCED_FACE('',(#61),#33,.T.);
#523=ADVANCED_FACE('',(#62,#17,#18,#19),#34,.T.);
#524=ADVANCED_FACE('',(#63),#35,.T.);
#525=ADVANCED_FACE('',(#64),#36,.T.);
#526=ADVANCED_FACE('',(#65),#37,.T.);
#527=ADVANCED_FACE('',(#66,#20,#21,#22),#38,.T.);
#528=ADVANCED_FACE('',(#67),#39,.T.);
#529=CLOSED_SHELL('',(#501,#502,#503,#504,#505,#506,#507,#508,#509,#510,
#511,#512,#513,#514,#515,#516,#517,#518,#519,#520,#521,#522,#523,#524,#525,
#526,#527,#528));
#530=DERIVED_UNIT_ELEMENT(#532,1.);
#531=DERIVED_UNIT_ELEMENT(#899,-3.);
#532=(
MASS_UNIT()
NAMED_UNIT(*)
SI_UNIT(.KILO.,.GRAM.)
);
#533=DERIVED_UNIT((#530,#531));
#534=MEASURE_REPRESENTATION_ITEM('density measure',
POSITIVE_RATIO_MEASURE(7850.),#533);
#535=PROPERTY_DEFINITION_REPRESENTATION(#540,#537);
#536=PROPERTY_DEFINITION_REPRESENTATION(#541,#538);
#537=REPRESENTATION('material name',(#539),#896);
#538=REPRESENTATION('density',(#534),#896);
#539=DESCRIPTIVE_REPRESENTATION_ITEM('\X2\92FC\X0\','\X2\92FC\X0\');
#540=PROPERTY_DEFINITION('material property','material name',#906);
#541=PROPERTY_DEFINITION('material property','density of part',#906);
#542=AXIS2_PLACEMENT_3D('',#745,#593,#594);
#543=AXIS2_PLACEMENT_3D('',#746,#595,#596);
#544=AXIS2_PLACEMENT_3D('',#751,#598,#599);
#545=AXIS2_PLACEMENT_3D('',#754,#601,#602);
#546=AXIS2_PLACEMENT_3D('',#755,#603,#604);
#547=AXIS2_PLACEMENT_3D('',#757,#606,#607);
#548=AXIS2_PLACEMENT_3D('',#762,#609,#610);
#549=AXIS2_PLACEMENT_3D('',#765,#612,#613);
#550=AXIS2_PLACEMENT_3D('',#766,#614,#615);
#551=AXIS2_PLACEMENT_3D('',#768,#617,#618);
#552=AXIS2_PLACEMENT_3D('',#773,#620,#621);
#553=AXIS2_PLACEMENT_3D('',#776,#623,#624);
#554=AXIS2_PLACEMENT_3D('',#777,#625,#626);
#555=AXIS2_PLACEMENT_3D('',#779,#628,#629);
#556=AXIS2_PLACEMENT_3D('',#784,#631,#632);
#557=AXIS2_PLACEMENT_3D('',#787,#634,#635);
#558=AXIS2_PLACEMENT_3D('',#788,#636,#637);
#559=AXIS2_PLACEMENT_3D('',#790,#639,#640);
#560=AXIS2_PLACEMENT_3D('',#803,#649,#650);
#561=AXIS2_PLACEMENT_3D('',#805,#651,#652);
#562=AXIS2_PLACEMENT_3D('',#807,#653,#654);
#563=AXIS2_PLACEMENT_3D('',#808,#655,#656);
#564=AXIS2_PLACEMENT_3D('',#810,#657,#658);
#565=AXIS2_PLACEMENT_3D('',#812,#659,#660);
#566=AXIS2_PLACEMENT_3D('',#813,#661,#662);
#567=AXIS2_PLACEMENT_3D('',#816,#664,#665);
#568=AXIS2_PLACEMENT_3D('',#817,#666,#667);
#569=AXIS2_PLACEMENT_3D('',#820,#669,#670);
#570=AXIS2_PLACEMENT_3D('',#821,#671,#672);
#571=AXIS2_PLACEMENT_3D('',#823,#673,#674);
#572=AXIS2_PLACEMENT_3D('',#826,#676,#677);
#573=AXIS2_PLACEMENT_3D('',#827,#678,#679);
#574=AXIS2_PLACEMENT_3D('',#829,#680,#681);
#575=AXIS2_PLACEMENT_3D('',#831,#683,#684);
#576=AXIS2_PLACEMENT_3D('',#836,#686,#687);
#577=AXIS2_PLACEMENT_3D('',#839,#689,#690);
#578=AXIS2_PLACEMENT_3D('',#840,#691,#692);
#579=AXIS2_PLACEMENT_3D('',#842,#693,#694);
#580=AXIS2_PLACEMENT_3D('',#844,#696,#697);
#581=AXIS2_PLACEMENT_3D('',#849,#699,#700);
#582=AXIS2_PLACEMENT_3D('',#852,#702,#703);
#583=AXIS2_PLACEMENT_3D('',#853,#704,#705);
#584=AXIS2_PLACEMENT_3D('',#859,#709,#710);
#585=AXIS2_PLACEMENT_3D('',#868,#716,#717);
#586=AXIS2_PLACEMENT_3D('',#877,#723,#724);
#587=AXIS2_PLACEMENT_3D('',#883,#728,#729);
#588=AXIS2_PLACEMENT_3D('',#886,#732,#733);
#589=AXIS2_PLACEMENT_3D('',#887,#734,#735);
#590=AXIS2_PLACEMENT_3D('',#889,#737,#738);
#591=AXIS2_PLACEMENT_3D('',#891,#740,#741);
#592=AXIS2_PLACEMENT_3D('',#893,#743,#744);
#593=DIRECTION('axis',(0.,0.,1.));
#594=DIRECTION('refdir',(1.,0.,0.));
#595=DIRECTION('center_axis',(1.49110290129928E-5,-3.90364708642565E-5,
0.999999999126908));
#596=DIRECTION('ref_axis',(0.356830942988433,-0.934168976352673,-4.17873766078097E-5));
#597=DIRECTION('',(1.49110290129789E-5,-3.90364708642288E-5,0.999999999126908));
#598=DIRECTION('center_axis',(-1.4911029012854E-5,3.90364708638957E-5,-0.999999999126908));
#599=DIRECTION('ref_axis',(0.356830942988433,-0.934168976352673,-4.17873766073779E-5));
#600=DIRECTION('',(-1.49110290129789E-5,3.90364708642288E-5,-0.999999999126908));
#601=DIRECTION('center_axis',(-1.4911029012854E-5,3.90364708638957E-5,-0.999999999126908));
#602=DIRECTION('ref_axis',(0.356830942988433,-0.934168976352673,-4.17873766078097E-5));
#603=DIRECTION('center_axis',(1.4911029012854E-5,-3.90364708638957E-5,0.999999999126908));
#604=DIRECTION('ref_axis',(0.356830942988433,-0.934168976352673,-4.17873766073718E-5));
#605=DIRECTION('',(-0.356830942988433,0.934168976352673,4.17873766073718E-5));
#606=DIRECTION('center_axis',(1.49110290129928E-5,-3.90364708642565E-5,
0.999999999126908));
#607=DIRECTION('ref_axis',(0.356830942988433,-0.934168976352673,-4.17873766078097E-5));
#608=DIRECTION('',(1.49110290129789E-5,-3.90364708642288E-5,0.999999999126908));
#609=DIRECTION('center_axis',(-1.4911029012854E-5,3.90364708638957E-5,-0.999999999126908));
#610=DIRECTION('ref_axis',(0.356830942988433,-0.934168976352673,-4.17873766073779E-5));
#611=DIRECTION('',(-1.49110290129789E-5,3.90364708642288E-5,-0.999999999126908));
#612=DIRECTION('center_axis',(-1.4911029012854E-5,3.90364708638957E-5,-0.999999999126908));
#613=DIRECTION('ref_axis',(0.356830942988433,-0.934168976352673,-4.17873766078097E-5));
#614=DIRECTION('center_axis',(1.4911029012854E-5,-3.90364708638957E-5,0.999999999126908));
#615=DIRECTION('ref_axis',(0.356830942988433,-0.934168976352673,-4.17873766073718E-5));
#616=DIRECTION('',(0.356830942988433,-0.934168976352673,-4.17873766073718E-5));
#617=DIRECTION('center_axis',(1.49110290127291E-5,-3.90364708635627E-5,
0.999999999126908));
#618=DIRECTION('ref_axis',(0.356830942988433,-0.934168976352673,-4.17873766070387E-5));
#619=DIRECTION('',(1.49110290127291E-5,-3.90364708635627E-5,0.999999999126908));
#620=DIRECTION('center_axis',(-1.4911029012854E-5,3.90364708638957E-5,-0.999999999126908));
#621=DIRECTION('ref_axis',(0.356830942988433,-0.934168976352673,-4.17873766073779E-5));
#622=DIRECTION('',(-1.49110290127291E-5,3.90364708635627E-5,-0.999999999126908));
#623=DIRECTION('center_axis',(-1.4911029012854E-5,3.90364708638957E-5,-0.999999999126908));
#624=DIRECTION('ref_axis',(0.356830942988433,-0.934168976352673,-4.17873766070387E-5));
#625=DIRECTION('center_axis',(1.4911029012854E-5,-3.90364708638957E-5,0.999999999126908));
#626=DIRECTION('ref_axis',(0.356830942988433,-0.934168976352673,-4.17873766073717E-5));
#627=DIRECTION('',(-0.356830942988433,0.934168976352673,4.17873766073718E-5));
#628=DIRECTION('center_axis',(1.49110290127291E-5,-3.90364708635627E-5,
0.999999999126908));
#629=DIRECTION('ref_axis',(0.356830942988433,-0.934168976352673,-4.17873766070387E-5));
#630=DIRECTION('',(1.49110290127291E-5,-3.90364708635627E-5,0.999999999126908));
#631=DIRECTION('center_axis',(-1.4911029012854E-5,3.90364708638957E-5,-0.999999999126908));
#632=DIRECTION('ref_axis',(0.356830942988433,-0.934168976352673,-4.17873766073779E-5));
#633=DIRECTION('',(-1.49110290127291E-5,3.90364708635627E-5,-0.999999999126908));
#634=DIRECTION('center_axis',(-1.4911029012854E-5,3.90364708638957E-5,-0.999999999126908));
#635=DIRECTION('ref_axis',(0.356830942988433,-0.934168976352673,-4.17873766070387E-5));
#636=DIRECTION('center_axis',(1.4911029012854E-5,-3.90364708638957E-5,0.999999999126908));
#637=DIRECTION('ref_axis',(0.356830942988433,-0.934168976352673,-4.17873766073717E-5));
#638=DIRECTION('',(0.356830942988433,-0.934168976352673,-4.17873766073718E-5));
#639=DIRECTION('center_axis',(1.4911029012854E-5,-3.90364708638957E-5,0.999999999126908));
#640=DIRECTION('ref_axis',(0.356830942988433,-0.934168976352673,-4.17873766073718E-5));
#641=DIRECTION('',(-0.356830942988433,0.934168976352673,4.17873766073718E-5));
#642=DIRECTION('',(-0.356830942988433,0.934168976352673,4.17873766073718E-5));
#643=DIRECTION('',(0.934168977168289,0.35683094329998,0.));
#644=DIRECTION('',(0.356830942988433,-0.934168976352673,-4.17873766073718E-5));
#645=DIRECTION('',(0.356830942988433,-0.934168976352673,-4.17873766073718E-5));
#646=DIRECTION('',(0.356830942988433,-0.934168976352673,-4.17873766073718E-5));
#647=DIRECTION('',(0.934168977168289,0.35683094329998,0.));
#648=DIRECTION('',(-0.356830942988433,0.934168976352673,4.17873766073718E-5));
#649=DIRECTION('center_axis',(0.346188613058754,-0.90630778703665,-0.242403876506104));
#650=DIRECTION('ref_axis',(-0.0864972039132449,0.226446181377335,-0.970175427773149));
#651=DIRECTION('center_axis',(-0.346188613058754,0.90630778703665,0.242403876506104));
#652=DIRECTION('ref_axis',(-0.0864972039132449,0.226446181377335,-0.970175427773149));
#653=DIRECTION('center_axis',(0.346188613058754,-0.90630778703665,-0.242403876506104));
#654=DIRECTION('ref_axis',(-0.0864972039132449,0.226446181377335,-0.970175427773149));
#655=DIRECTION('center_axis',(0.346188613058754,-0.90630778703665,-0.242403876506104));
#656=DIRECTION('ref_axis',(-0.0864972039132449,0.226446181377335,-0.970175427773149));
#657=DIRECTION('center_axis',(-0.346188613058754,0.90630778703665,0.242403876506104));
#658=DIRECTION('ref_axis',(-0.0864972039132449,0.226446181377335,-0.970175427773149));
#659=DIRECTION('center_axis',(0.346188613058754,-0.90630778703665,-0.242403876506104));
#660=DIRECTION('ref_axis',(-0.0864972039132449,0.226446181377335,-0.970175427773149));
#661=DIRECTION('center_axis',(0.346188613058754,-0.90630778703665,-0.242403876506104));
#662=DIRECTION('ref_axis',(-0.0864972039132449,0.226446181377335,-0.970175427773149));
#663=DIRECTION('',(0.346188613058754,-0.90630778703665,-0.242403876506104));
#664=DIRECTION('center_axis',(-0.346188613058754,0.90630778703665,0.242403876506104));
#665=DIRECTION('ref_axis',(-0.0864972039132449,0.226446181377335,-0.970175427773149));
#666=DIRECTION('center_axis',(0.346188613058754,-0.90630778703665,-0.242403876506104));
#667=DIRECTION('ref_axis',(-0.0864972039132449,0.226446181377335,-0.970175427773149));
#668=DIRECTION('',(0.346188613058754,-0.90630778703665,-0.242403876506104));
#669=DIRECTION('center_axis',(-0.346188613058754,0.90630778703665,0.242403876506104));
#670=DIRECTION('ref_axis',(-0.0864972039132449,0.226446181377335,-0.970175427773149));
#671=DIRECTION('center_axis',(0.346188613058754,-0.90630778703665,-0.242403876506104));
#672=DIRECTION('ref_axis',(-0.0864972039132449,0.226446181377335,-0.970175427773149));
#673=DIRECTION('center_axis',(0.346188613058754,-0.90630778703665,-0.242403876506104));
#674=DIRECTION('ref_axis',(-0.0864972039132449,0.226446181377335,-0.970175427773149));
#675=DIRECTION('',(0.346188613058754,-0.90630778703665,-0.242403876506104));
#676=DIRECTION('center_axis',(-0.346188613058754,0.90630778703665,0.242403876506104));
#677=DIRECTION('ref_axis',(-0.0864972039132449,0.226446181377335,-0.970175427773149));
#678=DIRECTION('center_axis',(0.346188613058754,-0.90630778703665,-0.242403876506104));
#679=DIRECTION('ref_axis',(-0.0864972039132449,0.226446181377335,-0.970175427773149));
#680=DIRECTION('center_axis',(0.346188613058754,-0.90630778703665,-0.242403876506104));
#681=DIRECTION('ref_axis',(-0.0864972039132449,0.226446181377335,-0.970175427773149));
#682=DIRECTION('',(0.346188613058754,-0.90630778703665,-0.242403876506104));
#683=DIRECTION('center_axis',(0.346188613058754,-0.90630778703665,-0.242403876506104));
#684=DIRECTION('ref_axis',(-0.0864972039132449,0.226446181377335,-0.970175427773149));
#685=DIRECTION('',(0.346188613058754,-0.90630778703665,-0.242403876506104));
#686=DIRECTION('center_axis',(0.346188613058754,-0.90630778703665,-0.242403876506104));
#687=DIRECTION('ref_axis',(-0.0864972039132449,0.226446181377335,-0.970175427773149));
#688=DIRECTION('',(-0.346188613058754,0.90630778703665,0.242403876506104));
#689=DIRECTION('center_axis',(-0.346188613058754,0.90630778703665,0.242403876506104));
#690=DIRECTION('ref_axis',(-0.0864972039132449,0.226446181377335,-0.970175427773149));
#691=DIRECTION('center_axis',(0.346188613058754,-0.90630778703665,-0.242403876506104));
#692=DIRECTION('ref_axis',(-0.0864972039132449,0.226446181377335,-0.970175427773149));
#693=DIRECTION('center_axis',(0.346188613058754,-0.90630778703665,-0.242403876506104));
#694=DIRECTION('ref_axis',(-0.0864972039132449,0.226446181377335,-0.970175427773149));
#695=DIRECTION('',(0.346188613058754,-0.90630778703665,-0.242403876506104));
#696=DIRECTION('center_axis',(0.346188613058754,-0.90630778703665,-0.242403876506104));
#697=DIRECTION('ref_axis',(-0.0864972039132449,0.226446181377335,-0.970175427773149));
#698=DIRECTION('',(0.346188613058754,-0.90630778703665,-0.242403876506104));
#699=DIRECTION('center_axis',(0.346188613058754,-0.90630778703665,-0.242403876506104));
#700=DIRECTION('ref_axis',(-0.0864972039132449,0.226446181377335,-0.970175427773149));
#701=DIRECTION('',(-0.346188613058754,0.90630778703665,0.242403876506104));
#702=DIRECTION('center_axis',(-0.346188613058754,0.90630778703665,0.242403876506104));
#703=DIRECTION('ref_axis',(-0.0864972039132449,0.226446181377335,-0.970175427773149));
#704=DIRECTION('center_axis',(0.934168977168289,0.35683094329998,0.));
#705=DIRECTION('ref_axis',(-0.346188613058754,0.90630778703665,0.242403876506104));
#706=DIRECTION('',(-0.0864972039132449,0.226446181377335,-0.970175427773149));
#707=DIRECTION('',(-0.346188613058754,0.90630778703665,0.242403876506104));
#708=DIRECTION('',(0.0864972039132449,-0.226446181377335,0.970175427773149));
#709=DIRECTION('center_axis',(0.934168977168289,0.35683094329998,0.));
#710=DIRECTION('ref_axis',(-0.346188613058754,0.90630778703665,0.242403876506104));
#711=DIRECTION('',(-0.024946769863128,0.0653096345041451,-0.997553161648206));
#712=DIRECTION('',(-0.0864972039132449,0.226446181377335,-0.970175427773149));
#713=DIRECTION('',(0.0864972039132449,-0.226446181377335,0.970175427773149));
#714=DIRECTION('',(-0.304289597696266,0.796617859466021,0.522310086743133));
#715=DIRECTION('',(0.0864972039132449,-0.226446181377335,0.970175427773149));
#716=DIRECTION('center_axis',(-0.934168977168289,-0.35683094329998,0.));
#717=DIRECTION('ref_axis',(0.346188613058754,-0.90630778703665,-0.242403876506104));
#718=DIRECTION('',(-0.0864972039132449,0.226446181377335,-0.970175427773149));
#719=DIRECTION('',(0.304289597696266,-0.796617859466021,-0.522310086743133));
#720=DIRECTION('',(-0.0864972039132449,0.226446181377335,-0.970175427773149));
#721=DIRECTION('',(0.0864972039132449,-0.226446181377335,0.970175427773149));
#722=DIRECTION('',(0.024946769863128,-0.0653096345041451,0.997553161648206));
#723=DIRECTION('center_axis',(-0.934168977168289,-0.35683094329998,0.));
#724=DIRECTION('ref_axis',(0.346188613058754,-0.90630778703665,-0.242403876506104));
#725=DIRECTION('',(-0.0864972039132449,0.226446181377335,-0.970175427773149));
#726=DIRECTION('',(0.346188613058754,-0.90630778703665,-0.242403876506104));
#727=DIRECTION('',(0.0864972039132449,-0.226446181377335,0.970175427773149));
#728=DIRECTION('center_axis',(0.346188613058754,-0.90630778703665,-0.242403876506104));
#729=DIRECTION('ref_axis',(-0.0864972039132449,0.226446181377335,-0.970175427773149));
#730=DIRECTION('',(-0.934168977168289,-0.35683094329998,0.));
#731=DIRECTION('',(0.934168977168289,0.35683094329998,0.));
#732=DIRECTION('center_axis',(0.355957835662806,-0.931883216687897,-0.0699120138865194));
#733=DIRECTION('ref_axis',(-0.024946769863128,0.0653096345041451,-0.997553161648206));
#734=DIRECTION('center_axis',(-0.346188613058754,0.90630778703665,0.242403876506104));
#735=DIRECTION('ref_axis',(0.0864972039132449,-0.226446181377335,0.970175427773149));
#736=DIRECTION('',(0.934168977168289,0.35683094329998,0.));
#737=DIRECTION('center_axis',(-0.186376400947646,0.487925879497513,-0.852755635153695));
#738=DIRECTION('ref_axis',(-0.304289597696266,0.796617859466021,0.522310086743133));
#739=DIRECTION('',(0.934168977168289,0.35683094329998,0.));
#740=DIRECTION('center_axis',(-0.346188613058754,0.90630778703665,0.242403876506104));
#741=DIRECTION('ref_axis',(0.0864972039132449,-0.226446181377335,0.970175427773149));
#742=DIRECTION('',(0.934168977168289,0.35683094329998,0.));
#743=DIRECTION('center_axis',(-0.0864972039132449,0.226446181377335,-0.970175427773149));
#744=DIRECTION('ref_axis',(-0.346188613058754,0.90630778703665,0.242403876506104));
#745=CARTESIAN_POINT('',(0.,0.,0.));
#746=CARTESIAN_POINT('Origin',(2.32858239938986,2.4919426847395,14.6847336401722));
#747=CARTESIAN_POINT('',(2.47862595649536,2.65962422932394,14.0847379480402));
#748=CARTESIAN_POINT('',(2.47863490311277,2.65960080744142,14.6847379475163));
#749=CARTESIAN_POINT('',(2.47863490311277,2.65960080744142,14.6847379475163));
#750=CARTESIAN_POINT('',(2.55218853991686,2.46704036124008,14.0847293333518));
#751=CARTESIAN_POINT('Origin',(2.32857345277245,2.49196610662202,14.084733640696));
#752=CARTESIAN_POINT('',(2.55219748653427,2.46701693935756,14.684729332828));
#753=CARTESIAN_POINT('',(2.55219748653427,2.46701693935756,14.684729332828));
#754=CARTESIAN_POINT('Origin',(2.32858239938986,2.4919426847395,14.6847336401722));
#755=CARTESIAN_POINT('Origin',(2.32857345277245,2.49196610662202,14.084733640696));
#756=CARTESIAN_POINT('',(2.58526988471232,2.38043473857428,14.0847254592971));
#757=CARTESIAN_POINT('Origin',(4.01008655829278,3.13423838267946,14.6847336401722));
#758=CARTESIAN_POINT('',(3.86002510795247,2.96660368186005,14.0847293333518));
#759=CARTESIAN_POINT('',(3.86003405456988,2.96658025997754,14.684729332828));
#760=CARTESIAN_POINT('',(3.86003405456988,2.96658025997754,14.684729332828));
#761=CARTESIAN_POINT('',(3.78646252453096,3.15918754994391,14.0847379480402));
#762=CARTESIAN_POINT('Origin',(4.01007761167537,3.13426180456198,14.084733640696));
#763=CARTESIAN_POINT('',(3.78647147114837,3.1591641280614,14.6847379475163));
#764=CARTESIAN_POINT('',(3.78647147114837,3.1591641280614,14.6847379475163));
#765=CARTESIAN_POINT('Origin',(4.01008655829278,3.13423838267946,14.6847336401722));
#766=CARTESIAN_POINT('Origin',(4.01007761167537,3.13426180456198,14.084733640696));
#767=CARTESIAN_POINT('',(3.89310645274792,2.87999805919425,14.0847254592971));
#768=CARTESIAN_POINT('Origin',(2.91708305748193,0.951271764363168,14.6846647226662));
#769=CARTESIAN_POINT('',(3.06712661458743,1.11895330894761,14.0846690305343));
#770=CARTESIAN_POINT('',(3.06713556120484,1.11892988706509,14.6846690300104));
#771=CARTESIAN_POINT('',(3.06713556120484,1.11892988706509,14.6846690300104));
#772=CARTESIAN_POINT('',(3.14068919800893,0.926369440863752,14.0846604158459));
#773=CARTESIAN_POINT('Origin',(2.91707411086452,0.951295186245686,14.0846647231901));
#774=CARTESIAN_POINT('',(3.14069814462634,0.926346018981233,14.684660415322));
#775=CARTESIAN_POINT('',(3.14069814462634,0.926346018981233,14.684660415322));
#776=CARTESIAN_POINT('Origin',(2.91708305748193,0.951271764363168,14.6846647226662));
#777=CARTESIAN_POINT('Origin',(2.91707411086452,0.951295186245686,14.0846647231901));
#778=CARTESIAN_POINT('',(2.87952021375835,1.61009927838611,14.0846910005441));
#779=CARTESIAN_POINT('Origin',(4.59858721638485,1.59356746230313,14.6846647226662));
#780=CARTESIAN_POINT('',(4.44852576604454,1.42593276148372,14.0846604158459));
#781=CARTESIAN_POINT('',(4.44853471266195,1.4259093396012,14.684660415322));
#782=CARTESIAN_POINT('',(4.44853471266195,1.4259093396012,14.684660415322));
#783=CARTESIAN_POINT('',(4.37496318262303,1.61851662956758,14.0846690305343));
#784=CARTESIAN_POINT('Origin',(4.59857826976744,1.59359088418565,14.0846647231901));
#785=CARTESIAN_POINT('',(4.37497212924044,1.61849320768507,14.6846690300104));
#786=CARTESIAN_POINT('',(4.37497212924044,1.61849320768507,14.6846690300104));
#787=CARTESIAN_POINT('Origin',(4.59858721638485,1.59356746230313,14.6846647226662));
#788=CARTESIAN_POINT('Origin',(4.59857826976744,1.59359088418565,14.0846647231901));
#789=CARTESIAN_POINT('',(4.18735678179396,2.10966259900608,14.0846910005441));
#790=CARTESIAN_POINT('Origin',(2.9486467320568,3.3908421288506,14.6847594842369));
#791=CARTESIAN_POINT('',(2.29472844803899,3.14106046854062,14.6847594842369));
#792=CARTESIAN_POINT('',(3.26938942163526,0.589437460821699,14.6846453446815));
#793=CARTESIAN_POINT('',(2.29472844803899,3.14106046854062,14.6847594842369));
#794=CARTESIAN_POINT('',(4.57722598967086,1.08900078144167,14.6846453446815));
#795=CARTESIAN_POINT('',(3.92330770565306,0.839219121131685,14.6846453446815));
#796=CARTESIAN_POINT('',(3.6025650160746,3.64062378916059,14.6847594842369));
#797=CARTESIAN_POINT('',(3.6025650160746,3.64062378916059,14.6847594842369));
#798=CARTESIAN_POINT('',(3.6025650160746,3.64062378916059,14.6847594842369));
#799=CARTESIAN_POINT('',(3.6025650160746,3.64062378916059,14.6847594842369));
#800=CARTESIAN_POINT('',(2.29472844803899,3.14106046854062,14.6847594842369));
#801=CARTESIAN_POINT('',(2.9486467320568,3.3908421288506,14.6847594842369));
#802=CARTESIAN_POINT('',(2.29472844803899,3.14106046854062,14.6847594842369));
#803=CARTESIAN_POINT('Origin',(3.5714410760821,1.76039172574414,10.6555095927484));
#804=CARTESIAN_POINT('',(3.59652526521694,1.69472233314471,10.9368604668026));
#805=CARTESIAN_POINT('Origin',(3.5714410760821,1.76039172574414,10.6555095927484));
#806=CARTESIAN_POINT('',(3.58614560074735,1.72189587490999,10.8204394154698));
#807=CARTESIAN_POINT('Origin',(3.5714410760821,1.76039172574414,10.6555095927484));
#808=CARTESIAN_POINT('Origin',(3.71848632273461,1.37543321740267,12.3048078199627));
#809=CARTESIAN_POINT('',(3.74357051186945,1.30976382480324,12.586158694017));
#810=CARTESIAN_POINT('Origin',(3.71848632273461,1.37543321740267,12.3048078199627));
#811=CARTESIAN_POINT('',(3.73319084739987,1.33693736656852,12.4697376426842));
#812=CARTESIAN_POINT('Origin',(3.71848632273461,1.37543321740267,12.3048078199627));
#813=CARTESIAN_POINT('Origin',(3.66837388773855,1.50662554537388,10.5876365073267));
#814=CARTESIAN_POINT('',(3.69345807687339,1.44095615277445,10.8689873813809));
#815=CARTESIAN_POINT('',(3.69345807687339,1.44095615277445,10.8689873813809));
#816=CARTESIAN_POINT('Origin',(3.66837388773855,1.50662554537388,10.5876365073267));
#817=CARTESIAN_POINT('Origin',(3.81541913439106,1.12166703703241,12.236934734541));
#818=CARTESIAN_POINT('',(3.84050332352591,1.05599764443298,12.5182856085952));
#819=CARTESIAN_POINT('',(3.84050332352591,1.05599764443298,12.5182856085952));
#820=CARTESIAN_POINT('Origin',(3.81541913439106,1.12166703703241,12.236934734541));
#821=CARTESIAN_POINT('Origin',(3.74189651106481,1.31414629120314,11.4122856209339));
#822=CARTESIAN_POINT('',(3.64234480760227,1.574768624398,11.9458261140342));
#823=CARTESIAN_POINT('Origin',(3.6034210658413,1.6766694060178,11.5092471715363));
#824=CARTESIAN_POINT('',(3.78082025282577,1.21224550958334,11.8488645634318));
#825=CARTESIAN_POINT('',(3.78082025282577,1.21224550958334,11.8488645634318));
#826=CARTESIAN_POINT('Origin',(3.74189651106481,1.31414629120314,11.4122856209339));
#827=CARTESIAN_POINT('Origin',(3.66837388773855,1.50662554537388,10.5876365073267));
#828=CARTESIAN_POINT('',(3.5446029671803,1.83065280935439,10.8495278806506));
#829=CARTESIAN_POINT('Origin',(3.52989844251505,1.86914866018854,10.6845980579291));
#830=CARTESIAN_POINT('',(3.6830784124038,1.46812969453973,10.7525663300481));
#831=CARTESIAN_POINT('Origin',(4.53594014165785,1.61745259300812,11.4122856209339));
#832=CARTESIAN_POINT('',(4.23587130842203,1.98265353051326,11.2684559627758));
#833=CARTESIAN_POINT('',(4.37434675364553,1.6201304156986,11.1714944121734));
#834=CARTESIAN_POINT('',(4.37434675364553,1.6201304156986,11.1714944121734));
#835=CARTESIAN_POINT('',(4.27880739129619,1.87024860214232,11.7500383802968));
#836=CARTESIAN_POINT('Origin',(4.39746469643435,1.97997570782279,11.5092471715363));
#837=CARTESIAN_POINT('',(4.41728283651969,1.50772548732766,11.6530768296943));
#838=CARTESIAN_POINT('',(4.41728283651969,1.50772548732766,11.6530768296943));
#839=CARTESIAN_POINT('Origin',(4.53594014165785,1.61745259300812,11.4122856209339));
#840=CARTESIAN_POINT('Origin',(3.81541913439106,1.12166703703241,12.236934734541));
#841=CARTESIAN_POINT('',(3.69164821383281,1.44569430101292,12.4988261078649));
#842=CARTESIAN_POINT('Origin',(3.67694368916756,1.48419015184707,12.3338962851435));
#843=CARTESIAN_POINT('',(3.83012365905632,1.08317118619826,12.4018645572625));
#844=CARTESIAN_POINT('Origin',(2.94785288047176,1.01083998939816,11.4122856209339));
#845=CARTESIAN_POINT('',(2.97097082326058,1.37068528152234,11.7500383802968));
#846=CARTESIAN_POINT('',(3.10944626848409,1.00816216670768,11.6530768296943));
#847=CARTESIAN_POINT('',(3.10944626848409,1.00816216670768,11.6530768296943));
#848=CARTESIAN_POINT('',(2.92803474038642,1.48309020989329,11.2684559627758));
#849=CARTESIAN_POINT('Origin',(2.80937743524826,1.37336310421282,11.5092471715363));
#850=CARTESIAN_POINT('',(3.06651018560992,1.12056709507863,11.1714944121734));
#851=CARTESIAN_POINT('',(3.06651018560992,1.12056709507863,11.1714944121734));
#852=CARTESIAN_POINT('Origin',(2.94785288047176,1.01083998939816,11.4122856209339));
#853=CARTESIAN_POINT('Origin',(3.96294757713895,2.69715682033396,12.6420190483484));
#854=CARTESIAN_POINT('',(4.26606898921274,1.90359722357913,9.95702247927413));
#855=CARTESIAN_POINT('',(4.5342103213438,1.20161406130939,12.9645663053709));
#856=CARTESIAN_POINT('',(4.12759354398924,2.26612033839379,10.0539840298766));
#857=CARTESIAN_POINT('',(4.26606898921274,1.90359722357913,9.95702247927413));
#858=CARTESIAN_POINT('',(4.12759354398924,2.26612033839379,10.0539840298766));
#859=CARTESIAN_POINT('Origin',(3.96294757713895,2.69715682033396,12.6420190483484));
#860=CARTESIAN_POINT('',(4.5342103213438,1.20161406130939,12.9645663053709));
#861=CARTESIAN_POINT('',(4.57722598967086,1.08900078144167,14.6846453446815));
#862=CARTESIAN_POINT('',(4.5342103213438,1.20161406130939,12.9645663053709));
#863=CARTESIAN_POINT('',(4.37843543533765,1.60942641239952,12.8674927704187));
#864=CARTESIAN_POINT('',(4.12759354398924,2.26612033839379,10.0539840298766));
#865=CARTESIAN_POINT('',(3.56502522957625,3.73890143187835,14.2637033485833));
#866=CARTESIAN_POINT('',(4.37843543533765,1.60942641239952,12.8674927704187));
#867=CARTESIAN_POINT('',(3.56502522957625,3.73890143187835,14.2637033485833));
#868=CARTESIAN_POINT('Origin',(2.65511100910335,2.19759349971399,12.6420190483484));
#869=CARTESIAN_POINT('',(2.25718866154065,3.23933811125838,14.2637033485833));
#870=CARTESIAN_POINT('',(2.25718866154065,3.23933811125838,14.2637033485833));
#871=CARTESIAN_POINT('',(3.07059886730205,1.10986309177955,12.8674927704187));
#872=CARTESIAN_POINT('',(3.07059886730205,1.10986309177955,12.8674927704187));
#873=CARTESIAN_POINT('',(2.81975697595364,1.76655701777382,10.0539840298766));
#874=CARTESIAN_POINT('',(3.2263737533082,0.70205074068942,12.9645663053709));
#875=CARTESIAN_POINT('',(3.2263737533082,0.70205074068942,12.9645663053709));
#876=CARTESIAN_POINT('',(3.26938942163526,0.589437460821699,14.6846453446815));
#877=CARTESIAN_POINT('Origin',(2.65511100910335,2.19759349971399,12.6420190483484));
#878=CARTESIAN_POINT('',(2.81975697595364,1.76655701777382,10.0539840298766));
#879=CARTESIAN_POINT('',(2.81975697595364,1.76655701777382,10.0539840298766));
#880=CARTESIAN_POINT('',(2.95823242117714,1.40403390295916,9.95702247927413));
#881=CARTESIAN_POINT('',(2.95823242117714,1.40403390295916,9.95702247927413));
#882=CARTESIAN_POINT('',(3.2263737533082,0.70205074068942,12.9645663053709));
#883=CARTESIAN_POINT('Origin',(3.880292037326,0.951832400999406,12.9645663053709));
#884=CARTESIAN_POINT('',(3.880292037326,0.951832400999406,12.9645663053709));
#885=CARTESIAN_POINT('',(3.61215070519494,1.65381556326915,9.95702247927413));
#886=CARTESIAN_POINT('Origin',(3.92330770565306,0.839219121131685,14.6846453446815));
#887=CARTESIAN_POINT('Origin',(2.91110694555845,3.48911977156837,14.2637033485833));
#888=CARTESIAN_POINT('',(2.91110694555845,3.48911977156837,14.2637033485833));
#889=CARTESIAN_POINT('Origin',(3.72451715131985,1.35964475208953,12.8674927704187));
#890=CARTESIAN_POINT('',(3.72451715131985,1.35964475208953,12.8674927704187));
#891=CARTESIAN_POINT('Origin',(3.47367525997144,2.01633867808381,10.0539840298766));
#892=CARTESIAN_POINT('',(3.47367525997144,2.01633867808381,10.0539840298766));
#893=CARTESIAN_POINT('Origin',(3.61215070519494,1.65381556326915,9.95702247927413));
#894=UNCERTAINTY_MEASURE_WITH_UNIT(LENGTH_MEASURE(0.001),#898,
'DISTANCE_ACCURACY_VALUE',
'Maximum model space distance between geometric entities at asserted c
onnectivities');
#895=UNCERTAINTY_MEASURE_WITH_UNIT(LENGTH_MEASURE(0.001),#898,
'DISTANCE_ACCURACY_VALUE',
'Maximum model space distance between geometric entities at asserted c
onnectivities');
#896=(
GEOMETRIC_REPRESENTATION_CONTEXT(3)
GLOBAL_UNCERTAINTY_ASSIGNED_CONTEXT((#894))
GLOBAL_UNIT_ASSIGNED_CONTEXT((#898,#900,#901))
REPRESENTATION_CONTEXT('','3D')
);
#897=(
GEOMETRIC_REPRESENTATION_CONTEXT(3)
GLOBAL_UNCERTAINTY_ASSIGNED_CONTEXT((#895))
GLOBAL_UNIT_ASSIGNED_CONTEXT((#898,#900,#901))
REPRESENTATION_CONTEXT('','3D')
);
#898=(
LENGTH_UNIT()
NAMED_UNIT(*)
SI_UNIT(.CENTI.,.METRE.)
);
#899=(
LENGTH_UNIT()
NAMED_UNIT(*)
SI_UNIT($,.METRE.)
);
#900=(
NAMED_UNIT(*)
PLANE_ANGLE_UNIT()
SI_UNIT($,.RADIAN.)
);
#901=(
NAMED_UNIT(*)
SI_UNIT($,.STERADIAN.)
SOLID_ANGLE_UNIT()
);
#902=SHAPE_DEFINITION_REPRESENTATION(#903,#904);
#903=PRODUCT_DEFINITION_SHAPE('',$,#906);
#904=SHAPE_REPRESENTATION('',(#542),#896);
#905=PRODUCT_DEFINITION_CONTEXT('part definition',#910,'design');
#906=PRODUCT_DEFINITION('2026-09-15-09-20-31-342','MotorMount_v2',#907,
#905);
#907=PRODUCT_DEFINITION_FORMATION('',$,#912);
#908=PRODUCT_RELATED_PRODUCT_CATEGORY('MotorMount_v2','MotorMount_v2',(#912));
#909=APPLICATION_PROTOCOL_DEFINITION('international standard',
'automotive_design',2009,#910);
#910=APPLICATION_CONTEXT(
'Core Data for Automotive Mechanical Design Process');
#911=PRODUCT_CONTEXT('part definition',#910,'mechanical');
#912=PRODUCT('2026-09-15-09-20-31-342','MotorMount_v2',$,(#911));
#913=PRESENTATION_STYLE_ASSIGNMENT((#914));
#914=SURFACE_STYLE_USAGE(.BOTH.,#915);
#915=SURFACE_SIDE_STYLE('',(#916));
#916=SURFACE_STYLE_FILL_AREA(#917);
#917=FILL_AREA_STYLE('\X2\92FC\X0\ - \X2\30B530C630F3\X0\',(#918));
#918=FILL_AREA_STYLE_COLOUR('\X2\92FC\X0\ - \X2\30B530C630F3\X0\',#919);
#919=COLOUR_RGB('\X2\92FC\X0\ - \X2\30B530C630F3\X0\',0.627450980392157,
0.627450980392157,0.627450980392157);
ENDSEC;
END-ISO-10303-21;
