ISO-10303-21;
HEADER;
/* Generated by software containing ST-Developer
 * from STEP Tools, Inc. (www.steptools.com) 
 */

FILE_DESCRIPTION(
/* description */ (''),
/* implementation_level */ '2;1');

FILE_NAME(
/* name */ 'WheelAdapter_v4.step',
/* time_stamp */ '2026-09-19T15:16:57+09:00',
/* author */ (''),
/* organization */ (''),
/* preprocessor_version */ 'ST-DEVELOPER v20.2',
/* originating_system */ 'Autodesk Translation Framework v15.15.0.0',
/* authorisation */ '');

FILE_SCHEMA (('AUTOMOTIVE_DESIGN { 1 0 10303 214 3 1 1 }'));
ENDSEC;

DATA;
#10=MECHANICAL_DESIGN_GEOMETRIC_PRESENTATION_REPRESENTATION('',(#13),#170);
#11=SHAPE_REPRESENTATION_RELATIONSHIP('SRR','None',#177,#12);
#12=ADVANCED_BREP_SHAPE_REPRESENTATION('',(#14),#169);
#13=STYLED_ITEM('',(#186),#14);
#14=MANIFOLD_SOLID_BREP('\X2\30DC30C730A3\X0\1',#90);
#15=FACE_BOUND('',#29,.T.);
#16=FACE_BOUND('',#32,.T.);
#17=FACE_BOUND('',#35,.T.);
#18=PLANE('',#107);
#19=PLANE('',#112);
#20=PLANE('',#115);
#21=FACE_OUTER_BOUND('',#27,.T.);
#22=FACE_OUTER_BOUND('',#28,.T.);
#23=FACE_OUTER_BOUND('',#30,.T.);
#24=FACE_OUTER_BOUND('',#31,.T.);
#25=FACE_OUTER_BOUND('',#33,.T.);
#26=FACE_OUTER_BOUND('',#34,.T.);
#27=EDGE_LOOP('',(#63,#64,#65,#66));
#28=EDGE_LOOP('',(#67));
#29=EDGE_LOOP('',(#68));
#30=EDGE_LOOP('',(#69,#70,#71,#72));
#31=EDGE_LOOP('',(#73));
#32=EDGE_LOOP('',(#74));
#33=EDGE_LOOP('',(#75,#76,#77,#78));
#34=EDGE_LOOP('',(#79));
#35=EDGE_LOOP('',(#80));
#36=LINE('',#150,#39);
#37=LINE('',#159,#40);
#38=LINE('',#165,#41);
#39=VECTOR('',#122,4.);
#40=VECTOR('',#133,2.075);
#41=VECTOR('',#142,5.95);
#42=CIRCLE('',#105,4.);
#43=CIRCLE('',#106,4.0000004533515);
#44=CIRCLE('',#108,5.95000067436035);
#45=CIRCLE('',#110,2.075);
#46=CIRCLE('',#111,2.075);
#47=CIRCLE('',#114,5.95);
#48=VERTEX_POINT('',#147);
#49=VERTEX_POINT('',#149);
#50=VERTEX_POINT('',#153);
#51=VERTEX_POINT('',#156);
#52=VERTEX_POINT('',#158);
#53=VERTEX_POINT('',#163);
#54=EDGE_CURVE('',#48,#48,#42,.T.);
#55=EDGE_CURVE('',#48,#49,#36,.T.);
#56=EDGE_CURVE('',#49,#49,#43,.T.);
#57=EDGE_CURVE('',#50,#50,#44,.T.);
#58=EDGE_CURVE('',#51,#51,#45,.T.);
#59=EDGE_CURVE('',#51,#52,#37,.T.);
#60=EDGE_CURVE('',#52,#52,#46,.T.);
#61=EDGE_CURVE('',#53,#53,#47,.T.);
#62=EDGE_CURVE('',#53,#50,#38,.T.);
#63=ORIENTED_EDGE('',*,*,#54,.T.);
#64=ORIENTED_EDGE('',*,*,#55,.T.);
#65=ORIENTED_EDGE('',*,*,#56,.F.);
#66=ORIENTED_EDGE('',*,*,#55,.F.);
#67=ORIENTED_EDGE('',*,*,#57,.F.);
#68=ORIENTED_EDGE('',*,*,#54,.F.);
#69=ORIENTED_EDGE('',*,*,#58,.F.);
#70=ORIENTED_EDGE('',*,*,#59,.T.);
#71=ORIENTED_EDGE('',*,*,#60,.F.);
#72=ORIENTED_EDGE('',*,*,#59,.F.);
#73=ORIENTED_EDGE('',*,*,#56,.T.);
#74=ORIENTED_EDGE('',*,*,#58,.T.);
#75=ORIENTED_EDGE('',*,*,#61,.F.);
#76=ORIENTED_EDGE('',*,*,#62,.T.);
#77=ORIENTED_EDGE('',*,*,#57,.T.);
#78=ORIENTED_EDGE('',*,*,#62,.F.);
#79=ORIENTED_EDGE('',*,*,#61,.T.);
#80=ORIENTED_EDGE('',*,*,#60,.T.);
#81=CYLINDRICAL_SURFACE('',#104,4.);
#82=CYLINDRICAL_SURFACE('',#109,2.075);
#83=CYLINDRICAL_SURFACE('',#113,5.95);
#84=ADVANCED_FACE('',(#21),#81,.T.);
#85=ADVANCED_FACE('',(#22,#15),#18,.F.);
#86=ADVANCED_FACE('',(#23),#82,.F.);
#87=ADVANCED_FACE('',(#24,#16),#19,.F.);
#88=ADVANCED_FACE('',(#25),#83,.T.);
#89=ADVANCED_FACE('',(#26,#17),#20,.T.);
#90=CLOSED_SHELL('',(#84,#85,#86,#87,#88,#89));
#91=DERIVED_UNIT_ELEMENT(#93,1.);
#92=DERIVED_UNIT_ELEMENT(#172,-3.);
#93=(
MASS_UNIT()
NAMED_UNIT(*)
SI_UNIT(.KILO.,.GRAM.)
);
#94=DERIVED_UNIT((#91,#92));
#95=MEASURE_REPRESENTATION_ITEM('density measure',
POSITIVE_RATIO_MEASURE(7850.),#94);
#96=PROPERTY_DEFINITION_REPRESENTATION(#101,#98);
#97=PROPERTY_DEFINITION_REPRESENTATION(#102,#99);
#98=REPRESENTATION('material name',(#100),#169);
#99=REPRESENTATION('density',(#95),#169);
#100=DESCRIPTIVE_REPRESENTATION_ITEM('\X2\92FC\X0\','\X2\92FC\X0\');
#101=PROPERTY_DEFINITION('material property','material name',#179);
#102=PROPERTY_DEFINITION('material property','density of part',#179);
#103=AXIS2_PLACEMENT_3D('',#145,#116,#117);
#104=AXIS2_PLACEMENT_3D('',#146,#118,#119);
#105=AXIS2_PLACEMENT_3D('',#148,#120,#121);
#106=AXIS2_PLACEMENT_3D('',#151,#123,#124);
#107=AXIS2_PLACEMENT_3D('',#152,#125,#126);
#108=AXIS2_PLACEMENT_3D('',#154,#127,#128);
#109=AXIS2_PLACEMENT_3D('',#155,#129,#130);
#110=AXIS2_PLACEMENT_3D('',#157,#131,#132);
#111=AXIS2_PLACEMENT_3D('',#160,#134,#135);
#112=AXIS2_PLACEMENT_3D('',#161,#136,#137);
#113=AXIS2_PLACEMENT_3D('',#162,#138,#139);
#114=AXIS2_PLACEMENT_3D('',#164,#140,#141);
#115=AXIS2_PLACEMENT_3D('',#166,#143,#144);
#116=DIRECTION('axis',(0.,0.,1.));
#117=DIRECTION('refdir',(1.,0.,0.));
#118=DIRECTION('center_axis',(-0.906106473766369,0.,0.423049711261781));
#119=DIRECTION('ref_axis',(0.423049711261781,0.,0.906106473766369));
#120=DIRECTION('center_axis',(0.906106473766368,0.,-0.423049711261783));
#121=DIRECTION('ref_axis',(0.423049711261781,0.,0.906106473766369));
#122=DIRECTION('',(0.906106473766369,0.,-0.423049711261781));
#123=DIRECTION('center_axis',(0.90630778703665,0.,-0.422618261740699));
#124=DIRECTION('ref_axis',(0.422618261740699,0.,0.90630778703665));
#125=DIRECTION('center_axis',(-0.906106473766368,0.,0.423049711261783));
#126=DIRECTION('ref_axis',(0.423049711261783,0.,0.906106473766368));
#127=DIRECTION('center_axis',(-0.906106473766368,0.,0.423049711261783));
#128=DIRECTION('ref_axis',(0.423049711261783,0.,0.906106473766368));
#129=DIRECTION('center_axis',(-0.90630778703665,0.,0.422618261740699));
#130=DIRECTION('ref_axis',(0.,-1.,0.));
#131=DIRECTION('center_axis',(-0.90630778703665,0.,0.422618261740699));
#132=DIRECTION('ref_axis',(0.,-1.,0.));
#133=DIRECTION('',(-0.90630778703665,0.,0.422618261740699));
#134=DIRECTION('center_axis',(0.90630778703665,0.,-0.422618261740699));
#135=DIRECTION('ref_axis',(0.,-1.,0.));
#136=DIRECTION('center_axis',(-0.90630778703665,0.,0.422618261740699));
#137=DIRECTION('ref_axis',(0.,-1.,0.));
#138=DIRECTION('center_axis',(-0.90630778703665,0.,0.422618261740699));
#139=DIRECTION('ref_axis',(0.,-1.,0.));
#140=DIRECTION('center_axis',(-0.90630778703665,0.,0.422618261740699));
#141=DIRECTION('ref_axis',(0.,-1.,0.));
#142=DIRECTION('',(0.90630778703665,0.,-0.422618261740699));
#143=DIRECTION('center_axis',(-0.90630778703665,0.,0.422618261740699));
#144=DIRECTION('ref_axis',(0.,-1.,0.));
#145=CARTESIAN_POINT('',(0.,0.,0.));
#146=CARTESIAN_POINT('Origin',(40.783,0.,112.6285));
#147=CARTESIAN_POINT('',(36.8258011549529,4.89858719658941E-16,110.061574104935));
#148=CARTESIAN_POINT('Origin',(38.518,0.,113.686));
#149=CARTESIAN_POINT('',(40.8605536384013,4.89858719658941E-16,108.177798938821));
#150=CARTESIAN_POINT('',(39.0908011549529,-4.89858719658941E-16,109.004074104935));
#151=CARTESIAN_POINT('Origin',(42.5510268769588,0.,111.803030497844));
#152=CARTESIAN_POINT('Origin',(38.518,0.,113.686));
#153=CARTESIAN_POINT('',(38.5196111385721,5.95,113.689450807438));
#154=CARTESIAN_POINT('Origin',(38.5196111385721,0.,113.689450807438));
#155=CARTESIAN_POINT('Origin',(31.27,0.,117.07));
#156=CARTESIAN_POINT('',(42.5535319486063,2.075,111.808402641328));
#157=CARTESIAN_POINT('Origin',(42.5535319486063,0.,111.808402641328));
#158=CARTESIAN_POINT('',(19.9864680513937,2.075,122.331597358672));
#159=CARTESIAN_POINT('',(31.27,2.075,117.07));
#160=CARTESIAN_POINT('Origin',(19.9864680513937,0.,122.331597358672));
#161=CARTESIAN_POINT('Origin',(42.5535319486063,0.,111.808402641328));
#162=CARTESIAN_POINT('Origin',(31.27,0.,117.07));
#163=CARTESIAN_POINT('',(19.9864680513937,5.95,122.331597358672));
#164=CARTESIAN_POINT('Origin',(19.9864680513937,0.,122.331597358672));
#165=CARTESIAN_POINT('',(31.27,5.95,117.07));
#166=CARTESIAN_POINT('Origin',(19.9864680513937,0.,122.331597358672));
#167=UNCERTAINTY_MEASURE_WITH_UNIT(LENGTH_MEASURE(0.01),#171,
'DISTANCE_ACCURACY_VALUE',
'Maximum model space distance between geometric entities at asserted c
onnectivities');
#168=UNCERTAINTY_MEASURE_WITH_UNIT(LENGTH_MEASURE(0.01),#171,
'DISTANCE_ACCURACY_VALUE',
'Maximum model space distance between geometric entities at asserted c
onnectivities');
#169=(
GEOMETRIC_REPRESENTATION_CONTEXT(3)
GLOBAL_UNCERTAINTY_ASSIGNED_CONTEXT((#167))
GLOBAL_UNIT_ASSIGNED_CONTEXT((#171,#173,#174))
REPRESENTATION_CONTEXT('','3D')
);
#170=(
GEOMETRIC_REPRESENTATION_CONTEXT(3)
GLOBAL_UNCERTAINTY_ASSIGNED_CONTEXT((#168))
GLOBAL_UNIT_ASSIGNED_CONTEXT((#171,#173,#174))
REPRESENTATION_CONTEXT('','3D')
);
#171=(
LENGTH_UNIT()
NAMED_UNIT(*)
SI_UNIT(.MILLI.,.METRE.)
);
#172=(
LENGTH_UNIT()
NAMED_UNIT(*)
SI_UNIT($,.METRE.)
);
#173=(
NAMED_UNIT(*)
PLANE_ANGLE_UNIT()
SI_UNIT($,.RADIAN.)
);
#174=(
NAMED_UNIT(*)
SI_UNIT($,.STERADIAN.)
SOLID_ANGLE_UNIT()
);
#175=SHAPE_DEFINITION_REPRESENTATION(#176,#177);
#176=PRODUCT_DEFINITION_SHAPE('',$,#179);
#177=SHAPE_REPRESENTATION('',(#103),#169);
#178=PRODUCT_DEFINITION_CONTEXT('part definition',#183,'design');
#179=PRODUCT_DEFINITION('2026-09-19-15-16-57-623','(\X2\672A4FDD5B58\X0\)',
#180,#178);
#180=PRODUCT_DEFINITION_FORMATION('',$,#185);
#181=PRODUCT_RELATED_PRODUCT_CATEGORY('(\X2\672A4FDD5B58\X0\)',
'(\X2\672A4FDD5B58\X0\)',(#185));
#182=APPLICATION_PROTOCOL_DEFINITION('international standard',
'automotive_design',2009,#183);
#183=APPLICATION_CONTEXT(
'Core Data for Automotive Mechanical Design Process');
#184=PRODUCT_CONTEXT('part definition',#183,'mechanical');
#185=PRODUCT('2026-09-19-15-16-57-623','(\X2\672A4FDD5B58\X0\)',$,(#184));
#186=PRESENTATION_STYLE_ASSIGNMENT((#187));
#187=SURFACE_STYLE_USAGE(.BOTH.,#188);
#188=SURFACE_SIDE_STYLE('',(#189));
#189=SURFACE_STYLE_FILL_AREA(#190);
#190=FILL_AREA_STYLE('\X2\92FC\X0\ - \X2\30B530C630F3\X0\',(#191));
#191=FILL_AREA_STYLE_COLOUR('\X2\92FC\X0\ - \X2\30B530C630F3\X0\',#192);
#192=COLOUR_RGB('\X2\92FC\X0\ - \X2\30B530C630F3\X0\',0.627450980392157,
0.627450980392157,0.627450980392157);
ENDSEC;
END-ISO-10303-21;
