ISO-10303-21;
HEADER;
/* Generated by software containing ST-Developer
 * from STEP Tools, Inc. (www.steptools.com) 
 */

FILE_DESCRIPTION(
/* description */ (''),
/* implementation_level */ '2;1');

FILE_NAME(
/* name */ 'WheelAdapter_v2.step',
/* time_stamp */ '2026-09-15T09:20:31+09:00',
/* author */ (''),
/* organization */ (''),
/* preprocessor_version */ 'ST-DEVELOPER v20.2',
/* originating_system */ 'Autodesk Translation Framework v15.15.0.0',
/* authorisation */ '');

FILE_SCHEMA (('AUTOMOTIVE_DESIGN { 1 0 10303 214 3 1 1 }'));
ENDSEC;

DATA;
#10=MECHANICAL_DESIGN_GEOMETRIC_PRESENTATION_REPRESENTATION('',(#13),#184);
#11=SHAPE_REPRESENTATION_RELATIONSHIP('SRR','None',#191,#12);
#12=ADVANCED_BREP_SHAPE_REPRESENTATION('',(#96),#183);
#13=STYLED_ITEM('',(#200),#96);
#14=ORIENTED_CLOSED_SHELL('',*,#95,.F.);
#15=FACE_BOUND('',#34,.T.);
#16=PLANE('',#113);
#17=PLANE('',#114);
#18=PLANE('',#118);
#19=PLANE('',#119);
#20=PLANE('',#123);
#21=FACE_OUTER_BOUND('',#29,.T.);
#22=FACE_OUTER_BOUND('',#30,.T.);
#23=FACE_OUTER_BOUND('',#31,.T.);
#24=FACE_OUTER_BOUND('',#32,.T.);
#25=FACE_OUTER_BOUND('',#33,.T.);
#26=FACE_OUTER_BOUND('',#35,.T.);
#27=FACE_OUTER_BOUND('',#36,.T.);
#28=FACE_OUTER_BOUND('',#37,.T.);
#29=EDGE_LOOP('',(#65,#66,#67,#68));
#30=EDGE_LOOP('',(#69));
#31=EDGE_LOOP('',(#70));
#32=EDGE_LOOP('',(#71,#72,#73,#74));
#33=EDGE_LOOP('',(#75));
#34=EDGE_LOOP('',(#76));
#35=EDGE_LOOP('',(#77));
#36=EDGE_LOOP('',(#78,#79,#80,#81));
#37=EDGE_LOOP('',(#82));
#38=LINE('',#162,#41);
#39=LINE('',#171,#42);
#40=LINE('',#178,#43);
#41=VECTOR('',#130,0.42);
#42=VECTOR('',#143,0.595);
#43=VECTOR('',#152,0.2075);
#44=CIRCLE('',#111,0.42);
#45=CIRCLE('',#112,0.42);
#46=CIRCLE('',#115,0.595);
#47=CIRCLE('',#117,0.595);
#48=CIRCLE('',#120,0.2075);
#49=CIRCLE('',#122,0.2075);
#50=VERTEX_POINT('',#159);
#51=VERTEX_POINT('',#161);
#52=VERTEX_POINT('',#166);
#53=VERTEX_POINT('',#169);
#54=VERTEX_POINT('',#174);
#55=VERTEX_POINT('',#177);
#56=EDGE_CURVE('',#50,#50,#44,.T.);
#57=EDGE_CURVE('',#50,#51,#38,.T.);
#58=EDGE_CURVE('',#51,#51,#45,.T.);
#59=EDGE_CURVE('',#52,#52,#46,.T.);
#60=EDGE_CURVE('',#53,#53,#47,.T.);
#61=EDGE_CURVE('',#53,#52,#39,.T.);
#62=EDGE_CURVE('',#54,#54,#48,.T.);
#63=EDGE_CURVE('',#54,#55,#40,.T.);
#64=EDGE_CURVE('',#55,#55,#49,.T.);
#65=ORIENTED_EDGE('',*,*,#56,.F.);
#66=ORIENTED_EDGE('',*,*,#57,.T.);
#67=ORIENTED_EDGE('',*,*,#58,.F.);
#68=ORIENTED_EDGE('',*,*,#57,.F.);
#69=ORIENTED_EDGE('',*,*,#56,.T.);
#70=ORIENTED_EDGE('',*,*,#59,.T.);
#71=ORIENTED_EDGE('',*,*,#60,.F.);
#72=ORIENTED_EDGE('',*,*,#61,.T.);
#73=ORIENTED_EDGE('',*,*,#59,.F.);
#74=ORIENTED_EDGE('',*,*,#61,.F.);
#75=ORIENTED_EDGE('',*,*,#60,.T.);
#76=ORIENTED_EDGE('',*,*,#58,.T.);
#77=ORIENTED_EDGE('',*,*,#62,.F.);
#78=ORIENTED_EDGE('',*,*,#62,.T.);
#79=ORIENTED_EDGE('',*,*,#63,.T.);
#80=ORIENTED_EDGE('',*,*,#64,.T.);
#81=ORIENTED_EDGE('',*,*,#63,.F.);
#82=ORIENTED_EDGE('',*,*,#64,.F.);
#83=CYLINDRICAL_SURFACE('',#110,0.42);
#84=CYLINDRICAL_SURFACE('',#116,0.595);
#85=CYLINDRICAL_SURFACE('',#121,0.2075);
#86=ADVANCED_FACE('',(#21),#83,.T.);
#87=ADVANCED_FACE('',(#22),#16,.T.);
#88=ADVANCED_FACE('',(#23),#17,.F.);
#89=ADVANCED_FACE('',(#24),#84,.T.);
#90=ADVANCED_FACE('',(#25,#15),#18,.T.);
#91=ADVANCED_FACE('',(#26),#19,.T.);
#92=ADVANCED_FACE('',(#27),#85,.F.);
#93=ADVANCED_FACE('',(#28),#20,.F.);
#94=CLOSED_SHELL('',(#86,#87,#88,#89,#90));
#95=CLOSED_SHELL('',(#91,#92,#93));
#96=BREP_WITH_VOIDS('WheelAdapter_v2',#94,(#14));
#97=DERIVED_UNIT_ELEMENT(#99,1.);
#98=DERIVED_UNIT_ELEMENT(#186,-3.);
#99=(
MASS_UNIT()
NAMED_UNIT(*)
SI_UNIT(.KILO.,.GRAM.)
);
#100=DERIVED_UNIT((#97,#98));
#101=MEASURE_REPRESENTATION_ITEM('density measure',
POSITIVE_RATIO_MEASURE(7850.),#100);
#102=PROPERTY_DEFINITION_REPRESENTATION(#107,#104);
#103=PROPERTY_DEFINITION_REPRESENTATION(#108,#105);
#104=REPRESENTATION('material name',(#106),#183);
#105=REPRESENTATION('density',(#101),#183);
#106=DESCRIPTIVE_REPRESENTATION_ITEM('\X2\92FC\X0\','\X2\92FC\X0\');
#107=PROPERTY_DEFINITION('material property','material name',#193);
#108=PROPERTY_DEFINITION('material property','density of part',#193);
#109=AXIS2_PLACEMENT_3D('',#157,#124,#125);
#110=AXIS2_PLACEMENT_3D('',#158,#126,#127);
#111=AXIS2_PLACEMENT_3D('',#160,#128,#129);
#112=AXIS2_PLACEMENT_3D('',#163,#131,#132);
#113=AXIS2_PLACEMENT_3D('',#164,#133,#134);
#114=AXIS2_PLACEMENT_3D('',#165,#135,#136);
#115=AXIS2_PLACEMENT_3D('',#167,#137,#138);
#116=AXIS2_PLACEMENT_3D('',#168,#139,#140);
#117=AXIS2_PLACEMENT_3D('',#170,#141,#142);
#118=AXIS2_PLACEMENT_3D('',#172,#144,#145);
#119=AXIS2_PLACEMENT_3D('',#173,#146,#147);
#120=AXIS2_PLACEMENT_3D('',#175,#148,#149);
#121=AXIS2_PLACEMENT_3D('',#176,#150,#151);
#122=AXIS2_PLACEMENT_3D('',#179,#153,#154);
#123=AXIS2_PLACEMENT_3D('',#180,#155,#156);
#124=DIRECTION('axis',(0.,0.,1.));
#125=DIRECTION('refdir',(1.,0.,0.));
#126=DIRECTION('center_axis',(-0.346188613058754,0.90630778703665,0.242403876506104));
#127=DIRECTION('ref_axis',(-0.934168977168289,-0.35683094329998,0.));
#128=DIRECTION('center_axis',(-0.346188613058754,0.90630778703665,0.242403876506104));
#129=DIRECTION('ref_axis',(-0.934168977168289,-0.35683094329998,0.));
#130=DIRECTION('',(0.346188613058754,-0.90630778703665,-0.242403876506104));
#131=DIRECTION('center_axis',(0.346188613058754,-0.90630778703665,-0.242403876506104));
#132=DIRECTION('ref_axis',(-0.934168977168289,-0.35683094329998,0.));
#133=DIRECTION('center_axis',(-0.346188613058754,0.90630778703665,0.242403876506104));
#134=DIRECTION('ref_axis',(-0.934168977168289,-0.35683094329998,0.));
#135=DIRECTION('center_axis',(-0.346188613058754,0.90630778703665,0.242403876506104));
#136=DIRECTION('ref_axis',(-0.934168977168289,-0.35683094329998,0.));
#137=DIRECTION('center_axis',(0.346188613058754,-0.90630778703665,-0.242403876506104));
#138=DIRECTION('ref_axis',(-0.934168977168289,-0.35683094329998,0.));
#139=DIRECTION('center_axis',(-0.346188613058754,0.90630778703665,0.242403876506104));
#140=DIRECTION('ref_axis',(-0.934168977168289,-0.35683094329998,0.));
#141=DIRECTION('center_axis',(-0.346188613058754,0.90630778703665,0.242403876506104));
#142=DIRECTION('ref_axis',(-0.934168977168289,-0.35683094329998,0.));
#143=DIRECTION('',(0.346188613058754,-0.90630778703665,-0.242403876506104));
#144=DIRECTION('center_axis',(-0.346188613058754,0.90630778703665,0.242403876506104));
#145=DIRECTION('ref_axis',(-0.934168977168289,-0.35683094329998,0.));
#146=DIRECTION('center_axis',(-0.346188613058754,0.90630778703665,0.242403876506104));
#147=DIRECTION('ref_axis',(-0.934168977168289,-0.35683094329998,0.));
#148=DIRECTION('center_axis',(0.346188613058754,-0.90630778703665,-0.242403876506104));
#149=DIRECTION('ref_axis',(-0.934168977168289,-0.35683094329998,0.));
#150=DIRECTION('center_axis',(-0.346188613058754,0.90630778703665,0.242403876506104));
#151=DIRECTION('ref_axis',(-0.934168977168289,-0.35683094329998,0.));
#152=DIRECTION('',(-0.346188613058754,0.90630778703665,0.242403876506104));
#153=DIRECTION('center_axis',(-0.346188613058754,0.90630778703665,0.242403876506104));
#154=DIRECTION('ref_axis',(-0.934168977168289,-0.35683094329998,0.));
#155=DIRECTION('center_axis',(-0.346188613058754,0.90630778703665,0.242403876506104));
#156=DIRECTION('ref_axis',(-0.934168977168289,-0.35683094329998,0.));
#157=CARTESIAN_POINT('',(0.,0.,0.));
#158=CARTESIAN_POINT('Origin',(3.80940329061126,1.137416272731,11.3650168650152));
#159=CARTESIAN_POINT('',(4.09789767710432,1.55917760502798,11.437738027967));
#160=CARTESIAN_POINT('Origin',(3.70554670669364,1.40930860884199,11.437738027967));
#161=CARTESIAN_POINT('',(4.20175426102194,1.28728526891699,11.3650168650152));
#162=CARTESIAN_POINT('',(4.20175426102194,1.28728526891699,11.3650168650152));
#163=CARTESIAN_POINT('Origin',(3.80940329061126,1.137416272731,11.3650168650152));
#164=CARTESIAN_POINT('Origin',(3.70554670669364,1.40930860884199,11.437738027967));
#165=CARTESIAN_POINT('Origin',(4.67833670938874,-1.137416272731,10.7565831349848));
#166=CARTESIAN_POINT('',(5.23416725080387,-0.925101861467508,10.7565831349848));
#167=CARTESIAN_POINT('Origin',(4.67833670938874,-1.137416272731,10.7565831349848));
#168=CARTESIAN_POINT('Origin',(4.24387,0.,11.0608));
#169=CARTESIAN_POINT('',(4.3652338320264,1.34973068399448,11.3650168650152));
#170=CARTESIAN_POINT('Origin',(3.80940329061126,1.137416272731,11.3650168650152));
#171=CARTESIAN_POINT('',(4.79970054141513,0.212314411263488,11.0608));
#172=CARTESIAN_POINT('Origin',(3.80940329061126,1.137416272731,11.3650168650152));
#173=CARTESIAN_POINT('Origin',(4.59005861305875,-0.90630778703665,10.8183961234939));
#174=CARTESIAN_POINT('',(4.78389867582117,-0.832265366301904,10.8183961234939));
#175=CARTESIAN_POINT('Origin',(4.59005861305875,-0.90630778703665,10.8183961234939));
#176=CARTESIAN_POINT('Origin',(4.24387,0.,11.0608));
#177=CARTESIAN_POINT('',(4.09152144970367,0.980350207771396,11.3032038765061));
#178=CARTESIAN_POINT('',(4.43771006276242,0.0740424207347458,11.0608));
#179=CARTESIAN_POINT('Origin',(3.89768138694125,0.90630778703665,11.3032038765061));
#180=CARTESIAN_POINT('Origin',(3.89768138694125,0.90630778703665,11.3032038765061));
#181=UNCERTAINTY_MEASURE_WITH_UNIT(LENGTH_MEASURE(0.001),#185,
'DISTANCE_ACCURACY_VALUE',
'Maximum model space distance between geometric entities at asserted c
onnectivities');
#182=UNCERTAINTY_MEASURE_WITH_UNIT(LENGTH_MEASURE(0.001),#185,
'DISTANCE_ACCURACY_VALUE',
'Maximum model space distance between geometric entities at asserted c
onnectivities');
#183=(
GEOMETRIC_REPRESENTATION_CONTEXT(3)
GLOBAL_UNCERTAINTY_ASSIGNED_CONTEXT((#181))
GLOBAL_UNIT_ASSIGNED_CONTEXT((#185,#187,#188))
REPRESENTATION_CONTEXT('','3D')
);
#184=(
GEOMETRIC_REPRESENTATION_CONTEXT(3)
GLOBAL_UNCERTAINTY_ASSIGNED_CONTEXT((#182))
GLOBAL_UNIT_ASSIGNED_CONTEXT((#185,#187,#188))
REPRESENTATION_CONTEXT('','3D')
);
#185=(
LENGTH_UNIT()
NAMED_UNIT(*)
SI_UNIT(.CENTI.,.METRE.)
);
#186=(
LENGTH_UNIT()
NAMED_UNIT(*)
SI_UNIT($,.METRE.)
);
#187=(
NAMED_UNIT(*)
PLANE_ANGLE_UNIT()
SI_UNIT($,.RADIAN.)
);
#188=(
NAMED_UNIT(*)
SI_UNIT($,.STERADIAN.)
SOLID_ANGLE_UNIT()
);
#189=SHAPE_DEFINITION_REPRESENTATION(#190,#191);
#190=PRODUCT_DEFINITION_SHAPE('',$,#193);
#191=SHAPE_REPRESENTATION('',(#109),#183);
#192=PRODUCT_DEFINITION_CONTEXT('part definition',#197,'design');
#193=PRODUCT_DEFINITION('2026-09-15-09-20-31-728','WheelAdapter_v2',#194,
#192);
#194=PRODUCT_DEFINITION_FORMATION('',$,#199);
#195=PRODUCT_RELATED_PRODUCT_CATEGORY('WheelAdapter_v2',
'WheelAdapter_v2',(#199));
#196=APPLICATION_PROTOCOL_DEFINITION('international standard',
'automotive_design',2009,#197);
#197=APPLICATION_CONTEXT(
'Core Data for Automotive Mechanical Design Process');
#198=PRODUCT_CONTEXT('part definition',#197,'mechanical');
#199=PRODUCT('2026-09-15-09-20-31-728','WheelAdapter_v2',$,(#198));
#200=PRESENTATION_STYLE_ASSIGNMENT((#201));
#201=SURFACE_STYLE_USAGE(.BOTH.,#202);
#202=SURFACE_SIDE_STYLE('',(#203));
#203=SURFACE_STYLE_FILL_AREA(#204);
#204=FILL_AREA_STYLE('\X2\92FC\X0\ - \X2\30B530C630F3\X0\',(#205));
#205=FILL_AREA_STYLE_COLOUR('\X2\92FC\X0\ - \X2\30B530C630F3\X0\',#206);
#206=COLOUR_RGB('\X2\92FC\X0\ - \X2\30B530C630F3\X0\',0.627450980392157,
0.627450980392157,0.627450980392157);
ENDSEC;
END-ISO-10303-21;
